<svg width="435" height="358" viewBox="0 0 435 358" fill="none" xmlns="http://www.w3.org/2000/svg">
<path d="M70.6047 357.31C58.5047 357.51 46.6047 356.11 35.2047 352.21C28.3047 349.91 21.9047 346.71 16.5047 341.71C13.7047 339.11 11.4047 336.21 9.70474 332.81C8.00474 329.31 6.40474 325.91 4.70474 322.41C2.30474 317.41 1.00474 312.11 0.604743 306.71C0.204743 301.61 -0.195257 296.51 0.104743 291.41C0.604743 282.41 2.70474 273.71 6.00474 265.31C8.30474 259.41 11.4047 253.91 14.7047 248.51C17.0047 244.71 19.3047 241.01 21.6047 237.21C28.2047 226.11 37.1047 217.11 47.2047 209.21C56.1047 202.21 65.7047 196.31 75.2047 190.31C101.205 174.21 127.105 158.11 153.205 142.21C174.805 129.01 195.205 114.11 214.205 97.31C227.905 85.11 241.505 72.91 255.205 60.71C267.005 50.21 279.205 40.01 292.405 31.21C307.205 21.41 322.505 12.61 339.005 6.20998C347.305 2.90998 355.805 0.609978 364.805 0.109978C373.505 -0.390022 381.905 0.809978 390.005 3.80998C400.005 7.40998 407.205 14.41 412.905 23.01C419.405 32.71 424.305 43.11 428.005 54.21C432.905 69.01 434.705 84.31 434.705 99.81C434.705 108.51 432.705 116.91 429.905 125.21C426.505 135.51 421.705 145.11 415.805 154.21C404.105 172.21 389.905 188.01 373.605 202.11C359.405 214.31 344.105 224.81 327.905 234.01C310.505 243.81 292.705 253.01 274.905 261.91C256.205 271.31 237.605 280.91 219.505 291.61C199.105 303.61 178.505 315.31 158.105 327.21C154.805 329.11 151.505 331.21 148.305 333.21C136.905 340.11 125.205 346.31 112.505 350.41C103.205 353.41 93.8047 355.91 84.0047 356.61C79.4047 357.01 75.0047 357.11 70.6047 357.31Z" fill="black"/>
<mask id="mask0" mask-type="alpha" maskUnits="userSpaceOnUse" x="0" y="0" width="435" height="358">
<path d="M70.6047 357.31C58.5047 357.51 46.6047 356.11 35.2047 352.21C28.3047 349.91 21.9047 346.71 16.5047 341.71C13.7047 339.11 11.4047 336.21 9.70474 332.81C8.00474 329.31 6.40474 325.91 4.70474 322.41C2.30474 317.41 1.00474 312.11 0.604743 306.71C0.204743 301.61 -0.195257 296.51 0.104743 291.41C0.604743 282.41 2.70474 273.71 6.00474 265.31C8.30474 259.41 11.4047 253.91 14.7047 248.51C17.0047 244.71 19.3047 241.01 21.6047 237.21C28.2047 226.11 37.1047 217.11 47.2047 209.21C56.1047 202.21 65.7047 196.31 75.2047 190.31C101.205 174.21 127.105 158.11 153.205 142.21C174.805 129.01 195.205 114.11 214.205 97.31C227.905 85.11 241.505 72.91 255.205 60.71C267.005 50.21 279.205 40.01 292.405 31.21C307.205 21.41 322.505 12.61 339.005 6.20998C347.305 2.90998 355.805 0.609978 364.805 0.109978C373.505 -0.390022 381.905 0.809978 390.005 3.80998C400.005 7.40998 407.205 14.41 412.905 23.01C419.405 32.71 424.305 43.11 428.005 54.21C432.905 69.01 434.705 84.31 434.705 99.81C434.705 108.51 432.705 116.91 429.905 125.21C426.505 135.51 421.705 145.11 415.805 154.21C404.105 172.21 389.905 188.01 373.605 202.11C359.405 214.31 344.105 224.81 327.905 234.01C310.505 243.81 292.705 253.01 274.905 261.91C256.205 271.31 237.605 280.91 219.505 291.61C199.105 303.61 178.505 315.31 158.105 327.21C154.805 329.11 151.505 331.21 148.305 333.21C136.905 340.11 125.205 346.31 112.505 350.41C103.205 353.41 93.8047 355.91 84.0047 356.61C79.4047 357.01 75.0047 357.11 70.6047 357.31Z" fill="black"/>
</mask>
<g mask="url(#mask0)">
<path d="M501.305 116.91C499.805 117.01 498.705 117.21 497.605 117.11C493.705 117.01 489.805 116.81 485.905 116.71C464.005 116.41 442.505 119.31 421.605 125.61C392.305 134.51 363.905 145.71 337.705 161.81C296.105 187.51 260.105 219.41 231.105 259.01C212.105 285.01 194.105 311.81 177.205 339.21C162.205 363.41 146.305 387.01 128.705 409.41C123.905 415.61 119.005 421.71 113.305 427.11C110.605 429.71 107.605 432.01 104.605 434.21C103.105 435.31 101.205 436.11 99.4048 436.71C94.9048 438.11 91.0048 436.61 89.0048 432.31C87.9048 430.01 87.1048 427.31 86.8048 424.81C86.3048 420.91 86.1048 417.01 86.3048 413.11C88.5048 381.01 96.0048 350.11 109.505 320.81C117.805 302.81 128.405 286.11 140.105 270.11C160.205 242.61 183.505 218.11 209.005 195.61C242.605 165.91 279.905 141.81 320.205 122.31C341.905 111.81 363.705 101.81 385.505 91.51C401.805 83.81 417.905 75.81 433.205 66.41C445.105 59.11 456.405 51.01 466.305 41.11C470.405 37.01 474.305 32.61 477.505 27.71C480.405 23.31 482.805 18.61 483.705 13.31C484.205 10.31 484.205 7.31 483.005 4.31C481.905 1.41 479.905 -0.689995 477.105 -1.99C474.405 -3.29 471.505 -3.79 468.505 -3.99C459.505 -4.39 450.905 -2.49 442.505 0.610001C431.005 4.91 420.305 10.81 409.705 16.91C388.705 29.01 368.705 42.71 349.305 57.31C326.405 74.61 302.805 90.71 278.405 105.71C265.105 113.91 252.005 122.31 238.705 130.41C209.705 148.11 183.405 169.21 159.705 193.71C139.405 214.71 120.905 237.11 103.805 260.71C94.5048 273.41 85.6048 286.41 76.6048 299.41C60.9048 321.91 44.7048 344.11 26.9048 365.01C16.3048 377.51 5.10476 389.51 -7.49524 400.11C-15.8952 407.21 -24.6952 413.71 -34.3952 418.81C-37.9952 420.71 -41.5952 422.31 -45.5952 423.11C-48.2952 423.61 -50.9952 423.81 -53.6952 423.21C-58.0952 422.21 -61.3952 419.71 -63.5952 415.91C-65.8952 412.01 -66.7952 407.71 -66.9952 403.31C-67.3952 395.11 -65.3952 387.31 -62.3952 379.71C-58.7952 370.41 -53.6952 361.91 -47.9952 353.81C-40.9952 343.91 -33.0952 334.81 -24.4952 326.31C6.00476 296.11 34.7048 264.31 62.7048 231.81C81.6048 210.01 101.805 189.51 123.805 170.91C143.305 154.41 164.205 139.71 185.605 125.91C225.005 100.61 265.305 77.01 306.805 55.31C326.505 45.01 345.905 34.21 364.605 22.21C376.505 14.51 388.105 6.41 398.705 -3.09C404.405 -8.18999 409.605 -13.69 414.105 -19.79C419.405 -26.99 423.505 -34.79 425.805 -43.49C427.405 -49.69 427.505 -55.79 425.605 -61.99C423.205 -70.99 417.105 -75.99 408.005 -76.89C400.605 -77.69 393.505 -76.39 386.605 -73.69C378.105 -70.39 370.605 -65.39 363.405 -59.79C353.605 -52.19 344.605 -43.69 335.705 -34.99C319.405 -19.09 304.205 -2.09 289.005 14.91C279.305 25.71 269.605 36.61 259.705 47.31C241.405 66.81 221.405 84.51 200.405 101.11C171.005 124.31 140.905 146.51 110.305 168.11C96.6048 177.81 82.0048 186.11 67.4048 194.51C54.0048 202.31 40.5048 210.01 27.7048 218.81C15.6048 227.21 4.10476 236.41 -5.69524 247.51C-14.5952 257.51 -22.0952 268.51 -26.9952 281.11C-29.2952 286.91 -30.9952 292.91 -31.1952 299.21C-31.2952 302.41 -30.9952 305.61 -29.9952 308.71C-29.3952 310.51 -28.4952 312.11 -26.4952 313.01C-26.9952 313.01 -27.3952 313.21 -27.8952 313.11C-29.2952 312.71 -30.1952 311.61 -30.6952 310.31C-31.4952 308.01 -32.2952 305.61 -32.5952 303.21C-33.2952 297.11 -32.1952 291.31 -30.3952 285.51C-26.7952 273.91 -20.8952 263.51 -13.5952 253.91C-2.99524 239.91 10.0048 228.61 24.3048 218.51C36.9048 209.61 50.2048 201.71 63.6048 194.11C81.8048 183.71 99.7048 172.91 116.605 160.51C127.705 152.41 138.705 144.21 149.805 136.01C169.005 121.81 188.105 107.41 206.605 92.21C231.805 71.61 254.805 48.81 276.405 24.41C290.705 8.11 305.405 -7.79 320.205 -23.69C331.405 -35.79 343.405 -47.09 356.105 -57.69C362.105 -62.69 368.305 -67.29 375.005 -71.19C382.005 -75.19 389.305 -78.29 397.405 -79.29C401.705 -79.79 406.005 -79.89 410.305 -79.09C418.805 -77.49 424.605 -72.59 427.505 -64.49C430.405 -56.59 430.205 -48.69 427.805 -40.69C425.105 -31.69 420.605 -23.59 414.905 -16.19C408.605 -8.09 401.205 -1.19 393.305 5.21C380.405 15.61 366.505 24.61 352.305 33.21C335.305 43.51 317.705 52.81 300.105 62.11C260.005 83.31 220.905 106.21 182.805 130.91C162.105 144.31 142.005 158.71 123.205 174.81C103.005 192.11 84.4048 211.01 66.8048 231.01C51.6048 248.31 36.3048 265.51 20.9048 282.71C7.50476 297.71 -6.89524 311.71 -21.0952 325.91C-29.0952 333.91 -36.7952 342.31 -43.6952 351.41C-50.7952 360.91 -56.9952 370.91 -61.0952 382.21C-63.0952 387.91 -64.5952 393.71 -64.8952 399.71C-65.0952 403.21 -64.7952 406.71 -63.7952 410.11C-61.1952 419.21 -54.3952 423.31 -45.2952 420.81C-41.9952 419.91 -38.7952 418.51 -35.7952 417.01C-24.6952 411.31 -14.9952 403.61 -5.69524 395.31C8.10476 383.11 20.0048 369.51 31.5048 355.51C49.1048 334.01 65.1048 311.31 80.8048 288.41C94.8048 267.81 109.305 247.61 125.005 228.31C144.105 204.91 164.905 183.11 187.805 163.31C204.405 149.01 222.505 136.81 241.005 125.21C264.305 110.61 287.505 95.91 310.605 80.91C320.805 74.21 330.705 66.91 340.505 59.61C357.405 47.11 374.405 34.71 392.305 23.61C403.705 16.61 415.305 9.81001 427.405 3.91C435.205 0.110001 443.105 -3.29 451.605 -5.19C458.305 -6.79 465.105 -7.59 472.105 -6.39C472.905 -6.29 473.705 -6.09 474.405 -5.89C484.905 -3.29 487.405 4.91 486.605 12.31C486.005 17.71 483.905 22.71 481.205 27.31C476.805 34.61 471.205 40.91 464.905 46.71C455.105 55.81 444.205 63.51 432.705 70.51C417.605 79.61 401.905 87.41 386.005 94.91C363.305 105.61 340.505 116.21 318.005 127.11C292.605 139.51 268.105 153.61 245.305 170.41C209.605 196.61 177.405 226.51 150.105 261.61C140.205 274.41 131.005 287.71 122.805 301.61C109.205 324.71 99.9048 349.41 94.3048 375.61C92.0048 386.21 90.1048 396.91 89.3048 407.81C88.8048 413.91 88.4048 419.91 89.6048 426.01C90.0048 427.91 90.5048 429.71 91.4048 431.41C93.0048 434.51 95.5048 435.61 98.8048 434.41C100.705 433.81 102.505 432.81 104.105 431.71C108.105 429.01 111.705 425.71 114.705 422.11C120.805 414.81 126.905 407.51 132.605 399.91C149.205 378.11 164.005 355.11 178.305 331.81C193.705 306.91 210.105 282.61 227.205 258.91C249.505 227.91 276.405 201.61 306.805 178.61C344.005 150.61 385.405 131.71 430.305 119.81C444.305 116.11 458.505 114.21 473.005 113.91C482.205 113.71 491.405 114.41 500.405 116.31C500.505 116.31 500.605 116.51 501.305 116.91Z" fill="#FBE8DE"/>
</g>
</svg>
