<svg width="44" height="51" viewBox="0 0 44 51" fill="none" xmlns="http://www.w3.org/2000/svg">
<path fill-rule="evenodd" clip-rule="evenodd" d="M27.1844 14.8402V11.5371C27.1499 10.7458 27.1499 9.95442 27.1499 9.15446V9.15432C27.1499 8.35439 27.1499 7.54586 27.1155 6.72013C26.9779 4.86213 26.4274 3.14177 25.3952 1.62785C24.5694 0.526818 23.7436 0.320375 22.7802 1.28378C21.9545 2.17837 21.1287 3.21058 20.7158 4.38043C19.2019 8.44049 19.2019 12.707 19.8212 16.9047C20.0965 18.9003 21.8856 20.0701 23.7436 19.9325C25.5328 19.7949 26.9091 18.4186 27.1155 16.4918C27.1844 15.9413 27.1844 15.3908 27.1844 14.8403V14.8402ZM23.95 49.5916C25.1199 47.3895 25.6016 44.981 25.6704 42.4348L25.627 42.0871C25.3658 39.9945 25.0982 37.8498 24.707 35.8287C24.6382 35.1405 24.3629 34.5212 24.0189 33.9707C23.1931 32.6632 21.9544 32.0439 20.3717 32.2503C18.8578 32.4567 17.7567 33.4201 17.4127 34.9341C17.275 35.6222 17.275 36.448 17.3439 37.2049C17.4815 38.6501 17.6879 40.0952 17.9632 41.4714C18.011 41.7007 18.0574 41.93 18.1038 42.1592C18.3916 43.5803 18.6781 44.9943 19.2707 46.3573C19.8212 47.6648 20.7158 48.9034 21.6792 50.0044C22.6426 51.0367 23.2619 50.899 23.95 49.5916ZM11.7011 21.5841C13.2838 21.5841 14.8665 21.7905 16.3116 22.6163C18.032 23.6485 18.2384 24.7495 16.7933 26.1946C16.0364 27.0204 15.0042 27.7086 13.9719 28.1214C10.8065 29.4289 7.36575 29.773 3.99383 29.8418C3.71858 29.8418 3.44333 29.773 3.16808 29.7042L3.16806 29.7042C1.24125 29.2225 -0.066222 27.6397 0.0025925 25.7817C0.071407 23.9238 1.4477 22.4786 3.51213 22.2722C6.05827 21.9969 8.53559 21.7905 11.0817 21.5841H11.7011ZM43.0805 24.956C40.9472 24.0614 38.7452 23.4421 36.3367 23.3044C35.5675 23.4326 34.7984 23.5459 34.0362 23.6581C33.1617 23.7869 32.2965 23.9143 31.4508 24.0614C30.6939 24.2678 29.8681 24.7495 29.2488 25.3689C28.1477 26.4699 28.0101 27.8462 28.5606 29.2225C29.1799 30.7364 30.4186 31.5622 32.0702 31.4934C34.8227 31.4245 37.5065 30.7364 39.915 29.2913C41.1537 28.6031 42.3235 27.7086 43.3557 26.7452C44.3191 25.9194 44.1815 25.4377 43.0805 24.956Z" fill="black"/>
</svg>
