<svg width="26" height="27" viewBox="0 0 26 27" fill="none" xmlns="http://www.w3.org/2000/svg">
<path d="M25.7379 11.1691C25.5379 13.9691 24.9379 16.6691 23.9379 19.1691C20.9379 27.0691 11.8379 28.5691 5.93788 24.0691C3.93788 22.5691 2.43788 20.3691 1.03788 18.2691C-0.362124 16.2691 -0.262125 13.8691 0.837875 11.5691C2.63788 7.76911 5.23787 4.56911 8.53788 1.96911C10.8379 0.269111 13.3379 -0.430889 16.2379 0.269111C16.9379 0.469111 17.6379 0.569111 18.3379 0.569111C21.3379 0.669111 23.3379 2.26911 24.3379 4.96911C25.0379 6.86911 25.3379 9.06911 25.7379 11.1691ZM19.4379 13.8691C19.5379 10.2691 18.4379 7.36911 15.0379 5.46911C14.2379 5.06911 13.6379 4.86911 12.8379 5.16911C10.1379 6.16911 7.93788 7.86911 6.23788 10.0691C3.33788 13.8691 3.43788 16.5691 6.53788 20.0691C6.83788 20.4691 7.13788 20.7691 7.53788 21.0691C9.63788 22.6691 11.9379 23.4691 14.6379 22.4691C17.4379 21.4691 18.7379 19.5691 19.0379 16.7691C19.2379 15.8691 19.3379 14.8691 19.4379 13.8691Z" fill="black"/>
</svg>
