<svg width="26" height="28" viewBox="0 0 26 28" fill="none" xmlns="http://www.w3.org/2000/svg">
<path d="M0 14.8109C0.5 10.5109 2.4 5.71088 6.5 2.11088C9.1 -0.189121 12.2 -0.589121 15.4 0.810879C15.8 1.01088 16.1 1.21088 16.5 1.31088C19.1 1.91088 21 3.31088 22.4 5.51088C24.2 8.31088 25.4 11.4109 25.4 14.7109C25.4 19.7109 21.5 25.0109 16.5 27.1109C14.5 27.9109 12.5 28.0109 10.4 27.6109C4.7 26.6109 0 21.3109 0 14.8109ZM11.7 6.51088C9.3 9.21088 8 12.1109 7.5 15.3109C7.2 17.4109 7.9 18.9109 9.6 20.0109C10.2 20.5109 11 20.8109 11.7 21.1109C15.4 22.5109 19.6 19.7109 19.6 15.7109C19.6 11.4109 16.3 7.41088 11.7 6.51088Z" fill="black"/>
</svg>
