<svg width="56" height="61" viewBox="0 0 56 61" fill="none" xmlns="http://www.w3.org/2000/svg">
<path d="M34.7145 6.04864C34.7645 9.99421 35.0641 13.9398 35.7134 17.8354C35.7633 17.9853 35.7633 18.1351 35.8133 18.2849C36.3127 20.9819 37.7112 22.9297 40.1085 24.2782C41.7067 25.1772 43.3548 25.9763 45.2028 26.276C47.9996 26.7754 50.8464 27.3248 53.6433 27.8742C54.4424 28.024 54.9918 28.5234 55.0917 29.2227C55.1916 29.8719 54.792 30.5212 54.0928 30.8708C53.6932 31.0207 53.2438 31.1205 52.8442 31.2704C50.4968 31.8697 48.1495 32.5689 45.9519 33.6677C42.4059 35.4157 39.8088 38.1127 38.3105 41.7586C36.5625 45.9539 35.3638 50.299 34.7645 54.794C34.6146 56.0926 34.4149 57.3911 34.265 58.6896C34.1651 59.5387 33.7156 60.0381 33.0164 60.0881C32.3172 60.188 31.7678 59.8384 31.4182 59.0892C31.2684 58.7396 31.1685 58.39 31.0686 58.0404C29.9698 54.3945 28.4216 50.9483 26.4738 47.652C26.0243 46.9528 25.5748 46.2036 25.0254 45.6043C22.5282 42.9573 19.8312 40.51 16.7347 38.5622C14.1875 36.964 11.3907 36.065 8.4939 35.4157C6.14653 34.9163 3.79917 34.4668 1.4518 34.0173C0.552804 33.8675 0.0533635 33.368 0.00341948 32.6688C-0.0465246 31.9196 0.452916 31.3203 1.35191 31.1205C1.60163 31.0706 1.90129 31.0206 2.20096 31.0206C3.59939 31.1705 4.89793 30.7709 6.19648 30.5712C8.84351 30.1217 11.3907 29.3226 13.9378 28.5234C15.2363 28.1239 16.4849 27.6245 17.7835 27.175C21.9788 25.6766 24.5259 22.6301 26.1241 18.6345C26.5237 17.5857 26.8234 16.4869 27.2729 15.4881C27.9221 13.9897 28.6213 12.4914 29.2706 10.9931C29.6702 10.144 30.1197 9.24505 30.3694 8.34606C30.9687 6.19847 31.5181 4.05087 32.1174 1.85334C32.2173 1.50373 32.3672 1.15412 32.517 0.754568C32.7168 0.255127 33.0664 -0.044537 33.6157 0.00540704C34.2151 0.0553511 34.5647 0.454903 34.6646 1.00429C34.7145 1.45378 34.7145 1.85334 34.7145 2.30283C34.7145 3.55143 34.7145 4.80003 34.7145 6.04864Z" fill="black"/>
</svg>
