<svg width="57" height="73" viewBox="0 0 57 73" fill="none" xmlns="http://www.w3.org/2000/svg">
<path d="M50.4259 41.746C48.313 41.9366 46.2001 42.0319 44.1352 42.3178C41.0619 42.7943 38.709 44.4144 37.2683 47.1781C36.3079 49.0365 35.4436 50.9425 34.7233 52.9438C32.8025 58.1376 31.65 63.5698 30.2094 68.8589C30.0173 69.5737 29.9693 70.3837 29.8252 71.0985C29.7772 71.3844 29.7292 71.7179 29.5851 71.9562C29.249 72.6709 28.6247 73.0521 27.9044 72.9568C27.1841 72.8615 26.6079 72.2897 26.5598 71.4797C26.5118 71.0508 26.5118 70.5743 26.6079 70.0978C26.896 68.2871 26.7999 66.5241 26.6079 64.761C26.2237 61.2825 25.6955 57.8041 24.591 54.4686C23.1984 50.5136 21.0855 47.0352 17.7721 44.3191C16.0914 42.9372 14.3627 41.603 12.634 40.2212C9.99286 38.1246 6.96759 36.7427 3.84628 35.5038C3.36607 35.3132 2.78983 35.2656 2.21359 35.075C1.82943 34.9797 1.39724 34.8844 1.01308 34.6938C0.196739 34.3126 -0.139403 33.5025 0.052678 32.6925C0.244759 31.9301 0.965062 31.4536 1.82943 31.5489C2.45369 31.5965 3.12597 31.7395 3.75023 31.9301C7.30373 33.026 10.9533 32.7878 14.6028 32.4542C15.9474 32.3589 17.2919 32.216 18.5885 31.9301C21.6138 31.2153 23.9667 29.5476 25.3593 26.7362C26.4638 24.5443 27.2321 22.2571 27.7603 19.8269C28.6247 16.0626 29.8252 12.3459 30.3054 8.4862C30.5455 6.53255 30.8336 4.57889 31.0737 2.57759C31.1698 2.05343 31.2178 1.52928 31.3619 1.00513C31.65 0.48098 32.0822 0.052129 32.7064 0.0044789C33.3307 -0.0431712 33.9069 0.29038 34.099 0.957482C34.3391 1.67223 34.5312 2.43464 34.5792 3.19704C34.8193 6.72315 35.0594 10.2493 35.2995 13.823C35.5396 17.0632 35.6837 20.3034 36.0198 23.496C36.3079 26.1167 37.2203 28.5946 38.709 30.8341C40.0535 32.8831 41.9263 34.1696 44.1352 35.075C45.5758 35.6468 46.9684 36.2662 48.409 36.7427C49.1774 37.0286 50.0417 37.1239 50.8581 37.3145C52.4427 37.6957 54.0754 38.0293 55.6601 38.4581C56.3804 38.6487 56.8606 39.1729 56.9086 39.9353C57.0047 40.65 56.5725 41.3648 55.8041 41.6507C55.2759 41.8413 54.6997 41.9842 54.1234 41.9842C52.8749 42.0319 51.5784 41.9842 50.3298 41.9842C50.4259 41.8889 50.4259 41.7936 50.4259 41.746Z" fill="black"/>
</svg>
