<svg width="76" height="81" viewBox="0 0 76 81" fill="none" xmlns="http://www.w3.org/2000/svg">
<path fill-rule="evenodd" clip-rule="evenodd" d="M44.3383 11.2C44.4383 9.3 44.6383 7.4 44.8383 5.5C44.8066 5.05665 44.785 4.62333 44.7638 4.20004C44.7182 3.28667 44.6749 2.41999 44.5383 1.6C44.4383 1 43.8383 0 43.4383 0C42.8383 0 41.8383 0.5 41.5383 1C40.7383 2.3 39.9383 3.8 39.5383 5.3C38.2383 10 37.1383 14.7 36.1383 19.5C35.5383 22.3 35.4383 25.1 36.4383 27.8C37.0383 29.3 37.9383 30.5 39.7383 30.5C41.5383 30.5 42.5383 29.3 43.0383 27.8C43.5383 26.4 43.7383 24.9 43.8383 23.4C43.9383 21.35 44.0133 19.325 44.0883 17.3C44.1633 15.275 44.2383 13.25 44.3383 11.2ZM30.8383 78C31.0383 78.9 31.3383 79.9 32.7383 80.1C32.8384 79.5795 32.9425 79.055 33.0474 78.5265L33.0477 78.525C33.4667 76.4139 33.8984 74.239 34.1383 72C35.0383 65.5 35.7383 59 36.4383 52.5C36.5383 51.6 36.4383 50.6 36.2383 49.7C35.6383 47.7 34.0383 46.6 32.3383 46.9C30.6383 47.2 29.8383 48.5 29.8383 50.7C29.9383 53.3 29.9383 56 29.9383 58.6C29.9383 60.0035 29.9271 61.4071 29.916 62.8069V62.8072V62.8074C29.8938 65.5963 29.8717 68.3703 29.9383 71.1C29.9383 73.0167 30.2855 74.9333 30.6328 76.85C30.7022 77.2334 30.7717 77.6167 30.8383 78ZM75.0383 41.8C74.5535 41.9077 74.0614 42.03 73.566 42.1531C72.2221 42.4869 70.8535 42.8269 69.5383 42.9L68.578 42.9897C61.4061 43.6594 54.3181 44.3213 47.1383 44.8C45.9383 44.9 44.5383 44.6 43.4383 44.1C41.9383 43.5 42.0383 41.9 43.4383 41.2C44.2383 40.8 45.1383 40.6 45.9383 40.6C55.4383 40.3 64.9383 40.2 74.4383 41C74.6383 41 74.8383 41.1 75.0383 41.2V41.8ZM25.5383 36.1667C26.705 36.0667 27.8717 35.9667 29.0383 35.9C29.0383 35.7 29.0383 35.5 29.1383 35.2C28.7383 35.15 28.3633 35.075 27.9883 35C27.6133 34.925 27.2383 34.85 26.8383 34.8C23.2883 34.4 19.7633 34 16.2383 33.6C12.7133 33.2 9.1883 32.8 5.63832 32.4C5.03832 32.35 4.43832 32.275 3.83832 32.2C3.23832 32.125 2.63832 32.05 2.03832 32C1.03832 32 0.23832 32.4 0.0383203 33.4C-0.16168 34.5 0.43832 35.3 1.43832 35.6C2.13832 35.8 2.93832 36 3.73832 36C4.93474 36.0488 6.13713 36.1036 7.34257 36.1586C11.074 36.3286 14.8347 36.5 18.5383 36.5C20.8717 36.5667 23.205 36.3667 25.5383 36.1667Z" fill="black"/>
</svg>
