<svg width="176" height="203" viewBox="0 0 176 203" fill="none" xmlns="http://www.w3.org/2000/svg">
<path d="M122.952 44.5094C123.852 44.5094 124.852 44.5094 125.752 44.5094C136.052 44.4094 146.352 44.5094 156.652 46.0094C159.552 46.4094 162.452 47.1095 165.252 47.9095C166.852 48.4095 168.552 49.3095 169.852 50.4095C172.952 52.9095 173.552 57.0094 171.252 60.3094C170.252 61.7094 168.952 63.0094 167.552 64.0094C165.052 65.7094 162.452 67.3094 159.652 68.6094C151.752 72.3094 143.852 75.9094 135.952 79.6094C135.152 79.9094 134.452 80.3094 133.752 80.7094C133.752 80.9094 133.852 81.1094 133.852 81.2094C134.652 81.2094 135.552 81.2094 136.352 81.2094C144.252 81.4094 152.152 81.7094 159.952 83.4094C161.752 83.8094 163.552 84.3094 165.252 84.8094C166.352 85.2094 167.552 85.6094 168.552 86.1094C176.752 90.1094 177.752 97.9094 170.552 103.609C167.952 105.609 165.152 107.409 162.152 108.709C155.752 111.609 149.252 114.209 142.752 116.909C141.852 117.309 140.952 117.609 139.952 118.009C140.352 118.609 140.652 119.009 141.052 119.409C144.352 123.209 145.052 127.409 143.552 132.209C142.652 134.909 141.052 137.209 139.052 139.209C135.852 142.509 132.052 144.709 127.852 146.509C127.052 146.909 126.252 147.209 125.252 147.709C125.752 148.409 126.152 148.909 126.652 149.509C130.552 154.409 131.552 159.809 129.452 165.709C128.152 169.509 126.052 172.709 123.152 175.509C117.852 180.809 111.752 185.109 105.052 188.409C92.6516 194.609 79.5516 198.609 65.7516 200.309C59.0516 201.109 52.4516 201.909 45.7516 202.309C38.4516 202.709 31.2516 201.709 24.1516 199.909C18.1516 198.309 13.3516 195.109 10.5516 189.409C10.2516 188.809 9.95157 188.309 9.55157 187.809C0.45157 175.909 0.75157 160.509 7.65157 149.309C10.3516 145.009 13.3516 141.009 16.9516 137.409C24.5516 129.809 32.9516 123.409 42.6516 118.709C43.5516 118.309 44.4516 117.809 45.3516 116.809C44.2516 116.509 43.1516 116.209 41.9516 115.909C36.4516 114.809 30.9516 113.809 25.5516 112.509C21.4516 111.509 17.3516 110.209 13.4516 108.609C11.0516 107.709 8.65157 106.309 6.65157 104.709C0.75157 100.209 -1.24843 94.2094 0.75157 87.0094C1.65157 84.0094 3.05157 81.2094 4.45157 78.5094C6.05157 75.6094 7.95157 73.0094 9.75157 70.2094C10.3516 69.3094 10.9516 68.3094 11.8516 67.0094C11.3516 66.7094 10.8516 66.4094 10.4516 66.1094C9.95157 65.7094 9.45157 65.3094 8.95157 64.9094C1.45157 58.0094 -0.14843 49.8094 4.25157 40.6094C6.45157 36.0094 9.45157 32.1094 13.3516 28.9094C16.1516 26.6094 19.1516 24.4094 22.2516 22.4094C34.4516 15.0094 47.5516 9.70945 61.6516 6.90945C72.7516 4.70945 83.7516 2.30945 94.9516 1.00945C106.752 -0.390551 118.552 -0.490551 130.352 1.70945C134.452 2.50945 138.452 3.60945 142.452 4.80945C144.452 5.40945 146.452 6.40945 148.352 7.40945C150.752 8.70945 152.052 10.8094 152.352 13.6094C152.852 17.7094 152.252 21.7094 149.752 25.0094C147.952 27.4094 145.952 29.7094 143.652 31.7094C138.752 36.1094 132.952 39.3094 126.952 42.0094C125.552 42.6094 124.252 43.3095 122.852 43.9095C122.952 44.1095 122.952 44.3094 122.952 44.5094Z" fill="white"/>
</svg>
