<svg width="200" height="198" viewBox="0 0 200 198" fill="none" xmlns="http://www.w3.org/2000/svg">
<path d="M82.5914 56.4151C80.6914 56.6151 78.8914 56.9151 76.9914 57.1151C63.6914 58.6151 50.4914 60.7151 37.7914 64.8151C33.9914 66.0151 30.2914 67.5151 26.6914 69.2151C24.3914 70.3151 22.1914 71.7151 20.2914 73.4151C14.6914 78.3151 15.2914 85.2151 21.7914 88.9151C24.5914 90.5151 27.7914 91.5151 30.7914 92.7151C31.6914 93.1151 32.5914 93.3151 33.4914 94.0151C32.7914 94.2151 32.0914 94.4151 31.3914 94.6151C25.5914 96.0151 19.6914 97.4151 14.1914 99.9151C11.4914 101.115 8.8914 102.515 6.3914 104.115C4.8914 105.015 3.59142 106.315 2.49141 107.615C-0.708588 111.515 -0.808594 116.315 2.0914 120.515C3.5914 122.715 5.69141 124.415 7.8914 125.815C11.7914 128.315 15.8914 130.115 20.1914 131.615C30.4914 135.315 41.1914 137.915 51.8914 140.215C62.9914 142.515 74.1914 144.615 85.2914 146.815C85.9914 146.915 86.5914 147.115 87.2914 147.715C86.3914 148.115 85.5914 148.415 84.6914 148.815C77.9914 151.515 71.4914 154.615 65.6914 158.915C62.9914 160.915 60.4914 163.215 58.1914 165.615C56.0914 167.815 54.7914 170.715 54.4914 173.815C53.9914 178.215 55.5914 182.015 58.5914 185.215C61.0914 187.915 64.1914 189.715 67.4914 191.215C73.1914 193.715 79.1914 195.115 85.2914 196.015C101.991 198.415 118.791 198.315 135.491 196.715C147.791 195.515 159.891 193.415 171.691 189.815C176.091 188.415 180.491 186.815 184.491 184.515C187.391 182.915 189.991 181.015 192.291 178.515C197.991 172.015 198.591 164.215 194.091 157.015C192.291 154.215 190.091 151.915 187.491 149.815C183.891 146.915 180.091 144.515 175.891 142.615C171.091 140.415 166.191 138.415 161.391 136.315C160.691 136.015 159.991 135.715 158.791 135.215C159.791 134.715 160.291 134.415 160.891 134.115C166.291 131.615 171.691 129.215 176.891 126.515C182.091 123.815 186.891 120.515 190.991 116.215C192.991 114.115 194.791 111.815 196.191 109.415C199.991 102.815 200.191 95.9151 196.891 88.9151C194.791 84.5151 191.691 80.9151 188.091 77.6151C184.191 74.0151 179.791 71.1151 175.291 68.4151C174.591 68.0151 173.791 67.5151 172.891 66.9151C173.691 66.4151 174.291 66.1151 174.891 65.8151C181.391 62.6151 186.491 57.9151 190.191 51.6151C193.091 46.6151 195.391 41.3151 196.391 35.6151C197.391 30.8151 196.191 26.5151 193.191 22.6151C189.791 18.2151 185.491 14.9151 180.291 13.0151C176.891 11.7151 173.391 10.5151 169.791 9.7151C160.891 7.8151 151.891 6.0151 142.991 4.6151C124.291 1.6151 105.491 -0.184898 86.5914 0.0151015C75.8914 0.115102 65.1914 0.915101 54.6914 3.3151C50.1914 4.3151 45.7914 5.5151 41.7914 7.7151C39.0914 9.2151 36.2914 10.8151 34.0914 12.9151C27.2914 19.0151 27.1914 27.1151 33.6914 33.5151C35.5914 35.4151 37.7914 37.2151 40.0914 38.5151C44.6914 41.1151 49.3914 43.6151 54.1914 45.5151C62.8914 49.0151 71.7914 52.0151 80.4914 55.1151C81.1914 55.4151 81.8914 55.6151 82.5914 55.9151C82.5914 56.1151 82.5914 56.2151 82.5914 56.4151Z" fill="#F7D046"/>
</svg>
