<svg width="211" height="143" viewBox="0 0 211 143" fill="none" xmlns="http://www.w3.org/2000/svg">
<path d="M32.6225 142.118C27.6105 142.303 22.1653 141.439 16.9677 139.339C7.3149 135.386 2.11724 127.912 0.19906 117.906C-0.172201 115.806 0.013429 113.644 0.446567 111.544C1.12721 108.456 2.11724 105.553 3.72604 102.835C6.20111 98.6348 9.04745 94.6818 12.6363 91.4082C15.7301 88.5669 18.9477 85.8492 22.2891 83.3168C27.7342 79.2402 33.365 75.349 38.8721 71.3342C41.3472 69.543 43.8841 67.8135 46.7304 66.5782C47.0398 66.4547 47.3492 66.2694 47.6586 66.0841C62.3853 57.1898 77.112 48.2955 91.8386 39.3394C101.615 33.4099 111.33 27.3568 120.983 21.3655C130.45 15.4977 140.164 10.1241 150.56 5.98579C156.438 3.63868 162.502 1.72393 168.752 0.612146C174.815 -0.437876 180.756 -0.129046 186.696 1.47687C197.524 4.37987 204.888 11.1124 208.786 21.6126C212.622 31.9893 211.075 41.8101 205.445 51.1367C203.341 54.5956 200.556 57.6222 197.586 60.3399C193.75 63.8605 189.542 66.9488 185.335 69.9136C172.959 78.5608 160.089 86.4051 146.785 93.57C132.306 101.352 117.951 109.32 103.533 117.165C95.675 121.426 87.8785 125.812 79.587 129.332C73.7706 131.803 67.8923 134.088 62.014 136.559C52.8562 140.45 43.1416 141.933 32.6225 142.118Z" fill="black"/>
<mask id="mask0" mask-type="alpha" maskUnits="userSpaceOnUse" x="0" y="0" width="211" height="143">
<path d="M32.6225 142.118C27.6105 142.303 22.1653 141.439 16.9677 139.339C7.3149 135.386 2.11724 127.912 0.19906 117.906C-0.172201 115.806 0.013429 113.644 0.446567 111.544C1.12721 108.456 2.11724 105.553 3.72604 102.835C6.20111 98.6348 9.04745 94.6818 12.6363 91.4082C15.7301 88.5669 18.9477 85.8492 22.2891 83.3168C27.7342 79.2402 33.365 75.349 38.8721 71.3342C41.3472 69.543 43.8841 67.8135 46.7304 66.5782C47.0398 66.4547 47.3492 66.2694 47.6586 66.0841C62.3853 57.1898 77.112 48.2955 91.8386 39.3394C101.615 33.4099 111.33 27.3568 120.983 21.3655C130.45 15.4977 140.164 10.1241 150.56 5.98579C156.438 3.63868 162.502 1.72393 168.752 0.612146C174.815 -0.437876 180.756 -0.129046 186.696 1.47687C197.524 4.37987 204.888 11.1124 208.786 21.6126C212.622 31.9893 211.075 41.8101 205.445 51.1367C203.341 54.5956 200.556 57.6222 197.586 60.3399C193.75 63.8605 189.542 66.9488 185.335 69.9136C172.959 78.5608 160.089 86.4051 146.785 93.57C132.306 101.352 117.951 109.32 103.533 117.165C95.675 121.426 87.8785 125.812 79.587 129.332C73.7706 131.803 67.8923 134.088 62.014 136.559C52.8562 140.45 43.1416 141.933 32.6225 142.118Z" fill="black"/>
</mask>
<g mask="url(#mask0)">
<path d="M-22.9866 120.026C-22.7283 105.945 -18.9194 94.2003 -10.9787 83.883C-5.62037 76.94 0.38356 70.5809 7.16219 65.0005C21.1714 53.3207 35.3742 41.9652 50.0289 31.1289C54.7417 27.6249 59.5836 24.3805 64.3609 21.0712C66.0394 19.9681 67.7825 18.9948 69.5901 18.0864C70.6231 17.5672 71.7206 17.3077 72.8181 17.1779C74.7548 16.9184 76.4979 17.5024 77.9182 18.9299C78.6283 19.6437 79.2093 20.4223 79.7258 21.2659C80.9524 23.1476 82.0499 25.0294 83.212 26.976C90.8944 39.5644 98.5769 52.1527 106.195 64.8059C110.456 71.8787 114.587 79.0813 118.977 86.1541C124.077 94.3949 129.5 102.441 135.375 110.163C135.569 110.422 135.762 110.682 135.956 110.941C137.376 113.018 137.376 114.77 135.892 116.846C135.375 117.625 134.73 118.339 134.149 118.988C127.37 126.774 119.687 133.458 110.843 138.843C99.5452 145.722 88.1829 152.47 76.2396 158.245C64.1027 164.15 51.4492 168.497 38.1502 170.963C31.2425 172.261 24.3347 172.65 17.3624 171.158C16.0712 170.898 14.8446 170.639 13.618 170.119C-6.07228 162.528 -18.6612 148.901 -22.2764 127.553C-22.7283 124.763 -22.7929 121.843 -22.9866 120.026Z" fill="#4CA96D"/>
<mask id="mask1" mask-type="alpha" maskUnits="userSpaceOnUse" x="-23" y="17" width="161" height="156">
<path d="M-22.9866 120.026C-22.7283 105.945 -18.9194 94.2003 -10.9787 83.883C-5.62037 76.94 0.38356 70.5809 7.16219 65.0005C21.1714 53.3207 35.3742 41.9652 50.0289 31.1289C54.7417 27.6249 59.5836 24.3805 64.3609 21.0712C66.0394 19.9681 67.7825 18.9948 69.5901 18.0864C70.6231 17.5672 71.7206 17.3077 72.8181 17.1779C74.7548 16.9184 76.4979 17.5024 77.9182 18.9299C78.6283 19.6437 79.2093 20.4223 79.7258 21.2659C80.9524 23.1476 82.0499 25.0294 83.212 26.976C90.8944 39.5644 98.5769 52.1527 106.195 64.8059C110.456 71.8787 114.587 79.0813 118.977 86.1541C124.077 94.3949 129.5 102.441 135.375 110.163C135.569 110.422 135.762 110.682 135.956 110.941C137.376 113.018 137.376 114.77 135.892 116.846C135.375 117.625 134.73 118.339 134.149 118.988C127.37 126.774 119.687 133.458 110.843 138.843C99.5452 145.722 88.1829 152.47 76.2396 158.245C64.1027 164.15 51.4492 168.497 38.1502 170.963C31.2425 172.261 24.3347 172.65 17.3624 171.158C16.0712 170.898 14.8446 170.639 13.618 170.119C-6.07228 162.528 -18.6612 148.901 -22.2764 127.553C-22.7283 124.763 -22.7929 121.843 -22.9866 120.026Z" fill="#EA552B"/>
</mask>
<g mask="url(#mask1)">
</g>
<g clip-path="url(#clip0)">
<path d="M88.2655 127.324C88.6175 126.043 88.3242 125.112 88.0308 124.18C87.1509 121.561 86.271 119 85.2737 116.438C82.3993 109.162 79.4076 101.943 76.6505 94.6087C73.3067 85.5276 70.9603 76.2136 69.7284 66.6087C69.2004 62.3592 68.7311 58.1097 69.3764 53.802C69.611 52.1139 69.963 50.3675 70.6083 48.7958C71.8989 45.6523 74.2453 45.2448 76.5918 47.6897C77.765 48.9122 78.8209 50.3093 79.7595 51.7646C81.8714 55.2573 83.9832 58.8082 85.9777 62.4174C92.5478 74.2344 100.174 85.2947 109.384 95.3072C114.077 100.43 118.711 105.611 123.463 110.733C126.865 114.343 130.385 117.777 133.904 121.27C134.902 122.259 136.016 123.191 136.955 124.297C136.485 124.006 136.016 123.715 135.664 123.365C132.848 120.862 129.915 118.417 127.217 115.798C117.538 106.426 108.386 96.5297 99.7632 86.2261C94.8356 80.2885 90.6706 73.827 86.8576 67.0744C84.6285 63.1159 82.3993 59.0993 80.1115 55.1409C79.1729 53.5109 78.117 51.9974 77.0611 50.4257C76.5918 49.7854 76.0638 49.2033 75.5359 48.6211C73.952 47.1076 72.9548 47.2823 72.0162 49.3197C71.7229 49.96 71.4882 50.6003 71.3122 51.2989C70.491 54.4423 70.4323 57.644 70.667 60.8457C71.6642 74.6419 75.4186 87.7396 80.5221 100.546C82.81 106.309 85.2737 112.014 87.5615 117.777C88.5001 120.106 89.0868 122.55 89.7907 124.995C89.9667 125.636 89.9667 126.392 89.908 127.091C89.732 128.313 88.7935 128.896 87.6789 128.43C86.7403 128.022 85.8017 127.498 85.0978 126.8C83.1619 124.995 81.2261 123.133 79.4662 121.153C73.7174 114.517 69.0831 107.124 65.0354 99.3821C61.3397 92.3966 57.8787 85.2365 54.2417 78.1929C52.5405 74.933 50.722 71.7313 48.8448 68.5879C48.0822 67.3072 47.0849 66.143 46.0877 65.0951C44.6211 63.5816 43.6239 63.8727 42.9786 65.8519C42.0987 68.4714 42.1573 71.1492 42.3333 73.8852C43.0959 83.6066 45.7944 92.8041 49.0794 101.885C51.5432 108.696 54.2417 115.449 56.7055 122.318C58.348 126.916 59.9319 131.573 60.8704 136.347C61.1051 137.453 61.1638 138.675 61.0464 139.839C60.8704 141.819 59.5212 142.75 57.644 142.226C56.5295 141.935 55.4736 141.411 54.4763 140.771C52.0712 139.316 49.9594 137.395 47.9649 135.474C41.9814 129.536 37.0538 122.842 32.6541 115.681C28.9584 109.686 25.8494 103.34 22.7403 97.0536C21.5084 94.5505 20.2178 92.0473 18.8099 89.6606C18.1647 88.5546 17.4021 87.4486 16.5221 86.459C14.8796 84.6544 13.4717 84.829 12.4158 87.0411C11.8879 88.1471 11.4772 89.3696 11.1839 90.592C10.3627 94.0848 10.1867 97.6939 10.2453 101.303C10.3627 111.257 12.8851 120.746 16.6981 129.885C18.634 134.542 20.8631 139.141 22.9163 143.798C24.3242 146.883 25.6734 150.027 26.26 153.403C26.436 154.334 26.436 155.266 26.3773 156.197C26.3187 156.954 25.9667 157.652 25.2041 158.002C24.5588 158.351 24.2655 158.234 23.8549 157.478C24.2655 157.361 24.7934 157.361 25.0281 157.128C25.3214 156.721 25.5561 156.081 25.5561 155.615C25.4387 154.276 25.2627 152.937 24.8521 151.656C24.0308 149.212 23.0336 146.767 22.0363 144.38C19.6312 138.85 17.0501 133.436 14.8209 127.848C12.2985 121.619 10.48 115.158 9.71737 108.463C8.95477 102.176 8.89611 95.9475 10.4213 89.7189C10.656 88.671 11.0666 87.6814 11.5359 86.6918C13.0024 83.723 15.2902 83.3737 17.5194 85.8186C18.282 86.6336 18.9273 87.565 19.5139 88.4964C20.8631 90.8249 22.1537 93.2116 23.4442 95.5983C26.3187 101.07 29.0171 106.6 32.0088 111.956C35.9979 119.116 40.7495 125.869 46.2637 131.981C48.5515 134.542 50.8979 136.987 53.7724 138.908C54.8869 139.723 56.1775 140.422 57.4681 140.887C59.1106 141.528 59.9319 140.945 59.8732 139.199C59.8732 137.86 59.6385 136.521 59.2866 135.182C57.82 129.187 55.8255 123.424 53.7137 117.602C50.9566 110.733 48.3168 103.864 45.9117 96.9371C43.8585 90.9413 42.2747 84.829 41.3947 78.5421C40.9254 75.3405 40.5735 72.0806 40.9254 68.8207C41.1014 67.4236 41.3361 66.0265 41.8054 64.7459C42.6853 62.4174 44.5625 62.0099 46.4983 63.6398C47.4369 64.4548 48.3168 65.4444 48.9621 66.4922C50.6046 69.0536 52.2472 71.6149 53.5964 74.2927C57.0574 80.987 60.3425 87.6814 63.6862 94.434C67.3232 101.652 71.2536 108.696 76.0052 115.216C78.2343 118.301 80.5808 121.27 83.3379 123.889C84.3352 124.879 85.4497 125.752 86.5643 126.567C87.0336 126.8 87.6202 126.975 88.2655 127.324Z" fill="#FBE8DE"/>
</g>
</g>
<defs>
<clipPath id="clip0">
<rect width="128" height="112" fill="white" transform="translate(9.01343 46.118)"/>
</clipPath>
</defs>
</svg>
