<svg width="409" height="387" viewBox="0 0 409 387" fill="none" xmlns="http://www.w3.org/2000/svg">
<path d="M408.956 54.1404C409.056 70.3404 405.356 85.8404 399.156 100.74C392.556 116.94 383.656 131.74 372.956 145.54C358.756 163.74 343.256 180.74 327.156 197.24C304.956 220.04 281.256 241.04 256.756 261.34C230.356 283.24 203.456 304.54 175.456 324.44C149.156 343.24 121.356 359.34 91.5556 371.94C79.3556 377.04 66.9556 381.54 53.9556 383.94C45.6556 385.54 37.2556 386.74 28.6556 386.14C22.0556 385.74 15.9556 383.74 10.3556 380.24C3.95556 376.34 0.555556 370.74 0.155556 363.34C-0.144444 359.04 -0.0444444 354.64 0.755556 350.44C3.45556 336.44 6.85556 322.64 12.2556 309.44C18.3556 294.54 25.7556 280.24 34.0556 266.44C51.4556 237.54 71.0556 210.24 92.2556 183.94C121.956 147.04 154.456 112.74 190.356 81.8404C219.656 56.5404 251.656 35.4404 286.756 19.0404C302.756 11.5404 319.256 5.74038 336.656 2.24038C346.756 0.240376 356.956 -0.659624 367.156 0.540376C372.956 1.24038 378.656 2.64038 383.956 5.14038C393.456 9.44038 400.056 16.4404 404.056 26.0404C406.956 32.9404 408.356 40.1404 408.856 47.4404C409.056 49.8404 408.956 51.9404 408.956 54.1404Z" fill="#F7D046"/>
<mask id="mask0" mask-type="alpha" maskUnits="userSpaceOnUse" x="0" y="0" width="409" height="387">
<path d="M408.956 54.1404C409.056 70.3404 405.356 85.8404 399.156 100.74C392.556 116.94 383.656 131.74 372.956 145.54C358.756 163.74 343.256 180.74 327.156 197.24C304.956 220.04 281.256 241.04 256.756 261.34C230.356 283.24 203.456 304.54 175.456 324.44C149.156 343.24 121.356 359.34 91.5556 371.94C79.3556 377.04 66.9556 381.54 53.9556 383.94C45.6556 385.54 37.2556 386.74 28.6556 386.14C22.0556 385.74 15.9556 383.74 10.3556 380.24C3.95556 376.34 0.555556 370.74 0.155556 363.34C-0.144444 359.04 -0.0444444 354.64 0.755556 350.44C3.45556 336.44 6.85556 322.64 12.2556 309.44C18.3556 294.54 25.7556 280.24 34.0556 266.44C51.4556 237.54 71.0556 210.24 92.2556 183.94C121.956 147.04 154.456 112.74 190.356 81.8404C219.656 56.5404 251.656 35.4404 286.756 19.0404C302.756 11.5404 319.256 5.74038 336.656 2.24038C346.756 0.240376 356.956 -0.659624 367.156 0.540376C372.956 1.24038 378.656 2.64038 383.956 5.14038C393.456 9.44038 400.056 16.4404 404.056 26.0404C406.956 32.9404 408.356 40.1404 408.856 47.4404C409.056 49.8404 408.956 51.9404 408.956 54.1404Z" fill="black"/>
</mask>
<g mask="url(#mask0)">
<path d="M53.5013 348.265C53.1013 351.265 52.6013 354.265 52.2013 357.265C49.4013 377.365 44.0013 396.965 37.0013 416.065C36.4013 417.665 35.6013 419.165 34.7013 420.565C34.4013 421.065 33.4013 421.565 32.9013 421.365C32.3013 421.265 31.9013 420.365 31.0013 419.365C33.7013 419.665 34.1013 418.165 34.5013 416.765C40.0013 400.065 45.1013 383.265 48.2013 365.865C49.4013 359.065 50.3013 352.265 51.4013 345.465C51.6013 343.965 51.4013 342.665 50.8013 341.265C43.5013 324.965 37.7013 308.065 34.2013 290.365C32.0013 279.665 30.6013 268.965 31.1013 257.965C31.2013 256.065 31.5013 254.165 32.1013 252.365C33.1013 249.265 35.8013 248.465 38.3013 250.565C39.9013 251.965 41.3013 253.865 42.5013 255.765C45.6013 260.665 47.5013 266.065 49.2013 271.665C52.0013 280.965 53.6013 290.465 54.6013 300.165C55.4013 308.265 55.7013 316.265 55.5013 324.365C55.4013 328.965 55.0013 333.665 54.6013 338.265C54.5013 339.865 54.7013 341.365 55.4013 342.865C59.5013 351.565 64.0013 360.065 69.4013 367.965C72.3013 372.265 75.5013 376.365 79.3013 379.965C81.9013 382.465 84.7013 384.765 87.9013 386.365C92.8013 388.765 97.7013 388.965 102.701 386.865C106.101 385.465 109.001 383.465 111.701 381.065C116.301 376.965 120.001 372.265 123.401 367.165C131.601 354.765 137.301 341.265 141.301 327.065C142.501 322.965 143.301 318.865 144.401 314.765C144.601 313.865 144.501 313.065 144.001 312.265C134.301 296.565 128.201 279.265 123.101 261.665C118.201 244.565 114.701 227.165 112.001 209.665C110.101 196.965 108.501 184.165 106.901 171.365C105.901 163.265 105.401 155.065 105.701 146.965C105.801 144.565 106.201 142.165 106.701 139.865C106.901 138.765 107.501 137.765 108.101 136.865C109.401 134.965 111.501 134.165 113.601 135.065C115.301 135.765 117.101 136.765 118.401 138.065C120.601 140.365 122.701 142.865 124.401 145.465C129.901 153.565 133.801 162.565 137.301 171.665C143.401 187.865 147.401 204.665 149.901 221.765C152.501 239.665 153.601 257.565 153.001 275.565C152.601 287.365 151.301 299.165 149.101 310.865C148.901 311.865 148.801 312.865 149.501 313.865C153.101 319.165 157.101 324.165 162.201 328.065C163.801 329.365 165.601 330.465 167.401 331.465C174.101 335.065 181.001 335.165 187.901 331.865C192.501 329.665 196.301 326.365 199.701 322.565C203.701 318.065 207.001 313.065 209.901 307.765C216.601 295.565 221.101 282.465 224.601 269.065C230.501 246.565 233.501 223.565 234.001 200.265C234.001 199.165 233.701 197.865 233.201 196.865C218.201 168.965 208.301 139.265 201.101 108.565C199.401 101.365 198.101 93.9649 197.501 86.5649C197.201 82.5649 197.201 78.5649 198.201 74.6649C198.501 73.5649 199.001 72.3649 199.601 71.3649C201.501 68.1649 204.701 67.2649 207.801 69.2649C209.401 70.3649 211.001 71.6649 212.201 73.2649C214.201 75.9649 216.001 78.8649 217.501 81.7649C222.401 91.3649 225.701 101.565 228.501 111.865C233.501 130.665 236.501 149.865 237.701 169.365C238.201 177.965 238.301 186.665 238.601 195.265C238.601 196.265 238.801 197.365 239.301 198.265C244.201 206.865 249.801 215.165 256.901 222.065C261.901 226.965 267.401 230.965 274.001 233.265C278.601 234.865 283.301 235.465 288.201 234.765C294.001 233.865 298.701 231.165 302.801 227.065C306.401 223.465 309.201 219.365 311.601 214.865C316.501 205.665 319.701 195.865 322.101 185.865C326.301 168.265 328.301 150.465 328.901 132.365C329.001 129.265 329.001 126.165 329.101 122.965C329.101 121.765 328.701 120.865 327.801 120.065C308.401 101.065 296.501 78.0649 291.601 51.3649C289.501 39.6649 289.101 27.8649 291.501 16.0649C292.101 12.9649 293.201 9.86486 294.401 6.96486C295.101 5.26486 296.301 3.56486 297.601 2.26486C300.101 -0.335142 303.601 -0.735142 306.601 1.26486C308.501 2.56486 310.301 4.16486 311.501 6.06486C313.701 9.46486 315.801 13.0649 317.401 16.7649C321.701 26.3649 324.301 36.5649 326.501 46.7649C331.401 69.5649 333.601 92.5649 333.901 115.865C333.901 117.765 334.501 119.065 336.001 120.365C345.801 128.565 357.201 133.265 369.701 135.665C379.601 137.565 389.701 138.165 399.801 138.465C407.001 138.665 414.201 138.665 421.401 138.465C425.101 138.365 428.901 137.965 432.601 137.465C434.801 137.165 437.001 136.565 438.701 134.465C438.701 136.165 438.001 137.065 436.901 137.565C435.101 138.465 433.301 139.365 431.401 139.865C425.701 141.465 419.701 141.865 413.801 142.065C400.901 142.565 388.001 142.165 375.201 141.165C360.601 139.965 347.201 135.565 335.401 126.565C335.001 126.265 334.601 126.065 333.901 125.665C333.801 126.765 333.801 127.665 333.701 128.465C333.401 143.065 332.201 157.565 329.701 171.865C327.601 183.965 324.701 195.865 320.101 207.165C318.101 212.065 315.901 216.865 312.901 221.265C310.901 224.165 308.801 226.965 306.301 229.465C297.401 238.565 286.601 241.165 274.401 237.865C268.001 236.165 262.501 232.865 257.501 228.665C250.501 222.765 244.901 215.665 240.001 208.065C239.601 207.465 239.201 206.865 238.801 206.265C238.701 206.165 238.501 206.165 238.201 205.965C238.001 209.165 237.801 212.365 237.601 215.465C235.601 241.665 231.001 267.365 221.701 291.965C218.801 299.765 215.201 307.265 210.801 314.365C207.601 319.565 204.001 324.465 199.301 328.465C196.801 330.665 194.101 332.665 191.101 334.265C182.201 339.165 173.201 338.865 164.401 333.865C158.801 330.665 154.201 326.165 150.201 321.165C149.401 320.165 148.601 319.165 147.601 317.965C147.301 319.065 147.001 319.865 146.801 320.665C143.001 336.265 137.501 351.265 129.101 365.065C125.401 371.065 121.301 376.765 116.301 381.765C113.101 384.865 109.701 387.565 105.601 389.465C98.5013 392.865 91.5013 392.565 84.7013 388.665C80.8013 386.465 77.5013 383.565 74.5013 380.365C69.8013 375.365 65.8013 369.865 62.4013 364.065C59.7013 359.565 57.3013 354.865 54.7013 350.265C54.3013 349.565 54.0013 348.865 53.6013 348.165C53.8013 348.165 53.7013 348.165 53.5013 348.265ZM145.701 307.165C146.001 306.465 146.101 306.165 146.201 305.865C147.701 297.165 148.601 288.465 149.101 279.665C150.001 263.165 149.201 246.765 147.301 230.365C145.201 212.965 141.601 195.965 136.001 179.465C132.401 168.865 128.001 158.565 122.001 149.065C120.501 146.665 118.701 144.365 116.801 142.165C116.001 141.165 114.801 140.265 113.701 139.565C112.301 138.665 111.601 138.865 111.101 140.465C110.601 141.965 110.301 143.565 110.201 145.165C109.401 154.665 110.201 164.165 111.401 173.665C113.001 187.165 114.901 200.665 117.001 214.065C119.701 231.365 123.401 248.465 128.501 265.265C132.601 278.965 137.501 292.265 144.301 304.865C144.601 305.365 145.001 306.065 145.701 307.165ZM329.001 113.465C329.101 112.365 329.101 111.765 329.101 111.065C328.501 88.9649 326.101 67.0649 321.201 45.4649C319.101 35.9649 316.501 26.5649 312.401 17.6649C311.001 14.6649 309.201 11.7649 307.401 8.96486C306.701 7.76486 305.501 6.76486 304.401 5.96486C303.201 5.06486 302.201 5.16486 301.201 6.16486C300.601 6.76486 300.001 7.56486 299.701 8.26486C298.801 10.3649 297.901 12.5649 297.401 14.7649C295.101 24.5649 295.001 34.5649 296.301 44.5649C299.501 69.8649 309.801 92.0649 326.701 111.065C327.301 111.865 328.001 112.465 329.001 113.465ZM233.801 187.865C233.901 187.865 234.101 187.765 234.201 187.765C234.201 187.465 234.301 187.165 234.301 186.865C233.801 162.265 230.901 137.965 224.701 114.065C222.101 103.965 218.901 94.0649 214.301 84.7649C212.801 81.7649 211.001 78.9649 209.101 76.1649C208.301 74.9649 207.001 73.9649 205.801 73.0649C204.801 72.3649 204.001 72.5649 203.401 73.6649C202.801 74.8649 202.401 76.1649 202.201 77.5649C201.301 83.0649 202.101 88.5649 202.901 94.0649C204.701 105.565 207.501 116.965 210.801 128.165C216.501 147.865 223.301 167.065 232.401 185.565C232.901 186.165 233.401 186.965 233.801 187.865ZM35.3013 252.165C34.1013 253.865 34.0013 255.765 33.9013 257.565C33.7013 263.665 34.2013 269.865 35.0013 275.965C37.7013 295.965 43.6013 315.065 51.3013 333.665C51.5013 334.165 51.9013 334.665 52.4013 335.565C52.6013 332.965 52.8013 331.065 52.9013 329.065C53.5013 315.865 52.9013 302.665 50.6013 289.665C49.0013 280.465 46.9013 271.365 42.9013 262.765C41.7013 260.065 40.1013 257.565 38.6013 255.065C38.0013 253.765 37.0013 252.665 35.3013 252.165Z" fill="black"/>
</g>
</svg>
