<svg width="211" height="143" viewBox="0 0 211 143" fill="none" xmlns="http://www.w3.org/2000/svg">
<path d="M178.277 142.118C183.289 142.303 188.734 141.439 193.932 139.339C203.584 135.386 208.782 127.912 210.7 117.906C211.071 115.806 210.886 113.644 210.453 111.544C209.772 108.456 208.782 105.553 207.173 102.835C204.698 98.6348 201.852 94.6818 198.263 91.4082C195.169 88.5669 191.952 85.8492 188.61 83.3168C183.165 79.2402 177.534 75.349 172.027 71.3342C169.552 69.543 167.015 67.8135 164.169 66.5782C163.859 66.4547 163.55 66.2694 163.241 66.0841C148.514 57.1898 133.787 48.2955 119.061 39.3394C109.284 33.4099 99.5694 27.3568 89.9167 21.3655C80.4495 15.4977 70.7348 10.1241 60.3395 5.98579C54.4612 3.63868 48.3973 1.72393 42.1477 0.612146C36.0838 -0.437876 30.1436 -0.129046 24.2034 1.47687C13.375 4.37987 6.01167 11.1124 2.11343 21.6126C-1.72293 31.9893 -0.17601 41.8101 5.45477 51.1367C7.55859 54.5956 10.3431 57.6222 13.3131 60.3399C17.1495 63.8605 21.3571 66.9488 25.5647 69.9136C37.9401 78.5608 50.8105 86.4051 64.114 93.57C78.5932 101.352 92.9486 109.32 107.366 117.165C115.224 121.426 123.021 125.812 131.312 129.332C137.129 131.803 143.007 134.088 148.885 136.559C158.043 140.45 167.758 141.933 178.277 142.118Z" fill="#EE8DB9"/>
<mask id="mask0" mask-type="alpha" maskUnits="userSpaceOnUse" x="0" y="0" width="211" height="143">
<path d="M178.277 142.118C183.289 142.303 188.734 141.439 193.932 139.339C203.584 135.386 208.782 127.912 210.7 117.906C211.071 115.806 210.886 113.644 210.453 111.544C209.772 108.456 208.782 105.553 207.173 102.835C204.698 98.6348 201.852 94.6818 198.263 91.4082C195.169 88.5669 191.952 85.8492 188.61 83.3168C183.165 79.2402 177.534 75.349 172.027 71.3342C169.552 69.543 167.015 67.8135 164.169 66.5782C163.859 66.4547 163.55 66.2694 163.241 66.0841C148.514 57.1898 133.787 48.2955 119.061 39.3394C109.284 33.4099 99.5694 27.3568 89.9167 21.3655C80.4495 15.4977 70.7348 10.1241 60.3395 5.98579C54.4612 3.63868 48.3973 1.72393 42.1477 0.612146C36.0838 -0.437876 30.1436 -0.129046 24.2034 1.47687C13.375 4.37987 6.01167 11.1124 2.11343 21.6126C-1.72293 31.9893 -0.17601 41.8101 5.45477 51.1367C7.55859 54.5956 10.3431 57.6222 13.3131 60.3399C17.1495 63.8605 21.3571 66.9488 25.5647 69.9136C37.9401 78.5608 50.8105 86.4051 64.114 93.57C78.5932 101.352 92.9486 109.32 107.366 117.165C115.224 121.426 123.021 125.812 131.312 129.332C137.129 131.803 143.007 134.088 148.885 136.559C158.043 140.45 167.758 141.933 178.277 142.118Z" fill="black"/>
</mask>
<g mask="url(#mask0)">
<path d="M233.886 120.026C233.628 105.945 229.819 94.2003 221.878 83.883C216.52 76.94 210.516 70.5809 203.737 65.0005C189.728 53.3207 175.525 41.9652 160.87 31.1289C156.158 27.6249 151.316 24.3805 146.538 21.0712C144.86 19.9681 143.117 18.9948 141.309 18.0864C140.276 17.5672 139.179 17.3077 138.081 17.1779C136.144 16.9184 134.401 17.5024 132.981 18.9299C132.271 19.6437 131.69 20.4223 131.173 21.2659C129.947 23.1476 128.849 25.0294 127.687 26.976C120.005 39.5644 112.322 52.1527 104.705 64.8059C100.444 71.8787 96.312 79.0813 91.922 86.1541C86.8219 94.3949 81.399 102.441 75.5242 110.163C75.3305 110.422 75.1368 110.682 74.9431 110.941C73.5229 113.018 73.5229 114.77 75.0077 116.846C75.5242 117.625 76.1698 118.339 76.7508 118.988C83.5294 126.774 91.2119 133.458 100.056 138.843C111.354 145.722 122.716 152.47 134.66 158.245C146.797 164.15 159.45 168.497 172.749 170.963C179.657 172.261 186.565 172.65 193.537 171.158C194.828 170.898 196.055 170.639 197.281 170.119C216.972 162.528 229.56 148.901 233.176 127.553C233.628 124.763 233.692 121.843 233.886 120.026Z" fill="#F7D046"/>
<mask id="mask1" mask-type="alpha" maskUnits="userSpaceOnUse" x="73" y="17" width="161" height="156">
<path d="M233.886 120.026C233.628 105.945 229.819 94.2003 221.878 83.883C216.52 76.94 210.516 70.5809 203.737 65.0005C189.728 53.3207 175.525 41.9652 160.87 31.1289C156.158 27.6249 151.316 24.3805 146.538 21.0712C144.86 19.9681 143.117 18.9948 141.309 18.0864C140.276 17.5672 139.179 17.3077 138.081 17.1779C136.144 16.9184 134.401 17.5024 132.981 18.9299C132.271 19.6437 131.69 20.4223 131.173 21.2659C129.947 23.1476 128.849 25.0294 127.687 26.976C120.005 39.5644 112.322 52.1527 104.705 64.8059C100.444 71.8787 96.312 79.0813 91.922 86.1541C86.8219 94.3949 81.399 102.441 75.5242 110.163C75.3305 110.422 75.1368 110.682 74.9431 110.941C73.5229 113.018 73.5229 114.77 75.0077 116.846C75.5242 117.625 76.1698 118.339 76.7508 118.988C83.5294 126.774 91.2119 133.458 100.056 138.843C111.354 145.722 122.716 152.47 134.66 158.245C146.797 164.15 159.45 168.497 172.749 170.963C179.657 172.261 186.565 172.65 193.537 171.158C194.828 170.898 196.055 170.639 197.281 170.119C216.972 162.528 229.56 148.901 233.176 127.553C233.628 124.763 233.692 121.843 233.886 120.026Z" fill="#EA552B"/>
</mask>
<g mask="url(#mask1)">
<path d="M68.0357 75.7686C66.9841 76.2021 65.9137 76.6031 64.8621 77.0367C57.7938 79.9025 50.3996 81.828 42.8675 83.1389C42.234 83.2443 41.5954 83.2657 40.9706 83.2359C40.7515 83.2322 40.4008 83.0007 40.372 82.8004C40.2918 82.5863 40.5095 82.287 40.6659 81.8061C41.0756 82.7413 41.639 82.5896 42.1698 82.4567C48.6389 81.1087 55.0654 79.6116 61.3113 77.3508C63.7501 76.4636 66.1325 75.4787 68.5525 74.5589C69.0783 74.3421 69.4638 74.0327 69.8067 73.5743C73.7403 68.1353 78.151 63.0717 83.2543 58.6064C86.3235 55.8796 89.5431 53.4132 93.2174 51.5089C93.8546 51.1844 94.5294 50.925 95.228 50.7821C96.4249 50.525 97.1926 51.2535 96.9789 52.4618C96.8239 53.2456 96.4686 54.0584 96.0757 54.806C95.0634 56.7358 93.6628 58.3689 92.1596 59.9746C89.6588 62.6336 86.8673 64.9395 83.8981 67.0878C81.412 68.8703 78.8646 70.4713 76.1906 71.9283C74.6746 72.7602 73.0696 73.5132 71.4973 74.2474C70.9577 74.5155 70.5071 74.8625 70.1504 75.3722C68.0892 78.3416 66.1682 81.4035 64.6116 84.6457C63.757 86.3976 63.0239 88.2096 62.5662 90.1229C62.2411 91.439 62.0187 92.7825 62.0992 94.1248C62.2389 96.1706 63.0946 97.8031 64.7177 99.0358C65.8123 99.8794 67.0082 100.447 68.2967 100.875C70.4956 101.602 72.7206 101.923 75.0195 102.071C80.5964 102.41 86.0615 101.728 91.435 100.362C92.995 99.9821 94.4798 99.472 96.021 99.0596C96.3515 98.9556 96.5931 98.7727 96.7595 98.4596C100.047 92.3522 104.531 87.1158 109.301 82.1485C113.946 77.3402 118.952 72.9313 124.141 68.764C127.917 65.759 131.783 62.8329 135.648 59.9068C138.097 58.0592 140.672 56.3555 143.364 54.9311C144.164 54.5126 145.021 54.1918 145.863 53.9223C146.259 53.7807 146.697 53.7881 147.103 53.8143C147.965 53.8803 148.62 54.4135 148.722 55.2662C148.814 55.951 148.827 56.7248 148.648 57.3922C148.313 58.5405 147.893 59.6938 147.367 60.7357C145.764 64.048 143.567 67.0086 141.263 69.8578C137.137 74.8875 132.42 79.3464 127.324 83.3735C121.987 87.5835 116.367 91.3052 110.396 94.4924C106.48 96.5796 102.395 98.3739 98.1736 99.8565C97.8105 99.9793 97.4662 100.135 97.2723 100.55C96.2238 102.718 95.348 104.96 95.037 107.352C94.9145 108.118 94.8948 108.91 94.9075 109.684C94.9948 112.541 96.2589 114.806 98.6296 116.431C100.21 117.515 101.998 118.132 103.874 118.524C106.09 118.981 108.338 119.115 110.608 119.063C115.838 118.951 120.947 117.954 125.966 116.575C134.398 114.268 142.448 110.922 150.126 106.706C150.484 106.5 150.851 106.158 151.082 105.807C157.344 95.6819 165.151 86.8785 173.79 78.766C175.814 76.8597 177.978 75.046 180.274 73.4601C181.52 72.6108 182.822 71.8591 184.279 71.4517C184.693 71.3426 185.178 71.2799 185.616 71.2873C187.015 71.3043 187.909 72.1768 187.841 73.5616C187.783 74.2891 187.661 75.0541 187.365 75.7454C186.863 76.9037 186.257 78.0345 185.595 79.0677C183.391 82.4666 180.691 85.4574 177.865 88.3043C172.685 93.4645 167 98.049 160.879 102.104C158.173 103.883 155.361 105.55 152.618 107.264C152.292 107.452 151.972 107.724 151.773 108.056C149.895 111.266 148.245 114.649 147.334 118.256C146.678 120.805 146.41 123.346 146.902 125.927C147.245 127.725 147.933 129.367 149.082 130.831C150.465 132.549 152.227 133.572 154.332 134.136C156.18 134.631 158.041 134.772 159.956 134.707C163.871 134.573 167.663 133.773 171.368 132.675C177.886 130.735 184.055 128.041 190.059 124.835C191.087 124.285 192.096 123.702 193.157 123.134C193.547 122.908 193.765 122.609 193.856 122.166C196.395 112.281 201.645 104.085 209.414 97.4732C212.828 94.5911 216.593 92.2435 220.885 90.8072C222.007 90.4199 223.222 90.1954 224.392 90.0411C225.077 89.9494 225.855 90.0206 226.523 90.1994C227.839 90.5245 228.627 91.5885 228.539 92.9408C228.473 93.8035 228.291 94.69 227.898 95.4377C227.205 96.7926 226.428 98.1526 225.524 99.3687C223.207 102.572 220.376 105.335 217.47 107.968C210.969 113.847 203.897 118.886 196.369 123.362C195.751 123.719 195.441 124.158 195.299 124.891C194.472 129.621 195.085 134.215 196.652 138.735C197.894 142.314 199.597 145.714 201.397 149.058C202.685 151.439 204.038 153.782 205.456 156.088C206.184 157.274 207.028 158.435 207.886 159.546C208.398 160.205 209.006 160.809 210.009 160.967C209.456 161.287 209.031 161.228 208.662 160.964C208.031 160.547 207.4 160.131 206.88 159.606C205.288 158.052 204.03 156.174 202.856 154.291C200.27 150.186 197.976 145.912 195.896 141.558C193.543 136.581 192.457 131.393 193.169 125.861C193.191 125.674 193.181 125.506 193.18 125.203C192.803 125.377 192.51 125.547 192.231 125.664C187.422 128.31 182.477 130.645 177.353 132.518C173.02 134.108 168.602 135.401 164.06 136.027C162.089 136.297 160.113 136.483 158.117 136.333C156.798 136.227 155.492 136.07 154.208 135.726C149.574 134.539 146.698 131.512 145.48 126.921C144.83 124.519 144.871 122.109 145.298 119.692C145.903 116.305 147.162 113.148 148.715 110.125C148.835 109.882 148.955 109.639 149.075 109.396C149.089 109.345 149.051 109.28 149.06 109.144C147.981 109.681 146.902 110.217 145.855 110.734C136.952 115.007 127.722 118.339 117.968 119.935C114.884 120.457 111.767 120.694 108.629 120.596C106.335 120.532 104.064 120.281 101.879 119.503C100.693 119.103 99.5343 118.6 98.4498 117.924C95.1825 115.948 93.5889 112.962 93.5626 109.158C93.5518 106.734 94.1521 104.392 95.0278 102.15C95.203 101.702 95.3781 101.253 95.5808 100.702C95.1664 100.812 94.8496 100.864 94.5517 100.949C88.7601 102.644 82.8443 103.673 76.7742 103.532C74.126 103.455 71.5003 103.192 68.9333 102.504C67.323 102.045 65.8052 101.446 64.4164 100.468C61.9755 98.7963 60.7577 96.4616 60.7493 93.5154C60.7325 91.8326 61.0562 90.2136 61.534 88.6358C62.2782 86.1665 63.3167 83.831 64.5656 81.6344C65.5229 79.91 66.6016 78.2456 67.6103 76.535C67.7629 76.2732 67.9344 76.0441 68.0871 75.7823C68.1247 75.8474 68.1059 75.8149 68.0357 75.7686ZM98.7389 98.0546C99.0232 98.0207 99.1396 97.9968 99.256 97.973C102.37 96.8264 105.37 95.4844 108.329 93.9935C113.868 91.1858 119.056 87.8436 124.037 84.1433C129.305 80.1901 134.162 75.8238 138.48 70.9004C141.254 67.7368 143.779 64.3691 145.744 60.631C146.243 59.6918 146.654 58.6737 147.013 57.6419C147.188 57.1936 147.255 56.6339 147.276 56.1443C147.306 55.5195 147.109 55.3293 146.495 55.4672C145.913 55.5863 145.335 55.7894 144.796 56.0575C141.553 57.5823 138.612 59.6279 135.745 61.8037C131.652 64.8613 127.615 68.0166 123.648 71.2182C118.525 75.348 113.654 79.7656 109.144 84.5826C105.456 88.4915 102.048 92.5857 99.2245 97.1667C99.1181 97.3583 98.9654 97.62 98.7389 98.0546ZM196.23 121.316C196.607 121.142 196.802 121.029 197.03 120.897C204.11 116.549 210.787 111.653 216.897 105.999C219.594 103.53 222.165 100.917 224.292 97.9104C225.005 96.891 225.611 95.7602 226.184 94.6481C226.443 94.1948 226.543 93.6163 226.596 93.1079C226.664 92.5482 226.443 92.2416 225.93 92.104C225.622 92.0215 225.249 91.9765 224.964 92.0104C224.112 92.1121 223.227 92.2326 222.417 92.4832C218.795 93.5762 215.521 95.4228 212.511 97.7251C204.877 103.521 199.587 111.045 196.579 120.116C196.431 120.462 196.367 120.802 196.23 121.316ZM154.124 104.311C154.143 104.344 154.213 104.39 154.232 104.422C154.33 104.366 154.446 104.342 154.544 104.286C162.457 99.5004 169.821 93.9901 176.435 87.4809C179.234 84.7367 181.855 81.8348 184.017 78.5899C184.712 77.5379 185.285 76.4259 185.839 75.2813C186.079 74.7954 186.16 74.1844 186.228 73.6247C186.268 73.1677 186.052 72.9449 185.582 72.9563C185.078 72.9865 184.58 73.1006 184.087 73.2986C182.127 74.0392 180.488 75.3331 178.848 76.6271C175.443 79.374 172.259 82.4276 169.233 85.6063C163.893 91.1635 158.921 96.9848 154.61 103.423C154.509 103.699 154.342 104.012 154.124 104.311ZM95.8944 51.786C95.1156 51.7149 94.4784 52.0394 93.8737 52.3451C91.8507 53.4263 89.9267 54.7541 88.0916 56.1608C82.0893 60.7979 76.9813 66.3075 72.3743 72.3089C72.2492 72.468 72.1616 72.6921 71.9626 73.024C72.8465 72.6005 73.5025 72.3086 74.1722 71.9653C78.5813 69.6801 82.7649 67.0043 86.564 63.8128C89.2577 61.5631 91.825 59.1696 93.8725 56.2516C94.5258 55.3536 95.0388 54.3631 95.5706 53.4051C95.881 52.9655 96.0511 52.4333 95.8944 51.786Z" fill="black"/>
</g>
</g>
</svg>
