<svg width="179" height="180" viewBox="0 0 179 180" fill="none" xmlns="http://www.w3.org/2000/svg">
<path d="M160.865 121.06C164.965 144.96 144.665 162.86 122.365 155.36C122.165 156.16 121.965 156.86 121.765 157.66C117.265 175.66 98.5652 184.66 81.8652 176.76C72.1652 172.16 65.9652 164.66 63.0652 154.36C62.7652 153.46 62.5652 152.56 62.2652 151.56C61.8652 151.56 61.5652 151.46 61.2652 151.56C46.8652 154.26 36.1652 148.46 28.0652 136.96C25.6652 133.56 24.0652 129.66 23.2652 125.56C22.9652 123.96 22.1652 123.16 20.6652 122.46C8.46517 116.76 1.56517 107.16 0.165167 93.76C-1.23483 80.16 6.36517 67.26 19.1652 62.96C19.5652 62.86 20.0652 62.56 20.6652 62.36C20.5652 61.46 20.3652 60.56 20.2652 59.76C18.9652 52.76 19.8652 46.06 23.0652 39.66C29.6652 26.56 44.7652 20.86 58.8652 26.36C60.9652 27.16 62.8652 28.26 65.1652 29.36C65.2652 28.46 65.2652 27.56 65.4652 26.76C66.0652 24.06 66.3652 21.16 67.2652 18.56C72.4652 4.16 87.5652 -3.24 102.265 1.36C113.665 4.96 120.865 12.96 124.565 24.26C124.865 25.26 125.165 26.26 125.465 27.26C126.065 27.16 126.565 27.16 127.065 27.06C138.465 25.36 147.965 29.06 155.565 37.36C162.365 44.76 165.465 53.66 164.465 63.86C164.265 65.56 164.865 66.56 166.065 67.66C175.865 76.66 179.965 87.66 177.265 100.76C175.465 109.46 170.465 115.96 162.565 120.16C161.965 120.46 161.465 120.76 160.865 121.06ZM100.865 118.06C101.765 112.96 103.565 108.56 106.465 104.66C109.465 100.66 113.265 97.76 117.765 95.76C117.765 95.06 117.665 94.56 117.665 94.16C117.565 91.26 117.365 88.46 117.565 85.56C117.665 84.16 117.365 83.36 116.365 82.46C110.665 77.76 106.965 71.66 104.965 64.56C104.765 63.96 104.565 63.36 104.365 62.76C100.165 63.46 96.1652 63.76 92.0652 62.96C88.0652 62.16 84.4652 60.26 80.6652 58.26C79.7652 72.36 73.2652 82.16 59.7652 86.86C60.2652 88.56 59.8652 90.16 61.9652 91.06C72.8652 95.56 79.4652 103.76 82.4652 115.16C82.6652 115.76 82.8652 116.36 83.1652 117.06C89.0652 115.66 94.7652 115.96 100.865 118.06Z" fill="#4CA96D"/>
<path d="M129.965 92.36C129.465 104.76 123.765 116.76 112.465 125.66C104.965 131.56 96.0651 133.96 86.5651 133.26C80.7651 132.86 75.3651 130.66 70.5651 127.36C58.5651 119.26 51.6651 108.06 49.5651 93.86C48.6651 88.06 48.7651 82.36 49.9651 76.66C51.6651 68.46 55.5651 61.56 61.9651 56.16C68.6651 50.46 76.4651 47.06 85.1651 46.16C90.9651 45.56 96.4651 46.76 101.765 49.16C107.465 51.76 112.665 55.16 117.165 59.56C125.765 67.96 129.765 78.36 129.965 92.36Z" fill="#EE8DB9"/>
</svg>
