<svg width="136" height="217" viewBox="0 0 136 217" fill="none" xmlns="http://www.w3.org/2000/svg">
<path d="M104.763 63.6361C111.063 64.1361 116.863 64.6361 122.663 65.1361C123.963 65.2361 125.263 65.4361 126.363 65.9361C128.563 66.8361 129.663 68.6361 129.863 71.1361C130.063 74.4361 129.463 77.5361 128.263 80.5361C126.863 84.1361 125.363 87.6361 123.663 91.0361C119.563 99.4361 115.063 107.636 110.163 115.636C100.463 131.236 90.8633 146.736 81.4633 162.536C76.9633 170.036 73.2633 177.936 69.0633 185.536C64.8633 193.236 60.4633 200.936 56.2633 208.636C53.9633 212.936 50.0633 215.036 45.7633 216.336C40.7633 217.836 35.5633 214.836 33.9633 209.836C32.7633 206.036 32.6633 202.136 34.1633 198.536C36.8633 192.036 39.9633 185.736 43.0633 179.436C44.0633 177.436 45.6633 175.836 47.6633 174.636C50.6633 172.836 52.2633 173.436 53.0633 176.736C53.1633 177.036 53.1633 177.336 53.3633 178.136C54.0633 177.136 54.5633 176.536 54.9633 175.836C61.6633 165.036 67.7633 153.836 73.2633 142.336C81.8633 124.336 91.4633 106.936 101.063 89.4361C102.463 86.8361 104.163 84.4361 105.663 81.8361C106.063 81.1361 106.463 80.5361 106.963 79.6361C103.463 79.4361 100.263 79.2361 97.1633 79.0361C96.2633 78.9361 95.7633 79.4361 95.2633 80.2361C94.0633 82.1361 92.8633 84.0361 91.6633 85.9361C89.1633 90.1361 85.4633 92.0361 80.5633 91.6361C79.1633 91.5361 77.6633 91.5361 76.2633 91.1361C72.4633 90.2361 70.5633 86.8361 71.5633 83.0361C71.8633 81.9361 72.3633 80.9361 72.8633 79.9361C82.3633 62.9361 91.7633 46.0361 101.363 29.1361C104.163 24.2361 107.363 19.5361 110.363 14.6361C110.763 13.9361 111.163 13.3361 111.663 12.4361C110.263 12.3361 109.263 12.3361 108.163 12.1361C105.663 11.7361 104.363 10.3361 104.063 8.13607C103.863 6.43607 104.463 5.33607 106.063 4.63607C107.063 4.23607 107.763 3.53607 108.563 2.93607C109.463 2.23607 110.763 1.53607 111.963 1.53607C116.763 1.23607 121.363 1.03607 126.063 1.03607C127.763 1.03607 129.563 1.33607 131.263 1.73607C134.763 2.53607 136.363 5.13607 135.363 8.53607C134.863 10.3361 134.063 12.1361 132.963 13.7361C129.063 19.1361 125.663 24.9361 122.663 31.0361C117.563 41.3361 112.063 51.3361 106.163 61.1361C105.763 61.8361 105.363 62.5361 104.763 63.6361Z" fill="black"/>
<path d="M30.6632 105.436C27.6632 105.636 24.8632 105.836 21.9632 105.936C17.4632 106.236 12.8632 106.536 8.36322 106.736C7.36322 106.836 6.46322 106.836 5.46322 106.736C1.56322 106.336 -0.636777 103.236 0.163223 99.4361C0.263223 99.0361 0.363223 98.6361 0.563223 98.3361C5.06322 86.5361 8.26322 74.4361 11.2632 62.2361C14.6632 48.7361 18.1632 35.2361 21.6632 21.8361C22.3632 19.2361 23.1632 16.6361 23.8632 14.0361C24.8632 10.5361 26.8632 8.23607 30.6632 7.83607C34.6632 7.43607 38.5632 6.73607 42.5632 6.43607C60.5632 5.33607 78.5632 3.33607 96.4632 1.23607C100.963 0.736068 105.563 0.336068 110.063 0.036068C111.663 -0.063932 113.263 0.036068 114.763 0.436068C118.563 1.33607 120.163 4.93607 118.663 8.43607C118.163 9.53607 117.463 10.5361 116.763 11.5361C114.963 14.3361 113.163 17.0361 111.463 19.8361C106.863 27.6361 102.363 35.4361 97.6632 43.1361C92.9632 50.8361 88.1632 58.5361 83.3632 66.2361C81.9632 68.4361 80.5632 70.5361 79.1632 72.6361C78.7632 73.2361 78.3632 73.9361 77.7632 74.9361C78.7632 74.9361 79.3632 74.9361 79.9632 74.9361C88.2632 75.0361 96.5632 75.0361 104.863 75.1361C105.463 75.1361 106.163 75.2361 106.763 75.3361C110.563 76.1361 112.463 79.6361 111.063 83.2361C110.563 84.5361 109.663 85.7361 108.763 86.8361C104.663 92.2361 100.463 97.5361 96.4632 103.036C94.5632 105.636 92.8632 108.536 91.3632 111.436C83.2632 126.836 75.2632 142.136 67.3632 157.636C59.1632 173.536 51.1632 189.636 43.0632 205.536C42.4632 206.736 41.7632 207.936 40.7632 208.936C38.3632 211.436 35.1632 211.236 32.6632 208.936C30.8632 207.236 29.8632 205.236 29.7632 202.836C29.4632 198.336 29.0632 193.736 29.1632 189.136C29.4632 172.736 30.0632 156.336 30.3632 139.936C30.5632 128.836 30.5632 117.736 30.6632 106.636C30.8632 106.336 30.7632 105.936 30.6632 105.436Z" fill="#EA552B"/>
</svg>
