<svg width="143" height="188" viewBox="0 0 143 188" fill="none" xmlns="http://www.w3.org/2000/svg">
<path d="M50.4 145.2C50 146 49.7 146.9 49.2 147.7C48.3 149.4 47.1 150.7 45.1 151.2C41.6 152.1 38.2 149.5 38.2 145.6C38.2 142.4 38.5 139.2 38.9 136C42.5 110.6 54.4 89.9 73.9 73.5C79.2 69 83.9 64.2 88.1 58.7C94.2 50.7 100.5 42.9 107.7 35.8C111.8 31.7 116.2 28.1 121.1 25C124.1 23.1 127.3 21.7 130.9 21.2C136.9 20.4 141.6 23.6 142.5 29.6C143.4 35.9 142.1 41.7 138.2 46.8C135.2 50.7 131.6 53.8 127.3 56C124.3 57.5 121.3 59 118.2 60.4C96.6 70.4 81 86.4 71.4 108.1C67.5 116.9 65.2 126.2 63.6 135.7C62.3 143.7 61.1 151.7 59.8 159.6C59.5 161.4 59 163.2 58.5 165C56 173.9 49.8 179.2 41.5 182.1C37.7 183.5 33.6 184 29.6 184.6C28.1 184.9 26.4 184.7 24.8 184.5C22.4 184.1 21 182.5 20.9 180.6C20.9 178.7 22.2 177.2 24.6 176.5C28.4 175.4 32.3 174.3 36.1 173.2C39.2 172.3 41.7 170.6 43.9 168.3C46.1 166.1 47.6 163.5 48.2 160.4C49 155.9 49.8 151.4 50.5 146.9C50.6 146.4 50.5 145.9 50.5 145.4C50.6 145.3 50.5 145.3 50.4 145.2ZM107.4 52.8C107.8 52.8 107.9 52.9 108.1 52.9C113 50.5 117.9 48.2 122.8 45.8C125.6 44.4 127.9 42.2 129.8 39.7C131.3 37.6 131.9 35.2 131.7 32.5C125.7 33.9 113 44.7 107.4 52.8Z" fill="#EE8DB9"/>
<path d="M0 152.658C0.9 142.658 1.3 132.958 3.1 123.358C4.6 115.758 5.6 108.058 6.9 100.458C7.5 96.8576 8.4 93.2576 9.3 89.6576C9.7 88.1576 10.4 86.6576 10.8 85.0576C14.2 72.8576 19.8 61.6576 27 51.2576C28.7 48.7576 30.4 46.2576 32.3 43.8576C44.9 28.4576 60.3 16.7576 78.2 8.25765C84.1 5.55765 90 2.85765 96.3 1.55765C103.4 0.0576456 110.5 -0.642354 117.7 0.757646C123.3 1.85765 128.4 4.15765 132.8 7.65765C136.4 10.5576 139.2 14.1576 141 18.4576C146 30.4576 139.2 43.8576 129.4 47.7576C122.6 50.4576 115.8 53.2576 108.9 56.0576C93.3 62.4576 80.3 72.3576 70 85.5576C64.3 92.8576 60.6 101.158 57.3 109.658C53.1 120.158 51.2 130.958 51.7 142.258C52 148.258 52.1 154.258 52.3 160.258C52.5 165.258 51.4 169.958 49.3 174.458C47.4 178.558 44.4 181.558 40.4 183.458C32.8 187.058 24.9 188.158 16.6 186.158C11.3 184.858 7.4 181.858 4.9 176.958C2.8 172.958 1.3 168.758 0.9 164.258C0.6 160.158 0.3 156.258 0 152.658Z" fill="black"/>
<mask id="mask0" mask-type="alpha" maskUnits="userSpaceOnUse" x="0" y="0" width="143" height="188">
<path d="M0 152.658C0.9 142.658 1.3 132.958 3.1 123.358C4.6 115.758 5.6 108.058 6.9 100.458C7.5 96.8577 8.4 93.2576 9.3 89.6576C9.7 88.1576 10.4 86.6576 10.8 85.0576C14.2 72.8577 19.8 61.6576 27 51.2576C28.7 48.7576 30.4 46.2576 32.3 43.8576C44.9 28.4576 60.3 16.7576 78.2 8.25765C84.1 5.55765 90 2.85765 96.3 1.55765C103.4 0.0576456 110.5 -0.642354 117.7 0.757646C123.3 1.85765 128.4 4.15765 132.8 7.65765C136.4 10.5576 139.2 14.1576 141 18.4576C146 30.4576 139.2 43.8576 129.4 47.7576C122.6 50.4576 115.8 53.2576 108.9 56.0576C93.3 62.4576 80.3 72.3577 70 85.5576C64.3 92.8577 60.6 101.158 57.3 109.658C53.1 120.158 51.2 130.958 51.7 142.258C52 148.258 52.1 154.258 52.3 160.258C52.5 165.258 51.4 169.958 49.3 174.458C47.4 178.558 44.4 181.558 40.4 183.458C32.8 187.058 24.9 188.158 16.6 186.158C11.3 184.858 7.4 181.858 4.9 176.958C2.8 172.958 1.3 168.758 0.9 164.258C0.6 160.158 0.3 156.258 0 152.658Z" fill="black"/>
</mask>
<g mask="url(#mask0)">
<path d="M-3.39999 158.7C-2.79999 159.8 -2.59999 160.7 -1.99999 161.4C-0.399988 163.1 1.10001 164.8 2.90001 166.3C15.9 177.1 30.7 183.8 47.3 186.4C53 187.3 58.7 187.8 64.5 186.9C65.5 186.7 66.5 186.5 67.5 186.2C69.2 185.7 69.4 185.5 70.3 183.9C71.4 185 71.5 185.7 70.4 186.5C69.3 187.3 68.1 187.9 66.8 188.2C63.6 189.1 60.4 189.3 57.1 189.1C36.6 187.8 18.3 180.8 2.50001 167.7C0.700012 166.2 -0.999988 164.4 -2.59999 162.7C-3.19999 162 -3.79999 161.2 -4.19999 160.3C-4.89999 158.5 -4.19999 157.2 -2.19999 157.2C-0.399988 157.2 1.50001 157.4 3.20001 157.8C11.3 159.8 19.3 161.9 27.3 164C32 165.2 36.8 166.2 41.7 166.5C43.5 166.6 45.4 166.4 47.2 166.2C47.9 166.1 48.6 165.7 49.8 165.2C48.7 164.1 48.1 163.2 47.2 162.6C44.9 161 42.6 159.4 40.3 157.9C35.2 154.5 29.9 151.3 24.9 147.8C12.7 139.2 3.80001 127.9 -1.99999 114.1C-2.99999 111.8 -3.69999 109.3 -4.39999 106.8C-4.79999 105.5 -4.79999 104.1 -4.79999 102.8C-4.79999 99.8 -3.29999 98.7 -0.399988 99.6C1.20001 100.1 2.70001 100.8 4.20001 101.7C9.20001 104.7 14.1 107.8 19.1 110.9C28.6 116.9 38.1 122.7 48.4 127.2C52.1 128.8 55.8 130.3 59.8 130.9C60.5 131 61.1 131 62.4 131C61.4 129.6 60.8 128.7 60.1 127.9C57.9 125.5 55.6 123.1 53.4 120.7C42.9 109.8 34 98.1 27.6 84.5C24 76.9 21.2 69 19.9 60.7C19.4 57.4 18.9 54 19.5 50.7C19.5 50.5 19.6 50.2 19.6 50C20.4 45.6 23.2 44 27.3 46C29.2 46.9 31 48 32.5 49.3C36.8 53 41.1 56.7 45.3 60.5C53.2 67.6 61 74.9 69 81.8C72.1 84.5 75.7 86.7 79.2 89C80.5 89.9 82.1 90.3 83.5 90.9C83.7 90.8 83.8 90.7 84 90.5C83.8 89.7 83.7 88.9 83.3 88.2C82.2 86 81 83.8 79.9 81.6C73.7 69.8 68.4 57.7 64.6 44.9C61.8 35.6 60.4 26.2 61 16.5C61.1 14.2 61.6 11.9 62 9.60001C62.2 8.60001 62.6 7.60001 63.2 6.70001C64.6 4.20001 66.7 3.70001 69 5.30001C70.4 6.20001 71.7 7.40001 72.7 8.70001C75.4 12 78.1 15.5 80.6 19C87.5 28.5 94.1 38.2 102 47C105.9 51.3 110 55.3 114.1 59.3C115.2 60.3 116.5 61.1 117.7 62C117.9 61.9 118 61.8 118.2 61.7C117.8 60.4 117.3 59 116.9 57.7C114.4 50.4 111.6 43.1 109.3 35.7C106.9 27.9 105.1 19.9 104.4 11.8C104.2 8.90001 104.2 6.10001 104.3 3.20001C104.3 2.30001 104.5 1.50001 104.8 0.600009C105.6 -2.09999 107.5 -2.69999 109.7 -0.999991C110.6 -0.299991 111.4 0.50001 112.1 1.40001C113.9 3.60001 115.6 5.70001 117.3 8.00001C129.7 25 142.4 41.8 155.9 57.9C159.5 62.2 163.3 66.3 167.2 70.7C166.6 70.3 166.1 70.2 165.8 69.8C161.4 65.1 156.8 60.5 152.7 55.5C140 40.4 127.9 24.7 116.3 8.70001C114.4 6.10001 112.3 3.70001 110.3 1.30001C109.6 0.50001 108.6 9.29832e-06 107.8 -0.699991C106.4 0.50001 106.4 1.90001 106.3 3.30001C105.9 9.30001 106.8 15.1 108 20.9C110.4 32.6 114 43.9 118.5 55C119.2 56.7 119.8 58.4 120.3 60.2C120.5 60.9 120.6 61.8 120.6 62.6C120.5 63.9 119.5 64.6 118.2 64.2C117 63.8 115.8 63.1 114.9 62.3C111.7 59.5 108.5 56.7 105.6 53.7C96.9 44.8 89.6 34.8 82.5 24.6C79.4 20.2 76.3 15.9 73.1 11.6C71.9 10 70.5 8.60001 69 7.30001C67.1 5.70001 65.7 6.10001 64.7 8.40001C63.4 11.5 63.2 14.8 63.1 18.1C62.9 25.6 63.9 32.9 65.8 40.2C69.5 54.4 75.4 67.6 82.1 80.6C83.2 82.8 84.4 85 85.5 87.2C85.9 88.1 86.2 89.2 86.3 90.2C86.5 92.1 85.4 93.1 83.5 92.8C82.3 92.6 81 92.2 79.9 91.5C76.9 89.7 73.9 87.8 71.1 85.7C62.5 79.5 55 72.3 47.5 65.2C43 60.9 38.4 56.7 33.8 52.5C32.3 51.1 30.5 49.9 28.8 48.8C27.8 48.1 26.7 47.6 25.6 47.2C23.5 46.4 22.2 47.1 21.6 49.2C21.2 50.6 21 52 21 53.5C20.9 59.5 22.4 65.2 24.2 70.9C28.7 85.1 36.2 97.7 45.7 109.1C49.7 113.9 54 118.4 58.2 123.1C59.6 124.6 61 126.2 62.3 127.8C62.9 128.5 63.3 129.2 63.6 130.1C64.1 131.7 63.4 132.9 61.7 132.9C60.3 133 58.8 132.8 57.4 132.5C52.2 131.3 47.3 129.1 42.4 126.7C33.6 122.4 25.4 117.2 17.2 111.9C12.9 109.1 8.60001 106.4 4.20001 103.7C2.60001 102.7 0.800012 101.9 -0.999988 101.2C-2.99999 100.5 -3.79999 101.1 -3.69999 103.1C-3.59999 104.8 -3.39999 106.6 -2.79999 108.3C-0.199988 117 4.50001 124.6 10 131.7C15.2 138.4 21.5 143.9 28.6 148.6C33.3 151.7 38 154.6 42.7 157.7C44.3 158.7 45.9 159.8 47.5 160.9C48.2 161.4 48.8 161.9 49.3 162.4C50.3 163.3 51 164.4 50.6 165.8C50.2 167.1 49 167.6 47.8 167.7C45.5 167.9 43.2 168.3 40.9 168C36.9 167.5 32.8 166.9 28.9 165.9C21.1 164 13.5 161.8 5.70001 159.8C4.00001 159.4 2.30001 159 0.500012 158.7C-0.399988 158.5 -1.69999 158.7 -3.39999 158.7Z" fill="#FBE8DE"/>
</g>
</svg>
