<svg width="127" height="212" viewBox="0 0 127 212" fill="none" xmlns="http://www.w3.org/2000/svg">
<path d="M100.299 211.9C89.7988 212.1 81.0988 208.8 73.4988 202.7C69.3988 199.3 65.4988 195.5 61.6988 191.8C55.8988 186.2 50.3988 180.3 45.4988 173.8C40.4988 167.3 36.9988 160.1 34.9988 152.2C34.1988 149.2 33.4988 146.1 32.9988 143.1C31.6988 135.3 32.6988 127.6 34.5988 120C36.1988 113.5 38.3988 107.1 40.3988 100.7C42.7988 93 45.1988 85.3 46.5988 77.3C47.4988 72.3 45.9988 68.1 42.4988 64.7C39.4988 61.7 36.4988 58.8 33.2988 55.9C28.6988 51.8 23.0988 49.4 17.2988 47.4C11.2988 45.3 5.9988 42.2 2.3988 36.7C-0.901197 31.6 -0.401197 26.4 1.5988 21.1C1.9988 19.9 2.4988 18.6 3.0988 17.6C4.2988 15.7 5.5988 13.7 7.0988 12C8.7988 10.1 11.1988 9.6 13.6988 10.3C17.1988 11.3 18.8988 14.9 17.1988 18.1C16.4988 19.5 15.3988 20.8 14.3988 22C11.7988 25.1 11.7988 26.1 15.0988 28.3C21.8988 32.8 28.4988 37.5 36.3988 40.2C43.3988 42.7 49.7988 46.6 55.9988 50.8C58.4988 52.5 60.0988 54.8 61.1988 57.5C63.4988 62.9 64.0988 68.6 63.7988 74.4C63.2988 85.2 60.8988 95.6 58.5988 106.1C57.1988 112.6 55.7988 119.1 54.8988 125.6C53.7988 134 56.1988 141.8 60.9988 148.7C66.7988 157 74.3988 163.5 83.6988 167.7C91.6988 171.3 99.6988 175 107.599 178.9C110.199 180.1 112.599 181.8 114.899 183.5C120.099 187.5 122.099 192.9 120.299 199.2C118.499 205.7 114.399 210 107.599 211.1C104.999 211.6 102.299 211.7 100.299 211.9ZM43.8988 135C43.6988 135 43.5988 135 43.3988 135.1C43.4988 136.8 43.3988 138.6 43.6988 140.3C44.1988 143.4 44.8988 146.4 45.5988 149.4C47.1988 155.9 50.1988 161.8 54.2988 167.1C61.4988 176.7 70.1988 184.8 79.0988 192.8C85.6988 198.8 93.4988 201.5 102.499 200.5C103.899 200.3 105.399 200.3 106.699 199.9C109.999 198.8 110.899 194.6 108.299 192.4C106.699 191.1 104.999 189.9 103.099 189C95.5988 185.4 88.1988 181.7 80.4988 178.4C69.8988 173.8 61.1988 166.8 53.9988 157.9C48.9988 151.8 45.8988 144.7 44.2988 137C44.2988 136.4 44.0988 135.7 43.8988 135Z" fill="black"/>
<path d="M95.1988 70.5C94.4988 75.7 93.6988 81.8 92.9988 87.9C92.0988 95.9 89.6988 103.5 87.6988 111.3C85.5988 119.3 84.2988 127.4 83.7988 135.7C83.6988 138.2 83.7988 140.7 84.1988 143.1C84.4988 144.8 85.2988 146.5 86.2988 147.9C88.3988 150.9 91.1988 153.1 94.1988 155.2C100.699 159.6 107.099 164.1 113.499 168.6C115.599 170.1 117.599 171.7 119.299 173.6C124.599 179.3 127.399 185.9 125.899 193.8C123.999 203.9 114.499 211.5 104.199 211.4C97.2988 211.3 90.8988 209.4 85.1988 205.6C77.7988 200.7 70.6988 195.4 64.3988 189C60.8988 185.4 57.7988 181.6 55.1988 177.4C54.6988 176.5 54.0988 175.6 53.4988 174.8C48.2988 168.5 45.4988 161.1 43.2988 153.3C40.0988 142 40.7988 131 44.9988 120.1C46.6988 115.6 48.7988 111.1 50.7988 106.7C53.4988 100.8 56.0988 94.9 57.3988 88.5C58.4988 83.5 58.7988 78.4 58.0988 73.2C56.9988 65.6 53.4988 59.3 47.7988 54.2C45.7988 52.4 43.5988 50.7 41.3988 49.2C31.4988 42.6 21.1988 37 9.59884 33.7C9.09884 33.6 8.69884 33.4 8.19884 33.3C0.498836 31.7 -1.80116 22.3 1.39884 16.5C3.79884 12.2 6.89884 8.7 10.6988 5.6C15.1988 2 20.3988 0.1 26.1988 0C28.6988 0 31.1988 0 33.5988 0.2C42.6988 1.1 51.2988 3.9 59.0988 8.7C62.1988 10.6 65.1988 12.6 68.0988 14.7C83.2988 25.9 91.6988 41.1 94.1988 59.7C94.5988 63 94.7988 66.3 95.1988 70.5Z" fill="#EA552B"/>
<mask id="mask0" mask-type="alpha" maskUnits="userSpaceOnUse" x="0" y="0" width="127" height="212">
<path d="M95.1988 70.5C94.4988 75.7 93.6988 81.8 92.9988 87.9C92.0988 95.9 89.6988 103.5 87.6988 111.3C85.5988 119.3 84.2988 127.4 83.7988 135.7C83.6988 138.2 83.7988 140.7 84.1988 143.1C84.4988 144.8 85.2988 146.5 86.2988 147.9C88.3988 150.9 91.1988 153.1 94.1988 155.2C100.699 159.6 107.099 164.1 113.499 168.6C115.599 170.1 117.599 171.7 119.299 173.6C124.599 179.3 127.399 185.9 125.899 193.8C123.999 203.9 114.499 211.5 104.199 211.4C97.2988 211.3 90.8988 209.4 85.1988 205.6C77.7988 200.7 70.6988 195.4 64.3988 189C60.8988 185.4 57.7988 181.6 55.1988 177.4C54.6988 176.5 54.0988 175.6 53.4988 174.8C48.2988 168.5 45.4988 161.1 43.2988 153.3C40.0988 142 40.7988 131 44.9988 120.1C46.6988 115.6 48.7988 111.1 50.7988 106.7C53.4988 100.8 56.0988 94.9 57.3988 88.5C58.4988 83.5 58.7988 78.4 58.0988 73.2C56.9988 65.6 53.4988 59.3 47.7988 54.2C45.7988 52.4 43.5988 50.7 41.3988 49.2C31.4988 42.6 21.1988 37 9.59884 33.7C9.09884 33.6 8.69884 33.4 8.19884 33.3C0.498836 31.7 -1.80116 22.3 1.39884 16.5C3.79884 12.2 6.89884 8.7 10.6988 5.6C15.1988 2 20.3988 0.1 26.1988 0C28.6988 0 31.1988 0 33.5988 0.2C42.6988 1.1 51.2988 3.9 59.0988 8.7C62.1988 10.6 65.1988 12.6 68.0988 14.7C83.2988 25.9 91.6988 41.1 94.1988 59.7C94.5988 63 94.7988 66.3 95.1988 70.5Z" fill="#EA552B"/>
</mask>
<g mask="url(#mask0)">
<path fill-rule="evenodd" clip-rule="evenodd" d="M54.8988 18.3C54.8988 15.8 53.2988 14 50.9988 14C48.9988 14 47.2988 15.6 47.1988 17.8C47.0988 20.5 48.6988 22.5 50.8988 22.5C53.0988 22.6 54.8988 20.7 54.8988 18.3ZM87.3988 60.7C87.3988 63.1 85.3988 65 82.8988 65C80.4988 64.9 78.6988 63.1 78.7988 60.7C78.8988 58.4 80.7988 56.6 83.1988 56.6C85.4988 56.5 87.3988 58.3 87.3988 60.7ZM71.1987 91.3C73.7987 91.3 75.4987 89.1 75.4987 86C75.3987 83.7 73.8987 82.1 71.7987 82.3C69.3987 82.3 67.1987 84.7 67.1987 87.2C67.1987 89.6 68.8987 91.3 71.1987 91.3ZM80.7988 107C80.7988 109.9 78.8988 111.9 76.4988 111.7C74.1988 111.6 72.2988 109.6 72.5988 107.2C72.6988 106.1 73.1988 104.9 73.7988 103.9C74.6988 102.4 76.0988 101.8 77.8988 102.1C79.5988 102.4 80.1988 103.7 80.4988 105.2L80.4988 105.2C80.5988 105.9 80.6988 106.6 80.7988 107ZM69.2411 127.314C69.3234 126.978 69.4063 126.639 69.4988 126.3C69.3988 124.2 68.6988 122.8 67.2988 122.1C65.6988 121.4 63.6988 121.8 62.3988 123.1C61.0988 124.4 60.3988 125.9 60.4988 127.8C60.5988 129.9 61.9988 131.5 63.8988 131.9C65.7988 132.3 67.7988 131.4 68.5988 129.5C68.8755 128.808 69.0565 128.069 69.2411 127.314ZM88.2832 174.489C88.2568 174.649 88.2289 174.819 88.1987 175C88.3145 175.318 88.4302 175.687 88.5556 176.086L88.5557 176.086C88.8637 177.067 89.2302 178.234 89.7987 179.3C90.8987 181 93.0987 181.5 94.8987 180.7C96.5987 179.9 97.5987 178 97.0987 176.1C96.6987 174.6 95.9987 173.1 95.2987 171.7C94.5987 170.4 93.3987 169.8 91.8987 169.9C90.2987 170 89.1987 170.9 88.6987 172.4C88.5289 172.994 88.4312 173.589 88.2832 174.489ZM72.5988 160.4C72.5988 163.2 70.6988 165.3 68.1988 165.4C65.6988 165.4 63.7988 163.4 63.8988 160.7C63.9988 157.8 65.9988 155.4 68.3988 155.5C70.7988 155.6 72.5988 157.7 72.5988 160.4ZM104.999 198.1C107.299 198.1 109.199 196.2 109.199 193.8C108.899 190.8 107.799 188.2 105.099 188.3C102.599 188.3 100.499 190.6 100.499 193.4C100.599 196 102.599 198.1 104.999 198.1ZM61.6988 37C63.7988 37.2 65.4988 39.1 65.2988 41.3C65.0988 43.6 63.0988 45.4 60.6988 45.2C58.5988 45 57.0988 43.3 57.1988 41.1C57.3988 38.7 59.3988 36.9 61.6988 37ZM19.6988 24.3C21.1988 24.3 22.2988 23 22.2988 21.5C22.1988 19.9 20.8988 18.7 19.4988 18.8C18.0988 18.9 16.8988 20.4 16.9988 21.8C17.0988 23.2 18.2988 24.3 19.6988 24.3Z" fill="#FBE8DE"/>
</g>
</svg>
