<svg width="310" height="325" viewBox="0 0 310 325" fill="none" xmlns="http://www.w3.org/2000/svg">
<path d="M309.915 185.251C310.015 205.151 308.215 220.151 303.615 234.651C296.715 256.551 284.115 274.651 266.615 289.251C246.015 306.451 222.515 317.751 196.115 322.751C183.715 325.051 171.215 325.451 158.615 324.151C141.415 322.451 124.415 319.251 107.915 313.851C100.515 311.351 93.1154 308.651 85.9154 305.651C76.4154 301.851 67.8154 296.551 59.7154 290.351C52.7154 284.951 45.9154 279.451 39.7154 273.151C31.8154 265.151 25.2154 256.251 20.3154 246.251C13.3154 232.051 7.51543 217.451 3.71543 202.051C2.11543 195.551 1.21543 188.851 0.815426 182.151C0.315426 174.451 -0.0845739 166.651 0.0154261 158.951C0.215426 141.251 5.51543 124.851 14.0154 109.351C24.1154 90.8512 38.5154 76.2512 56.0154 64.7512C60.4154 61.8512 64.6154 58.7512 68.7154 55.3512C80.9154 45.0512 93.7154 35.6512 107.315 27.2512C127.815 14.7512 149.815 6.25116 173.515 2.05116C185.215 0.0511563 197.015 -0.748844 208.815 0.851156C228.115 3.55116 243.315 12.7512 253.915 29.3512C258.315 36.3512 261.615 43.8512 264.515 51.6512C266.015 55.7512 267.415 59.7512 268.815 63.8512C272.915 75.6512 277.715 87.1512 283.415 98.2512C287.215 105.651 290.815 113.151 294.515 120.551C305.215 142.451 310.315 165.651 309.915 185.251Z" fill="#55BBDA"/>
<mask id="mask0" mask-type="alpha" maskUnits="userSpaceOnUse" x="0" y="0" width="310" height="325">
<path d="M309.915 185.251C310.015 205.151 308.215 220.151 303.615 234.651C296.715 256.551 284.115 274.651 266.615 289.251C246.015 306.451 222.515 317.751 196.115 322.751C183.715 325.051 171.215 325.451 158.615 324.151C141.415 322.451 124.415 319.251 107.915 313.851C100.515 311.351 93.1154 308.651 85.9154 305.651C76.4154 301.851 67.8154 296.551 59.7154 290.351C52.7154 284.951 45.9154 279.451 39.7154 273.151C31.8154 265.151 25.2154 256.251 20.3154 246.251C13.3154 232.051 7.51543 217.451 3.71543 202.051C2.11543 195.551 1.21543 188.851 0.815426 182.151C0.315426 174.451 -0.0845739 166.651 0.0154261 158.951C0.215426 141.251 5.51543 124.851 14.0154 109.351C24.1154 90.8512 38.5154 76.2512 56.0154 64.7512C60.4154 61.8512 64.6154 58.7512 68.7154 55.3512C80.9154 45.0512 93.7154 35.6512 107.315 27.2512C127.815 14.7512 149.815 6.25116 173.515 2.05116C185.215 0.0511563 197.015 -0.748844 208.815 0.851156C228.115 3.55116 243.315 12.7512 253.915 29.3512C258.315 36.3512 261.615 43.8512 264.515 51.6512C266.015 55.7512 267.415 59.7512 268.815 63.8512C272.915 75.6512 277.715 87.1512 283.415 98.2512C287.215 105.651 290.815 113.151 294.515 120.551C305.215 142.451 310.315 165.651 309.915 185.251Z" fill="black"/>
</mask>
<g mask="url(#mask0)">
<path d="M145.755 -149.949C144.355 -149.549 142.855 -149.149 141.455 -148.749C132.755 -146.649 125.355 -142.249 118.655 -136.549C109.455 -128.649 101.555 -119.549 94.0546 -110.049C80.4546 -92.5489 68.4546 -73.8489 57.2546 -54.7489C33.5546 -14.1489 12.7546 27.8512 -4.6454 71.5511C-12.6454 91.5511 -18.5454 112.251 -22.1454 133.551C-25.2454 151.851 -26.5454 170.251 -25.5454 188.751C-24.4454 211.051 -20.3454 232.751 -11.6454 253.351C-5.5454 267.951 2.55459 281.251 13.4546 292.851C14.4546 293.851 15.4546 294.851 16.5546 295.851C16.6546 295.951 16.8546 295.951 17.2546 295.951C16.9546 293.651 16.7546 291.551 16.4546 289.351C15.3546 279.851 15.4546 270.351 16.3546 260.851C17.4546 249.051 19.9546 237.451 23.4546 226.151C23.7546 225.151 23.7546 223.951 23.4546 222.851C19.8546 206.551 18.5546 190.151 19.3546 173.551C20.9546 139.451 30.2546 107.351 45.8546 77.2511C68.5546 33.5511 100.155 -2.34885 141.155 -29.8489C156.255 -39.9489 172.255 -48.5489 189.555 -54.4489C194.855 -56.2489 200.355 -57.4489 205.755 -58.7489C207.455 -59.1489 209.255 -59.1488 210.955 -59.1488C211.655 -59.1488 212.455 -58.8488 213.155 -58.6488C213.155 -58.4489 213.155 -58.3488 213.155 -58.1488C212.755 -57.9489 212.255 -57.5489 211.855 -57.5489C196.155 -55.9489 181.855 -50.0489 167.955 -42.9489C144.055 -30.8489 122.955 -14.8489 103.955 3.95114C77.0546 30.5511 55.6546 61.0511 40.7546 95.8512C32.1546 115.851 26.5546 136.551 23.8546 158.151C21.5546 177.251 21.7546 196.251 25.1546 215.251C25.3546 216.151 25.5546 216.951 25.7546 218.351C26.1546 217.451 26.4546 216.951 26.6546 216.451C34.1546 196.751 44.4546 178.751 57.5546 162.251C58.4546 161.051 58.6546 159.951 58.6546 158.551C58.4546 151.651 57.8546 144.751 58.3546 137.951C60.7546 102.351 73.6546 71.3511 99.7546 46.4511C112.855 34.0511 128.155 25.4511 145.755 21.4511C164.855 17.1511 183.255 18.8512 200.655 28.3512C203.255 29.7511 205.755 31.4511 208.355 33.0511C211.255 31.6512 214.255 30.2511 217.355 28.8512C218.355 28.4512 218.255 27.5511 218.255 26.8512C218.355 23.4512 218.455 19.9511 218.455 16.5511C218.255 2.75114 218.355 -11.1488 217.755 -24.9489C217.155 -41.8489 215.655 -58.7489 212.255 -75.4489C210.255 -85.4489 207.155 -95.0489 202.755 -104.349C202.355 -105.149 202.055 -105.949 202.055 -106.849C202.355 -106.349 202.755 -105.849 202.955 -105.349C208.555 -94.4489 212.255 -82.9489 214.555 -70.9489C217.155 -57.5489 218.555 -44.0489 219.455 -30.5489C220.755 -12.3488 220.855 5.85115 220.655 24.1512C220.655 24.9512 220.655 25.7511 220.655 26.5511C220.655 26.6512 220.755 26.8512 220.955 27.1512C221.855 26.8512 222.855 26.5511 223.855 26.1512C234.855 22.1512 246.155 19.8512 257.955 20.2511C286.555 21.0511 308.555 33.8512 324.055 57.8512C332.055 70.3512 336.355 84.1512 337.855 98.8512C340.355 122.751 335.355 145.351 325.155 166.851C322.155 173.151 318.455 179.151 314.855 185.251C314.055 186.751 313.855 187.851 314.355 189.451C318.755 202.851 319.855 216.651 318.355 230.651C315.155 261.351 302.555 288.051 283.155 311.751C270.955 326.551 256.655 338.851 239.655 347.851C228.555 353.751 216.755 357.751 204.155 358.951C189.355 360.351 175.155 357.951 161.855 350.951C160.155 350.051 158.955 350.151 157.355 351.151C144.055 359.851 129.755 365.851 114.055 368.451C93.9546 371.751 74.6546 369.451 56.8546 358.951C41.5546 349.951 31.0546 336.751 24.0546 320.551C21.7546 315.151 19.9546 309.651 18.6546 303.951C18.3546 302.751 18.0546 301.751 17.0546 300.851C2.75459 287.851 -7.44541 272.051 -14.8454 254.351C-20.9454 239.651 -24.7454 224.351 -26.9454 208.551C-29.5454 190.151 -29.6454 171.751 -27.9454 153.251C-25.1454 123.451 -17.5454 94.9512 -6.24541 67.3512C13.8546 18.2512 37.5546 -29.0489 65.8546 -73.9489C76.0546 -90.1489 87.0546 -105.749 99.6546 -120.249C105.155 -126.549 111.055 -132.349 117.455 -137.749C125.855 -144.249 135.055 -148.749 145.755 -149.949ZM312.055 183.051C312.255 183.051 312.555 183.151 312.755 183.151C313.255 182.451 313.755 181.751 314.155 181.051C317.155 175.551 320.355 170.251 323.055 164.551C333.055 143.051 337.855 120.551 334.855 96.7511C332.855 81.1511 327.655 66.7512 318.155 54.1512C303.555 34.7512 284.155 24.3512 259.855 23.2511C246.955 22.6511 234.555 25.2511 222.555 29.8512C221.255 30.3512 220.855 31.0511 220.855 32.3512C220.855 35.7511 220.755 39.0511 220.555 42.4511C220.455 43.7511 220.955 44.7512 221.755 45.6512C227.355 52.1512 231.655 59.3512 235.055 67.2511C238.455 75.0511 240.755 83.1512 242.155 91.5511C242.355 92.8512 242.855 93.6512 244.255 94.0511C245.855 94.4511 247.455 95.1511 248.955 95.7511C264.455 101.751 278.155 110.551 289.155 123.151C303.055 139.051 309.855 157.851 311.155 178.751C311.355 180.151 311.855 181.651 312.055 183.051ZM205.255 35.0511C205.055 34.7511 204.955 34.6512 204.855 34.5511C204.655 34.3512 204.355 34.1511 204.055 33.9511C193.455 26.9511 181.855 23.1512 169.155 22.3512C152.855 21.4512 137.555 25.3512 123.255 33.0511C104.955 42.9511 90.9546 57.2511 80.4546 75.0511C65.9546 99.5511 59.8546 126.151 61.3546 154.551C61.3546 155.351 61.5546 156.051 61.6546 156.851C61.9546 156.751 62.1546 156.751 62.2546 156.651C62.7546 156.151 63.2546 155.551 63.6546 155.051C84.9546 130.651 110.255 111.651 140.455 99.5511C141.655 99.0511 142.355 98.2511 143.055 97.2511C146.955 91.5511 150.755 85.6512 154.955 80.1512C168.555 62.2512 184.655 47.0511 204.155 35.7511C204.555 35.4511 204.855 35.2511 205.255 35.0511ZM311.755 191.351C311.555 191.351 311.455 191.451 311.255 191.451C311.155 192.151 310.955 192.851 310.955 193.551C310.555 199.251 309.655 204.851 308.155 210.351C299.055 244.951 278.955 271.451 248.755 290.351C234.755 299.051 219.455 304.251 202.755 304.151C201.455 304.151 200.955 304.851 200.455 305.851C191.555 322.051 179.455 335.551 164.655 346.651C164.055 347.051 163.555 347.551 162.855 348.151C163.755 348.651 164.455 349.051 165.155 349.351C179.555 356.451 194.755 358.151 210.455 355.251C224.155 352.751 236.655 347.151 248.255 339.451C268.155 326.251 283.855 309.051 295.955 288.651C308.055 268.151 315.355 246.051 316.055 222.151C316.355 212.451 315.155 202.851 312.455 193.451C312.255 192.651 312.055 191.951 311.755 191.351ZM241.655 142.851C241.455 143.651 241.355 144.051 241.255 144.451C239.355 154.651 236.655 164.751 233.255 174.551C227.455 191.651 219.855 207.951 210.855 223.551C210.155 224.751 209.755 225.751 210.155 227.151C212.755 235.851 214.055 244.751 213.955 253.851C213.955 254.451 214.055 255.051 214.155 255.651C214.455 255.651 214.655 255.751 214.755 255.751C215.455 255.551 216.155 255.451 216.855 255.151C252.655 244.451 281.655 223.951 304.655 194.651C308.155 190.151 308.055 190.151 308.155 184.451C308.155 182.851 308.055 181.351 307.255 179.851C295.255 156.751 276.255 144.351 250.255 142.851C247.555 142.651 244.655 142.851 241.655 142.851ZM169.355 178.551C170.055 177.751 170.655 177.051 171.355 176.351C180.755 165.951 191.555 157.451 203.955 150.951C205.555 150.151 207.655 149.551 208.555 148.151C209.455 146.751 209.355 144.651 209.555 142.851C211.355 127.151 213.055 111.351 214.755 95.6512C214.955 94.0511 214.955 92.3512 215.055 90.5511C214.455 90.4511 214.055 90.3512 213.755 90.2511C210.355 90.0511 206.855 89.7511 203.455 89.7511C183.855 89.5511 165.055 93.1511 146.655 99.7511C145.055 100.351 143.955 101.251 143.155 102.751C129.055 126.851 119.255 152.551 113.455 179.851C113.355 180.351 113.355 180.951 113.255 181.751C131.655 172.851 150.155 170.751 169.355 178.551ZM139.455 103.251C139.355 103.151 139.255 103.051 139.155 102.951C138.255 103.351 137.355 103.651 136.555 104.051C122.155 110.351 108.655 118.351 96.2546 127.951C84.2546 137.151 73.4546 147.551 63.7546 159.051C62.5546 160.451 62.1546 161.851 62.4546 163.651C62.7546 165.351 63.0546 167.151 63.3546 168.851C65.8546 182.851 70.5546 196.051 77.7546 208.251C78.1546 208.951 78.6546 209.651 79.1546 210.551C79.6546 209.951 80.0546 209.651 80.2546 209.251C88.1546 199.451 97.3546 191.151 108.255 184.651C109.355 184.051 109.755 183.151 109.955 182.051C115.555 154.751 124.955 128.851 138.755 104.651C139.055 104.151 139.255 103.651 139.455 103.251ZM202.855 301.251C203.955 301.251 204.555 301.251 205.155 301.251C215.555 300.951 225.355 298.351 234.855 294.251C249.955 287.651 262.855 277.951 274.055 265.951C290.455 248.351 301.655 228.051 306.355 204.351C306.855 202.051 307.155 199.751 307.455 197.551C282.655 228.051 251.755 249.051 214.055 259.551C213.055 274.051 209.355 287.751 202.855 301.251ZM22.5546 305.451C22.6546 306.251 22.7546 306.651 22.8546 307.051C24.1546 310.951 25.3546 314.851 26.8546 318.551C33.5546 334.551 43.9546 347.551 59.0546 356.351C75.6546 366.051 93.5546 368.451 112.355 365.551C127.855 363.251 142.055 357.351 155.155 349.051C155.655 348.751 156.055 348.351 156.655 347.851C154.155 346.051 151.755 344.451 149.355 342.751C145.755 345.051 141.855 345.651 137.855 345.551C135.355 345.451 132.855 345.351 130.455 344.951C114.155 342.251 99.3546 335.951 86.6546 325.251C85.6546 324.451 84.7546 324.051 83.4546 324.251C76.4546 324.951 69.3546 324.451 62.4546 323.351C48.4546 320.951 35.9546 315.251 24.5546 306.851C24.0546 306.451 23.4546 306.051 22.5546 305.451ZM145.255 257.851C142.555 243.651 143.855 230.151 147.955 216.851C152.055 203.551 158.855 191.651 167.455 180.951C167.255 180.651 167.155 180.451 167.055 180.451C166.755 180.251 166.455 180.151 166.155 180.051C159.955 177.551 153.455 176.151 146.755 175.951C135.155 175.551 124.255 178.551 113.955 183.751C112.755 184.351 112.155 185.151 112.055 186.451C111.155 193.451 109.855 200.551 109.155 207.551C107.955 218.251 107.555 228.951 108.155 239.651C108.255 241.151 108.755 241.951 109.955 242.751C115.455 246.351 121.155 249.451 127.255 252.051C132.955 254.351 138.755 256.351 145.255 257.851ZM59.5546 279.851C59.7546 279.751 59.8546 279.651 60.0546 279.651C56.4546 255.151 63.1546 233.351 77.0546 213.351C67.6546 198.451 62.0546 182.251 59.4546 164.551C58.6546 165.551 58.1546 166.051 57.7546 166.551C55.4546 169.651 53.1546 172.751 51.0546 175.851C41.3546 190.151 33.6546 205.451 27.8546 221.751C27.3546 223.251 27.2546 224.651 27.6546 226.151C29.4546 232.751 31.6546 239.351 34.3546 245.651C39.0546 256.451 45.2546 266.351 53.6546 274.651C55.6546 276.451 57.6546 278.051 59.5546 279.851ZM114.255 290.351C114.055 289.551 113.855 288.951 113.655 288.351C109.155 274.251 106.555 259.851 105.555 245.051C105.455 243.551 104.755 242.751 103.655 241.951C94.4546 235.051 86.4546 226.851 79.8546 217.451C79.4546 216.851 78.9546 216.351 78.4546 215.751C77.9546 216.451 77.4546 217.051 77.0546 217.651C71.9546 225.351 67.9546 233.651 65.3546 242.551C61.6546 255.051 60.5546 267.651 62.9546 280.451C63.2546 282.051 63.9546 282.951 65.2546 283.851C75.0546 289.951 85.6546 292.951 97.1546 292.851C102.855 292.751 108.455 292.051 114.255 290.351ZM81.7546 321.251C81.5546 320.851 81.5546 320.751 81.5546 320.651C81.3546 320.451 81.1546 320.151 80.9546 319.951C71.8546 310.451 65.2546 299.451 61.8546 286.651C61.5546 285.551 60.9546 284.851 60.1546 284.251C52.3546 278.751 46.0546 271.751 40.7546 263.851C34.3546 254.351 29.8546 244.051 26.4546 233.151C26.2546 232.351 25.9546 231.651 25.6546 230.851C24.9546 231.751 24.7546 232.551 24.4546 233.351C21.6546 243.751 19.7546 254.251 19.0546 264.951C18.2546 276.151 18.7546 287.351 20.8546 298.351C21.0546 299.551 21.5546 300.551 22.5546 301.351C39.0546 314.851 57.8546 322.051 79.3546 321.451C79.9546 321.451 80.7546 321.351 81.7546 321.251ZM170.855 181.751C170.055 182.751 169.455 183.351 168.955 184.051C164.355 189.851 160.455 196.051 157.155 202.651C149.755 217.651 145.655 233.451 147.355 250.351C147.655 253.151 148.155 255.851 148.555 258.751C152.055 259.251 155.255 259.751 158.555 260.351C159.955 260.651 160.955 260.051 161.855 259.051C176.355 242.851 186.955 224.451 194.755 204.251C195.155 203.151 194.955 202.351 194.255 201.451C189.955 195.951 184.955 191.051 179.255 187.051C176.555 185.251 173.755 183.651 170.855 181.751ZM197.955 304.051C183.255 302.751 170.755 297.451 160.455 287.151C150.055 296.451 139.055 304.551 126.755 311.151C135.055 325.651 145.455 337.651 159.555 346.251C175.555 334.951 188.355 321.251 197.955 304.051ZM147.255 96.6512C158.355 93.0511 169.455 90.3512 180.855 88.7511C192.255 87.1511 203.755 87.0511 215.255 87.8512C215.455 86.0511 215.555 84.5511 215.655 83.0511C216.155 76.1512 216.555 69.3511 217.055 62.4511C217.355 57.5511 217.555 52.5511 217.755 47.5511C217.755 46.7511 217.755 45.8512 217.255 45.3512C214.455 42.1512 211.355 39.3512 207.855 36.7511C182.255 51.2511 162.955 72.0511 147.255 96.6512ZM307.355 172.451C305.455 154.251 298.755 138.051 286.555 124.351C274.855 111.051 260.155 102.151 243.055 96.3512C244.955 111.151 244.255 125.451 242.155 139.851C270.055 138.751 291.855 149.151 307.355 172.451ZM208.455 221.251C209.055 220.251 209.455 219.551 209.855 218.851C211.455 215.851 213.155 212.851 214.755 209.751C225.155 189.551 233.155 168.551 237.655 146.151C237.855 145.251 237.855 144.351 238.055 143.351C229.055 144.351 220.755 146.751 212.755 150.051C211.555 150.551 211.355 151.351 211.155 152.451C208.655 169.051 204.755 185.351 199.155 201.251C198.755 202.351 198.855 203.151 199.455 204.151C201.555 207.551 203.555 211.051 205.455 214.551C206.455 216.551 207.355 218.751 208.455 221.251ZM199.555 301.051C205.955 288.351 210.055 274.851 211.055 260.251C210.055 260.451 209.355 260.551 208.755 260.651C200.655 262.451 192.455 263.851 184.155 264.251C182.855 264.351 182.155 264.851 181.355 265.751C175.555 271.951 169.655 278.051 163.855 284.151C163.555 284.451 163.255 284.851 162.955 285.151C171.255 294.651 186.755 301.151 199.555 301.051ZM218.155 90.8512C216.155 109.651 214.255 128.251 212.255 147.051C220.755 143.551 229.555 141.251 238.455 140.151C241.155 128.651 241.755 104.751 239.355 95.1512C232.455 93.1512 225.455 91.6512 218.155 90.8512ZM65.1546 287.651C65.1546 288.151 65.0546 288.451 65.1546 288.651C65.5546 289.751 65.8546 290.951 66.2546 292.051C70.1546 302.651 76.2546 311.751 84.2546 319.751C85.2546 320.751 86.2546 321.251 87.6546 320.951C88.1546 320.851 88.6546 320.851 89.0546 320.751C100.255 319.051 110.955 315.551 121.055 310.551C121.555 310.351 121.955 309.951 122.355 309.751C119.955 304.351 117.555 299.051 115.255 293.651C97.7546 298.251 81.0546 296.651 65.1546 287.651ZM117.155 289.351C125.955 287.451 144.755 276.551 149.255 270.751C148.155 267.751 147.055 264.651 145.955 261.451C132.855 258.351 120.455 253.251 108.555 245.551C109.655 260.751 112.355 275.151 117.155 289.351ZM148.055 341.651C138.055 333.351 130.355 323.551 124.355 312.751C118.455 315.051 112.855 317.551 107.155 319.451C101.355 321.351 95.4546 322.551 89.3546 324.151C90.0546 324.751 90.5546 325.251 91.2546 325.751C101.455 333.651 112.955 338.851 125.355 341.951C130.055 343.051 134.755 343.951 139.555 343.851C142.355 343.751 145.155 343.351 148.055 341.651ZM164.555 260.751C165.455 260.851 165.855 261.051 166.155 261.051C170.655 261.151 175.055 261.151 179.555 261.251C180.755 261.251 181.255 260.551 181.855 259.851C190.555 249.251 198.455 237.951 205.555 226.151C206.255 224.951 206.255 224.051 205.855 222.751C203.855 217.451 201.355 212.351 198.355 207.551C198.055 207.151 197.755 206.751 197.255 206.251C189.455 226.351 178.955 244.551 164.555 260.751ZM208.155 152.551C198.655 155.651 175.955 173.451 172.755 180.051C174.555 181.051 176.355 182.051 178.055 183.251C179.755 184.351 181.355 185.451 182.955 186.651C184.555 187.951 186.155 189.251 187.755 190.651C189.255 191.951 190.655 193.451 192.055 194.851C193.455 196.351 194.755 197.851 196.355 199.551C201.855 184.151 205.555 168.651 208.155 152.551ZM80.4546 212.851C87.1546 223.051 95.1546 231.551 104.755 238.851C105.055 229.951 105.055 221.351 105.655 212.751C106.255 204.151 107.555 195.551 108.655 186.651C97.4546 193.651 88.2546 202.351 80.4546 212.851ZM158.055 284.751C155.655 281.151 153.255 277.751 150.755 274.151C141.055 282.251 130.455 288.651 118.355 292.651C120.455 298.151 122.555 303.251 125.355 308.151C133.955 304.151 151.955 291.251 158.055 284.751ZM238.855 91.9511C238.955 81.6511 226.955 53.8512 220.555 49.6512C219.855 62.4512 219.055 75.2511 218.355 87.8512C225.255 89.2511 231.955 90.6511 238.855 91.9511ZM207.655 229.151C200.955 240.151 193.655 250.551 185.555 260.551C190.355 260.851 206.955 258.151 211.055 256.451C211.955 250.351 210.055 234.451 207.655 229.151ZM160.355 282.551C164.055 280.051 176.455 266.851 177.255 264.551C175.555 264.551 173.855 264.551 172.155 264.551C170.455 264.551 168.755 264.351 167.155 264.351C165.355 264.251 163.355 263.751 161.755 264.351C160.255 264.851 159.155 266.551 157.855 267.851C156.355 269.251 154.955 270.751 153.455 272.251C155.355 275.951 157.655 279.351 160.355 282.551ZM218.055 41.2511C218.055 37.8512 218.055 34.9511 218.055 31.7511C215.755 32.8512 213.555 33.8512 211.055 35.0511C213.455 37.1512 215.555 39.0511 218.055 41.2511ZM149.355 262.151C150.255 264.551 150.955 266.551 151.855 268.851C153.755 266.951 155.755 265.551 157.155 263.451C154.555 263.051 152.255 262.651 149.355 262.151Z" fill="black"/>
</g>
</svg>
