<svg width="149" height="141" viewBox="0 0 149 141" fill="none" xmlns="http://www.w3.org/2000/svg">
<path d="M71.7433 45.081C79.2433 45.281 85.5433 46.981 90.9433 50.981C98.9433 56.781 102.943 64.681 102.443 74.681C102.243 78.481 100.643 81.781 98.1433 84.581C93.8433 89.481 88.2433 91.881 81.7433 92.681C81.1433 92.781 80.6433 92.781 80.0433 92.681C73.5433 91.581 67.1433 90.381 61.3433 87.081C53.8433 82.581 49.9433 75.881 50.0433 67.081C50.2433 56.981 58.1433 47.481 67.7433 45.481C69.3433 45.181 70.9433 45.181 71.7433 45.081ZM72.4433 55.981C71.0433 56.281 69.5433 56.381 68.2433 56.881C62.1433 59.381 59.3433 67.481 62.6433 73.181C63.7433 75.181 65.4433 76.681 67.4433 77.681C71.2433 79.581 75.3433 80.781 79.5433 81.181C81.5433 81.381 83.7433 80.981 85.6433 80.181C90.2433 78.381 92.1433 74.881 91.1433 70.281C90.2433 66.081 88.1433 62.481 84.5433 59.981C81.0433 57.581 76.9433 56.381 72.4433 55.981Z" fill="#EA552B"/>
<path d="M81.9476 21.081C86.0476 21.481 90.2476 21.581 94.3476 22.181C103.848 23.681 111.548 28.581 117.348 36.181C124.948 45.981 129.048 57.181 129.448 69.681C129.648 74.481 128.648 79.081 126.748 83.481C124.948 87.581 122.748 91.481 119.848 94.981C110.148 106.581 98.3476 114.781 83.0476 116.881C72.7476 118.281 62.5476 117.681 52.8476 114.081C46.1476 111.481 40.0476 107.781 34.6476 103.081C32.8476 101.481 31.3476 99.381 30.0476 97.281C26.5476 91.381 24.4476 84.881 22.5476 78.381C21.9476 76.381 22.0476 74.081 22.0476 71.981C22.0476 58.581 26.8476 47.181 36.8476 38.081C48.2476 27.781 61.5476 21.881 77.1476 21.381C78.7476 21.381 80.3476 21.381 81.9476 21.381C81.9476 21.281 81.9476 21.181 81.9476 21.081ZM81.7476 32.281C68.6476 31.881 57.0476 35.981 46.8476 44.081C42.6476 47.481 39.0476 51.381 36.6476 56.381C31.1476 67.881 32.2476 78.981 38.6476 89.781C39.6476 91.481 41.1476 92.881 42.7476 94.081C45.3476 96.081 48.0476 97.881 50.8476 99.581C58.3476 104.181 66.3476 106.781 75.3476 106.381C92.7476 105.581 105.448 97.281 114.548 82.981C115.648 81.281 116.448 79.481 117.048 77.581C117.748 75.481 118.248 73.181 118.348 71.081C118.348 60.181 114.748 50.481 107.948 42.181C103.548 36.881 97.8476 33.681 90.8476 32.981C87.8476 32.581 84.7476 32.481 81.7476 32.281Z" fill="#EE8DB9"/>
<path d="M67.0414 140.181C58.7414 140.181 51.8414 139.081 45.2414 136.381C40.9414 134.581 37.0414 132.081 33.6414 128.781C29.0414 124.281 24.2414 119.781 19.5414 115.381C19.1414 114.981 18.6414 114.681 18.2414 114.281C16.6414 112.781 14.7414 111.381 13.4414 109.581C6.74136 100.481 1.64136 90.581 0.341363 79.081C-0.758637 69.381 0.841363 60.081 4.54136 51.181C7.44136 44.081 11.1414 37.481 16.0414 31.681C21.0414 25.781 26.7414 20.981 33.5414 17.281C41.6414 13.081 49.8414 9.08102 58.4414 5.88102C70.7414 1.38102 83.5414 -0.418985 96.6414 0.0810152C101.441 0.281015 106.041 1.38102 110.241 3.68102C115.241 6.38101 120.241 9.18102 124.841 12.381C134.541 18.981 140.441 28.581 144.241 39.381C149.641 54.781 150.241 70.581 145.941 86.381C145.041 89.681 143.841 92.981 142.341 95.981C135.341 109.781 125.441 120.881 111.441 128.081C97.0414 135.481 81.9414 139.481 67.0414 140.181ZM66.8414 129.081C80.5414 128.281 94.2414 124.581 107.141 117.881C117.641 112.381 125.141 103.981 130.941 93.881C132.641 90.881 134.141 87.581 135.041 84.181C138.941 69.981 138.441 55.781 133.241 41.981C130.141 33.781 125.641 26.481 118.141 21.381C114.141 18.681 109.841 16.281 105.541 13.881C102.241 12.081 98.6414 11.281 94.9414 11.181C83.4414 10.981 72.1414 12.581 61.3414 16.681C53.7414 19.581 46.3414 23.181 39.1414 26.981C33.5414 29.981 28.8414 33.881 24.7414 38.681C20.6414 43.481 17.6414 48.881 15.1414 54.681C11.3414 63.481 10.0414 72.481 12.0414 81.881C12.9414 86.081 14.1414 89.981 17.5414 93.081C19.1414 94.581 20.3414 96.581 21.5414 98.381C22.6414 99.981 23.6414 101.581 24.5414 103.281C26.0414 105.881 27.9414 108.081 30.1414 110.081C33.6414 113.281 37.2414 116.581 40.5414 119.981C44.0414 123.481 48.1414 125.781 52.7414 127.181C57.1414 128.581 61.5414 129.081 66.8414 129.081Z" fill="#F7D046"/>
</svg>
