<svg width="236" height="361" viewBox="0 0 236 361" fill="none" xmlns="http://www.w3.org/2000/svg">
<path d="M235.11 206.395C235.01 218.795 233.61 232.995 230.11 246.995C223.81 272.395 212.21 294.795 194.11 313.795C184.61 323.795 174.41 332.995 162.91 340.695C148.61 350.295 133.01 356.695 116.01 359.295C102.71 361.295 89.7095 360.095 77.1095 355.295C64.4095 350.495 56.7095 341.195 52.1095 328.795C50.9095 325.695 50.3095 322.296 49.5095 319.095C45.8095 303.595 41.2095 288.395 34.9095 273.695C29.2095 260.395 25.2095 246.595 22.2095 232.495C20.0095 222.295 17.5095 212.295 15.4095 202.095C13.5095 192.695 12.0095 183.195 10.3095 173.795C9.00953 166.595 7.20953 159.395 6.30953 152.095C5.20953 142.095 2.70953 132.495 1.30953 122.495C-0.590466 108.595 -0.690465 94.7955 2.80953 80.9955C6.60953 66.0955 14.1095 53.0955 23.8095 41.1955C39.6095 22.3955 59.7095 10.8955 83.7095 5.99547C95.8095 3.49547 108.01 1.89547 120.31 1.19547C127.11 0.795467 133.91 0.395467 140.71 0.0954665C146.11 -0.204533 151.41 0.195467 156.71 1.39547C165.51 3.49547 172.91 8.09547 179.01 14.7955C181.21 17.2955 183.41 19.8955 185.31 22.6955C192.01 32.6955 198.61 42.6955 205.01 52.7955C216.41 70.7955 223.01 90.5955 225.41 111.695C226.51 121.095 227.21 130.495 228.41 139.795C229.71 149.995 231.31 160.095 232.81 170.195C234.51 181.495 235.51 192.995 235.11 206.395Z" fill="black"/>
<path fill-rule="evenodd" clip-rule="evenodd" d="M197.737 187.404L197.737 187.41C197.424 196.567 197.112 205.709 196.71 214.895C196.11 229.095 193.71 242.995 190.71 256.895C188.31 267.895 184.71 278.495 179.61 288.495C169.61 307.895 154.51 322.195 134.91 331.695C125.61 336.195 115.51 337.695 105.31 337.495C99.9095 337.395 95.1095 335.195 90.6095 332.195C87.2095 329.895 83.8095 327.595 83.5095 322.895C79.6428 312.819 76.3596 302.501 73.0768 292.185L73.0766 292.185C70.7561 284.893 68.4357 277.601 65.9095 270.395C64.6095 266.729 63.2984 263.062 61.9873 259.395C59.3651 252.062 56.7429 244.729 54.2095 237.395C50.4095 226.395 46.7095 215.295 44.5095 203.795C42.2095 191.895 40.5095 179.995 39.5095 167.895C38.5095 155.895 37.7095 143.795 37.3095 131.695C36.8095 115.595 37.5095 99.5955 41.4095 83.7954C44.7095 70.1954 51.0095 58.0954 60.3095 47.5954C66.8095 40.2954 74.5095 34.6954 83.4095 30.8954C94.5095 26.1954 106.21 23.7954 118.11 22.9954C133.81 21.9954 147.51 27.0954 159.51 37.0954C177.81 52.4954 189.11 71.8955 194.01 95.1954C196.11 105.195 197.01 115.295 197.71 125.395C198.61 138.295 199.01 151.095 198.71 163.995C198.71 167.295 198.51 170.595 198.21 173.895C198.045 178.407 197.891 182.907 197.737 187.404ZM192.71 171.395H193.01V165.395C193.41 148.495 192.71 131.595 191.01 114.795C190.11 105.595 188.61 96.5955 185.81 87.7954C180.01 68.9954 169.41 53.3954 154.21 40.9954C143.31 32.0954 130.81 27.8954 116.81 28.8954C108.01 29.4954 99.4095 31.2954 91.0095 34.0954C80.1096 37.6954 70.8095 43.8954 63.3095 52.6954C55.4095 61.9954 50.1095 72.5954 47.1095 84.4954C43.2095 100.295 42.5095 116.395 43.1095 132.595C43.5095 141.895 44.1095 151.295 44.7095 160.595C45.6095 174.095 47.5095 187.495 49.8095 200.795C51.7095 211.895 55.3095 222.695 58.9095 233.295C60.754 238.747 62.6824 244.181 64.6122 249.62L64.6124 249.62C67.3908 257.45 70.1721 265.288 72.7095 273.195C76.8028 285.79 80.5862 298.571 84.3525 311.293L84.356 311.305C85.3732 314.741 86.3891 318.173 87.4095 321.595C87.7095 322.495 88.1095 323.095 88.9095 323.595C89.9824 324.29 91.0155 325.024 92.0338 325.747C92.6291 326.17 93.2193 326.59 93.8095 326.995C97.2095 329.195 100.91 330.795 104.91 330.995C110.21 331.295 115.51 330.795 120.61 329.695C130.41 327.595 139.01 322.895 147.01 316.995C161.51 306.195 171.61 292.095 178.41 275.395C181.903 266.897 183.97 258.043 186.042 249.168L186.042 249.168C186.165 248.644 186.287 248.12 186.41 247.595C189.11 235.995 190.51 224.295 190.91 212.495C191.71 198.795 192.21 185.095 192.71 171.395ZM166.61 186.695C166.81 200.095 166.31 213.395 165.41 226.795C164.81 236.795 163.91 246.895 162.71 256.895C161.71 266.095 159.71 275.195 155.21 283.495C151.21 290.895 145.51 296.495 137.91 300.195C136.31 300.995 134.711 301.706 133.111 302.417L133.11 302.418C132.31 302.773 131.51 303.129 130.71 303.495C126.61 305.295 122.41 305.695 118.01 304.695C114.11 303.795 110.31 302.595 106.91 300.295C104.21 298.395 102.61 295.895 102.21 292.595C102.11 291.795 101.81 290.895 101.41 290.095C94.6096 277.095 88.7096 263.795 83.8096 249.895C82.9463 247.474 82.0658 245.063 81.1859 242.654L81.1858 242.654C78.3966 235.019 75.6141 227.401 73.4095 219.495C66.5096 194.295 63.7096 168.695 64.2096 142.595C64.4096 131.095 65.0096 119.595 66.7096 108.195C67.9096 100.395 69.5096 92.5954 72.5096 85.1954C74.1096 81.0954 76.2095 77.1954 78.7095 73.5954C80.7095 70.7954 82.9095 68.2954 85.8096 66.4954C94.2095 61.2954 103.31 57.9954 113.21 57.2954C122.21 56.6954 129.81 59.5954 136.11 66.0954C145.11 75.3954 151.51 86.2954 155.81 98.3954C160.11 110.295 162.61 122.595 163.41 135.195C164.464 148.156 165.179 161.059 165.895 173.992C166.129 178.222 166.363 182.456 166.61 186.695ZM160.277 168.938L160.277 168.937C160.007 162.652 159.677 154.955 159.31 147.295C158.81 137.395 157.71 127.495 155.61 117.795C153.21 106.495 149.51 95.5954 143.61 85.5954C140.21 79.7954 136.21 74.5954 131.41 69.8954C128.01 66.5954 124.11 63.9954 119.31 63.5954C116.21 63.2954 113.11 63.2954 110.01 63.6954C103.81 64.3954 98.1096 66.6954 92.5096 69.3954C88.3096 71.3954 85.0095 74.4954 82.4095 78.3954C79.1096 83.3954 76.9095 88.8954 75.4095 94.5954C71.8096 107.595 70.8096 120.995 70.2095 134.495C69.5095 149.095 70.0096 163.695 71.5096 178.295C73.3096 194.995 76.3096 211.395 81.6096 227.295C87.9095 246.295 94.8095 265.195 103.31 283.395C103.65 284.121 103.969 284.857 104.289 285.593C105.38 288.106 106.476 290.63 108.41 292.795C108.591 292.99 108.768 293.185 108.943 293.378C110.028 294.572 111.046 295.693 112.51 296.295C115.01 297.195 117.51 297.995 120.01 298.595C122.61 299.295 125.11 298.895 127.51 297.795L127.51 297.795C130.31 296.595 133.11 295.395 135.81 293.995C141.61 290.995 146.11 286.595 149.31 280.795C152.51 274.895 154.61 268.595 155.51 261.995C156.71 253.595 157.71 245.195 158.51 236.795C160.11 219.395 160.91 202.195 160.71 178.795C160.593 176.317 160.447 172.91 160.277 168.938ZM147.01 253.995C149.71 242.795 150.11 231.395 149.71 219.895C149.01 209.995 148.21 200.095 147.41 190.295L147.386 190.002C146.294 176.599 145.194 163.098 143.01 149.795C141.41 139.295 139.31 128.895 135.91 118.795C133.71 112.395 130.91 106.295 127.11 100.695C124.91 97.5955 122.41 94.7954 119.11 92.8954C114.11 89.8954 108.91 89.8954 103.91 92.8954C101.91 94.0954 100.11 95.5955 98.4096 97.1954C92.4096 102.895 88.4096 109.895 86.4096 117.895C83.8096 128.395 83.0096 139.195 83.3096 149.995C83.4096 154.295 83.7096 158.595 84.1096 162.895C84.2081 163.996 84.304 165.097 84.3998 166.197C84.8873 171.794 85.3739 177.38 86.2096 182.895C88.4096 197.695 92.6096 211.995 97.8096 226.095C101.01 234.695 104.31 243.195 109.11 250.995C111.51 254.995 113.81 258.895 115.41 263.295C116.51 266.095 118.21 268.695 120.31 270.895C123.61 274.195 127.41 275.195 131.91 273.695C136.61 272.095 140.01 268.995 142.61 264.895C144.71 261.495 146.11 257.795 147.01 253.995ZM142.21 187.595C143.11 198.295 143.91 208.895 144.31 214.295C144.81 230.895 144.41 242.195 141.31 253.195C140.41 256.195 139.11 258.995 137.71 261.795C136.31 264.395 134.21 266.395 131.51 267.595C128.31 269.095 126.21 268.695 124.11 265.895C122.61 263.895 121.41 261.595 120.31 259.295C119.65 257.975 119.098 256.655 118.546 255.335C118.178 254.455 117.81 253.575 117.41 252.695C116.71 251.095 115.71 249.695 114.11 248.695C113.468 248.329 113.078 247.541 112.709 246.796C112.676 246.729 112.643 246.662 112.61 246.595C108.71 238.095 105.31 229.295 102.11 220.395C97.4096 207.295 93.7096 193.795 91.7096 179.895C91.0696 175.495 90.6856 171.095 90.3016 166.696C90.2056 165.595 90.1096 164.495 90.0096 163.395C89.7096 160.095 89.5096 156.895 89.3096 153.595C88.5096 142.795 89.3096 131.995 91.4096 121.395C93.0096 113.495 96.4096 106.595 102.21 100.895C103.61 99.4954 105.21 98.1954 106.91 97.1954C110.11 95.2954 113.31 95.3954 116.51 97.1954C119.11 98.6954 121.11 100.795 122.81 103.295C125.81 107.595 128.01 112.295 129.81 117.195C133.41 126.795 135.61 136.795 137.41 146.895C139.71 160.395 141.11 173.995 142.21 187.595Z" fill="#EE8DB9"/>
</svg>
