<svg width="283" height="300" viewBox="0 0 283 300" fill="none" xmlns="http://www.w3.org/2000/svg">
<path d="M1.17075 153.794C1.97075 139.993 2.67075 126.194 3.67075 112.394C4.67075 99.3935 7.27075 86.7935 12.7708 74.7935C18.3708 62.5935 26.5708 52.3935 36.7708 43.6935C57.0708 26.2935 80.2708 14.2935 106.171 7.5935C122.671 3.3935 139.371 0.5935 156.371 0.0934997C180.371 -0.7065 203.471 3.5935 225.171 14.2935C246.871 24.9935 261.871 41.7935 270.171 64.3935C274.971 77.4935 278.871 90.7935 281.171 104.593C283.371 117.693 282.771 130.794 279.871 143.694C275.371 163.494 267.871 182.294 258.271 200.194C252.271 211.394 245.671 222.294 237.471 232.094C231.271 239.493 224.371 246.094 216.771 251.993C204.771 261.393 191.471 268.793 178.071 275.893C165.371 282.594 152.271 288.293 138.371 291.893C129.371 294.193 120.371 296.194 111.271 297.993C102.171 299.793 93.2708 299.194 84.1708 297.094C72.4708 294.393 61.6708 289.893 51.6708 283.393C38.4708 274.693 28.2708 263.094 20.5708 249.394C15.9708 241.094 12.2708 232.494 9.57075 223.394C9.07075 221.894 8.67075 220.294 7.97075 218.894C1.67075 205.694 -0.429247 191.594 0.0707526 177.094C0.270753 169.294 0.670753 161.594 1.17075 153.794C1.07075 153.794 1.07075 153.794 1.17075 153.794Z" fill="#FDD5E7"/>
<mask id="mask0" mask-type="alpha" maskUnits="userSpaceOnUse" x="0" y="0" width="283" height="300">
<path d="M1.17075 153.794C1.97075 139.993 2.67075 126.194 3.67075 112.394C4.67075 99.3935 7.27075 86.7935 12.7708 74.7935C18.3708 62.5935 26.5708 52.3935 36.7708 43.6935C57.0708 26.2935 80.2708 14.2935 106.171 7.5935C122.671 3.3935 139.371 0.5935 156.371 0.0934997C180.371 -0.7065 203.471 3.5935 225.171 14.2935C246.871 24.9935 261.871 41.7935 270.171 64.3935C274.971 77.4935 278.871 90.7935 281.171 104.593C283.371 117.693 282.771 130.794 279.871 143.694C275.371 163.494 267.871 182.294 258.271 200.194C252.271 211.394 245.671 222.294 237.471 232.094C231.271 239.493 224.371 246.094 216.771 251.993C204.771 261.393 191.471 268.793 178.071 275.893C165.371 282.594 152.271 288.293 138.371 291.893C129.371 294.193 120.371 296.194 111.271 297.993C102.171 299.793 93.2708 299.194 84.1708 297.094C72.4708 294.393 61.6708 289.893 51.6708 283.393C38.4708 274.693 28.2708 263.094 20.5708 249.394C15.9708 241.094 12.2708 232.494 9.57075 223.394C9.07075 221.894 8.67075 220.294 7.97075 218.894C1.67075 205.694 -0.429247 191.594 0.0707526 177.094C0.270753 169.294 0.670753 161.594 1.17075 153.794C1.07075 153.794 1.07075 153.794 1.17075 153.794Z" fill="black"/>
</mask>
<g mask="url(#mask0)">
<path fill-rule="evenodd" clip-rule="evenodd" d="M109.14 47.3284L109.14 47.3293C109.052 47.9823 108.964 48.6379 108.871 49.2935C108.922 49.752 108.96 50.2235 108.998 50.6981C109.11 52.0865 109.223 53.5011 109.671 54.6935C110.571 57.5935 113.271 58.5935 115.971 57.0935C117.171 56.4935 118.271 55.5935 119.171 54.5935C123.071 50.4935 125.871 45.6935 127.571 40.2935C128.471 37.5935 128.771 34.7935 128.371 31.9935C128.271 31.1935 128.071 30.2935 127.771 29.4935C126.471 26.2935 123.471 25.0935 120.371 26.7935C119.271 27.2935 118.371 28.0935 117.471 28.8935C113.871 32.2935 111.371 36.2935 110.171 41.0935C109.711 43.0844 109.428 45.1926 109.14 47.3282L109.14 47.3284ZM171.971 74.0935C172.671 66.9935 174.971 60.5935 179.071 54.8935C180.271 53.2935 181.471 51.6935 182.871 50.2935C184.071 49.0935 185.471 47.7935 186.971 47.0935C190.071 45.4935 193.271 46.8935 194.271 50.0935C194.771 51.5935 194.971 53.2935 194.771 54.7935C193.671 63.8935 189.871 71.7935 183.671 78.4935C182.971 79.1935 182.171 79.8935 181.271 80.3935C177.471 82.6935 173.371 80.9935 172.371 76.6935C172.273 76.256 172.224 75.8185 172.175 75.3925L172.175 75.3921C172.123 74.9419 172.073 74.5045 171.971 74.0935ZM150.171 240.294C150.071 236.393 150.871 232.794 152.871 229.493C154.271 227.093 155.871 224.794 157.671 222.594C158.571 221.493 159.771 220.594 160.971 219.794C163.771 218.193 166.471 218.894 168.371 221.394C169.771 223.394 170.471 225.693 170.671 228.094C171.271 236.294 168.971 243.593 163.971 249.993C162.971 251.294 161.471 252.493 159.971 253.294C156.871 254.993 153.871 253.894 152.571 250.594C151.871 248.693 151.271 246.794 150.871 244.894C150.355 243.69 150.283 242.34 150.209 240.968C150.203 240.859 150.197 240.75 150.191 240.64L150.182 240.476L150.176 240.376L150.171 240.294ZM207.571 93.9935C202.371 101.194 199.171 109.194 198.971 118.194C198.971 118.594 198.971 118.894 198.871 119.094C198.771 122.094 200.171 123.494 203.171 123.294C205.171 123.194 206.871 122.494 208.471 121.294C215.171 116.194 219.271 109.494 220.771 101.194C221.271 98.6935 221.271 96.0935 220.071 93.6935C218.171 89.8935 214.171 88.6935 210.671 91.0935C209.471 91.7935 208.371 92.8935 207.571 93.9935ZM133.903 81.3399L133.903 81.34C133.694 82.4575 133.496 83.5178 133.171 84.4935C131.371 90.0935 128.571 95.0935 124.771 99.4935C123.371 101.194 121.671 102.493 119.571 103.294C114.671 105.193 110.471 102.294 110.471 96.9935C110.471 94.5935 111.271 92.4935 112.271 90.2935C112.971 88.7935 113.571 87.3935 114.171 85.8935C115.871 81.6935 118.071 77.7935 121.471 74.7935C122.771 73.5935 124.471 72.5935 126.071 71.9935C129.171 70.8935 132.071 72.3935 133.271 75.4935C133.634 76.4382 133.839 77.4357 134.039 78.4093L134.039 78.4101C134.114 78.7759 134.189 79.1385 134.271 79.4935C134.131 80.1226 134.016 80.7394 133.903 81.3398L133.903 81.3399ZM245.871 76.4935C247.971 72.0935 248.871 67.2935 249.071 62.4935C249.071 59.5935 248.871 56.7935 247.671 53.9935C245.771 50.0935 242.271 49.3935 239.071 52.1935C237.971 53.0935 237.071 54.1935 236.371 55.2935C232.371 61.3935 230.771 68.2935 230.571 75.4935C230.571 76.1935 230.671 77.3935 231.171 77.6935C232.295 78.4722 232.522 79.5504 232.757 80.6689C232.793 80.8431 232.83 81.0183 232.871 81.1935C233.271 82.6935 234.171 83.9935 235.771 83.9935C238.371 84.0935 240.971 83.6935 242.671 81.4935C243.871 79.9935 245.071 78.2935 245.871 76.4935ZM116.371 198.294C116.371 192.494 117.871 187.094 120.671 181.993C121.771 179.894 123.371 177.994 124.971 176.294C126.471 174.694 128.371 173.794 130.571 174.594C132.871 175.294 133.671 177.194 134.071 179.294C134.671 182.194 134.471 184.994 134.071 187.894C133.371 193.294 131.771 198.494 128.571 203.094C127.571 204.594 126.271 205.993 124.771 206.993C121.471 209.294 118.071 207.894 116.971 204.094C116.771 203.394 116.671 202.694 116.571 201.993C116.522 201.357 116.497 200.745 116.472 200.145V200.144L116.472 200.144C116.447 199.518 116.422 198.906 116.371 198.294ZM82.3706 145.693C79.9706 150.293 78.8706 155.093 78.8706 160.993C78.9623 161.727 79.033 162.629 79.1115 163.631C79.2043 164.815 79.3082 166.14 79.4706 167.493C79.5706 168.393 79.8706 169.393 80.2706 170.193C81.4706 172.794 84.1706 173.693 86.6706 172.293C87.8706 171.593 89.0706 170.593 89.8706 169.493C94.0706 163.793 96.3706 157.393 96.4706 150.293C96.5706 147.493 95.8706 144.793 94.1706 142.394C91.8706 139.193 88.2706 138.793 85.4706 141.493C84.2706 142.693 83.1706 144.193 82.3706 145.693ZM71.9707 212.394C71.9453 212.673 71.9263 212.959 71.9073 213.246C71.8513 214.09 71.7945 214.947 71.5707 215.694C71.3368 216.503 71.1061 217.316 70.8752 218.13C69.8227 221.839 68.7648 225.567 67.3707 229.094C66.7427 230.768 65.7254 232.296 64.6922 233.849C64.2445 234.521 63.7939 235.198 63.3707 235.894C62.9707 236.594 62.3707 237.094 61.7707 237.594C60.0707 239.094 58.1707 240.194 55.8707 239.194C53.5707 238.294 52.9707 236.094 52.8707 233.894C52.6707 230.694 53.3707 227.594 54.2707 224.493C54.7707 222.894 55.1707 221.294 55.4707 219.594C56.5707 214.794 58.5707 210.594 62.2707 207.194C64.0707 205.594 65.9707 204.194 68.4707 205.294C70.9707 206.394 71.6707 208.694 71.7707 211.194C71.8165 211.423 71.8414 211.61 71.8644 211.784C71.8917 211.99 71.9165 212.177 71.9707 212.394ZM52.8706 112.193C52.9323 111.864 52.9898 111.539 53.0466 111.219C53.2656 109.98 53.4735 108.805 53.8706 107.693C54.6706 105.293 55.5706 102.894 56.5706 100.493C58.1535 96.4896 61.037 93.5262 63.9292 90.5536C64.1431 90.3338 64.3571 90.1139 64.5706 89.8935C66.1706 88.2935 68.2706 87.5935 70.4706 88.3935C72.7706 89.1935 73.6706 91.1935 73.9706 93.3935C74.0706 94.2935 74.0706 95.2935 73.9706 96.2935C73.3706 101.293 71.7706 105.893 69.2706 110.293C67.8706 112.793 66.1706 114.993 63.8706 116.593C62.7706 117.393 61.4706 118.193 60.0706 118.593C57.3706 119.493 54.6706 118.193 53.5706 115.593C53.2777 114.788 53.1457 113.929 53.0175 113.095L53.0175 113.095L53.0175 113.095L53.0174 113.095L53.0174 113.095L53.0174 113.095L53.0174 113.095L53.0174 113.095C52.9705 112.79 52.9241 112.488 52.8706 112.193ZM146.671 141.193C152.871 136.093 156.271 129.393 156.771 120.593C156.709 120.284 156.656 119.917 156.599 119.514C156.47 118.613 156.316 117.529 155.971 116.493C154.871 113.293 151.771 112.193 148.771 113.793C147.871 114.293 146.971 114.993 146.271 115.693C141.071 121.093 137.671 127.493 136.571 134.893C136.271 137.093 136.371 139.093 138.571 140.793C141.571 143.193 143.671 143.593 146.671 141.193ZM227.171 203.894C227.106 204.2 227.042 204.514 226.976 204.834C226.634 206.5 226.258 208.332 225.671 210.094C224.171 214.394 221.871 218.094 218.571 221.394C217.071 222.894 215.271 223.994 213.171 224.694C211.071 225.394 209.071 224.794 207.071 224.194C205.871 223.894 205.671 222.693 205.871 221.594C205.981 221 206.086 220.402 206.191 219.802C206.566 217.668 206.946 215.5 207.571 213.394C209.071 208.694 211.671 204.393 214.371 200.294C215.171 199.094 216.271 197.894 217.471 197.094C220.971 194.594 224.871 195.993 226.271 199.993C226.805 201.062 226.943 202.131 227.108 203.412C227.128 203.569 227.149 203.73 227.171 203.894ZM44.1707 177.194C47.9707 171.994 49.8707 166.094 50.2707 159.494C50.2088 159.153 50.1493 158.808 50.0892 158.459C49.761 156.555 49.4159 154.553 48.5707 152.694C47.1707 149.094 43.6707 148.394 40.9707 151.194C39.4707 152.794 38.1707 154.694 37.1707 156.694C35.1707 160.894 33.8707 165.294 33.0707 169.894C32.7707 171.594 32.6707 173.394 32.7707 175.094C32.7707 176.194 33.0707 177.294 33.5707 178.294C34.9707 181.394 38.1707 182.294 40.9707 180.394C42.1707 179.594 43.2707 178.394 44.1707 177.194ZM248.271 140.094C247.871 144.894 246.571 149.294 243.971 153.294C242.771 155.094 241.271 156.694 238.971 157.094C238.508 157.186 238.046 157.535 237.663 157.824L237.571 157.894C237.371 158.044 237.221 158.219 237.071 158.394C236.921 158.569 236.771 158.744 236.571 158.894C235.371 159.894 233.971 160.194 232.571 159.493C231.271 158.894 230.471 157.694 230.571 156.194C230.654 155.161 230.723 154.125 230.793 153.089L230.793 153.089L230.793 153.088V153.088C231.14 147.907 231.487 142.727 233.571 137.894C234.371 135.994 235.371 134.094 236.571 132.494C239.871 128.194 244.871 128.994 246.871 134.094C247.463 135.427 247.727 136.979 247.986 138.507L247.986 138.508C248.077 139.043 248.167 139.575 248.271 140.094ZM65.7706 68.3935C70.1706 63.8935 72.2706 58.2935 72.7706 51.2935C72.727 51.0751 72.6833 50.8234 72.6355 50.5477C72.4642 49.5606 72.2396 48.266 71.7706 47.0935C70.3706 43.9935 67.2706 43.1935 64.3706 44.9935C63.7706 45.3935 63.1706 45.8935 62.6706 46.3935C58.9706 50.5935 55.9706 55.1935 54.2706 60.4935C53.6706 62.4935 53.4706 64.4935 53.9706 66.5935C54.8706 70.4935 58.5706 72.3935 62.2706 70.7935C63.5706 70.2935 64.7706 69.3935 65.7706 68.3935ZM203.271 165.094C202.871 172.994 200.271 178.894 194.971 183.493C192.071 186.094 189.071 185.894 186.571 182.894C185.871 182.094 185.571 180.794 185.571 179.794C185.771 172.394 187.871 165.694 192.571 159.794C192.884 159.324 193.319 158.977 193.781 158.609C193.909 158.506 194.04 158.402 194.171 158.294C196.971 156.294 200.171 156.894 201.671 159.894C202.419 161.473 202.822 163.191 203.108 164.415C203.167 164.663 203.22 164.891 203.271 165.094ZM93.8707 250.894C88.9707 255.894 86.9707 262.094 86.0707 268.794V269.493C86.1707 272.993 88.5707 274.494 91.7707 273.094C98.2707 270.194 101.671 264.994 102.871 258.194C103.171 256.294 103.271 254.294 102.971 252.493C102.171 247.993 98.7707 246.794 95.2707 249.594C94.7707 249.994 94.3707 250.394 93.8707 250.894Z" fill="#EE8DB9"/>
</g>
</svg>
