<svg width="151" height="145" viewBox="0 0 151 145" fill="none" xmlns="http://www.w3.org/2000/svg">
<path d="M73.7566 68.5833C73.5338 67.8347 73.1724 67.114 73.005 66.2822C71.8615 60.9584 70.5794 55.6625 69.5746 50.3109C69.1003 47.954 69.1252 45.5687 68.845 43.1006C68.8724 42.8787 68.8166 42.6014 68.8441 42.3795C69.2806 36.305 73.6601 34.0533 78.6564 37.3756C81.6541 39.3689 84.181 41.8898 86.9572 44.2163C93.9258 50.171 100.978 56.1812 108.002 62.0527C113.915 67.0657 119.884 71.9954 125.881 77.0638C125.852 76.5646 125.741 76.0101 125.629 75.4555C124.236 70.3262 122.65 65.308 121.395 60.1508C120.336 55.964 119.555 51.7215 118.773 47.479C118.578 46.5085 118.16 45.15 119.38 44.7602C120.739 44.3426 121.24 45.7565 121.712 46.6712C123.102 49.6372 124.631 52.5753 125.689 55.6803C128.778 64.2191 131.672 72.869 134.567 81.5189C134.929 82.6001 135.319 83.82 135.403 84.957C135.684 88.1462 133.856 90.173 130.611 90.1769C130.029 90.1498 129.446 90.1228 128.919 90.0125C122.483 88.8552 116.269 87.3649 110.192 85.1256C109.415 84.8492 108.611 84.4341 107.916 83.8525C107.084 83.2988 106.75 82.3562 107.054 81.3574C107.358 80.3585 108.161 79.6919 109.187 79.7739C110.269 79.7726 111.434 79.8267 112.488 80.0474C116.011 80.7088 119.507 81.5922 122.975 82.3369C123.724 82.4747 124.39 82.5571 125.36 82.7224C116.616 76.1873 107.872 70.0128 99.6272 63.4493C91.2989 56.8306 83.3307 49.8508 74.974 42.7328C74.9194 43.5372 74.6984 44.2308 74.7546 44.8687C75.0907 47.614 75.3714 50.4427 75.9294 53.2155C77.0454 58.7612 78.3833 64.3343 79.4992 69.88C79.8336 71.1832 80.1126 72.5696 80.1697 73.9285C80.2843 77.007 77.79 78.5909 74.9597 77.4293C73.8497 76.9314 72.8504 76.267 71.9619 75.436C66.4085 70.062 60.7165 64.7159 55.2739 59.1753C50.4978 54.4383 45.9712 49.5068 41.1951 44.7698C39.4735 43.0245 37.5024 41.4737 35.3653 40.1727C33.2003 38.7331 31.925 39.2061 31.3455 41.7029C30.8764 43.6726 30.4351 45.781 30.6317 47.8332C30.9424 52.6033 31.3365 57.4287 32.285 62.1425C35.4922 77.0047 39.9746 91.3938 45.9263 105.199C46.2044 105.864 46.5933 106.363 46.6496 107.001C46.7058 107.639 46.5126 108.471 46.0971 108.915C45.5155 109.609 44.5446 109.444 43.9338 108.918C43.323 108.391 42.7676 107.782 42.4062 107.061C41.5168 105.509 40.5995 103.818 39.9042 102.155C34.3418 89.2095 29.9993 75.8741 27.348 61.982C26.4273 57.4068 26.1166 52.6367 25.7505 47.9499C25.6093 45.8145 25.9673 43.6507 26.4085 41.5424C26.5459 40.4328 27.0717 39.4614 27.5142 38.4347C29.4514 34.7991 32.6672 33.575 36.635 35.0125C39.9092 36.2289 42.6022 38.5 44.9625 40.9102C51.0159 46.977 56.9307 53.0716 62.9842 59.1384C66.3163 62.4349 69.6484 65.7315 73.0638 69.0833C73.3132 68.8889 73.5072 68.7777 73.7566 68.5833Z" fill="black"/>
</svg>
