<svg width="74" height="146" viewBox="0 0 74 146" fill="none" xmlns="http://www.w3.org/2000/svg">
<path d="M60.8307 135.904C61.2307 135.204 61.3307 135.004 61.4307 134.804C61.5307 134.504 61.6307 134.204 61.8307 133.704C60.0307 133.704 59.4307 132.404 58.9307 131.004C57.3307 126.204 56.6307 121.204 56.1307 116.204C55.2307 106.804 54.5307 97.4038 53.6307 88.0038C53.3307 84.8038 52.8307 81.6038 52.1307 78.6038C51.1307 74.7038 50.2307 74.4038 46.5307 76.1038C45.6307 76.5038 44.6307 77.0038 43.6307 77.3038C39.9307 78.5038 36.8307 77.1038 35.7307 73.3038C35.0307 71.0038 34.7307 68.4038 34.6307 66.0038C34.3307 59.0038 34.8307 51.9038 35.7307 44.9038C36.9307 35.0038 38.3307 25.1038 39.6307 15.2038C39.9307 13.2038 40.0307 11.2038 40.1307 9.20377C40.0307 8.70377 39.9307 8.00377 39.8307 7.00377C38.6307 7.90377 37.6307 8.50377 36.7307 9.30377C31.0307 14.1038 26.0307 19.6038 21.3307 25.4038C15.6307 32.4038 10.4307 39.8038 5.93074 47.7038C5.53074 48.3038 5.23074 49.0038 4.73074 49.5038C3.93074 50.5038 3.03074 50.9038 1.73074 50.5038C0.63074 50.1038 -0.16926 49.0038 0.0307396 47.7038C0.13074 46.8038 0.33074 45.8038 0.83074 44.9038C2.03074 42.4038 3.23074 39.8038 4.63074 37.4038C11.7307 25.7038 20.3307 15.2038 30.4307 6.00377C32.0307 4.50377 33.9307 3.20377 35.7307 1.80377C36.0307 1.60377 36.4307 1.40377 36.7307 1.20377C42.0307 -1.59623 46.4307 0.603767 46.5307 6.60377C46.6307 10.9038 46.2307 15.2038 45.7307 19.5038C44.4307 31.1038 42.7307 42.7038 41.5307 54.3038C41.0307 58.9038 41.2307 63.6038 41.2307 68.2038C41.2307 69.2038 41.5307 70.2038 41.7307 71.4038C43.2307 70.7038 44.4307 70.2038 45.7307 69.7038C50.8307 67.6038 54.6307 69.0038 57.1307 73.9038C59.0307 77.6038 59.7307 81.6038 59.9307 85.7038C60.6307 99.9038 61.1307 114.104 61.7307 128.404C61.8307 129.704 61.7307 130.904 61.7307 132.504C62.9307 132.004 62.9307 131.004 63.2307 130.304C65.3307 124.204 67.8307 118.204 70.9307 112.504C71.5307 111.504 72.2307 110.504 73.0307 109.204C73.8307 110.804 73.8307 112.004 73.6307 113.204C72.7307 117.904 72.0307 122.704 70.9307 127.304C69.8307 131.904 68.1307 136.304 66.7307 140.804C66.4307 141.804 66.0307 142.804 65.5307 143.604C64.0307 145.904 61.4307 146.204 59.3307 144.404C58.9307 144.104 58.6307 143.704 58.3307 143.304C55.3307 139.204 52.2307 135.104 49.3307 130.904C48.4307 129.604 47.7307 128.104 47.1307 126.704C46.8307 126.004 46.6307 125.204 46.6307 124.404C46.5307 123.204 47.0307 122.204 48.2307 121.704C49.4307 121.204 50.4307 121.604 51.2307 122.504C51.7307 123.104 52.1307 123.804 52.6307 124.504C55.1307 128.104 57.8307 131.804 60.8307 135.904Z" fill="black"/>
</svg>
