<svg width="22" height="27" viewBox="0 0 22 27" fill="none" xmlns="http://www.w3.org/2000/svg">
<path d="M4.57833 26.3804C3.87833 26.2804 2.87833 26.2804 1.97833 25.9804C0.0783329 25.3804 -0.521667 24.1804 0.478333 22.5804C3.37833 17.7804 6.37833 12.8804 9.47833 8.18037C10.8783 6.08037 12.5783 4.18037 14.1783 2.18037C14.5783 1.58037 15.0783 1.08037 15.6783 0.680368C17.2783 -0.519632 18.7783 -0.119632 19.4783 1.78037C19.6783 2.28037 19.7783 2.88037 19.8783 3.38037C20.5783 9.08037 21.1783 14.7804 21.7783 20.4804C21.8783 21.0804 21.7783 21.5804 21.7783 22.1804C21.7783 23.4804 21.1783 24.2804 19.8783 24.5804C18.6783 24.8804 17.5783 25.0804 16.3783 25.1804C12.6783 25.4804 8.77833 25.8804 4.57833 26.3804ZM17.0783 5.38037C14.8783 7.18037 7.07833 19.2804 6.57833 21.5804C10.5783 21.2804 14.4783 20.9804 18.6783 20.6804C18.1783 15.4804 17.5783 10.4804 17.0783 5.38037Z" fill="black"/>
</svg>
