<svg width="90" height="71" viewBox="0 0 90 71" fill="none" xmlns="http://www.w3.org/2000/svg">
<path d="M78.1 7.59999C77 8.29999 76.4 8.69999 75.7 8.99999C74 9.89999 72.4 10.9 70.7 11.8C70 12.1 69.2 12.3 68.4 12.4C67.5 12.5 66.6 12.1 66.3 11.2C66 10.2 66.5 9.49999 67.3 8.99999C70.1 7.09999 72.9 4.99999 75.7 3.09999C76.8 2.29999 78 1.59999 79.2 0.999989C82.9 -1.00001 85.5 -1.09673e-05 86.4 4.09999C87.6 9.79999 88.4 15.6 89.3 21.3C89.5 22.4 89.2 23.7 88.9 24.8C88.7 25.8 88.1 26.5 86.7 26.4C85.5 24.1 84.5 21.7 83.9 19.1C83.3 16.7 82.7 14.2 81.7 11.8C81.2 13 80.7 14.3 80.1 15.5C78.4 19.1 76.8 22.8 74.8 26.2C70.7 33.4 64.4 37 56.2 37.5C51.8 37.7 47.4 37.1 43.1 36.3C41.2 36 39.3 35.7 37.4 35.4C32.8 34.8 28.5 35.7 24.4 37.7C17.8 40.9 12.7 45.8 9.3 52.3C6.9 56.9 5.1 61.8 3.8 66.8C3.6 67.5 3.7 68.2 3.5 68.9C3.3 69.4 2.9 70.2 2.5 70.3C2 70.4 1 70.2 0.7 69.7C0.2 69.1 0 68.1 0 67.3C0 65.8 0.3 64.3 0.6 62.8C2.6 54.2 6 46.2 12.6 40C17.6 35.3 23.3 31.9 30 30.5C34.2 29.6 38.4 30.2 42.6 30.9C45.2 31.3 47.8 31.9 50.4 32.2C52.7 32.4 55 32.3 57.3 32.1C61.4 31.7 64.8 29.8 67.4 26.6C68.6 25.2 69.6 23.7 70.5 22.1C72.8 17.9 75 13.6 77.3 9.39999C77.6 8.99999 77.7 8.49999 78.1 7.59999Z" fill="black"/>
</svg>
