<svg width="238" height="103" viewBox="0 0 238 103" fill="none" xmlns="http://www.w3.org/2000/svg">
<path fill-rule="evenodd" clip-rule="evenodd" d="M221.8 2.86357C221.9 2.16357 222 1.76357 222.1 1.36357C224 1.66357 224.9 2.36357 224.7 4.26357C224.6 5.66357 224.1 7.06357 223.6 8.36357C223.23 9.28905 222.746 10.1384 222.264 10.9821C221.966 11.5058 221.668 12.0274 221.4 12.5636C220.2 14.6636 218.6 16.4636 216.3 17.4636C212.5 19.1636 208.9 17.2636 208.1 13.2636C207.3 9.46357 207.8 5.96357 210.6 3.06357C214.2 -0.936432 217.8 -1.03643 221.8 2.86357ZM26.4 13.5636C27.4 8.16357 24.1 4.06357 18.2 4.06357C17.9 4.06357 17.4 4.06357 16.8 4.16357C6.1 6.06357 1.4 14.7636 0 23.2636V23.4636C0 25.5636 1.1 26.5636 3.3 26.8636C3.8 26.8636 4.4 27.0636 4.8 27.3636C7.3 29.4636 10.1 29.4636 12.9 28.3636C16.9 26.8636 20.3 24.2636 22.9 20.8636C24.5 18.6636 25.9 16.2636 26.4 13.5636ZM131.512 4.80485C131.2 4.83239 130.847 4.86358 130.4 4.86358C128.2 4.66358 125.9 5.36358 123.8 6.96358C120.1 9.56358 117 12.8636 114.9 16.8636C114.3 18.0636 113.8 19.3636 113.6 20.6636C113.1 23.6636 115.1 25.2636 118.1 24.4636C118.4 24.3819 118.697 24.2946 118.994 24.2076L118.995 24.2075C120.878 23.6555 122.727 23.1134 124.8 24.0636C125.6 24.3636 126.7 24.1636 127.6 23.8636C128.7 23.4636 129.8 22.9636 130.8 22.2636C135.5 19.1636 136.9 14.4636 136.9 9.16358C136.9 6.56358 134.9 4.86358 132.2 4.76358C131.979 4.76358 131.758 4.78307 131.512 4.80485ZM66.1 28.2636C65.9823 28.3028 65.8608 28.342 65.7369 28.382C65.2292 28.5459 64.6823 28.7224 64.2 28.9636C62.4 29.8636 61 29.1636 60.8 27.1636C60.7 26.4636 60.8 25.6636 61 25.0636C62.1 20.9636 63.6 16.9636 66 13.4636C66.5 12.6636 67.1 11.8636 67.8 11.2636C68.4 10.6636 69.2 10.0636 69.9 9.76357C70.8 9.46357 71.8 9.16357 72.7 9.26357C73.0912 9.31248 73.4825 9.35873 73.8734 9.40492L73.875 9.40511L73.8753 9.40515L73.8757 9.4052L73.876 9.40524L73.8764 9.40528C75.8819 9.64231 77.8759 9.87799 79.8 10.4636C81 10.7636 81.7 12.1636 81.9 13.4636C82 14.4636 82.1 15.5636 81.9 16.5636C81.2 20.9636 75.8 26.8636 71.3 27.0636C70.9 27.0636 70.5 27.2414 70.1 27.4191C69.9 27.508 69.7 27.5969 69.5 27.6636C68.4 28.0636 67.3 28.4636 66.2 28.7636C66.2 28.7221 66.1828 28.6636 66.1627 28.5949C66.1343 28.4979 66.1 28.3807 66.1 28.2636ZM159.9 49.7636C161.6 44.6636 159.2 39.8636 154.1 38.7636C153 35.6636 150.8 34.8636 148.3 36.7636C147.2 37.5636 146.3 38.7636 145.5 39.9636C142.8 44.0636 143.4 48.5636 144.2 52.9636C144.4 54.1636 145.3 54.9636 146.4 55.3636C146.7 55.4635 147 55.5385 147.3 55.6135L147.3 55.6136L147.3 55.6136C147.6 55.6886 147.9 55.7636 148.2 55.8636C153.5 57.3636 158.1 54.9636 159.9 49.7636ZM22.7 58.3636C22.7 52.7636 26.2999 47.2636 31.1 45.1636C31.8 44.8636 32.4 44.3636 33 43.7636C35.9 41.2636 39.3999 42.2636 40.2999 46.0636C40.5 47.1636 40.5 48.2636 40.2999 49.3636C39.3999 54.1636 37 58.3636 33.5999 61.8636C32.8999 62.5636 32 63.2636 31.1 63.7636C27.2 65.8636 23.2 63.7636 22.7 59.2636V58.3636ZM171.5 5.86357C168 6.76357 163.9 11.8636 164 16.0636C164 19.7636 166.3 22.3636 169.5 22.1636C170.7 22.0969 171.9 21.9413 173.1 21.7858C173.7 21.708 174.3 21.6302 174.9 21.5636C175.365 21.5636 175.77 21.3834 176.161 21.2092C176.275 21.1586 176.387 21.1086 176.5 21.0636C180 19.4636 183.4 13.8636 183.2 10.0636C183.1 6.96357 180.9 4.86357 177.8 4.96357C175.7 4.96357 173.6 5.36357 171.5 5.86357ZM98.8439 37.4102L98.844 37.4106C99.0187 38.2927 99.2 39.2084 99.2 40.0636C99.2 41.1636 99.4 42.1636 100 43.2636C100.5 44.1636 100.7 45.2636 100.8 46.2636C101 51.0636 96 56.2636 91.1 56.2636C87.8 56.2636 85 53.8636 84.3 50.5636C83.4 46.5636 85.6 41.2636 89.2 39.0636C90.6 38.1636 92.1 37.8636 93.6 38.9636C94.8 39.8636 95.2 39.6636 96.1 38.4636L97.9 36.3636C98.2 36.5636 98.5 36.6636 98.7 36.6636C98.7445 36.9082 98.7939 37.1578 98.8439 37.4102ZM236.178 69.2963C234.555 70.4295 233.04 71.4875 230.8 71.2636C229.9 68.7636 228.4 67.3636 225.9 67.5636C225.5 67.5636 225 67.1636 224.7 66.8636C223.4 65.5636 222 65.6636 220.5 66.2636C216.1 68.1636 213.6 74.4636 215.6 78.8636C217.3 82.6636 221.6 83.9636 225 81.5636C225.9 80.9636 226.7 80.1636 227.4 79.2636C228.4 78.0636 229.4 77.2636 231 76.7636C234.4 75.7636 236.8 73.3636 237.9 69.9636C237.963 69.6471 237.946 69.3306 237.926 68.938L237.925 68.9374C237.913 68.7099 237.9 68.4569 237.9 68.1636C237.292 68.5183 236.729 68.9117 236.178 69.2963ZM131.35 75.6636L131.351 75.6634C131.775 75.5635 132.2 75.4635 132.6 75.3636C132.6 75.1636 132.6 74.9636 132.7 74.6636C129.9 72.8636 126.8 72.5636 123.6 73.4636L123.436 73.5047C122.308 73.7889 121.345 74.0315 120.2 73.3636C118.7 72.5636 117.1 72.8636 115.6 73.7636C111.9 75.8636 109.8 81.6636 111.4 85.6636C111.9 87.0636 112.8 88.1636 114.2 88.3636C116.4 88.7636 118.7 88.7636 120.6 87.2636C123 85.3636 124.8 82.9636 125 79.8636C125.2 78.2636 125.9 77.3636 127.2 76.8636C128.1 76.5636 129.1 76.2637 130.1 75.9637L130.1 75.9636C130.5 75.8636 130.925 75.7636 131.35 75.6636ZM66.7457 89.7542L66.7451 89.7539L66.745 89.7539L66.7448 89.7538C66.2129 89.53 65.7064 89.3168 65.2 89.0636C64.6007 90.0124 64.0014 90.9363 63.4022 91.8601L63.4021 91.8602L63.4004 91.8628L63.4 91.8635C62.8 92.7885 62.2 93.7135 61.6 94.6636C60.5 96.3636 59 97.5636 56.8 97.1636C54.6 96.7636 53 95.3636 52.6 93.0636C52.4 91.7636 52.4 90.3636 52.6 89.0636C53.1 86.1636 54.4 83.5636 56.5 81.4636C59.5 78.4636 62.6 78.6636 65.1 81.9636C65.2999 82.2635 65.5999 82.5635 65.8999 82.8635L65.9 82.8636C68.7 85.1636 68.9999 86.4636 67.7 90.1636C67.3701 90.017 67.0537 89.8838 66.7457 89.7542ZM16.6837 89.5473C16.8165 89.3053 16.9582 89.047 17.0999 88.7636C16.9625 88.6536 16.8175 88.5436 16.667 88.4295C16.27 88.1285 15.835 87.7986 15.3999 87.3636C13.1999 84.9636 11.3999 84.5636 8.49994 86.0636C4.99994 87.9636 2.59994 90.6636 1.89994 94.6636C1.59994 96.4636 1.59994 98.2636 2.79994 99.8636C5.39994 103.264 11.8999 103.064 13.6999 98.9636C14.1999 97.7636 14.6999 96.4636 15.0999 95.1636C15.3096 94.4297 15.4643 93.6684 15.6217 92.894C15.7646 92.191 15.9096 91.4773 16.0999 90.7636C16.2291 90.3761 16.4416 89.9887 16.6837 89.5473ZM202.5 28.6636C204.9 29.3636 206.2 31.8636 205.5 33.9636C205 35.5636 204.6 37.1636 204.4 38.7636C203.9 42.3636 202.1 45.0636 199.1 46.8636C196.3 48.5636 193.3 47.2636 192.1 44.1636C191.4 42.2636 191.5 40.3636 192.1 38.5636C193.5 34.5636 196.3 31.7636 200.3 30.5636C201.5 30.2636 202.3 29.8636 202.5 28.6636ZM183.1 81.3636C184.4 78.1636 184 75.2635 181.2 72.5636C181.9 71.3635 182 70.1636 181.1 69.2636C180 68.1636 178.7 68.1636 177.3 68.5636C176.9 68.6636 176.5 68.8635 176.2 69.0636C172.6 71.0636 170.3 75.8636 170.9 79.8636C171.3 82.8636 173.3 84.9636 175.8 85.2636C178.9 85.6636 182 83.9636 183.1 81.3636Z" fill="black"/>
</svg>
