<svg width="128" height="130" viewBox="0 0 128 130" fill="none" xmlns="http://www.w3.org/2000/svg">
<path d="M63.4762 129.755C58.3762 129.855 52.5762 128.855 46.9762 126.655C41.6762 124.555 36.4762 121.955 31.2762 119.455C29.4762 118.555 27.8762 117.355 26.2762 116.255C19.1762 111.155 14.5762 104.455 12.5762 95.8547C10.3762 86.0547 10.2762 76.3547 13.2762 66.6547C15.2762 60.2547 18.5762 54.6547 22.6762 49.5547C23.7762 48.2547 25.3762 47.2547 26.6762 46.1547C27.4762 45.4547 28.4762 44.7547 29.0762 43.8547C36.3762 32.9547 46.5762 25.8547 58.6762 21.2547C68.9762 17.4547 79.4762 15.7547 90.4762 16.0547C116.176 16.7547 129.176 40.2547 126.876 58.4547C126.176 63.9547 125.276 69.5547 123.976 74.9547C121.776 84.5547 117.476 93.2547 111.576 101.255C107.176 107.255 102.076 112.655 96.3762 117.555C87.1762 125.455 76.6762 129.855 63.4762 129.755Z" fill="black"/>
<path d="M54.2696 111.374C38.5696 111.474 28.8696 107.774 20.4696 100.774C15.8696 97.0738 12.5696 92.3738 10.2696 87.0738C6.46962 78.0738 3.86962 68.7738 2.56962 59.1738C1.56962 52.0738 1.66962 44.9738 3.56962 37.9738C7.16962 24.8738 14.9696 14.7738 25.8696 7.07384C32.8696 2.17384 40.8696 0.473836 49.1696 0.0738361C55.4696 -0.226164 61.6696 0.773836 67.6696 2.57384C73.6696 4.47384 79.5696 6.67384 85.4696 9.07384C90.6696 11.1738 94.9696 14.6738 98.2696 19.2738C105.07 28.5738 109.27 38.8738 110.57 50.3738C111.27 56.8738 110.27 63.1738 107.67 69.0738C101.77 82.3738 92.8696 93.2738 80.9696 101.374C71.4696 107.874 60.9696 111.374 54.2696 111.374Z" fill="white"/>
<path d="M115.97 58.221C115.97 63.321 115.57 68.321 114.27 73.221C113.17 77.521 111.57 81.621 108.97 85.221C101.37 95.721 92.2697 104.521 80.2697 109.921C70.4697 114.321 60.2697 116.921 49.4697 117.421C40.3697 117.821 32.2697 115.021 25.3697 109.021C19.7697 104.221 14.8697 98.721 11.6697 91.921C10.8697 90.221 9.66972 88.621 8.76972 86.921C4.46972 78.621 2.46972 69.721 1.06972 60.621C0.0697225 54.321 -0.430277 47.921 0.469722 41.521C2.36972 28.021 9.56972 17.821 20.4697 10.021C30.9697 2.62096 42.8697 -0.279038 55.7697 0.0209617C62.3697 0.220962 68.7697 1.32096 74.9697 3.72096C80.1697 5.72096 85.3697 7.92096 90.3697 10.321C98.0697 13.921 103.87 19.521 107.97 27.021C113.47 36.721 115.97 47.121 115.97 58.221ZM105.17 58.421C104.87 48.421 102.77 40.421 98.2697 32.221C95.3697 26.921 91.3697 23.021 85.9697 20.521C80.3697 17.921 74.7697 15.321 68.8697 13.521C54.6697 9.22096 40.7697 10.221 28.0697 18.421C16.7697 25.721 10.4697 36.021 11.1697 49.721C11.6697 58.721 12.2697 67.721 16.7697 75.921C18.2697 78.621 19.2697 81.621 20.4697 84.521C22.9697 91.021 27.4697 96.121 32.5697 100.621C37.3697 104.821 42.9697 106.721 49.3697 106.321C50.8697 106.221 52.3697 106.121 53.8697 105.921C72.3697 103.621 87.6697 95.621 98.7697 80.321C101.17 76.921 103.07 73.321 103.77 69.321C104.37 65.721 104.67 62.021 105.17 58.421Z" fill="#F7D046"/>
<path d="M33.9697 61.521C34.0697 53.521 36.0697 46.221 41.5697 40.121C43.8697 37.621 46.4697 35.521 49.5697 34.221C52.3697 33.021 55.2697 32.721 58.2697 33.521C59.7697 33.921 61.3697 33.921 62.9697 34.021C66.8697 34.421 70.4697 35.621 73.5697 38.021C79.4697 42.521 81.6697 48.721 81.2697 55.921C80.5697 68.021 71.4697 80.121 59.9697 83.921C53.4697 86.121 47.2697 84.921 42.0697 80.321C36.3697 75.321 33.8697 69.021 33.9697 61.521ZM45.0697 61.421C44.9697 65.321 46.0697 68.621 48.8697 71.421C51.2697 73.721 54.1697 74.421 57.2697 73.021C64.2697 69.721 68.6697 64.421 70.0697 56.721C71.4697 49.121 66.7697 44.221 59.0697 45.021C58.1697 45.121 57.1697 45.521 56.2697 45.721C55.0697 45.921 53.8697 46.321 52.7697 46.221C51.3697 46.121 50.5697 46.721 49.6697 47.621C46.1697 51.621 45.2697 56.421 45.0697 61.421Z" fill="#EA552B"/>
</svg>
