<svg width="276" height="316" viewBox="0 0 276 316" fill="none" xmlns="http://www.w3.org/2000/svg">
<path d="M275.908 204.7C275.908 211.1 275.508 217.5 274.408 223.8C272.708 233.5 268.708 242.1 262.608 249.7C258.108 255.3 253.007 260.2 247.607 264.8C234.107 276.2 218.907 285.1 203.007 292.7C181.107 303 158.207 309.7 134.307 313C125.307 314.2 116.207 315.4 107.107 315.6C96.4075 315.8 85.8075 314.8 75.6075 311.6C72.6075 310.6 69.6075 309.4 66.7075 308C59.6075 304.4 54.1075 299 50.4075 291.9C46.8075 285 43.3075 278.1 40.8075 270.7C40.6075 270.1 40.4075 269.5 40.1075 268.9C34.7075 258 31.6075 246.3 28.6075 234.6C24.4075 218.4 18.9075 202.6 13.6075 186.8C9.50749 174.6 5.60749 162.3 3.00749 149.7C1.30749 141.2 0.107488 132.7 0.00748755 124C-0.0925125 116.8 0.807488 109.6 2.80749 102.7C7.80749 85.2 16.3075 69.6 29.3075 56.7C34.6075 51.4 40.5075 46.9 47.2075 43.5C50.5075 41.8 53.9075 40.2 57.3075 38.6C69.3075 33 81.3075 27.6 93.2075 21.9C110.207 13.9 127.607 7.3 145.807 2.7C152.907 0.9 160.207 0 167.607 0C177.907 0 187.307 2.8 195.807 8.7C208.607 17.6 219.607 28.3 228.207 41.4C235.207 52.1 240.807 63.5 245.507 75.3C256.307 102.7 264.508 130.8 270.008 159.7C272.108 170.5 273.908 181.4 275.008 192.4C275.408 196.5 275.608 200.6 275.908 204.7Z" fill="white"/>
<path fill-rule="evenodd" clip-rule="evenodd" d="M124.789 39.6359C125.159 32.3163 130.162 28.5175 137.11 30.5559C139.982 31.3898 141.835 33.2428 142.669 36.1151C143.596 39.4506 143.318 42.7861 141.743 45.8436C140.075 48.9938 137.481 50.9396 133.775 50.8469C130.162 50.7542 127.661 48.6232 126.364 45.3804C125.759 44.0358 125.446 42.5938 125.144 41.1957C125.029 40.6669 124.916 40.1444 124.789 39.6359ZM54.8423 220.865C54.8423 220.68 54.8423 220.124 54.9349 219.661C55.4908 218.085 55.6761 216.418 55.6761 214.657C55.6761 212.434 57.6216 210.766 59.9377 210.673C60.9568 210.673 62.0685 210.859 62.9023 211.229C65.867 212.619 68.6463 214.379 70.7771 216.881C75.1314 221.792 73.1859 229.852 67.0713 232.169C63.8288 233.466 60.4009 232.539 57.9922 229.852C56.2319 227.814 54.8423 224.108 54.8423 220.865ZM92.5486 269.045C91.0662 270.527 90.5104 272.38 90.5104 273.585C90.5104 278.588 92.8265 282.757 96.1617 284.703C100.331 287.112 105.056 285.815 107.372 281.553C110.707 275.438 106.816 267.006 100.053 265.524C97.4587 264.968 95.2352 265.524 93.5676 267.84C93.2897 268.303 92.9191 268.674 92.5486 269.045ZM226.79 201.778C226.698 202.211 226.625 202.654 226.553 203.096C226.409 203.982 226.265 204.867 225.956 205.67C223.918 211.136 217.526 212.526 213.357 208.357C211.226 206.318 210.392 203.632 210.022 200.759C209.929 199.925 209.744 198.999 209.466 198.165C208.169 194.83 209.466 191.957 212.894 190.845C217.155 189.363 222.806 191.494 225.03 195.385C226.142 197.331 226.698 199.462 226.79 201.778ZM39.0162 84.0043L39.0162 84.0044L39.0161 84.0045C38.9763 84.2167 38.9404 84.4078 38.9075 84.5726C39.0001 88.464 39.6486 91.2436 41.5942 93.4672C43.6323 95.8762 46.319 96.988 49.4689 96.4321C52.6188 95.8762 54.657 93.8378 55.6761 90.7803C57.529 85.3138 54.5644 78.7354 48.7278 77.4383C48.5425 77.3765 48.3572 77.325 48.1719 77.2736C47.8013 77.1706 47.4307 77.0677 47.0602 76.8824C44.4661 75.7705 41.2236 76.8824 39.9266 80.2179C39.4696 81.589 39.2004 83.0227 39.0162 84.0042L39.0162 84.0043ZM197.7 243.472C197.7 247.271 195.754 250.236 192.604 251.255C189.732 252.274 186.768 251.348 184.637 248.846C182.228 245.881 181.209 242.453 181.302 238.747C181.394 236.06 182.877 233.836 184.452 231.798C185.471 230.501 187.046 230.13 188.713 230.408C189.64 230.594 190.566 230.964 191.307 231.52C194.643 233.744 197.7 239.396 197.7 243.472ZM39.6487 150.634V151.561C39.7413 155.73 41.0383 159.436 44.7441 161.845C47.2455 163.513 49.9322 163.883 52.7115 162.494C55.3982 161.104 56.6026 158.695 56.6952 155.823C56.8805 150.912 54.3791 147.299 50.3028 144.704C49.9322 144.426 49.5616 144.241 49.0984 144.148C44.3735 142.666 39.9266 145.723 39.6487 150.634ZM163.143 246.808C163.287 247.132 163.403 247.47 163.519 247.806C163.7 248.334 163.879 248.856 164.163 249.309C165.46 251.44 166.479 253.571 166.571 256.166C166.664 258.945 165.645 261.076 163.143 262.373C160.642 263.671 158.233 263.207 156.102 261.54C153.601 259.687 152.397 257 151.841 253.942C151.594 252.583 151.429 251.224 151.264 249.865L151.264 249.864C151.182 249.185 151.1 248.506 151.007 247.827C150.822 246.53 151.1 245.14 152.119 244.399L152.273 244.287C153.895 243.115 155.604 241.88 157.399 241.341C160.827 240.322 163.977 243.287 163.143 246.808ZM161.476 184.638C158.975 187.417 157.492 190.66 157.585 193.81C157.492 197.053 157.955 199.092 158.882 200.759C160.364 203.261 162.958 204.465 165.645 204.095C168.98 203.632 172.037 200.852 172.686 197.516C173.427 193.718 172.501 190.29 170.184 187.232C169.907 186.862 169.653 186.516 169.399 186.169L169.397 186.166L169.395 186.164C169.141 185.817 168.887 185.471 168.61 185.101C166.757 182.414 163.699 182.229 161.476 184.638ZM100.609 232.447C106.63 231.427 111.541 238.469 110.058 244.306C108.854 249.031 104.129 251.348 99.6821 249.402C95.2352 247.456 92.3632 241.527 93.7529 236.801C94.4014 234.207 96.6249 231.705 100.609 232.447ZM225.586 151.746C224.011 154.248 223.177 157.027 223.27 159.992C223.27 162.216 223.733 164.254 224.845 166.107C226.512 168.887 229.199 170.276 232.071 169.813C234.85 169.443 237.166 167.219 237.63 163.976C238.463 158.88 236.61 154.433 233.275 150.727C230.959 148.132 227.439 148.781 225.586 151.746ZM82.5476 183.782L82.5476 183.782C82.7289 184.311 82.9082 184.833 83.1914 185.286C84.5811 187.695 85.2296 190.197 84.7664 192.976C84.3958 195.385 83.0988 197.238 80.69 197.98C78.1886 198.814 76.0578 197.98 74.2976 196.127C72.7226 194.366 71.8888 192.235 71.3329 190.012C71.055 188.9 70.6844 187.788 70.1286 186.769C68.9242 184.174 69.5727 181.765 71.8888 180.19C72.352 179.912 72.7921 179.588 73.2321 179.264C73.6722 178.94 74.1123 178.615 74.5755 178.337C76.3357 177.225 78.1886 177.04 80.0415 178.059C81.8018 179.079 82.5429 180.654 82.1723 182.785C82.3163 183.109 82.4323 183.447 82.5476 183.782ZM186.212 49.7351C188.713 48.4379 189.64 46.2143 189.732 43.8053C189.825 39.7286 187.046 35.0959 183.433 32.3163C179.727 29.4441 175.095 31.2971 174.539 36.0224C174.261 38.1535 174.354 40.4698 174.724 42.6008C175.187 45.2877 176.577 47.6041 178.893 49.1792C181.209 50.7543 183.711 51.1249 186.212 49.7351ZM123.214 201.964C123.214 201.253 123.204 200.543 123.193 199.833C123.173 198.412 123.152 196.991 123.214 195.571C123.399 192.699 126.086 190.845 128.958 191.772C130.162 192.143 131.274 192.791 132.2 193.625C134.331 195.571 135.813 197.887 136.925 200.574C137.759 202.612 137.944 204.743 137.11 206.874C136.184 209.561 134.331 211.229 131.552 211.692C128.68 212.156 126.456 211.044 124.789 208.727C123.399 206.689 122.936 204.373 123.214 201.964ZM211.596 92.8187C215.024 91.4289 217.248 87.9081 217.248 84.0166C217.248 80.2179 215.21 77.0677 212.152 76.0485C208.91 74.844 205.204 76.0485 202.981 78.8281C200.479 81.9783 200.572 87.8154 203.166 90.873C205.204 93.2819 208.539 94.0232 211.596 92.8187ZM121.639 117.557C121.639 119.132 121.268 120.8 120.342 122.19C117.748 126.266 112.467 126.637 109.41 122.931C107.186 120.244 106.538 117.001 106.63 113.573C106.63 112.809 106.787 112.044 106.943 111.28C106.995 111.025 107.047 110.77 107.094 110.515C107.927 106.624 111.355 105.049 114.968 106.809C118.674 108.477 121.639 113.295 121.639 117.557ZM158.071 82.6313C158.155 82.3523 158.239 82.0726 158.326 81.793C158.048 79.1987 156.936 77.1603 154.806 75.3999C154.669 75.2826 154.523 75.1652 154.376 75.0461C153.826 74.601 153.245 74.1316 152.953 73.5469C151.378 70.7673 147.023 70.2114 144.337 73.6395C141.465 77.3456 141.372 83.0901 144.244 86.8889C147.765 91.5215 153.879 91.1509 156.751 86.1477C157.352 85.0202 157.71 83.8317 158.071 82.6317L158.071 82.6316L158.071 82.6316L158.071 82.6315L158.071 82.6315L158.071 82.6314L158.071 82.6313ZM208.261 129.602C208.169 132.937 206.779 135.902 203.722 137.848C199.645 140.535 194.55 138.867 192.975 134.327C191.029 128.861 193.068 123.487 199.553 121.448C202.054 120.615 204.37 121.448 206.13 123.487C207.613 125.155 208.169 127.193 208.261 129.602ZM163.901 139.375C164.037 138.857 164.173 138.339 164.348 137.848C164.163 132.845 158.697 127.193 153.786 127.193C150.729 127.1 148.32 129.324 148.506 132.196C148.598 133.957 148.784 135.717 149.154 137.477C149.71 140.257 151.007 142.666 153.416 144.241C156.844 146.557 161.198 145.538 163.051 141.832C163.454 141.084 163.678 140.228 163.901 139.375ZM113.671 68.0803C113.671 71.2305 112.097 73.8248 109.502 74.844C106.908 75.8632 103.944 75.122 101.906 72.8056C99.1263 69.5628 98.2925 65.764 99.1263 61.5946C99.4969 60.0195 100.331 58.7224 101.535 57.7032C104.129 55.7575 107.464 56.4061 109.225 59.093C109.78 59.9268 110.429 60.7606 111.077 61.5944L111.077 61.5946C112.838 63.633 113.671 65.6714 113.671 68.0803ZM67.5075 104.394C67.4134 104.759 67.3316 105.077 67.2566 105.327C67.4419 109.404 68.2757 112.183 70.6844 114.221C74.2976 117.372 79.393 116.167 81.1532 111.813C82.265 108.94 81.8944 106.253 80.0415 103.844C79.3004 102.825 78.7445 101.899 78.4666 100.694C77.818 98.0999 75.224 96.7101 72.5373 97.4513C70.7771 97.9146 69.3874 99.1191 68.6463 100.787C68.1052 102.072 67.7617 103.406 67.5075 104.394ZM124.326 153.321C124.326 155.081 123.862 156.842 122.658 158.51C120.064 161.845 115.432 162.123 112.282 159.065C109.317 156.193 108.483 151.005 110.336 147.299C111.541 144.89 113.671 143.778 116.358 144.148C116.451 144.148 116.52 144.172 116.59 144.195C116.659 144.218 116.729 144.241 116.821 144.241C121.917 144.982 124.326 147.854 124.326 153.321ZM180.375 163.328V169.165C180.375 170.925 180.931 173.241 182.784 175.094C185.841 178.152 190.659 177.225 192.326 173.334C194.179 169.072 190.844 161.011 186.583 159.251C183.433 157.954 180.375 159.992 180.375 163.328Z" fill="black"/>
</svg>
