<svg width="110" height="175" viewBox="0 0 110 175" fill="none" xmlns="http://www.w3.org/2000/svg">
<path d="M76.8471 170.413C64.9304 169.954 53.0902 170.872 41.2499 172.554C32.0832 173.853 22.8402 174.618 13.5207 174.541C11.1527 174.541 8.78461 174.771 6.41655 174.847C6.26378 174.847 6.03461 174.847 5.88183 174.924C1.52767 175.153 -0.916778 172.095 0.381833 167.89C1.37489 164.832 2.36794 161.851 3.59017 158.946C8.93739 146.178 15.2777 133.87 21.7707 121.714C41.0207 86.0123 62.486 51.6863 85.6318 18.3541C88.3818 14.4552 91.2846 10.7092 94.2638 6.96311C95.4096 5.51056 96.7846 4.36381 98.0832 3.06416C98.3124 2.83481 98.6943 2.60546 98.9999 2.37611C103.354 -0.605432 107.708 1.00002 109.007 6.12216C109.389 7.57471 109.542 9.10371 109.618 10.6327C110.229 19.1186 109.923 27.6046 109.389 36.0905C108.472 50.6925 107.326 65.2179 106.486 79.8199C105.722 93.2751 105.722 106.73 106.486 120.185C107.097 130.659 108.014 141.133 108.701 151.683C108.854 154.741 108.854 157.799 108.472 160.78C107.937 165.214 105.264 168.12 100.986 169.419C99.0763 170.031 97.0138 170.413 95.104 170.489C90.5971 170.566 86.0902 170.337 81.5832 170.26C80.0554 170.337 78.4513 170.413 76.8471 170.413Z" fill="#EA552B"/>
<path d="M72.5511 159.103C59.9527 158.135 47.5305 159.631 35.1083 161.392C32.6415 161.744 30.1747 161.832 27.7078 162.008C24.5362 162.184 22.598 160.423 21.2765 157.783C20.9241 156.991 20.9241 155.846 21.1884 154.966C21.6289 153.47 22.2456 152.061 22.9504 150.653C26.122 144.668 29.2937 138.77 32.4653 132.785C39.249 120.022 45.8566 107.083 52.9927 94.4075C60.3932 81.3803 68.3223 68.6173 75.987 55.7662C80.6564 47.8443 85.3257 39.8343 89.995 31.9124C90.2593 31.4723 90.6117 30.9442 90.9641 30.5041C92.1975 29.0957 93.9596 28.6556 95.5454 29.2718C97.1312 29.8879 98.1884 31.4723 98.0122 33.3208C97.7479 36.5775 97.3074 39.8343 96.4264 43.0031C94.8406 48.7245 93.6953 54.6219 92.7262 60.5193C91.0522 70.3777 89.5545 80.236 88.233 90.1824C87.0877 98.7205 86.2948 107.347 85.4138 115.973C84.2685 127.591 83.1232 139.21 81.9779 150.829C81.8898 151.885 81.7136 152.942 81.5374 153.998C81.0088 156.198 79.6873 157.607 77.3966 158.047C75.8108 158.399 74.1369 158.751 72.5511 159.103Z" fill="#F7D046"/>
</svg>
