<svg width="351" height="395" viewBox="0 0 351 395" fill="none" xmlns="http://www.w3.org/2000/svg">
<path d="M350.024 180.001C348.924 194.701 348.024 209.601 346.724 224.401C345.524 237.901 343.524 251.401 339.324 264.401C332.424 285.701 320.924 304.401 306.624 321.501C290.324 341.001 269.824 354.401 246.124 363.301C228.824 369.701 211.124 374.601 193.324 379.101C177.424 383.101 161.324 386.001 145.224 389.201C135.524 391.101 125.924 393.001 116.124 393.701C108.724 394.301 101.324 394.901 93.8236 394.001C86.2236 393.001 78.9237 391.301 71.9237 388.201C70.2237 387.401 68.4236 386.601 66.7236 385.801C55.0236 380.801 44.7236 373.901 35.3237 365.401C30.6236 361.101 26.1236 356.701 22.3237 351.601C21.5237 350.501 20.6236 349.501 19.9236 348.301C15.5236 340.601 10.8236 333.001 7.22365 324.901C4.52365 318.801 2.62365 312.501 1.92365 305.801C0.72365 294.701 -0.37635 283.701 0.12365 272.501C0.72365 260.801 2.52365 249.301 5.32365 237.901C8.62365 224.601 12.3236 211.501 15.8236 198.301C18.6236 187.601 21.4236 176.801 22.9236 165.701C23.8236 159.301 24.4236 152.801 24.6236 146.401C24.8237 137.701 24.5237 129.001 24.3237 120.201C24.1236 109.501 24.4236 98.8007 26.4236 88.2007C31.0236 63.7007 43.3236 43.7007 62.4236 27.9007C75.4236 17.1007 90.3236 10.0007 106.724 5.8007C125.624 0.900703 144.824 -0.999297 164.124 0.500703C179.324 1.6007 194.224 4.7007 208.724 9.5007C232.424 17.4007 255.524 26.8007 277.624 38.4007C287.524 43.6007 296.824 49.7007 305.424 56.7007C323.824 71.8007 335.824 91.0007 342.524 113.701C348.424 133.501 350.924 153.701 350.024 174.401C349.924 176.201 350.024 178.101 350.024 180.001Z" fill="#EA552B"/>
<mask id="mask0" mask-type="alpha" maskUnits="userSpaceOnUse" x="0" y="0" width="351" height="395">
<path d="M350.024 180.001C348.924 194.701 348.024 209.601 346.724 224.401C345.524 237.901 343.524 251.401 339.324 264.401C332.424 285.701 320.924 304.401 306.624 321.501C290.324 341.001 269.824 354.401 246.124 363.301C228.824 369.701 211.124 374.601 193.324 379.101C177.424 383.101 161.324 386.001 145.224 389.201C135.524 391.101 125.924 393.001 116.124 393.701C108.724 394.301 101.324 394.901 93.8236 394.001C86.2236 393.001 78.9237 391.301 71.9237 388.201C70.2237 387.401 68.4236 386.601 66.7236 385.801C55.0236 380.801 44.7236 373.901 35.3237 365.401C30.6236 361.101 26.1236 356.701 22.3237 351.601C21.5237 350.501 20.6236 349.501 19.9236 348.301C15.5236 340.601 10.8236 333.001 7.22365 324.901C4.52365 318.801 2.62365 312.501 1.92365 305.801C0.72365 294.701 -0.37635 283.701 0.12365 272.501C0.72365 260.801 2.52365 249.301 5.32365 237.901C8.62365 224.601 12.3236 211.501 15.8236 198.301C18.6236 187.601 21.4236 176.801 22.9236 165.701C23.8236 159.301 24.4236 152.801 24.6236 146.401C24.8237 137.701 24.5237 129.001 24.3237 120.201C24.1236 109.501 24.4236 98.8007 26.4236 88.2007C31.0236 63.7007 43.3236 43.7007 62.4236 27.9007C75.4236 17.1007 90.3236 10.0007 106.724 5.8007C125.624 0.900703 144.824 -0.999297 164.124 0.500703C179.324 1.6007 194.224 4.7007 208.724 9.5007C232.424 17.4007 255.524 26.8007 277.624 38.4007C287.524 43.6007 296.824 49.7007 305.424 56.7007C323.824 71.8007 335.824 91.0007 342.524 113.701C348.424 133.501 350.924 153.701 350.024 174.401C349.924 176.201 350.024 178.101 350.024 180.001Z" fill="black"/>
</mask>
<g mask="url(#mask0)">
<path fill-rule="evenodd" clip-rule="evenodd" d="M117.824 60.3007C117.824 56.2007 118.624 52.7007 120.624 49.6007C121.524 48.2007 122.824 46.8007 124.224 45.8007C126.224 44.4007 129.124 44.8007 130.524 47.0007C130.824 47.5007 131.524 47.9007 132.124 48.2007C132.446 48.3849 132.79 48.5268 133.125 48.6652C133.518 48.8274 133.9 48.9849 134.224 49.2007C138.824 52.3007 141.324 60.1007 139.424 65.2007C137.724 69.8007 131.724 73.6007 126.924 73.1007C124.124 72.8007 122.024 71.3007 120.424 69.0007C118.624 66.3007 117.824 63.2007 117.824 60.3007ZM200.924 59.8007C196.624 62.8007 195.124 67.2007 195.024 72.2007C195.024 74.9007 195.624 77.4007 196.724 79.9007C198.624 83.7007 202.124 85.6007 206.324 85.1007C210.624 84.6007 214.024 82.5007 216.724 79.3007C223.824 70.7007 218.424 60.0007 209.024 58.0007C206.024 57.4007 203.424 58.0007 200.924 59.8007ZM245.024 129.501C245.124 124.601 246.524 120.101 249.324 116.001C250.524 114.301 251.924 112.801 253.824 111.801C255.324 111.001 256.724 110.601 258.424 111.401C258.924 111.601 259.524 111.701 260.024 111.701C266.424 112.101 271.424 116.901 272.024 123.301C272.524 128.901 270.524 133.701 266.524 137.501C263.924 140.001 260.824 141.601 257.324 142.301C253.524 143.001 250.424 141.701 248.024 138.701C245.824 136.001 244.924 132.901 245.024 129.501ZM187.424 305.301C187.324 301.801 188.124 297.801 190.124 294.101C190.631 293.086 191.495 292.144 192.294 291.272C192.44 291.113 192.584 290.955 192.724 290.801C193.624 289.801 194.624 288.901 195.624 288.001C199.824 283.901 205.124 284.201 208.624 288.901C210.224 291.001 211.724 293.301 210.724 296.201C210.601 296.509 210.667 296.854 210.736 297.215C210.779 297.44 210.824 297.67 210.824 297.901C211.324 304.501 209.024 310.101 204.524 314.901C202.724 316.801 200.524 318.001 197.924 318.701C193.924 319.801 190.624 318.201 188.824 314.501C187.624 311.601 187.324 308.801 187.424 305.301ZM273.554 192.539C273.514 193.197 273.472 193.882 273.424 194.601C273.432 194.68 273.44 194.763 273.448 194.849C273.456 194.936 273.464 195.026 273.473 195.119L273.476 195.152L273.476 195.159L273.477 195.164C273.564 196.117 273.676 197.327 273.924 198.401C274.924 203.301 278.624 206.301 283.624 206.401C287.124 206.501 290.124 205.301 292.624 203.001C297.224 198.701 299.324 193.401 298.724 187.101C298.024 180.601 293.124 176.401 286.224 176.301C279.824 176.201 274.824 180.501 274.024 186.801C273.796 188.626 273.683 190.45 273.554 192.539L273.554 192.539ZM79.8237 259.901C79.8237 264.601 78.8237 268.901 76.3237 272.801C75.8237 273.501 75.3237 274.201 74.7237 274.901C68.7237 281.701 60.9237 278.501 58.0237 272.801C56.1237 269.001 55.8237 265.001 56.8237 260.901C56.8928 260.642 56.9619 260.385 57.0304 260.131L57.0328 260.123L57.0334 260.12C57.3608 258.907 57.6762 257.738 57.9237 256.501C58.8237 253.001 60.6237 250.001 63.6237 247.901C68.3237 244.501 73.9237 245.501 77.2237 250.301C79.2237 253.101 79.7237 256.501 79.8237 259.901ZM81.8236 323.501C79.8236 328.001 78.7236 332.901 78.5236 336.601C78.4236 340.801 78.9236 343.701 80.6236 346.201C82.8236 349.401 86.2236 350.701 90.0237 350.001C93.0237 349.501 95.3236 347.801 97.2236 345.601C103.124 338.801 104.224 328.501 96.8236 320.301C94.6236 317.801 91.4236 317.201 88.3236 318.501C88.207 318.559 88.0819 318.634 87.9532 318.712C87.6406 318.9 87.307 319.101 87.0237 319.101C84.1236 319.301 82.8236 321.201 81.8236 323.501ZM208.424 230.501C208.624 226.601 210.124 222.401 212.924 218.601C214.224 216.801 215.724 215.301 218.224 215.501C218.677 215.501 219.187 215.216 219.667 214.947L219.668 214.947L219.668 214.947C219.824 214.86 219.977 214.774 220.124 214.701C223.424 213.101 226.524 213.501 229.124 216.101C232.424 219.501 233.524 223.601 232.924 228.201C232.524 231.501 231.424 234.601 229.624 237.401C227.424 240.901 224.224 243.101 220.224 243.801C216.624 244.501 213.624 243.301 211.324 240.401C209.224 237.801 208.424 234.701 208.424 230.501ZM108.149 191.988C108.076 192.53 108.003 193.069 107.924 193.601C108.224 198.001 108.924 202.301 111.224 206.101C112.224 207.901 113.524 209.401 116.024 208.601C116.157 208.534 116.379 208.556 116.601 208.578C116.713 208.59 116.824 208.601 116.924 208.601C120.324 209.101 123.024 207.601 125.124 205.101C128.924 200.501 130.424 195.201 130.124 189.301C130.024 187.101 129.524 184.901 128.424 182.901C125.324 177.201 119.524 175.901 114.324 179.801C111.724 181.801 109.724 184.301 108.924 187.501C108.557 188.969 108.351 190.491 108.149 191.988ZM155.924 255.601C155.824 260.401 154.124 264.701 150.624 268.101C149.824 268.901 148.924 269.601 148.024 270.201C142.324 273.701 136.324 271.501 134.224 265.101C133.224 262.001 133.024 258.801 133.724 255.601C134.204 253.201 134.94 250.801 135.676 248.401C135.86 247.801 136.044 247.201 136.224 246.601C136.424 245.901 136.824 245.301 137.224 244.701C139.524 240.901 142.124 240.201 146.124 242.101C146.403 242.221 146.683 242.356 146.969 242.495L146.97 242.496L146.972 242.497L146.974 242.498L146.975 242.498L146.975 242.498C147.403 242.706 147.845 242.921 148.324 243.101C151.224 244.001 153.124 245.901 154.424 248.501C155.524 250.701 156.024 253.101 155.924 255.601ZM52.1237 174.301C52.1237 171.601 52.4237 169.001 53.5237 166.601C55.0237 162.901 57.8237 161.001 61.8237 160.701C71.9237 160.101 77.1237 170.301 74.1237 178.101C73.6237 179.301 73.0237 180.401 72.3237 181.401C70.9237 183.301 69.4237 185.201 67.9237 187.001C64.4237 191.201 60.5237 190.801 56.8237 186.901C53.2237 183.201 52.2237 179.001 52.1237 174.301ZM149.324 136.401C156.224 135.001 161.124 129.101 161.124 122.101C161.124 118.401 159.924 114.601 158.124 111.901C154.824 107.301 149.424 106.201 144.624 109.301C142.124 110.901 140.424 113.101 139.524 115.801C138.324 119.401 138.324 123.001 139.424 126.601C140.424 129.701 141.924 132.501 144.324 134.701C145.724 136.001 147.324 136.801 149.324 136.401ZM266.324 255.901C260.924 258.901 258.224 263.701 257.924 269.801C257.824 273.501 259.524 276.201 262.324 278.401C264.624 280.201 267.124 280.901 269.924 280.401C277.624 279.001 283.024 270.201 280.824 262.701C278.924 256.101 271.924 252.701 266.324 255.901ZM95.2237 106.501C95.2237 111.901 90.9237 116.401 85.2237 117.001C80.1237 117.601 75.3237 114.101 74.3237 108.901C73.4237 104.201 74.2237 99.6007 76.8237 95.5007C77.6237 94.3007 78.8237 93.2007 80.0237 92.3007C81.5237 91.3007 83.1237 91.3007 84.7237 92.5007C85.6237 93.2007 86.5737 93.8757 87.5236 94.5507C88.4737 95.2257 89.4237 95.9007 90.3237 96.6007C93.5237 99.2007 95.0237 102.601 95.2237 106.501ZM188.524 160.201C185.924 162.901 184.824 166.101 184.824 169.801C184.824 173.901 186.524 177.801 189.024 180.001C191.924 182.501 195.624 182.701 198.124 180.101C200.024 178.201 201.624 176.001 203.024 173.701C204.724 170.901 204.824 167.701 204.124 164.601C203.324 161.101 201.324 158.501 197.724 157.501C194.224 156.601 191.024 157.601 188.524 160.201Z" fill="#FBE8DE"/>
</g>
</svg>
