<svg width="304" height="246" viewBox="0 0 304 246" fill="none" xmlns="http://www.w3.org/2000/svg">
<path d="M64.3672 188.251C64.5855 188.244 64.8898 188.191 65.0882 188.25C75.0423 190.867 85.2549 191.176 95.5006 191.133C100.263 191.112 104.999 190.939 109.735 190.766C110.105 190.732 110.476 190.698 110.925 190.399C110.112 190.228 109.318 189.99 108.505 189.819C91.3412 185.767 75.0975 179.605 60.2965 169.826C59.5823 169.323 58.7423 169 57.8825 168.742C48.2527 165.282 39.0132 160.999 30.8061 154.711C26.4214 151.303 22.5462 147.396 19.5641 142.671C14.0231 133.494 13.1916 123.991 17.0234 114.076C19.3529 107.977 23.0184 102.712 27.2658 97.9095C30.2033 94.5952 33.478 91.5987 36.9115 88.7943C37.487 88.3159 38.1486 87.7909 38.5455 87.1867C44.8048 77.3473 53.1603 69.6535 62.8451 63.2974C74.1374 55.904 86.4809 50.7773 99.3929 47.122C119.37 41.5321 139.696 39.5895 160.346 40.4187C172.444 40.93 184.462 42.4296 196.228 45.0108C212.459 48.5664 228.022 53.8741 242.638 61.8628C253.656 67.9073 263.728 75.187 272.16 84.5784C277.47 90.4331 281.794 96.9326 284.769 104.33C287.936 112.29 289.145 120.533 287.741 129.078C286.999 133.483 285.596 137.69 283.419 141.593C280.64 146.546 277.53 151.399 273.68 155.597C268.03 161.714 261.309 166.355 253.992 170.094C244.46 174.977 234.399 178.257 224.001 180.495C209.131 183.709 193.99 185.902 178.862 187.81C162.3 189.939 145.697 191.477 129.075 192.36C115.376 193.104 101.711 193.498 88.0525 192.664C80.6114 192.245 73.1968 191.255 66.0736 189.051C65.4783 188.873 64.9492 188.715 64.3539 188.537C64.3077 188.45 64.3474 188.318 64.3672 188.251ZM97.5086 172.141C101.755 173.123 108.971 174.776 116.293 176.316C118.799 176.849 121.432 177.203 123.992 177.319C131.909 177.591 139.767 177.34 147.638 176.803C164.426 175.609 180.995 172.976 197.122 167.969C208.572 164.383 219.533 159.782 229.648 153.193C236.098 148.978 242.045 144.034 246.71 137.838C250.66 132.586 253.413 126.758 254.175 120.118C254.95 113.192 253.443 106.668 250.223 100.571C247.023 94.4081 242.586 89.2485 237.381 84.7268C228.586 77.0339 218.44 71.6844 207.587 67.4967C196.535 63.2497 185.139 60.6348 173.445 59.0152C158.001 56.9241 142.55 56.783 127.092 58.5918C109.848 60.5892 93.0858 64.8276 77.223 72.0824C68.2133 76.1824 59.7988 81.1835 52.3497 87.7748C45.5753 93.5559 40.1634 100.323 37.1851 108.831C34.5511 116.429 34.4304 124.057 37.2135 131.613C39.2827 137.221 42.7014 141.931 46.7617 146.183C52.4886 152.09 59.2674 156.649 66.5689 160.424C75.4908 165.046 84.8561 168.427 97.5086 172.141ZM191.688 59.7024C191.648 59.8351 191.694 59.9213 191.654 60.054C192.911 60.43 194.168 60.8061 195.424 61.1821C203.269 63.3848 210.868 66.165 218.143 69.788C226.503 73.8801 234.28 78.9549 241.092 85.3311C246.376 90.3103 250.826 95.9076 253.715 102.628C257.966 112.504 257.779 122.281 253.134 132.025C250.129 138.211 245.849 143.365 240.808 147.929C234.298 153.789 226.942 158.384 219.149 162.27C208.75 167.4 197.869 171.012 186.677 173.736C173.163 176.995 159.431 178.814 145.581 179.586C144.926 179.607 144.251 179.694 143.596 179.715C144 180.052 144.33 180.151 144.767 180.137C151.705 180.551 158.67 181.117 165.602 181.311C182.482 181.735 199.256 180.826 215.898 177.709C228.109 175.434 239.956 171.967 251.129 166.417C258.148 162.951 264.684 158.689 270.446 153.4C275.123 149.088 278.352 143.837 280.225 137.818C282.76 129.828 282.239 121.936 279.363 114.208C276.673 106.823 272.223 100.503 266.853 94.8474C257.965 85.5363 247.317 78.7351 235.664 73.3681C226.292 69.0454 216.662 65.5853 206.649 63.1672C201.695 61.9017 196.681 60.8352 191.688 59.7024ZM285.307 125.168C285.374 125.188 285.46 125.141 285.46 125.141C285.473 124.856 285.552 124.591 285.546 124.372C285.97 118.86 285.217 113.429 283.552 108.159C280.855 99.8325 276.378 92.6368 270.612 86.1395C264.144 78.8541 256.645 72.8504 248.384 67.7035C231.553 57.2444 213.246 50.7539 194.005 46.6592C183.978 44.5263 173.911 43.249 163.646 42.6353C143.162 41.4941 122.934 43.1049 103.057 48.3631C89.682 51.8798 76.9681 57.0403 65.2194 64.514C57.9294 69.1286 51.3404 74.5313 45.7498 81.1727C45.4323 81.5115 45.161 81.9364 44.8236 82.3415C45.2403 82.3939 45.4983 82.2542 45.7563 82.1146C56.6847 74.9738 68.4264 69.4501 80.8226 65.3513C117.383 53.2284 154.675 50.9403 192.488 57.267C206.279 59.5862 219.633 63.3653 232.49 68.8033C242.404 72.9992 251.736 78.1775 260.214 84.7633C266.768 89.8333 272.535 95.6077 277.137 102.624C281.441 109.19 284.363 116.282 285.017 124.214C285.182 124.625 285.255 124.863 285.307 125.168ZM34.0991 94.8211C33.292 95.5918 32.7164 96.0703 32.1872 96.6349C26.6299 102.202 21.8531 108.291 19.1066 115.784C16.3601 123.276 16.4974 130.764 19.9288 138.081C22.309 143.131 25.8402 147.224 30.0131 150.859C35.4889 155.679 41.7586 159.29 48.3591 162.277C49.4438 162.747 50.4623 163.196 51.547 163.665C30.7883 144.656 23.6692 122.21 34.0991 94.8211ZM71.0245 172.747C71.0046 172.814 70.8988 172.926 70.8789 172.993C71.1236 173.138 71.4146 173.37 71.6593 173.516C76.9436 176.326 82.3471 178.738 87.8961 180.905C97.7772 184.729 107.963 187.777 118.36 189.876C119.438 190.127 120.556 190.244 121.667 190.143C138.958 188.955 156.208 187.176 173.36 185.006C173.73 184.973 174.14 184.806 174.511 184.772C173.803 184.488 173.102 184.423 172.381 184.424C159.377 184.293 146.506 183.477 133.608 181.787C126.676 180.869 119.764 179.885 112.76 179.452C100.986 178.821 89.3785 177.155 77.9362 174.454C75.6874 173.781 73.3328 173.221 71.0245 172.747ZM70.119 72.7039C70.1389 72.6376 70.0926 72.5514 70.1124 72.4851C68.5381 73.1707 66.9637 73.8564 65.4555 74.5618C56.8361 78.5617 48.5671 83.3172 40.9396 89.0598C40.192 89.6314 39.3849 90.4021 38.9284 91.2054C35.7324 96.8282 33.4426 102.794 32.4558 109.223C30.3033 122.677 32.9267 135.102 40.2399 146.545C44.9875 154.039 51.2832 159.971 58.3661 165.2C60.4229 166.755 62.7046 167.799 65.1518 168.532C75.4233 171.533 85.953 173.672 96.5489 175.107C98.1496 175.297 99.7502 175.487 101.371 175.61C85.2789 170.867 82.8516 170.069 72.1174 165.483C65.1001 162.443 58.4997 158.733 52.4154 154.02C46.2187 149.202 40.8292 143.612 37.1861 136.521C33.4504 129.258 32.2151 121.586 33.6984 113.499C34.897 106.845 37.7556 100.904 41.7651 95.4523C46.9919 88.3405 53.6206 82.805 60.9504 78.0577C64.0198 76.2289 67.0495 74.5328 70.119 72.7039Z" fill="black"/>
</svg>
