<svg width="243" height="213" viewBox="0 0 243 213" fill="none" xmlns="http://www.w3.org/2000/svg">
<path d="M11.3496 149.303C11.2496 148.903 11.2496 148.603 11.1496 148.303C4.24955 127.203 6.34955 106.603 14.9496 86.5034C21.4496 71.4034 31.1495 58.6034 43.2495 47.6034C64.8496 27.7034 90.2495 15.2034 119.25 10.6034C140.45 7.20341 161.45 8.20341 182.05 14.8034C193.95 18.6034 204.85 24.1034 214.35 32.2034C224.05 40.4034 231.05 50.4034 234.95 62.6034C235.45 64.0034 236.05 65.4034 236.65 66.8034C241.95 79.4034 243.55 92.5034 241.85 106.003C239.55 124.003 232.35 139.903 221.05 154.003C220.15 155.203 219.15 156.403 218.35 157.703C201.05 184.303 176.95 201.503 146.25 208.803C110.25 217.303 76.2495 211.903 44.7495 192.203C31.4495 183.903 20.1496 173.303 11.9496 159.703C-2.25045 136.203 -3.55045 111.803 6.74955 86.6034C13.2496 70.6034 23.2496 57.1034 35.6496 45.2034C55.4496 26.3034 78.9496 13.6034 105.15 6.10341C119.55 2.00341 134.05 -0.0965886 148.85 0.00341144C157.95 0.00341144 167.05 0.803411 175.85 3.70341C180.55 5.20341 184.95 7.30341 188.65 10.5034C189.95 11.6034 191.05 12.9034 192.15 14.1034C192.75 14.8034 193.25 15.7034 192.35 16.9034C191.95 16.7034 191.45 16.6034 191.15 16.3034C186.05 9.80341 178.95 6.70341 171.25 4.60341C162.45 2.30341 153.45 1.80341 144.35 2.30341C107.25 4.40341 74.1496 17.2034 45.3496 40.8034C31.0496 52.6034 19.6496 66.8034 11.8496 83.7034C5.94955 96.6034 3.14955 110.003 4.24955 124.103C4.84955 132.503 7.04955 140.503 10.4496 148.103C10.5496 148.403 10.7496 148.703 10.9496 148.903C10.9496 149.103 11.1496 149.103 11.3496 149.303ZM237.75 108.603C236.55 110.203 236.35 112.003 236.75 113.803C236.55 114.103 236.15 114.303 236.05 114.603C235.65 115.903 235.45 117.303 235.15 118.703C235.25 118.703 235.35 118.703 235.45 118.803C235.85 117.103 236.25 115.503 236.75 113.803C237.05 112.103 237.35 110.303 237.75 108.603C237.75 107.603 237.85 106.703 237.95 105.803C237.75 105.803 237.65 105.803 237.45 105.803C237.55 106.803 237.65 107.703 237.75 108.603ZM146.05 16.5034C126.05 16.6034 108.15 20.5034 91.0496 27.8034C74.5496 34.8034 59.9496 44.5034 47.8496 57.8034C39.4496 67.1034 32.8496 77.5034 28.8496 89.4034C25.4496 99.5034 24.2496 109.803 25.9496 120.403C27.7496 131.803 33.0496 141.503 41.0496 149.803C55.3496 164.603 71.2495 177.403 88.7495 188.203C97.3496 193.403 106.25 197.903 115.85 200.803C118.05 201.403 120.15 201.903 122.45 201.703C135.75 200.603 148.65 197.703 161.15 192.903C181.45 185.103 199.25 173.503 213.95 157.303C215.25 155.903 216.35 154.303 217.35 152.703C221.35 145.903 224.55 138.803 227.15 131.403C233.35 113.703 236.15 95.6034 234.15 76.9034C233.55 70.8034 231.85 65.2034 228.55 60.0034C222.05 49.6034 213.75 41.0034 203.55 34.1034C185.75 21.9034 165.95 16.5034 146.05 16.5034ZM97.9496 20.4034C97.9496 20.3034 97.8495 20.1034 97.8495 20.0034C97.0495 20.2034 96.2496 20.5034 95.4496 20.7034C86.3496 23.9034 77.7496 27.9034 69.4496 32.9034C51.3496 43.9034 36.2496 57.9034 25.1496 75.9034C16.6496 89.7034 11.5496 104.603 11.1496 120.903C10.6496 139.803 16.2496 156.503 29.0496 170.603C35.6496 177.803 43.5496 183.403 52.1496 187.903C68.7496 196.603 86.4496 200.803 105.05 201.803C107.05 201.903 108.95 201.803 110.95 201.803C110.55 201.303 110.05 201.103 109.55 200.903C105.45 199.303 101.25 197.903 97.3495 196.103C73.0495 184.503 52.5496 167.903 34.3496 148.203C31.3496 145.003 29.1496 141.203 27.1496 137.203C20.7496 123.903 19.9496 110.003 23.1496 95.8034C26.6496 80.1034 34.3496 66.6034 45.0496 54.8034C58.5496 39.7034 75.1496 29.2034 93.9496 21.9034C95.3496 21.4034 96.6496 20.9034 97.9496 20.4034ZM199.15 176.603C199.05 176.403 198.85 176.203 198.75 176.003C178.85 190.903 156.65 200.403 132.05 203.903C107.55 207.403 83.6496 205.103 60.3496 196.403C65.1496 199.103 70.1495 201.103 75.3495 202.903C94.8495 209.503 114.85 210.903 135.25 207.903C155.05 205.003 172.95 197.703 188.85 185.403C192.35 182.603 195.65 179.503 199.15 176.603ZM238.25 102.503C238.15 102.503 238.15 102.503 238.25 102.503C238.15 102.903 238.15 103.203 238.15 103.603H238.25C238.25 103.303 238.25 102.903 238.25 102.503Z" fill="black"/>
</svg>
