<svg width="496" height="521" viewBox="0 0 496 521" fill="none" xmlns="http://www.w3.org/2000/svg">
<path d="M414.324 183.73C422.016 196.023 430.246 211.182 436.603 227.311C443.841 245.728 447.126 265.028 448.328 284.602C450.324 317.585 443.636 348.911 429.014 378.453C416.506 403.893 400.625 426.869 380.051 446.446C368.483 457.476 356.181 467.553 342.302 475.553C329.737 482.824 316.419 488.558 302.196 491.782C292.982 493.917 283.682 494.442 274.366 492.359C270.219 491.464 266.305 489.823 262.535 487.852C254.639 483.544 250.303 476.821 248.686 468.226C247.74 462.885 247.961 457.508 248.872 452.279C250.641 441.737 253.984 431.608 258.788 422.084C262.988 414.02 267.464 406.016 271.526 397.923C279.5 382.427 287.336 366.901 295.063 351.208C299.07 343.03 302.362 334.481 305.293 325.927C311.508 307.52 313.931 288.584 312.977 269.208C312.141 252.968 307.6 237.81 300.08 223.383C288.974 202.106 272.967 185.775 252.43 173.675C249.159 171.739 245.689 170.05 242.19 168.499C220.696 159.158 198.174 153.574 174.768 151.416C154.631 149.53 134.732 150.227 114.703 152.198C99.0351 153.736 83.2889 154.967 67.6809 156.228C60.9042 156.791 54.0545 156.687 47.3484 156.253C45.4916 156.141 43.7244 155.615 42.2147 154.566C39.6886 152.864 37.1625 151.161 34.5523 149.513C31.064 147.241 28.7821 144.072 27.3161 140.138C22.677 127.78 22.4238 115.211 27.3261 102.886C32.7491 89.1546 41.4381 77.7195 52.0758 67.6454C70.9034 49.7901 93.4436 39.5358 119.125 36.1805C140.414 33.3966 161.619 34.3561 182.553 38.5846C200.031 42.0672 216.983 47.317 233.904 52.7052C255.353 59.5765 276.286 67.4942 296.663 77.3173C327.202 92.01 353.946 111.888 377.205 136.511C390.253 150.467 402.346 165.158 414.324 183.73Z" fill="#EA552B"/>
<mask id="mask0" mask-type="alpha" maskUnits="userSpaceOnUse" x="23" y="34" width="426" height="460">
<path d="M414.324 183.73C422.016 196.023 430.246 211.182 436.603 227.311C443.841 245.728 447.126 265.028 448.328 284.602C450.324 317.585 443.636 348.911 429.014 378.453C416.506 403.893 400.625 426.869 380.051 446.446C368.483 457.476 356.181 467.553 342.302 475.553C329.737 482.824 316.419 488.558 302.196 491.782C292.982 493.917 283.682 494.442 274.366 492.359C270.219 491.464 266.305 489.823 262.535 487.852C254.639 483.544 250.303 476.821 248.686 468.226C247.74 462.885 247.961 457.508 248.872 452.279C250.641 441.737 253.984 431.608 258.788 422.084C262.988 414.02 267.464 406.016 271.526 397.923C279.5 382.427 287.336 366.901 295.063 351.208C299.07 343.03 302.362 334.481 305.293 325.927C311.508 307.52 313.931 288.584 312.977 269.208C312.141 252.968 307.6 237.81 300.08 223.383C288.974 202.106 272.967 185.775 252.43 173.675C249.159 171.739 245.689 170.05 242.19 168.499C220.696 159.158 198.174 153.574 174.768 151.416C154.631 149.53 134.732 150.227 114.703 152.198C99.0351 153.736 83.2889 154.967 67.6809 156.228C60.9042 156.791 54.0545 156.687 47.3484 156.253C45.4916 156.141 43.7244 155.615 42.2147 154.566C39.6886 152.864 37.1625 151.161 34.5523 149.513C31.064 147.241 28.7821 144.072 27.3161 140.138C22.677 127.78 22.4238 115.211 27.3261 102.886C32.7491 89.1546 41.4381 77.7195 52.0758 67.6454C70.9034 49.7901 93.4436 39.5358 119.125 36.1805C140.414 33.3966 161.619 34.3561 182.553 38.5846C200.031 42.0672 216.983 47.317 233.904 52.7052C255.353 59.5765 276.286 67.4942 296.663 77.3173C327.202 92.01 353.946 111.888 377.205 136.511C390.253 150.467 402.346 165.158 414.324 183.73Z" fill="black"/>
</mask>
<g mask="url(#mask0)">
<path d="M203.219 306.926C203.272 307.73 203.354 308.036 203.297 308.313C202.546 323.315 205.597 337.721 210.064 351.911C215.461 369.322 222.524 385.99 230.144 402.411C235.866 414.692 242.005 426.697 248.532 438.565C254.647 449.627 261.012 460.524 268.183 471.007C274.774 480.795 282.451 489.506 292.104 496.311C311.937 510.171 333.257 512.5 355.701 503.655C375.478 495.854 390.287 481.988 400.868 463.723C415.219 439.011 418.094 412.535 411.377 384.968C409.329 376.612 406.253 368.695 402.261 361.025C402.041 360.692 401.82 360.358 401.434 359.774C400.543 360.603 399.653 361.431 398.845 362.205C382.199 378.005 363.458 390.275 341.768 397.903C327.076 403.06 312.007 405.471 296.453 403.886C282.175 402.416 269.047 397.79 257.71 388.621C248.863 381.404 242.463 372.448 240.093 361.068C237.178 347.411 240.72 334.999 249.083 324.076C251.843 320.453 255.239 317.249 258.414 313.711C258.276 313.683 257.805 313.515 257.389 313.43C248.433 312.757 242.599 308.103 239.803 299.522C238.488 295.357 238.06 291.084 238.215 286.786C238.435 280.047 239.931 273.424 242.091 267.081C247.055 252.65 254.842 239.949 264.456 228.199C278.222 211.306 294.695 197.418 313.789 186.952C322.739 181.994 332.267 178.092 342.096 175.19C342.874 174.916 343.568 174.696 344.318 174.561C344.458 174.228 344.569 174.035 344.542 173.813C346.465 156.957 346.113 140.287 341.684 123.795C338.866 113.55 334.521 104.076 327.924 95.7297C315.586 80.1506 299.474 72.4615 279.615 72.5239C273.402 72.5555 267.297 73.4751 261.383 75.2274C260.855 75.3363 260.3 75.5838 259.744 75.8313C259.798 76.2752 259.713 76.6909 259.85 77.0798C263.877 97.3142 263.882 117.811 261.529 138.187C259.063 159.118 253.993 179.372 245.764 198.839C241.342 209.195 235.924 219.131 228.734 227.84C224.249 233.203 219.183 237.871 213.04 241.453C210.01 243.216 206.649 244.479 203.207 245.076C194.327 246.512 187.183 243.323 181.579 236.478C177.41 231.442 175.076 225.554 173.325 219.279C170.401 207.785 170.252 196.136 171.767 184.465C174.367 164.644 181.343 146.366 191.283 129.125C198.989 115.758 208.576 103.786 220.126 93.5128C229.615 85.201 240.014 78.4458 251.764 73.9146C252.541 73.6403 253.18 73.3376 254.041 73.0081C253.961 72.3422 253.852 71.8148 253.743 71.2874C251.174 61.2374 247.356 51.6541 241.287 43.1992C227.658 24.3979 209.191 15.8677 186.079 18.0809C173.788 19.2541 162.813 24.232 152.747 31.1271C144.849 36.5884 137.974 43.052 131.788 50.3781C131.315 50.9309 130.841 51.4838 130.506 52.065C132.324 55.1783 134.171 58.1531 135.935 61.183C143.015 73.5246 148.123 86.6907 151.509 100.516C156.451 120.865 158.037 141.395 155.017 162.212C153.507 172.441 150.835 182.36 146.111 191.716C143.038 197.584 139.328 203.034 134.043 207.007C131.985 208.608 129.677 210.014 127.233 211.031C119.288 214.245 111.226 212.023 105.094 205.288C100.482 200.305 97.7311 194.332 95.5644 187.972C95.0157 186.417 94.1885 185.165 92.9724 184.051C82.9129 174.638 74.8286 163.68 68.3023 151.451C57.2324 130.718 51.4378 108.535 51.0287 85.0697C50.8496 73.9194 52.0562 63.0519 55.3979 52.3312C57.7571 44.6576 61.1132 37.4039 66.6002 31.3787C74.5939 22.6173 84.2847 19.6869 95.7265 23.0313C103.29 25.2237 109.68 29.6304 115.539 34.8671C119.492 38.4879 123.165 42.4127 126.339 46.6683C126.918 47.364 127.443 47.9761 128.133 48.8386C128.857 48.1203 129.414 47.5122 130.054 46.849C136.935 38.9432 144.673 31.7895 153.487 26.0822C164.804 18.7203 177.109 13.9417 190.756 13.5503C215.997 12.9262 235.037 23.9547 248.212 45.3337C252.65 52.5896 255.726 60.506 257.941 68.7519C258.132 69.5847 258.461 70.4457 258.762 71.4453C259.678 71.1993 260.511 71.0083 261.344 70.8173C274.587 67.4568 287.79 67.1192 300.81 71.2186C316.351 76.0487 327.906 85.9113 336.368 99.6173C344.803 113.101 348.629 127.954 350.039 143.686C350.809 152.647 350.635 161.633 349.825 170.56C349.794 171.42 349.679 172.335 349.62 173.333C350.675 173.115 351.562 173.008 352.395 172.817C363.636 170.78 374.954 170.13 386.29 172.226C416.611 177.834 436.54 195.467 445.607 224.956C450.072 239.507 450.431 254.374 448.515 269.427C445.628 291.715 437.23 312.013 425.037 330.743C419.485 339.208 413.326 347.117 406.474 354.524C406.084 355.021 405.639 355.436 405.082 356.044C406.458 358.85 407.917 361.602 409.155 364.38C426.594 402 423.446 448.916 393.277 483.248C381.995 496.101 368.34 505.728 351.874 510.741C326.633 518.437 303.854 513.357 283.645 496.389C276.982 490.844 271.321 484.277 266.44 477.075C259.628 466.953 253.345 456.362 247.451 445.633C238.692 429.846 230.684 413.562 223.675 396.977C216.419 379.837 209.912 362.561 205.599 344.433C202.898 332.912 201.445 321.286 202.489 309.447C202.518 308.948 202.576 308.31 202.606 307.811C202.717 307.617 202.801 307.562 203.219 306.926ZM288.784 299.267C289.978 299.077 290.699 299.08 291.309 298.916C300.414 297.093 309.512 296.712 318.772 297.662C337.818 299.816 354.931 306.843 370.504 317.886C382.674 326.503 392.785 337.081 400.947 349.427C401.388 350.094 401.968 350.79 402.519 351.624C403.16 350.961 403.689 350.491 404.134 350.077C407.617 345.736 411.433 341.535 414.723 337.082C428.496 318.386 438.2 297.705 442.255 274.645C444.834 260.233 445.056 245.7 441.783 231.321C438.974 218.912 433.747 207.743 425.213 198.28C415.851 187.926 404.255 181.447 390.788 178.123C377.183 174.77 363.508 175.3 349.934 178.16C349.629 178.242 349.378 178.408 349.128 178.573C349.016 178.767 348.905 178.96 348.876 179.099C348.792 179.515 348.679 180.069 348.594 180.485C344.384 207.843 335.133 233.379 321.561 257.457C314.189 270.603 305.488 282.828 294.852 293.577C292.987 295.289 291.039 297.057 288.784 299.267ZM399.065 355.466C398.487 354.41 398.019 353.52 397.439 352.825C394.515 348.764 391.619 344.565 388.444 340.67C374.75 324.309 357.71 312.678 337.432 306.304C315.326 299.341 293.61 299.313 272.434 310.076C262.93 314.921 255.167 321.492 249.502 330.512C239.958 345.813 241 363.346 252.178 377.534C258.03 384.934 265.387 390.259 273.914 394.092C284.104 398.624 294.83 400.524 305.897 400.4C324.064 400.137 340.948 394.849 357.121 386.673C369.682 380.287 381.056 372.287 391.438 362.786C393.943 360.411 396.393 357.952 399.065 355.466ZM255.19 77.2837C254.274 77.5298 253.83 77.5836 253.357 77.7759C244.747 81.0711 236.797 85.7278 229.453 91.3021C219.801 98.6426 211.391 107.319 204.198 117.11C188.919 137.88 178.986 160.751 175.697 186.422C174.44 196.124 174.541 205.887 176.473 215.519C177.753 221.625 179.756 227.374 183.314 232.574C188.996 240.806 197.25 243.5 206.61 240.069C212.554 237.818 217.45 233.981 221.767 229.449C228.923 221.961 234.171 213.216 238.589 203.942C245.775 188.882 250.523 173.036 253.692 156.795C257.993 134.651 259.465 112.219 256.917 89.688C256.6 85.582 255.839 81.5297 255.19 77.2837ZM343.494 179.661C342.661 179.852 341.912 179.988 341.301 180.152C332.388 182.808 323.804 186.325 315.605 190.786C296.706 201.004 280.705 214.699 267.273 231.372C258.355 242.542 250.903 254.662 246.191 268.206C243.891 274.881 242.339 281.782 242.34 288.854C242.271 292.376 242.785 295.873 244.047 299.234C246.6 306.177 252.133 309.832 259.457 309.305C261.816 309.065 264.286 308.63 266.48 307.779C272.479 305.611 277.9 302.387 282.824 298.412C289.807 292.836 295.878 286.425 301.286 279.373C323.475 250.198 337.164 217.412 343.348 181.435C343.433 181.02 343.408 180.437 343.494 179.661ZM101.154 191.349C103.599 197.405 106.795 202.964 112.662 206.398C117.228 209.134 122.026 208.958 126.667 206.73C128.112 206.014 129.668 205.105 130.948 204.139C135.12 201.021 138.187 196.956 140.755 192.5C144.916 185.194 147.526 177.355 149.277 169.124C152.441 153.965 152.75 138.657 150.978 123.284C148.563 102.224 142.815 82.2882 132.458 63.7213C130.915 61.025 129.289 58.3839 127.663 55.7429C127.329 55.9635 127.107 55.9903 127.024 56.0455C126.355 56.8472 125.686 57.649 125.156 58.479C104.743 87.4394 94.4123 119.683 94.2483 155.156C94.2109 164.891 95.4771 174.603 98.2421 184.044C98.6805 185.432 99.3692 186.655 100.558 187.547C103.047 189.498 105.507 191.588 107.968 193.678C108.466 194.068 108.741 194.485 109.239 194.875C105.994 194.863 103.923 192.636 101.154 191.349ZM125.235 52.433C124.959 52.0159 124.822 51.6271 124.601 51.2935C118.945 43.6445 112.565 36.714 104.68 31.4972C100.42 28.6796 95.8512 26.6651 90.8345 25.786C83.4339 24.565 76.9639 26.5648 71.3143 31.6186C67.2509 35.2641 64.3216 39.7182 62.0286 44.5908C58.7573 51.4288 56.8435 58.6881 55.8161 66.2004C53.3092 83.4421 54.7415 100.477 58.9479 117.356C64.5474 139.788 74.5936 159.879 89.9757 177.162C90.8595 178.136 91.7433 179.11 92.7105 180.029C88.3325 157.269 89.9158 135.004 95.7139 112.949C101.457 90.8104 111.214 70.5735 125.235 52.433Z" fill="black"/>
</g>
</svg>
