<svg width="204" height="210" viewBox="0 0 204 210" fill="none" xmlns="http://www.w3.org/2000/svg">
<path d="M0 103.798C0.7 74.9982 11.3 48.9982 33.6 28.0982C42.3 19.9982 52.3 13.5982 62.8 8.09817C72.9 2.89817 83.8 0.49817 95.1 0.09817C112.8 -0.60183 129.7 2.39817 145.5 10.4982C175.2 25.6982 193.7 49.9982 201 82.3982C209.1 118.098 197.7 155.798 171.4 181.198C154.9 197.098 135.2 206.398 112.4 208.998C73.9 213.398 36.4 194.698 15.7 161.098C5.3 143.998 0.2 125.298 0 103.798Z" fill="#F7D046"/>
<mask id="mask0" mask-type="alpha" maskUnits="userSpaceOnUse" x="0" y="0" width="204" height="210">
<path d="M0 103.798C0.7 74.9982 11.3 48.9982 33.6 28.0982C42.3 19.9982 52.3 13.5982 62.8 8.09817C72.9 2.89817 83.8 0.49817 95.1 0.09817C112.8 -0.60183 129.7 2.39817 145.5 10.4982C175.2 25.6982 193.7 49.9982 201 82.3982C209.1 118.098 197.7 155.798 171.4 181.198C154.9 197.098 135.2 206.398 112.4 208.998C73.9 213.398 36.4 194.698 15.7 161.098C5.3 143.998 0.2 125.298 0 103.798Z" fill="black"/>
</mask>
<g mask="url(#mask0)">
<path d="M9.68114 178.45C8.98114 178.85 8.38114 179.25 7.68114 179.65C4.68114 181.55 1.78114 183.45 -1.21886 185.35C-2.01886 185.85 -2.91886 186.35 -3.81886 186.55C-4.41886 186.65 -5.31886 186.35 -5.71886 185.95C-6.01886 185.45 -6.11886 184.45 -5.81886 183.95C-5.31886 183.05 -4.51886 182.35 -3.71886 181.75C0.481139 178.55 4.68114 175.35 8.98114 172.35C27.9811 159.05 47.3811 146.35 67.3811 134.55C91.0811 120.65 114.881 106.75 138.781 93.2497C163.581 79.1497 189.481 67.0497 215.681 55.7497C221.581 53.1497 227.481 50.4497 233.381 47.8497C234.581 47.3497 235.681 46.7497 236.981 46.4497C240.781 45.2497 243.681 46.4497 245.381 49.9497C246.281 51.9497 246.981 54.1497 247.381 56.3497C249.481 66.6497 249.881 76.9497 249.381 87.3497C248.081 114.25 239.081 138.45 224.081 160.55C208.381 183.55 187.781 201.15 163.481 214.45C144.281 224.95 123.881 232.05 102.281 235.25C89.7811 237.15 77.2811 237.65 64.7811 235.45C54.3811 233.65 44.6811 230.15 35.7811 224.55C24.3811 217.45 16.2811 207.35 10.3811 195.55C8.08114 190.95 7.78114 186.25 9.18114 181.35C9.38114 180.65 9.58114 179.95 9.68114 179.25C9.88114 178.75 9.78114 178.65 9.68114 178.45Z" fill="#4CA96D"/>
<mask id="mask1" mask-type="alpha" maskUnits="userSpaceOnUse" x="-6" y="45" width="256" height="192">
<path d="M9.68114 178.45C8.98114 178.85 8.38114 179.25 7.68114 179.65C4.68114 181.55 1.78114 183.45 -1.21886 185.35C-2.01886 185.85 -2.91886 186.35 -3.81886 186.55C-4.41886 186.65 -5.31886 186.35 -5.71886 185.95C-6.01886 185.45 -6.11886 184.45 -5.81886 183.95C-5.31886 183.05 -4.51886 182.35 -3.71886 181.75C0.481139 178.55 4.68114 175.35 8.98114 172.35C27.9811 159.05 47.3811 146.35 67.3811 134.55C91.0811 120.65 114.881 106.75 138.781 93.2497C163.581 79.1497 189.481 67.0497 215.681 55.7497C221.581 53.1497 227.481 50.4497 233.381 47.8497C234.581 47.3497 235.681 46.7497 236.981 46.4497C240.781 45.2497 243.681 46.4497 245.381 49.9497C246.281 51.9497 246.981 54.1497 247.381 56.3497C249.481 66.6497 249.881 76.9497 249.381 87.3497C248.081 114.25 239.081 138.45 224.081 160.55C208.381 183.55 187.781 201.15 163.481 214.45C144.281 224.95 123.881 232.05 102.281 235.25C89.7811 237.15 77.2811 237.65 64.7811 235.45C54.3811 233.65 44.6811 230.15 35.7811 224.55C24.3811 217.45 16.2811 207.35 10.3811 195.55C8.08114 190.95 7.78114 186.25 9.18114 181.35C9.38114 180.65 9.58114 179.95 9.68114 179.25C9.88114 178.75 9.78114 178.65 9.68114 178.45Z" fill="#4CA96D"/>
</mask>
<g mask="url(#mask1)">
<path d="M201.2 195.098C201.5 194.098 201.8 192.998 202 191.998C202.8 186.598 202.2 181.298 201.7 175.998C200.4 162.698 197.3 149.698 194.5 136.598C192.4 126.998 190.3 117.398 189.8 107.498C189.5 100.598 189.4 93.5982 189.6 86.5982C189.9 74.5982 191.1 62.6982 193.3 50.7982C194.6 43.9982 196.1 37.1982 198.6 30.5982C200 26.7982 201.8 23.0982 204.4 19.8982C205.9 17.9982 207.7 16.4982 210.1 14.9982C209.9 15.4982 209.9 15.7982 209.7 15.8982C205 19.6982 202.4 24.8982 200.6 30.4982C198.3 37.2982 196.9 44.1982 195.9 51.2982C193.2 69.0982 192.2 86.8982 193 104.898C193.4 113.098 194.9 121.098 196.6 129.098C199 140.698 201.5 152.198 203.7 163.898C205.1 171.398 206 178.898 205.9 186.498C205.9 188.498 205.7 190.498 205.4 192.498C205.2 193.698 204.8 194.998 204.2 196.098C203 198.398 200.6 198.898 198.8 197.098C197.4 195.798 196.2 194.198 195.4 192.498C193.5 188.498 191.7 184.398 190 180.198C185.3 168.098 181.7 155.698 178.1 143.198C172.7 124.798 166.6 106.598 159.8 88.6982C158.5 85.2982 157 82.0982 155.4 78.7982C154.8 77.5982 154 76.3982 153.2 75.3982C151.8 73.7982 150.6 73.7982 149.2 75.3982C148.3 76.4982 147.5 77.7982 147 79.0982C145.3 82.7982 144.5 86.8982 144.1 90.8982C143 100.898 143.3 110.898 143.8 120.898C144.7 138.298 147.1 155.598 149.2 172.898C150.5 183.498 151.7 193.998 151.9 204.698C152 212.298 151.9 219.898 150.3 227.398C149.9 229.198 149.4 230.998 148.7 232.698C146.6 237.598 142.6 238.298 139 234.198C137.4 232.398 136.2 230.298 135 228.198C132.5 223.598 130.7 218.598 129.2 213.498C125.6 201.498 122.9 189.398 120.6 177.098C117 157.698 113.5 138.298 110.1 118.798C108.8 111.398 107.8 103.998 106.6 96.4982C106.3 94.8982 105.9 93.1982 105.3 91.5982C105 90.6982 104.3 89.7982 103.9 88.9982C102.3 89.1982 101.4 90.1982 100.8 91.1982C99.5 93.3982 98.1 95.4982 97 97.7982C93.5 105.298 92 113.298 91.2 121.398C89.8 135.998 90.6 150.498 92.1 164.998C93.3 176.198 94.6001 187.398 95.3 198.698C96 208.998 96 219.298 93.7 229.498C93.2 231.498 92.5 233.498 91.7 235.398C91.1 236.798 90.2 237.998 89.1 239.098C86.9 241.298 84.1 241.498 81.8 239.298C80.3 237.798 78.8001 236.098 77.9001 234.198C75.9001 229.998 74 225.598 72.4001 221.198C68.3001 209.498 65.7001 197.298 63.3 185.198C60.7001 171.798 58.8 158.398 58.1 144.798C57.5 134.098 57.6 123.398 57.3 112.698C57.3 111.098 57.1 109.398 56.9 107.298C55.4 108.498 54.7001 109.798 54 110.998C50.9 116.698 48.4 122.698 46.3 128.798C40.5 145.798 37.2 163.198 37.1 181.198C37 190.298 36.9 199.398 36.6 208.598C36.4 215.698 35.7 222.798 33.3 229.598C32.7 231.398 31.8 233.098 30.9 234.798C30.5 235.498 29.8 236.198 29.1 236.698C27.9 237.498 27.2 236.998 26.8 235.198C27 235.298 27.3 235.298 27.4 235.398C27.6 235.498 27.7 235.698 28 235.898C29.3 234.998 29.8 233.698 30.4 232.398C32 228.698 32.9 224.798 33.3 220.798C33.8 215.598 34.2 210.298 34.3 204.998C34.5 194.998 34.4 184.998 34.7 174.998C35.1 160.798 37.9 146.898 42.2 133.298C44.6 125.698 47.5 118.398 51.2001 111.398C52.2001 109.598 53.3001 107.798 54.6 106.198C55.3001 105.298 56.2001 104.598 57.5 104.998C58.7001 105.398 59.1001 106.398 59.2001 107.498C59.5 110.698 59.7001 113.898 59.8 117.098C60.1 125.198 60 133.298 60.5 141.298C62.1 167.698 66.5 193.698 74.3 218.998C75.7001 223.598 77.6 227.998 79.6 232.398C80.4 234.198 81.6 235.798 83 237.298C84.5 238.998 86.1 238.898 87.5 237.198C88.5 235.898 89.6 234.398 90 232.898C91 229.198 91.9 225.498 92.4 221.698C93.3 214.198 93.4 206.698 92.7 199.198C91.5 186.398 90.1001 173.598 88.9001 160.798C87.6001 146.998 87.2001 133.198 88.8 119.398C89.7001 111.498 91.5 103.798 94.9 96.5982C95.8 94.6982 96.8 92.8982 97.9 91.1982C98.5 90.1982 99.3 89.1982 100.2 88.3982C102.7 86.0982 105.3 86.3982 106.8 89.4982C107.7 91.3982 108.4 93.4982 108.8 95.5982C110.2 103.598 111.4 111.498 112.7 119.498C117.3 147.598 121.7 175.698 128.6 203.398C130.2 209.698 132.2 215.998 134.4 222.198C135.5 225.298 137.3 228.198 139 231.098C139.7 232.198 140.7 233.198 141.8 233.998C143.3 235.198 144.4 234.898 145.4 233.298C146 232.198 146.6 230.998 146.8 229.798C147.5 225.098 148.3 220.498 148.6 215.798C149.2 205.098 148.2 194.498 147 183.998C145.1 166.898 142.9 149.898 141.2 132.798C139.9 120.098 139.5 107.398 140.5 94.6982C140.9 89.2982 141.7 83.9982 143.9 79.0982C144.7 77.2982 145.7 75.4982 147 73.9982C149.5 70.9982 152.7 71.0982 155.2 73.9982C156.5 75.4982 157.6 77.1982 158.4 79.0982C161.2 85.6982 164 92.3982 166.5 99.0982C172.4 114.798 176.7 131.098 181.4 147.198C185.2 159.998 189.2 172.698 194.4 185.098C195.5 187.698 196.7 190.198 198.1 192.598C198.7 193.698 199.7 194.698 200.5 195.698C200.7 195.198 201 195.098 201.2 195.098Z" fill="black"/>
</g>
</g>
</svg>
