<svg width="41" height="54" viewBox="0 0 41 54" fill="none" xmlns="http://www.w3.org/2000/svg">
<path d="M16.9 49.1C16.8 47.5 16.7 45.9 16.5 44.3C16 41 14.6 38.2 12 36.1C9.29998 33.9 6.69998 31.6 3.19998 30.9C2.69998 30.8 2.09998 30.5 1.79998 30.1C1.39998 29.5 0.799983 28.7 0.899983 28.1C0.999983 27.5 1.79998 26.7 2.49998 26.6C11.7 24.9 16 18.5 18.5 10.3C19.1 8.30001 19.4 6.10001 19.8 4.00001C20.1 3.30001 20 2.60001 20.3 2.00001C20.6 1.50001 21.2 0.900008 21.6 1.00001C22 1.00001 22.5 1.70001 22.8 2.20001C23 2.60001 22.9 3.10001 22.9 3.60001C22.8 5.70001 22.7 7.70001 22.6 9.80001C22.5 12.1 22.3 14.4 22.3 16.7C22.2 20.5 24.6 22.8 27.6 24.3C29.5 25.2 31.6 25.7 33.9 25.4C35.3 25.2 36.7 25.6 38.2 25.8C38.7 25.9 39.2 26 39.5 26.3C39.9 26.8 40.4 27.5 40.4 28C40.4 28.9 39.5 29 38.7 28.9C37.4 28.8 36.2 28.7 34.9 28.5C32.5 28.2 30.3 28.8 28.1 29.6C27.1 30 26.1 30.8 25.6 31.7C24.5 33.4 23.4 35.1 22.9 37C21.7 41.4 20.9 45.9 19.9 50.3C19.7 51.2 19.7 52.1 19.3 52.9C19.1 53.4 18.4 54 18 54C17.6 54 16.9 53.3 16.9 52.8C16.8 51.6 16.9 50.3 16.9 49.1Z" fill="black"/>
</svg>
