<svg width="60" height="74" viewBox="0 0 60 74" fill="none" xmlns="http://www.w3.org/2000/svg">
<path fill-rule="evenodd" clip-rule="evenodd" d="M4.44314 39.0177C4.35694 38.9579 4.26985 38.8976 4.18163 38.8363L4.18162 38.8363C4.0934 38.9468 3.91699 39.1679 3.72941 39.2896C3.96723 39.6151 4.15537 39.9462 4.3435 40.2772C4.53164 40.6083 4.71977 40.9394 4.9576 41.2648C5.30782 41.6951 5.64824 42.1376 5.98866 42.5802C6.6695 43.4653 7.35035 44.3503 8.1096 45.1372C16.0159 53.7081 24.6501 61.5935 33.2844 69.4789C33.7377 69.9311 34.1911 70.3833 34.8096 70.5151C35.4394 70.7462 36.4443 70.7339 36.8083 70.3912C37.2717 70.0372 37.6681 69.087 37.5899 68.3914C37.5006 67.5964 36.9033 66.7579 36.3283 66.118C34.7361 64.4856 33.0557 62.9637 31.3864 61.5411C28.5172 59.0351 25.6205 56.6042 22.7316 54.1797C20.7897 52.55 18.8512 50.9233 16.9271 49.2787C13.5886 46.4336 10.1396 43.5003 6.70169 40.6664C5.90673 40.032 5.21012 39.5492 4.44314 39.0177ZM6.46869 21.5731C6.94075 21.9498 7.34031 22.3347 7.79816 22.7757L7.79914 22.7766C7.87704 22.8516 7.95663 22.9283 8.03856 23.0068C13.7268 28.4055 19.4123 33.7794 25.0977 39.1533C30.7832 44.5272 36.4687 49.901 42.157 55.2998C42.4495 55.5801 42.7487 55.8597 43.0495 56.1409L43.0496 56.141C43.9087 56.9438 44.7814 57.7594 45.5513 58.6417C46.0158 59.1933 46.4802 59.7449 46.7571 60.4182C47.2774 61.4667 47.1903 62.4828 46.2747 63.29C45.4473 63.9867 44.5418 63.9878 43.5693 63.3927L43.5692 63.3927C43.0277 63.051 42.4862 62.7093 42.0329 62.2571C41.5833 61.838 41.1239 61.4312 40.6645 61.0244L40.6644 61.0244C39.7457 60.2107 38.8269 59.3971 37.9865 58.4853C36.5502 56.9704 35.1143 55.4586 33.6796 53.9481C27.0184 46.9351 20.3846 39.9509 13.8702 32.8171C12.1955 30.8908 10.6657 28.8425 9.14212 26.8027L9.14197 26.8025C8.56289 26.0272 7.98472 25.2531 7.39986 24.4874C6.81367 23.7482 6.40391 22.7879 5.99415 21.8277C6.09351 21.8165 6.28108 21.6948 6.46865 21.5731L6.46869 21.5731ZM8.58043 5.43642C8.69655 5.57432 8.83751 5.70943 8.97848 5.84454C9.11944 5.97965 9.26041 6.11476 9.37653 6.25266C21.858 19.8655 35.1721 32.6096 48.4612 45.3298L48.4615 45.3301C50.3128 47.1022 52.1636 48.8738 54.0117 50.6472C54.3507 50.9781 54.7008 51.3077 55.0509 51.6374C55.7511 52.2967 56.4513 52.9559 57.0632 53.6251C57.1447 53.722 57.2293 53.8185 57.3144 53.9155C57.7138 54.3709 58.1227 54.8373 58.2691 55.4016C58.3472 56.0973 58.2601 57.1133 57.8079 57.5666C57.3556 58.02 56.3619 58.1316 55.6551 58.1104C55.1518 58.0835 54.6861 57.7761 54.2331 57.4771L54.2331 57.4771C54.1394 57.4153 54.0463 57.3538 53.9535 57.2952L53.9534 57.2952C52.9586 56.5013 51.9638 55.7074 51.0571 54.803C38.9616 42.9794 27.2188 30.7137 16.5793 17.519C14.7696 15.2828 13.0849 12.9414 11.3803 10.5724L11.3802 10.5722C10.5535 9.42318 9.72215 8.26772 8.86959 7.11465C8.63362 6.80572 8.48599 6.48687 8.33837 6.16803C8.26455 6.0086 8.19074 5.84918 8.10588 5.691C8.25138 5.67466 8.33763 5.61104 8.447 5.53037C8.48703 5.50084 8.53016 5.46903 8.58043 5.43642Z" fill="black"/>
</svg>
