<svg width="48" height="51" viewBox="0 0 48 51" fill="none" xmlns="http://www.w3.org/2000/svg">
<path fill-rule="evenodd" clip-rule="evenodd" d="M26.9247 19.3688L26.9247 19.3689L26.9247 19.3689C27.0185 19.5466 27.1117 19.7233 27.2001 19.9C27.3001 19.9 27.4 19.875 27.5 19.85L27.5001 19.85C27.6001 19.825 27.7001 19.8 27.8001 19.8C27.8001 19.55 27.8251 19.325 27.8501 19.1C27.8751 18.875 27.9001 18.65 27.9001 18.4C27.7001 13.4 27.5001 8.4 27.1001 3.4C27.0001 1.6 26.3001 0.899995 25.4001 0.999995C24.5001 1.1 23.9001 2 24.1001 3.7C24.6001 8.3 25.3001 12.8 26.1001 17.4C26.2559 18.1012 26.5938 18.7417 26.9247 19.3688L26.9247 19.3688L26.9247 19.3688ZM24.1155 49.0646C24.2724 49.4019 24.4438 49.7704 24.6 50.2C24.7892 49.9163 24.9559 49.6997 25.0792 49.5396C25.2167 49.361 25.3 49.2527 25.3 49.2L25.3475 48.9316C25.6309 47.3308 25.9 45.8103 25.9 44.2C25.9666 40.9371 25.9445 37.7186 25.9223 34.4853V34.4851C25.9112 32.8629 25.9 31.237 25.9 29.6C25.9 29.2 25.9 28.9 25.8 28.6C25.6 27.7 25.2 26.9 24.2 26.8C23.2 26.7 22.5 27.3 22.2 28.2C21.9 29.1 21.6 30.1 21.7 31L21.8611 32.4779L21.8611 32.4782C22.4082 37.501 22.9627 42.592 23.6 47.6C23.661 48.0876 23.8705 48.538 24.1155 49.0646ZM20 20.3C19.525 20.4 19.05 20.5062 18.575 20.6125C17.15 20.9312 15.725 21.25 14.3 21.4C10.5 21.7 6.7 21.8 2.9 21.9H2.4C0.7 21.8 0 21.3 0 20.4C0 19.5 0.7 19.3 2.5 19.4C5.77424 19.5336 9.00383 19.578 12.2484 19.6225C13.8595 19.6446 15.4742 19.6668 17.1 19.7H20C19.9333 19.8333 19.9556 19.9667 19.9778 20.1C19.9889 20.1667 20 20.2333 20 20.3ZM47.4071 21.8824C47.6118 21.7777 47.8129 21.6748 48 21.6C48 21.4828 47.9657 21.3657 47.9373 21.2686C47.9172 21.2 47.9001 21.1414 47.9001 21.1C45.5001 21.25 43.0751 21.4 40.6501 21.55C38.2251 21.7 35.8 21.85 33.4001 22C31.9001 22.1 31.2 22.7 31.4 23.5C31.7 24.8 32.7001 24.8 33.7001 24.6C35.6408 24.2389 37.5611 23.8982 39.4703 23.5595C41.7912 23.1478 44.0956 22.7389 46.4001 22.3C46.7129 22.2374 47.0649 22.0574 47.4071 21.8824Z" fill="black"/>
</svg>
