<svg width="28" height="36" viewBox="0 0 28 36" fill="none" xmlns="http://www.w3.org/2000/svg">
<path d="M12.938 35.125C12.138 34.625 11.538 34.325 11.038 33.825C9.53802 32.225 8.13802 30.625 6.73802 28.925C4.83802 26.725 3.13802 24.525 1.23802 22.325C-0.261981 20.625 -0.361981 20.125 0.738019 18.125C3.63802 12.525 7.63802 7.625 11.338 2.525C11.838 1.825 12.538 1.225 13.238 0.625C14.638 -0.375 15.938 -0.175 16.938 1.225C20.138 6.225 23.238 11.225 26.338 16.225C27.738 18.525 27.538 18.925 25.738 20.825C23.238 23.425 20.738 26.025 18.438 28.725C17.138 30.225 16.038 31.925 14.838 33.425C14.238 34.125 13.638 34.525 12.938 35.125ZM14.738 3.625C10.538 9.025 7.43802 14.625 4.03802 19.825C7.03802 23.725 9.83802 27.425 12.738 31.125C16.738 26.625 20.438 22.325 24.438 17.825C21.238 13.225 18.138 8.625 14.738 3.625Z" fill="black"/>
</svg>
