<svg width="29" height="31" viewBox="0 0 29 31" fill="none" xmlns="http://www.w3.org/2000/svg">
<path d="M0 17C0.2 15.8 0.4 14.6 0.7 13.5C1.9 9.80002 3.9 6.50002 6.7 3.80002C11.1 -0.399979 16.3 -0.799979 21.8 1.10002C24 1.80002 25.6 3.40002 26.7 5.40002C32.3 15 26.1 28.2 15.1 29.9C8.1 31 0.4 26.7 0 17ZM24.2 13.6C23.9 9.90002 23 6.50002 18.8 5.20002C18.3 5.00002 17.7 4.70002 17.4 4.30002C16 2.50002 14.4 3.00002 12.7 3.70002C7.9 5.70002 3.6 12.2 3.8 17.5C3.9 21.4 5.7 23.9 9.4 25.3C12.8 26.6 15.9 26.1 18.9 24C22.5 21.4 23.8 17.8 24.2 13.6Z" fill="black"/>
</svg>
