<svg width="54" height="52" viewBox="0 0 54 52" fill="none" xmlns="http://www.w3.org/2000/svg">
<path fill-rule="evenodd" clip-rule="evenodd" d="M21.5197 19.2152C21.615 19.4382 21.7118 19.6648 21.8 19.9C21.9316 19.8562 22.0439 19.8315 22.1454 19.8093C22.2754 19.7808 22.3877 19.7562 22.5 19.7C22.5225 19.6212 22.545 19.5437 22.5673 19.4672C22.7425 18.8637 22.9 18.3212 22.9 17.7C22.9 12.6 22.9 7.5 22.8 2.4C22.8 1.9 22.8 1.3 22.5 1C22 0.5 21.4 0 20.8 0C20.4 0 19.7 0.6 19.5 1.2C19.2 1.8 19.2 2.6 19.3 3.3C19.7499 7.61907 20.2808 11.8572 20.8198 16.16C20.8798 16.6392 20.9399 17.1191 21 17.6C21.0706 18.1648 21.2908 18.6797 21.5197 19.2152ZM51.9745 22.7482C52.6092 22.5514 53.2472 22.3536 53.9 22.2C53.9 22.1 53.8 21.9 53.7 21.7H31.5C31.1 21.7 30.6 21.7 30.3 21.9C30.2542 21.9367 30.2067 21.9742 30.1581 22.0125C29.6767 22.3925 29.0908 22.855 29 23.4C28.9 24.3 29.6 24.8 30.5 25C31.1 25.1 31.6 25.1 32.2 25.1C37.8 24.6 43.4 24.1 48.9 23.5C49.9472 23.3768 50.9565 23.0639 51.9745 22.7482ZM25.1555 50.9C25.311 51.2 25.4666 51.5 25.5999 51.8C25.7999 51.8 25.9999 51.7 26.1999 51.6C26.1999 51.5 26.2499 51.4 26.2999 51.3C26.3499 51.2 26.3999 51.1 26.3999 51V34.9C26.3999 34.2 26.2999 33.5 26.1999 32.8C25.9999 31.8 25.2999 31.1 24.1999 31.1C22.9999 31.1 22.4999 32 22.3999 33C22.3339 33.3962 22.355 33.7487 22.3771 34.1152L22.3771 34.1153C22.3884 34.3039 22.3999 34.4962 22.3999 34.7C22.4999 36.2 22.5999 37.7 22.7999 39.2C23.2999 42.5 23.7999 45.8 24.3999 49.1C24.5332 49.7 24.8444 50.3 25.1555 50.9ZM21.7 24.9C21.369 25.0103 21.0516 25.1342 20.7377 25.2566C20.1981 25.4671 19.669 25.6736 19.1 25.8C14.5484 26.514 9.91719 27.1483 5.34848 27.7741L5.34821 27.7741L5.33171 27.7764C4.78684 27.851 4.24285 27.9255 3.7 28C2.9 28.1 2 28.2 1.3 27.9C0.8 27.6 0 27 0 26.5C0 26 0.6 25.4 1.1 24.9C1.3 24.7 1.8 24.6 2.2 24.6C7.7 24.4 13.2 24.2 18.7 24.1C19.6 24.1 20.6 24.2 21.5 24.3C21.55 24.4 21.575 24.5 21.6 24.6C21.625 24.7 21.65 24.8 21.7 24.9Z" fill="black"/>
</svg>
