<svg width="407" height="408" viewBox="0 0 407 408" fill="none" xmlns="http://www.w3.org/2000/svg">
<path d="M319.052 130.175C319.462 129.039 319.805 128.115 320.075 127.122C321.357 121.944 321.012 116.857 319.818 111.638C318.104 104.375 314.843 97.8381 310.808 91.6638C304.109 81.4909 295.59 72.8957 285.955 65.5868C271.681 54.7275 255.888 46.9979 238.716 42.1137C229.066 39.4016 219.358 37.7509 209.391 38.0833C205.786 38.1976 202.256 38.6645 198.728 39.2728C196.681 39.6511 194.714 40.6649 192.744 41.5372C192.04 41.8286 191.337 42.1199 190.764 41.5611C190.405 41.0705 190.042 40.297 190.035 39.7313C190.089 38.3871 190.998 37.4568 192.124 37.0189C194.374 36.0017 196.552 34.7732 198.951 34.32C202.83 33.4953 206.784 33.0233 210.814 32.9039C218.445 32.3875 226.164 33.355 233.681 35.1029C259.921 41.292 282.91 53.5312 302.163 72.6042C310.751 81.1279 317.798 90.8016 322.249 102.133C326.117 112.057 327.722 122.009 323.747 132.523C324.531 133.008 325.313 133.353 326.025 133.768C335.348 138.677 344.257 144.438 352.262 151.413C360.051 158.179 366.861 165.805 371.499 175.083C372.949 178.036 374.118 181.133 375.004 184.234C379.078 199.53 373.299 212.894 359.533 220.698C354.546 223.516 349.193 225.278 343.622 226.547C332.761 228.941 321.732 229.216 310.692 228.501C307.649 228.325 304.674 227.937 301.56 227.691C300.923 227.628 300.357 227.635 299.437 227.576C299.732 228.562 299.955 229.479 300.177 230.254C302.458 237.652 303.54 245.276 302.573 252.996C301.416 262.627 297.486 270.948 290.211 277.542C285.873 281.413 281.026 284.088 275.533 285.993C266.871 288.997 257.9 289.741 248.773 289.357C247.57 289.3 246.367 289.244 244.951 289.12C244.963 290.11 245.045 291.028 245.055 291.877C245.442 300.499 243.701 308.582 238.554 315.716C234.869 320.922 229.964 324.659 224.27 327.485C216.959 331.109 209.272 332.829 201.219 333.492C190.057 334.475 179.014 333.477 168.094 331.063C167.244 330.932 166.322 330.731 165.259 330.531C165.343 331.591 165.423 332.368 165.505 333.286C166.607 342.608 167.286 351.934 166.55 361.277C166.248 365.595 165.592 369.845 164.795 374.098C164.267 377.216 163.102 380.271 161.296 382.98C159.977 385.046 158.715 385.91 156.74 386.358C156.739 386.217 156.665 386.006 156.665 386.006C158.974 383.927 160.001 381.157 160.744 378.248C161.892 373.78 162.262 369.249 162.348 364.722C162.633 353.122 161.644 341.536 160.02 330.029C159.947 329.818 159.874 329.606 159.797 329.112C159.158 328.908 158.448 328.634 157.667 328.431C138.788 322.719 121.566 313.733 106.283 301.331C98.1428 294.782 90.9102 287.302 85.7085 278.172C83.8309 274.942 82.4473 271.635 81.4846 268.04C80.815 265.29 80.5696 262.535 80.8898 259.773C81.7347 253.611 85.0774 249.327 90.8496 247.136C94.8619 245.603 98.9628 245.553 103.212 246.068C111.923 247.165 119.672 250.536 126.872 255.329C142.843 266.168 153.558 280.959 158.803 299.494C160.872 306.824 162.167 314.516 163.813 321.992C163.964 322.839 164.116 323.686 164.268 324.533C164.552 324.671 164.695 324.81 164.908 324.878C177.887 328.045 191.057 329.442 204.401 327.655C211.955 326.644 219.074 324.649 225.601 320.539C236.337 313.692 241.43 302.033 239.429 288.621C238.72 288.488 237.799 288.287 236.948 288.156C220.156 285.459 204.393 280.134 189.79 271.329C183.735 267.654 178.099 263.55 173.298 258.304C170.503 255.297 167.919 252.075 166.458 248.274C165.584 246.163 164.92 243.838 164.751 241.577C164.264 236.35 166.899 232.075 171.68 229.754C174.423 228.519 177.316 227.989 180.286 227.953C185.376 227.892 190.339 228.963 195.098 230.674C206.319 234.64 215.944 241.1 224.248 249.486C233.554 258.85 240.332 269.658 243.6 282.63C243.673 282.842 243.746 283.053 243.893 283.475C244.53 283.538 245.239 283.671 245.876 283.734C253.308 284.281 260.801 284.049 268.135 282.405C273.848 281.134 279.126 279.019 283.893 275.567C290.413 270.892 294.509 264.549 296.325 256.819C297.809 250.861 297.877 244.778 296.672 238.711C295.994 235.255 294.893 231.944 294.004 228.561C293.632 227.08 292.706 226.455 291.147 226.191C280.519 224.48 270.163 221.918 260.01 218.576C244.464 213.601 229.396 207.277 215.501 198.605C208.732 194.373 202.452 189.641 197.077 183.695C194.424 180.686 192.122 177.461 190.873 173.586C188.888 167.317 191.44 161.982 197.563 159.575C199.252 158.847 201.085 158.401 202.922 158.237C205.818 157.99 208.646 157.956 211.478 158.204C217.778 158.765 223.951 160.458 229.848 162.721C250.591 170.532 268.346 182.693 282.765 199.703C288.074 206.003 292.613 212.949 296.098 220.403C296.605 221.458 297.11 222.229 298.525 222.354C309.857 223.773 321.11 224.556 332.481 223.358C338.979 222.714 345.329 221.506 351.382 219.17C354.902 217.854 358.276 216.117 361.218 213.818C368.856 207.998 372.157 200.321 371.406 190.783C370.828 183.931 368.138 177.811 364.532 172.056C359.702 164.406 353.473 158.046 346.404 152.403C339.12 146.551 331.283 141.696 322.958 137.483C322.531 137.205 322.105 137.069 321.538 136.934C321.118 137.363 320.698 137.651 320.42 138.079C316.8 142.79 312.244 146.168 306.681 148.145C303.02 149.462 299.215 150.639 295.404 151.251C279.099 153.782 263.372 151.426 248.299 144.678C244.815 143.093 241.467 141.083 238.747 138.428C237.889 137.59 237.03 136.752 236.241 135.842C231.574 130.029 232.77 123.65 238.945 119.616C241.541 117.958 244.429 117.004 247.392 116.402C252.046 115.356 256.853 115.156 261.734 115.31C273.972 115.657 285.883 118.2 297.456 122.091C303.917 124.206 310.173 126.959 316.496 129.357C317.416 129.417 318.198 129.761 319.052 130.175ZM159.299 323.037C158.769 320.144 158.315 317.604 157.788 314.993C156.06 306.599 154.121 298.278 150.562 290.471C143.663 275.492 133.266 263.667 118.815 255.709C113.475 252.733 107.724 250.751 101.566 250.331C98.5932 250.084 95.6951 250.189 92.809 251.285C88.7269 252.89 86.2156 255.749 85.9159 260.208C85.8001 262.33 85.8274 264.593 86.4885 266.636C87.3728 269.595 88.5399 272.551 90.058 275.291C94.3943 283.017 100.412 289.45 107.128 295.168C121.776 307.649 138.432 316.641 156.747 322.502C157.456 322.635 158.235 322.696 159.299 323.037ZM290.869 220.749C290.577 220.045 290.502 219.693 290.286 219.342C287.391 213.861 284.006 208.739 280.13 203.978C270.225 191.934 258.299 182.248 244.701 174.705C235.518 169.653 225.994 165.667 215.647 163.811C212.316 163.215 208.849 163.045 205.455 163.086C203.334 163.111 201.22 163.703 199.179 164.505C196.223 165.672 195.192 168.16 196.006 171.191C196.378 172.671 197.03 174.007 197.824 175.341C200.063 179.203 203.142 182.349 206.5 185.207C211.574 189.601 217.065 193.424 222.974 196.677C243.693 208.377 265.919 215.959 289.24 220.556C289.594 220.623 290.09 220.688 290.869 220.749ZM238.579 282.62C238.429 281.915 238.422 281.349 238.204 280.857C237.327 278.463 236.66 275.996 235.572 273.676C229.322 259.749 219.363 249.05 206.537 241.002C200.267 237.117 193.727 234.226 186.428 232.971C183.097 232.375 179.771 232.203 176.386 232.951C170.886 234.29 168.598 238.065 170.079 243.563C170.893 246.594 172.623 249.261 174.562 251.712C178.729 257.178 184.154 261.355 189.926 265.034C204.321 274.194 220.086 279.661 236.809 282.429C237.235 282.566 237.8 282.559 238.579 282.62ZM316.91 134.373C316.269 134.027 315.842 133.75 315.486 133.542C301.338 127.278 286.643 122.576 271.273 120.569C264.828 119.727 258.388 119.31 251.893 120.237C248.998 120.626 246.037 121.369 243.364 122.532C237.595 125.006 236.94 129.257 241.308 133.801C244.101 136.667 247.448 138.677 251.074 140.26C264.51 146.108 278.467 148.273 293.014 146.542C298.38 145.912 303.526 144.506 308.303 141.902C311.605 140.095 314.476 137.726 316.91 134.373Z" fill="black"/>
</svg>
