<svg width="168" height="214" viewBox="0 0 168 214" fill="none" xmlns="http://www.w3.org/2000/svg">
<path d="M65.9098 88.6269C67.3943 88.1409 68.0604 87.0068 68.7265 85.8726C71.6495 80.6855 74.5355 75.5913 77.4585 70.4041C82.842 60.9222 87.7419 51.0328 93.9249 41.9762C97.5532 36.639 101.702 31.6164 106.93 27.6686C109.415 25.7506 112.234 24.0733 115.201 22.5629C116.667 21.8541 118.43 21.479 120.027 21.2528C124.742 20.7599 127.905 23.6315 128.082 28.3292C128.238 31.7271 127.354 35.0344 126.321 38.1748C124.107 44.8274 121.093 51.0547 117.708 57.1341C115.025 61.9865 112.492 67.0057 110.052 72.0618C107.001 78.3819 104.043 84.739 101.049 91.189C99.7917 93.81 98.8134 96.5418 98.7452 99.4202C98.6736 100.683 98.4912 102.225 99.7183 102.928C100.889 103.501 101.964 102.422 102.891 101.714C106.413 98.8097 109.842 95.8684 113.457 93.001C116.108 90.9341 118.759 88.8673 121.615 87.0971C123.915 85.6438 126.475 84.617 128.943 83.5533C130.334 83.0304 131.838 82.7672 133.361 82.7268C137.65 82.4949 140.496 84.81 141.433 88.949C142.52 93.7934 141.323 98.1598 138.843 102.232C134.92 108.851 129.713 114.099 123.39 118.364C118.977 121.345 114.21 123.862 109.107 125.6C107.882 125.974 106.713 126.478 105.452 126.945C96.8971 129.785 89.5541 134.722 82.6208 140.252C78.839 143.268 76.4893 147.284 74.1025 151.393C70.7172 157.473 68.6698 163.976 66.1209 170.388C64.163 175.313 62.298 180.275 60.377 185.108C59.6382 186.966 58.6206 188.714 57.6399 190.369C56.7701 191.745 55.4166 192.713 53.7272 192.902C49.2903 193.506 45.074 193.014 41.4654 190.18C38.7313 188.125 37.7784 185.379 38.6258 182.164C39.031 180.603 39.715 179.154 40.399 177.704C41.3785 175.51 42.5439 173.391 43.3376 171.124C45.8854 164.173 48.3963 157.316 50.8512 150.328C52.1799 146.445 53.2859 142.58 54.5217 138.659C55.1485 136.541 54.9402 134.628 53.525 132.775C51.3092 129.957 49.2602 126.99 46.9146 124.228C41.2358 117.128 38.582 109.186 38.3397 100.05C38.0224 90.5617 39.2098 81.3487 41.6232 72.3002C42.5052 67.9159 43.7947 63.0479 46.3483 58.79C47.5697 56.8005 48.791 54.811 50.2542 53.0252C51.5875 51.2954 53.3676 50.066 55.4085 49.2631C58.971 47.8814 62.5391 49.1923 63.9578 52.6618C64.8535 54.7396 65.3228 57.0784 65.5692 59.4362C66.1572 65.2658 65.6683 71.0977 64.9934 76.8557C64.7013 79.2147 64.4092 81.5736 64.2101 83.9695C64.0467 85.734 64.2729 87.3305 65.9098 88.6269Z" fill="#4CA96D"/>
<path fill-rule="evenodd" clip-rule="evenodd" d="M109.092 24.2066C107.612 25.3379 106.158 26.4487 105.498 28.1086C104.63 30.0231 104.893 31.5267 106.065 32.6383C107.274 33.6571 109.521 33.6895 110.968 32.7579C113.044 31.3236 114.149 26.9203 112.975 24.7316C112.322 23.396 110.835 22.8049 109.871 23.6054C109.613 23.8085 109.353 24.0079 109.092 24.2066ZM123.751 40.0669C123.612 40.2509 123.479 40.4258 123.351 40.5864C123.273 40.9299 123.198 41.244 123.128 41.5356L123.128 41.5358L123.128 41.5359C122.938 42.3325 122.788 42.9607 122.708 43.5589C122.562 45.0077 122.936 46.2325 124.219 47.0654C125.595 47.9352 126.932 47.821 128.305 47.0753C129.807 46.2736 130.584 44.8606 130.989 43.2999C131.303 42.2408 131.356 41.2936 130.259 40.5346C129.924 40.2939 129.793 39.8114 129.755 39.3658C129.472 37.1009 127.743 36.3061 125.889 37.7213C125.01 38.4097 124.324 39.3136 123.751 40.0668L123.751 40.0669ZM50.2034 48.0956C50.7567 46.137 52.1442 44.982 53.5051 43.8491C54.0937 43.3592 54.6773 42.8734 55.1863 42.3285C56.0204 41.5839 56.9866 41.8604 57.6942 42.7874C58.5698 44.104 58.5542 45.4967 58.1859 46.9645C57.8546 48.3393 57.746 49.6951 57.9163 51.1618C58.2735 53.2408 56.6447 55.714 54.6037 56.5169C52.1732 57.4877 49.6261 56.0446 49.4345 53.2782C49.4568 52.1392 49.6772 50.9833 49.8976 49.8274C50.0078 49.2494 50.118 48.6715 50.2034 48.0956ZM38.8554 116.976C39.6144 115.879 40.6142 114.447 41.7628 113.181C42.467 112.493 43.4499 111.915 44.471 111.783C45.6219 111.595 46.55 111.426 47.6259 110.885C48.7387 110.251 49.724 110.75 49.9681 112.031C50.1741 112.866 50.2134 113.851 49.9178 114.594C49.2898 116.174 48.6618 117.753 47.6061 119.056C46.6078 120.371 45.3191 121.57 44.0863 122.718C43.9243 122.869 43.7632 123.019 43.6038 123.168C42.4362 124.21 40.7837 124.307 39.5935 123.511C38.3105 122.678 37.8435 121.416 37.989 119.967C38.0954 119.307 38.2997 118.685 38.5517 117.918L38.5518 117.918L38.5518 117.918C38.6471 117.628 38.7492 117.317 38.8554 116.976ZM92.4106 136.681L92.4105 136.68L92.4102 136.68C92.332 136.457 92.2557 136.239 92.1906 136.026C93.3381 134.222 93.4847 133.312 92.5353 132.182C91.6978 131.311 90.3789 131.109 89.0433 131.762C88.9784 131.79 88.9042 131.841 88.83 131.892L88.8299 131.892C88.7558 131.944 88.6817 131.995 88.6168 132.023C85.9288 134.183 84.3749 137.008 84.4938 140.499C84.5163 142.338 85.7635 143.802 87.3242 144.207C88.9779 144.649 90.9819 143.939 91.9816 142.507C92.9443 141.168 93.2197 139.664 92.8076 137.993C92.7099 137.534 92.557 137.098 92.4106 136.681L92.4106 136.681ZM144.971 95.0236C144.804 95.2914 144.638 95.5768 144.469 95.8684L144.469 95.8685C144.039 96.6096 143.586 97.3899 143.027 98.0175C141.879 99.2826 140.245 99.6018 138.925 98.8618C137.698 98.1588 137.082 96.7302 137.395 95.1326C137.597 94.3522 137.986 93.6458 138.374 92.9393C138.568 92.4531 138.785 91.994 139.001 91.5377L139.001 91.5375C139.322 90.8601 139.64 90.1889 139.871 89.445C140.369 87.9213 141.147 87.0468 142.447 87.0255C143.654 86.9672 144.974 87.7072 145.404 89.0619C145.703 89.934 145.835 90.9551 145.781 91.9022C145.735 92.0704 145.686 92.2454 145.636 92.4269L145.636 92.4271C145.423 93.1883 145.179 94.0637 144.971 95.0236ZM60.0105 84.0626C62.123 81.9969 61.2227 77.765 58.4349 76.6567C57.4496 76.1574 56.4096 76.0668 55.7244 76.9782C54.3911 78.708 53.1137 80.5676 52.1152 82.5381C51.2644 84.1369 51.8433 85.6584 53.0894 86.5842C54.3355 87.5101 55.9511 87.5066 57.3415 86.4452C58.2685 85.7376 59.1395 84.9001 60.0105 84.0626ZM125.75 120.635C124.973 122.048 124.084 123.201 122.619 123.91C119.984 125.122 117.252 123.605 116.967 120.802C116.721 118.444 117.626 116.437 119.48 115.022C120.871 113.96 122.319 114.106 123.585 115.254C123.774 115.391 123.911 115.575 124.037 115.746C124.134 115.877 124.224 116 124.329 116.088C124.494 116.227 124.72 116.365 124.95 116.505C125.394 116.777 125.848 117.054 125.873 117.348C126.057 118.214 125.943 119.105 125.825 120.022C125.799 120.225 125.773 120.429 125.75 120.635ZM65.2916 119.409C65.4079 119.49 65.5298 119.576 65.657 119.667C65.8017 119.647 65.9557 119.63 66.1146 119.612C66.8324 119.534 67.6533 119.444 68.1995 118.956C69.1265 118.248 70.0713 117.225 70.7005 116.184C70.9041 115.87 71.0252 115.509 71.149 115.14C71.3629 114.503 71.5849 113.842 72.2543 113.358C72.551 113.153 72.6416 112.113 72.4367 111.816C71.6362 110.852 70.7427 109.851 69.6825 109C69.3477 108.759 68.5864 108.779 68.2897 108.984C68.0657 109.128 67.8395 109.272 67.6125 109.415L67.6123 109.415L67.6121 109.416L67.6119 109.416L67.6118 109.416C66.3731 110.201 65.1114 111 64.0623 112.038C62.9876 113.118 63.0706 117.24 64.113 118.408C64.3996 118.783 64.7955 119.061 65.2914 119.408L65.2914 119.408L65.2915 119.408L65.2916 119.409ZM85.2426 90.9726C84.6337 92.7751 83.2801 93.7436 81.6657 94.2856C79.1053 95.3123 76.762 93.6275 76.6633 90.898C76.6028 88.614 78.6391 85.6571 80.773 84.8913C83.0367 84.0694 85.7148 85.9949 85.6646 88.5576C85.6478 89.4119 85.4452 90.1922 85.2426 90.9726ZM112.913 65.4919C112.359 66.8858 111.34 68.095 109.818 68.6739C108.037 69.3648 105.919 68.7379 104.968 67.0687C103.981 65.4924 104.33 63.8018 105.868 62.3687C106.572 61.6801 107.184 60.9546 107.795 60.2291C108.814 59.0199 110.224 58.7198 111.563 59.6825C113.144 60.8491 113.799 63.2617 112.913 65.4919ZM120.802 98.9746C118.813 98.2918 117.992 96.0281 119.325 94.2983C120.417 92.9032 121.882 91.6559 123.421 90.7613C125.22 89.7547 126.522 90.8104 127.122 93.0932C127.553 94.9864 126.59 96.3255 125.348 97.5537C123.903 99.0238 122.289 99.5657 120.802 98.9746ZM94.4523 116.802C93.1513 116.285 91.7049 117.216 91.003 118.982C90.0604 121.082 90.6774 123.049 92.443 123.751C93.9667 124.249 96.0446 123.353 96.8025 121.718C97.5413 119.859 96.4407 117.485 94.4523 116.802Z" fill="black"/>
</svg>
