<svg width="173" height="83" viewBox="0 0 173 83" fill="none" xmlns="http://www.w3.org/2000/svg">
<path fill-rule="evenodd" clip-rule="evenodd" d="M80.532 25.2166C81.3961 25.2081 82.3124 25.1992 83.3 25.2259C83.7704 25.1736 84.3022 25.1282 84.8795 25.0789C86.5112 24.9395 88.5056 24.7691 90.5 24.3259C94.2 23.6259 95.2 21.6259 94 18.0259C93.5233 16.6553 93.0821 15.2848 92.6341 13.8931L92.6337 13.8919C92.33 12.9485 92.0232 11.9953 91.7 11.0259C91.4128 10.1642 91.1592 9.28561 90.9048 8.40403L90.9047 8.40382L90.9047 8.40364C90.5391 7.13695 90.1717 5.86404 89.7 4.62589C89.3 3.52589 88.7 2.42589 88 1.52589C86.4 -0.574107 84 -0.474107 82.4 1.62589C82 2.22589 81.6 2.92589 81.3 3.52589C80 6.32588 78.675 9.15087 77.35 11.9759C76.025 14.8009 74.7 17.6259 73.4 20.4259C73.3334 20.6259 73.2556 20.8259 73.1778 21.0259C73.0222 21.4259 72.8667 21.8259 72.8 22.2259C72.5 23.6259 72.9 24.0259 74.2 24.5259C76.1793 25.259 78.1587 25.2397 80.532 25.2166ZM140.4 24.8259C141.4 24.7509 142.4 24.6759 143.4 24.6259C144.4 24.5259 145.5 24.5259 146.5 24.5259C147.6 24.5259 148.7 24.4259 149.8 24.3259C150.7 24.2259 151.6 24.0259 152.4 23.8259C155.4 23.0259 156.4 20.8259 155.1 18.1259C152.8 13.4259 150.4 8.72588 148 4.02588C147.7 3.32588 147.3 2.72588 146.8 2.22588C145.5 0.825885 143.5 0.725885 142.2 2.22588C141.4 3.12588 140.8 4.12588 140.3 5.22588C138.886 8.33757 137.571 11.4993 136.251 14.6756L136.25 14.6783L136.249 14.6805L136.248 14.6821L136.248 14.6824C135.702 15.9952 135.155 17.3106 134.6 18.6259C134.3 19.4259 134.1 20.3259 134 21.2259C133.6 23.9259 134.7 25.1259 137.4 25.0259C138.4 24.9759 139.4 24.9009 140.4 24.8259ZM46.7 26.2259C43.9 26.2259 41.7 23.3259 42.7 21.0259C44.876 16.1718 47.192 11.3878 49.5309 6.55655C49.9867 5.61508 50.4434 4.67183 50.9 3.72591C51.0783 3.28015 51.4156 2.83439 51.6992 2.45949L51.6993 2.45938C51.7338 2.4138 51.7675 2.36927 51.8 2.32591C53.1 0.825907 55 0.725908 56.4 2.22591C57.2 3.02591 57.8 4.02591 58.3 5.02591C60.2 9.62591 62 14.1259 63.8 18.8259C64.6 20.9259 63.9 22.9259 61.8 23.7259C60.3 24.3259 58.7 24.6259 57.2 24.7259C54 24.7259 50.9 25.0259 47.9 26.0259C47.71 26.0734 47.4974 26.0984 47.2944 26.1222C47.0701 26.1485 46.8575 26.1734 46.7 26.2259ZM113.5 23.8759C115.5 23.9509 117.5 24.0259 119.5 24.1259V24.4259H121.7C124.8 24.2259 126 22.4259 125.1 19.5259C124.8 18.6759 124.525 17.8509 124.25 17.0259C123.975 16.2009 123.7 15.3759 123.4 14.5259C122.3 11.2259 121.2 8.02591 119.9 4.82591C119.4 3.62591 118.7 2.52591 117.9 1.52591C116.2 -0.47409 113.9 -0.27409 112.5 1.92591C111.9 2.92591 111.4 3.92591 111 4.92591C109.761 7.63919 108.557 10.3873 107.347 13.1496L107.347 13.1501L107.347 13.1506C106.506 15.0711 105.661 16.9985 104.8 18.9259C103.5 21.6259 104.5 23.4259 107.5 23.6259C109.5 23.7259 111.5 23.8009 113.5 23.8759ZM18.7002 26.0259L18.7 26.0259L18.6998 26.0259H18.6997H18.6997H18.6997H18.6997H18.6997H18.6996H18.6996H18.6996H18.6996H18.6996C17.6997 26.1009 16.6999 26.1759 15.7 26.2259C12.3 26.3259 10.9 24.4259 12.4 21.3259C14.4013 16.9898 16.5417 12.7231 18.6472 8.52606L18.6472 8.52601L18.6472 8.52588L18.6486 8.52321L18.6506 8.51926C19.0689 7.68539 19.4858 6.85428 19.9 6.0259C20.2 5.4259 20.5 4.9259 20.9 4.3259C22.5 2.0259 24.8 2.0259 26.2 4.5259C27.4 6.7259 28.5 9.1259 29.5 11.4259C30.7 14.1259 31.8 16.8259 32.9 19.6259C34.3 23.1259 33.1 25.3259 29.3 25.6259C27.6369 25.7589 25.9296 25.715 24.2075 25.6706H24.2075C23.3408 25.6483 22.4704 25.6259 21.6 25.6259C21.6575 25.6834 21.6819 25.7078 21.6923 25.7372C21.7 25.759 21.7 25.7834 21.7 25.8259C20.7001 25.8759 19.7001 25.9509 18.7002 26.0259ZM29.7 50.5259C29.5 52.6259 31.6 54.8259 32.6 54.8259C35.5624 54.5355 38.1874 54.3125 40.7101 54.0982L40.7108 54.0982L40.7115 54.0981L40.7117 54.0981L40.7123 54.098C42.532 53.9435 44.2984 53.7935 46.1 53.6259C46.3 53.6259 46.6 53.6259 46.8 53.5259C49.3 52.8259 50.4 51.0259 49.3 48.6259C47.1 44.0259 44.9 39.4259 42.6 34.8259C42.2 34.1259 41.7 33.4259 41.2 32.8259C39.5 30.9259 37.4 31.1259 36 33.2259C35.5 34.0259 35.1 34.8259 34.8 35.6259C33.2 39.8259 31.7 44.0259 30.2 48.2259C30 48.9259 29.8 49.7259 29.7 50.5259ZM163 51.9259L163 51.9259C161.1 52.1259 159.2 52.3259 157.3 52.6259C154.1 53.1259 153.2 52.4259 152.6 49.2259C152.3 47.6259 152.6 46.2259 153.2 44.8259C153.668 43.6939 154.122 42.5315 154.577 41.3623L154.578 41.3618C155.289 39.5359 156.007 37.6937 156.8 35.9259C157.4 34.5259 158.2 33.2259 159.2 32.1259C161.4 29.9259 164.4 30.2259 166.2 32.8259C166.8 33.7258 167.3 34.7257 167.8 35.7256L167.8 35.7259L171.7 45.0259C173.1 48.4259 171.9 50.7259 168.3 51.7259C167.5 51.9259 166.6 52.0259 165.7 52.1259C165.092 52.1934 164.484 52.1697 163.907 52.1472C163.63 52.1364 163.36 52.1259 163.1 52.1259C163 52.0259 163 52.0259 163 51.9259ZM123.814 53.9069C125.175 54.9482 126.536 55.9896 128.5 55.8259C129.393 55.6143 130.292 55.4083 131.195 55.2013C134.134 54.5277 137.117 53.8438 140.1 52.9259C142.3 52.2259 143 50.3259 142.1 48.0259L137.6 36.9259C137.3 36.1259 136.8 35.2259 136.3 34.4259C134.6 31.9259 132.1 31.8259 130.4 34.2259C129.401 35.5582 128.679 37.0292 127.946 38.5233L127.946 38.5237L127.945 38.5238L127.945 38.5239L127.945 38.524L127.945 38.5241L127.945 38.5241C127.798 38.8241 127.65 39.125 127.5 39.4259C126.319 41.8618 125.247 44.2431 124.163 46.6505L124.162 46.654C123.778 47.5068 123.392 48.363 123 49.2259C122.94 49.3459 122.876 49.4659 122.812 49.5859C122.556 50.0659 122.3 50.5459 122.3 51.0259C122.3 51.8259 122.4 52.9259 122.9 53.2259C123.209 53.4441 123.512 53.6755 123.814 53.9069ZM150.1 79.9259C149.663 79.9259 149.226 79.9372 148.792 79.9484H148.792C147.937 79.9705 147.096 79.9923 146.3 79.9259C143 79.7259 141.3 77.8259 142 74.5259C142.644 71.4662 143.483 68.4065 144.307 65.399C144.507 64.6713 144.705 63.9467 144.9 63.2259C145.3 61.9259 145.8 60.7259 146.4 59.4259C147 58.1259 147.9 57.1259 149.4 57.0259C150.9 56.9259 151.9 57.8259 152.7 59.1259C153 59.6259 153.2 60.1259 153.4 60.6259L158.5 70.8259C159 71.7259 159.5 72.6259 159.9 73.6259C161 76.5259 159.9 78.8259 156.9 79.5259C155.536 79.8359 154.095 79.9537 152.672 80.07L152.672 80.07C151.8 80.1413 150.936 80.2119 150.1 80.3259V79.9259ZM60.4274 82.6533L60.4276 82.6533C60.5963 82.6801 60.7546 82.7051 60.9 82.7259C64.3 82.7259 66.5 81.4259 66.8 79.1259C66.9 77.9259 66.6 76.7259 66.2 75.6259C64.9559 72.4378 63.5908 69.2497 62.2459 66.1087L62.2458 66.1085L62.2457 66.1083L62.2457 66.1082L62.2456 66.108L62.2455 66.1079L62.2455 66.1077C61.8609 65.2096 61.478 64.3153 61.1 63.4259C59.6 60.0259 56.9 59.6259 54.7 62.6259C53.6 64.1259 52.8 65.8259 52.2 67.5259C51.6783 68.917 51.2134 70.327 50.7476 71.7395L50.7475 71.7396C50.1419 73.5762 49.5348 75.4171 48.8 77.2259C47.6 80.3259 48.7 82.0259 52 82.0259C54.1 82.1259 56.1 82.2259 58.2 82.4259C58.9922 82.4259 59.7843 82.5514 60.4274 82.6533ZM2.3 56.7259C0.9 56.6259 0.1 55.9259 0 54.4259V53.9259C0.40073 52.3229 0.791957 50.72 1.18247 49.12C2.05881 45.5295 2.93156 41.9538 3.9 38.4259C4.06754 37.9232 4.37545 37.4206 4.64734 36.9767C4.7 36.8908 4.75132 36.807 4.8 36.7259C6.2 34.8259 8.3 34.6259 9.9 36.3259C10.2333 36.5925 10.4778 36.9481 10.7222 37.3036C10.8444 37.4814 10.9667 37.6592 11.1 37.8259L17.4 47.1259C17.7 47.5259 17.9 47.9259 18.1 48.3259C19.4 50.9259 18.6 53.2259 15.9 54.4259C15 54.8259 14.1 55.2259 13.2 55.3259C9.5 55.9259 5.9 56.3259 2.3 56.7259ZM88.9576 81.67H88.9577H88.9578H88.9579H88.958C89.4979 81.6779 90.041 81.686 90.6 81.7259V81.8259C91.2179 81.7609 91.8252 81.717 92.4254 81.6736H92.4256C93.6709 81.5836 94.8854 81.4958 96.1 81.2259C98.6 80.7259 99.7 78.9259 99.2 76.4259C99 75.5259 98.7 74.6259 98.4 73.7259C97.7006 71.8775 97.0012 70.0041 96.3018 68.1306L96.3 68.126C95.6 66.251 94.9 64.376 94.2 62.5259C94 61.9259 93.7 61.2259 93.3 60.6259C91.9 58.3259 89.3 58.2259 87.8 60.4259C87.1 61.5259 86.6 62.7259 86.2 63.9259C84.7 68.6259 84.1 73.4259 83.8 78.3259C83.7 80.2259 84.6 81.3259 86.5 81.5259C87.3408 81.646 88.1455 81.6579 88.9575 81.67H88.9576ZM23.4 81.7259C22.8667 81.7259 22.3333 81.737 21.8 81.7481C20.7333 81.7703 19.6667 81.7926 18.6 81.7259C16 81.5259 14.8 79.9259 15.6 77.4259C17.1 72.8259 18.8 68.2259 20.5 63.7259C20.5485 63.6289 20.5971 63.5259 20.647 63.4199C20.8029 63.0892 20.9728 62.7289 21.2 62.4259C22.6 60.3259 24.8 60.2259 26.4 62.1259C26.9 62.7259 27.3 63.4259 27.6 64.1259C27.8422 64.686 28.0844 65.2438 28.3259 65.8L28.326 65.8001C29.6799 68.9182 31.0119 71.986 32.2 75.1259C33.7 78.9259 32.1 81.3259 27.9 81.6259C26.4 81.9259 24.9 81.8259 23.4 81.7259ZM116.345 80.2531C116.986 80.3 117.635 80.3477 118.3 80.4259C119.5 80.4259 120.8 80.3259 122 80.0259C122.7 80.0259 123.5 79.8259 124.3 79.6259C126.8 78.9259 128 77.0259 127.1 74.7259C125.755 71.1116 124.198 67.4974 122.667 63.9425L122.664 63.9361C122.375 63.2638 122.086 62.5936 121.8 61.9259C121.1 60.3259 119.9 59.2259 118.1 59.3259C116.3 59.4259 115.3 60.7259 114.6 62.2259C114.55 62.3259 114.5 62.4509 114.45 62.5759C114.4 62.7009 114.35 62.8259 114.3 62.9259C113.82 64.6459 113.308 66.3659 112.796 68.086C112.028 70.6659 111.26 73.2459 110.6 75.8259C110 78.0259 111.1 79.5259 113.4 79.9259C114.374 80.1086 115.349 80.18 116.345 80.2531ZM71.3 51.4259C70.25 51.3259 69.225 51.2509 68.2 51.1759C67.175 51.1009 66.15 51.0259 65.1 50.9259C63.4 50.7259 62.9 50.0259 63 48.3259C63 47.8021 63.0762 47.3546 63.1621 46.8501L63.1622 46.8495C63.1747 46.7763 63.1873 46.7019 63.2 46.6259L63.3457 45.8719L63.3457 45.8716C63.8984 43.0088 64.4647 40.0751 65.2 37.2259C65.6 35.7259 66.1 34.1259 66.9 32.7259C68.1 30.7259 70.7 30.4259 71.9 32.4259C74.7 37.1259 77.2 42.0259 79.6 47.0259C80.5 49.0259 79.2 50.8259 76.9 51.1259C75.6963 51.2596 74.448 51.2145 73.2147 51.1699L73.2143 51.1699C72.6034 51.1479 71.9962 51.1259 71.4 51.1259C71.3 51.2259 71.3 51.3259 71.3 51.4259ZM100.621 51.6563C101 51.6761 101.392 51.6968 101.8 51.7259C102.266 51.6183 102.836 51.5235 103.467 51.4185C104.594 51.2309 105.918 51.0106 107.2 50.6259C110 49.8259 111 47.8259 110 45.0259C109.065 42.4556 108.07 39.946 107.061 37.4026C106.775 36.6805 106.487 35.9556 106.2 35.2259C105.9 34.5259 105.5 33.8259 105.1 33.1259C103.2 30.4259 100.4 30.4259 98.7 33.2259C98.6 33.4259 98.4938 33.6259 98.3875 33.8259C98.0687 34.4259 97.75 35.0259 97.6 35.6259L94.6 46.7259C94.2 47.9259 94.6 48.9259 95.4 49.8259C96.6816 51.4493 98.4012 51.5396 100.621 51.6563Z" fill="black"/>
</svg>
