<svg width="42" height="45" viewBox="0 0 42 45" fill="none" xmlns="http://www.w3.org/2000/svg">
<path d="M30 30.5C30.6 33.1 31.2 35.2 31.7 37.4C31.8 37.9 32 38.5 32.1 39C32.3 39.9 32.1 40.8 31.2 41.3C30.3 41.8 29.5 41.4 28.9 40.7C27.1 38.6 25.3 36.4 23.5 34.3C23.1 33.8 22.7 33.4 22 32.7C21.4 34.8 20.8 36.6 20.2 38.4C19.7 39.9 19.3 41.5 18.6 42.9C18.4 43.5 17.6 44.1 17.1 44.2C16.1 44.3 15.8 43.4 15.7 42.6C15.5 40.4 15.4 38.1 15.2 35.9C15.1 34.5 15 33.1 14.8 31.3C13.8 31.7 13.1 31.9 12.4 32.2C10.3 33 8.19999 33.9 6.19999 34.7C5.49999 35 4.79999 35.2 4.09999 35.3C2.99999 35.5 1.79999 35.5 1.09999 34.4C0.499988 33.5 0.799988 32.3 1.99999 31.2C3.99999 29.4 5.99999 27.8 8.09999 26.1C8.69999 25.6 9.29999 25.1 9.99999 24.5C7.89999 23.5 5.79999 22.5 3.89999 21.5C1.89999 20.5 1.29999 19.5 1.69999 18.3C2.09999 17.1 3.19999 16.5 5.29999 16.7C7.59999 16.9 9.89999 17.2 12.2 17.4C13.2 17.5 14.2 17.4 15.5 17.4C15.3 15.9 15.3 14.7 15.1 13.5C14.7 11.5 14.2 9.59997 13.8 7.59997C13.7 6.89997 13.6 6.19997 13.6 5.49997C13.7 4.49997 14.1 3.59997 15.2 3.29997C16.2 2.99997 17 3.39997 17.5 4.19997C19 6.09997 20.2 7.99997 21.5 9.79997C22 10.6 22.5 11.4 23.5 12.1C23.9 9.89997 24.2 7.79997 24.6 5.59997C24.8 4.69997 24.9 3.69997 25.2 2.79997C25.6 1.49997 26.4 0.899972 27.4 0.999972C28.5 1.19997 29 1.99997 29.2 2.99997C29.5 5.49997 29.7 7.89997 29.9 10.4C30 11 30 11.7 30 12.6C30.8 12.3 31.4 12 32 11.7C33.5 10.9 35 10.1 36.5 9.39997C38.3 8.49997 39.3 8.49997 40 9.49997C40.6 10.4 40.4 11.4 39.1 12.9C37.9 14.3 36.7 15.7 35.5 17.1C34.6 18.1 33.8 19.2 32.8 20.4C33.2 20.9 33.6 21.4 34.1 21.8C36.3 24.2 38.6 26.6 40.8 29C41.5 29.8 41.9 30.6 41.3 31.6C40.7 32.6 39.8 32.6 38.8 32.4C36 31.8 33.2 31.2 30 30.5Z" fill="black"/>
</svg>
