<svg width="218" height="202" viewBox="0 0 218 202" fill="none" xmlns="http://www.w3.org/2000/svg">
<path d="M128.805 75.2035C116.805 66.3035 111.705 53.8035 108.705 40.2035C107.005 32.6035 106.205 24.9035 107.205 17.1035C107.605 13.8035 108.205 10.6035 109.605 7.60352C110.505 5.80352 111.505 4.10352 112.905 2.60352C115.505 -0.196481 119.105 -0.696481 122.605 0.903519C124.805 1.90352 126.605 3.60352 128.105 5.40352C130.705 8.60352 132.605 12.2035 134.105 16.0035C138.105 26.0035 139.405 36.5035 139.205 47.3035C139.005 54.5035 138.205 61.7035 136.705 68.7035C136.605 69.2035 136.605 69.6035 136.505 70.2035C139.305 71.6035 142.305 71.9035 145.405 72.0035C158.305 72.6035 170.905 70.7035 183.105 66.5035C187.105 65.1035 191.005 63.5035 194.805 61.6035C202.205 58.1035 208.505 53.0035 213.505 46.6035C214.405 45.5035 215.305 44.4035 216.305 43.3035C216.405 43.2035 216.605 43.2035 217.105 43.2035C216.905 43.9035 216.805 44.4035 216.605 44.9035C212.705 53.2035 207.005 59.9035 199.405 65.1035C189.905 71.5035 179.405 75.5035 168.305 77.7035C159.205 79.5035 150.105 80.3035 140.905 79.2035C138.905 79.0035 136.805 78.5035 134.605 78.1035C134.405 78.6035 134.205 79.2035 134.005 79.8035C131.305 88.9035 128.105 97.7035 123.505 106.004C119.805 112.704 115.505 118.904 110.005 124.304C107.005 127.204 103.705 129.804 100.005 131.704C90.505 136.504 81.8049 135.004 74.6049 127.204C74.2049 126.804 73.8049 126.404 73.2049 125.804C72.8049 126.904 72.505 127.704 72.1049 128.604C69.505 135.804 66.6049 142.904 62.905 149.704C59.705 155.504 56.005 161.004 51.205 165.704C48.905 168.004 46.405 169.904 43.505 171.404C36.505 174.904 29.8049 174.404 23.4049 169.804C22.2049 169.004 21.2049 168.004 19.9049 167.004C19.5049 168.104 19.2049 168.904 18.9049 169.804C16.2049 177.804 12.905 185.704 8.80495 193.104C7.80495 195.004 6.60495 196.804 5.30495 198.504C4.70495 199.404 3.70495 200.004 2.80495 200.704C2.00495 201.204 1.10495 201.204 0.40495 200.404C-0.29505 199.604 0.0049504 198.804 0.60495 198.004C1.80495 196.304 2.90495 194.504 3.90495 192.704C8.90495 183.604 12.705 174.004 15.805 164.204C16.1049 163.304 16.305 162.404 15.605 161.504C9.10495 152.304 5.70495 141.904 3.60495 130.904C0.60495 115.604 0.0049504 100.104 1.80495 84.6035C2.40495 79.3035 3.40495 74.2035 5.60495 69.3035C6.40495 67.5035 7.40495 65.7035 8.60495 64.2035C11.605 60.5035 15.7049 60.3035 19.3049 63.5035C21.5049 65.5035 23.0049 67.9035 24.205 70.6035C26.705 75.8035 28.1049 81.4035 29.0049 87.1035C30.8049 98.0035 30.805 108.904 29.705 119.904C28.405 133.304 25.805 146.504 22.205 159.404C21.805 160.904 21.805 162.004 23.1049 163.004C24.705 164.304 26.2049 165.804 27.9049 166.904C31.7049 169.304 35.705 169.504 39.805 167.704C42.6049 166.504 44.905 164.704 47.005 162.604C50.705 159.104 53.6049 155.004 56.305 150.704C61.9049 141.504 66.005 131.604 69.405 121.404C69.705 120.504 69.805 119.804 69.305 118.904C64.805 109.804 62.805 100.004 61.805 90.0035C60.705 79.2035 60.805 68.4035 62.6049 57.7035C63.305 53.6035 64.205 49.5035 65.905 45.7035C66.6049 44.1035 67.505 42.5035 68.6049 41.2035C71.3049 38.0035 75.1049 38.1035 77.6049 41.4035C78.8049 43.0035 79.705 44.8035 80.405 46.7035C82.305 52.0035 82.905 57.6035 83.305 63.2035C84.305 81.1035 81.305 98.6035 76.305 115.704C76.105 116.304 76.005 116.904 75.7049 117.504C75.3049 118.504 75.505 119.404 76.1049 120.204C77.505 122.004 78.805 124.004 80.505 125.504C84.405 129.204 89.1049 130.104 94.1049 128.104C96.7049 127.104 99.2049 125.504 101.505 123.804C105.505 120.804 108.705 117.004 111.605 113.004C117.705 104.604 122.005 95.2035 125.405 85.4035C126.605 82.3035 127.605 78.8035 128.805 75.2035ZM18.0049 156.304C18.3049 155.704 18.4049 155.504 18.5049 155.204C18.705 154.704 18.8049 154.104 19.0049 153.604C22.705 140.504 25.205 127.104 26.0049 113.504C26.6049 103.604 26.405 93.7035 24.205 83.9035C23.205 79.5035 22.1049 75.2035 19.9049 71.2035C18.9049 69.5035 17.7049 67.9035 16.3049 66.5035C15.0049 65.2035 13.505 65.3035 12.405 66.9035C11.405 68.3035 10.505 69.9035 9.90495 71.5035C7.70495 77.0035 6.90495 82.8035 6.40495 88.7035C5.40495 101.604 6.10495 114.404 8.30495 127.204C9.90495 136.304 12.2049 145.204 16.4049 153.504C16.9049 154.204 17.3049 155.104 18.0049 156.304ZM130.605 66.7035C130.905 65.5035 131.105 64.7035 131.205 64.0035C131.605 61.2035 132.105 58.5035 132.405 55.7035C133.505 45.6035 133.205 35.6035 130.705 25.7035C129.405 20.6035 127.605 15.8035 124.705 11.4035C123.605 9.80352 122.305 8.40352 120.905 7.10352C119.005 5.50352 117.705 5.90352 116.405 8.00352C115.905 8.80352 115.505 9.70352 115.305 10.6035C114.805 12.9035 114.205 15.3035 114.005 17.7035C113.305 26.4035 114.505 34.9035 116.905 43.3035C119.005 50.5035 122.105 57.2035 127.005 63.0035C128.005 64.2035 129.205 65.3035 130.605 66.7035ZM73.505 44.5035C73.305 44.5035 73.005 44.5035 72.805 44.6035C72.305 45.5035 71.6049 46.3035 71.2049 47.2035C70.505 49.1035 69.7049 51.1035 69.2049 53.1035C66.8049 62.7035 66.405 72.5035 66.905 82.4035C67.305 91.4035 68.505 100.404 71.1049 109.104C71.3049 109.804 71.6049 110.504 71.905 111.204C72.505 110.404 72.905 109.604 73.005 108.804C74.2049 102.904 75.7049 97.1035 76.6049 91.2035C78.405 80.5035 79.005 69.7035 77.7049 59.0035C77.3049 55.4035 76.305 51.8035 75.305 48.3035C75.105 46.9035 74.2049 45.7035 73.505 44.5035Z" fill="black"/>
</svg>
