<svg width="48" height="69" viewBox="0 0 48 69" fill="none" xmlns="http://www.w3.org/2000/svg">
<path d="M21.188 62.0155C20.888 59.4155 20.788 56.7155 20.388 54.2155C19.688 50.0155 17.688 46.7155 13.888 44.6155C10.688 42.9155 7.488 41.4155 4.188 39.8155C3.188 39.3155 2.088 38.9155 1.088 38.4155C0.288 38.0155 -0.212 37.3155 0.088 36.4155C0.288 35.8155 0.988 35.4155 1.488 34.9155C1.588 34.8155 1.788 34.8155 1.988 34.8155C9.888 33.2155 15.188 28.1155 18.788 21.3155C21.988 15.4155 24.588 9.21554 27.488 3.21554C27.888 2.31554 28.288 1.41554 28.788 0.715542C29.088 0.315542 29.888 -0.0844582 30.388 0.0155418C30.888 0.115542 31.488 0.715542 31.588 1.31554C31.788 1.91554 31.688 2.71554 31.588 3.41554C31.388 4.81554 31.188 6.21554 30.888 7.71554C29.688 13.6155 30.888 19.3155 32.088 25.0155C32.688 27.5155 34.188 29.3155 36.388 30.5155C39.188 32.0155 42.088 33.0155 45.188 33.7155C46.188 33.9155 47.588 33.9155 47.688 35.4155C47.788 37.0155 46.388 37.4155 45.288 37.7155C40.488 38.9155 37.088 42.1155 33.988 45.8155C30.788 49.6155 28.288 53.9155 26.688 58.6155C25.788 61.2155 24.988 63.8155 24.088 66.3155C23.888 66.8155 23.888 67.3155 23.588 67.6155C23.188 68.1155 22.488 68.8155 22.088 68.7155C21.588 68.6155 21.188 67.8155 20.888 67.2155C20.688 66.8155 20.788 66.3155 20.788 65.8155C20.788 64.5155 20.788 63.2155 20.788 62.0155C20.988 62.0155 21.088 62.0155 21.188 62.0155Z" fill="black"/>
</svg>
