<svg width="190" height="176" viewBox="0 0 190 176" fill="none" xmlns="http://www.w3.org/2000/svg">
<path d="M49.5305 175.81C45.6588 175.81 41.7872 175.81 38.049 175.81C36.3135 175.81 34.5779 175.677 32.9758 175.276C28.9707 174.208 26.5676 171.271 26.7011 167.133C26.8346 162.326 27.2351 157.52 27.6356 152.714C27.9026 149.777 29.1042 147.374 31.9078 146.039C32.5753 145.638 33.2428 144.971 33.6434 144.303C37.6485 134.824 42.5882 125.879 47.2609 116.801C49.13 113.196 50.9991 109.592 52.3341 105.72C56.7398 93.5711 61.012 81.4221 65.2841 69.1397C67.9543 61.6633 71.6924 54.8546 76.4986 48.3128C79.1687 44.7082 81.1713 40.703 83.0404 36.6978C85.31 32.0251 87.8466 27.6195 91.7182 24.1483C93.1868 22.8133 94.3883 21.0777 95.7234 19.4756C98.3935 16.5385 101.598 15.337 105.469 16.138C107.872 16.672 109.608 18.2741 110.943 20.2767C118.419 31.4911 125.896 42.5721 133.238 53.92C137.377 60.3283 141.115 66.8701 145.12 73.2783C155.133 89.299 165.547 105.053 176.628 120.406C180.232 125.345 183.57 130.686 186.507 136.026C189.711 141.767 190.112 148.175 189.978 154.717C189.978 156.452 189.044 157.787 187.308 158.321C185.172 158.989 183.036 159.656 180.766 159.923C152.463 163.661 124.027 167.4 95.7234 171.004C87.3125 172.072 78.7682 173.14 70.2238 173.941C63.2816 174.609 56.3393 174.876 49.397 175.41C49.5305 175.677 49.5305 175.81 49.5305 175.81ZM47.6614 148.842C49.397 148.976 50.5985 149.243 51.8001 149.243C56.3393 149.109 61.012 149.109 65.5512 148.842C78.9017 148.175 92.2522 147.24 105.336 145.104C113.079 143.769 120.822 142.167 128.699 141.233C137.244 140.165 145.921 139.764 154.599 139.096C155.801 138.963 157.002 138.829 158.471 138.562C157.937 137.761 157.803 137.361 157.536 136.96C145.254 121.073 134.039 104.385 122.825 87.8304C120.422 84.3593 117.485 81.1551 114.948 77.8175C111.477 73.4118 108.006 68.8726 104.535 64.3335C104.134 63.7994 103.734 62.9984 103.467 62.3309C102.265 59.3938 102.399 56.5901 104.535 54.187C106.671 51.7839 109.341 51.2499 112.412 52.051C113.079 52.1845 113.613 52.318 114.815 52.585C110.809 46.1767 106.938 40.3025 102.799 34.6953C100.129 36.4308 98.6605 38.8339 97.4589 41.3705C94.7888 46.9778 92.3857 52.7185 88.3806 57.5247C84.5089 62.4644 81.5718 67.8046 79.4357 73.6788C76.7656 81.0216 74.3625 88.3644 71.6924 95.7072C68.7553 103.584 66.2187 111.728 62.7475 119.338C58.7424 128.016 54.0697 136.159 49.664 144.57C48.863 145.905 48.329 147.24 47.6614 148.842Z" fill="#4CA96D"/>
<path d="M0 163.928C0.934538 159.923 1.60207 155.785 2.93712 151.913C9.34538 133.489 16.9552 115.6 24.832 97.8433C35.7795 73.1448 48.062 49.1138 60.478 25.2163C63.8156 18.8081 67.4202 12.3998 71.9594 6.79259C73.5615 4.79001 75.4306 3.05444 77.2996 1.31887C79.1687 -0.416704 81.0378 -0.416704 83.0404 1.18536C84.1084 1.98639 85.043 2.92093 85.7105 3.85547C89.3151 8.79517 93.0533 13.6014 96.3909 18.6746C105.87 33.7607 115.215 48.9803 124.427 64.1999C127.765 69.8072 131.236 75.2809 134.44 81.0216C139.38 89.833 145.387 98.1103 151.262 106.388C157.803 115.466 162.743 125.345 166.882 135.759C167.683 137.895 168.217 140.298 168.35 142.568C168.751 146.306 167.015 149.243 163.678 150.978C161.809 151.913 159.806 152.714 157.67 153.115C150.995 154.45 144.186 155.251 137.377 155.117C117.618 154.717 98.26 157.253 78.6347 159.389C59.8104 161.525 40.8527 163.394 22.0284 165.397C16.6882 165.931 11.2145 166.866 5.87424 167.667C5.47372 167.667 5.07321 167.8 4.67269 167.934C0.801032 168.468 0.133505 167.934 0 163.928Z" fill="black"/>
<mask id="mask0" mask-type="alpha" maskUnits="userSpaceOnUse" x="0" y="0" width="169" height="169">
<path d="M0 163.928C0.934538 159.923 1.60207 155.785 2.93712 151.913C9.34538 133.489 16.9552 115.6 24.832 97.8433C35.7795 73.1448 48.062 49.1138 60.478 25.2163C63.8156 18.8081 67.4202 12.3998 71.9594 6.79259C73.5615 4.79001 75.4306 3.05444 77.2996 1.31887C79.1687 -0.416704 81.0378 -0.416704 83.0404 1.18536C84.1084 1.98639 85.043 2.92093 85.7105 3.85547C89.3151 8.79517 93.0533 13.6014 96.3909 18.6746C105.87 33.7607 115.215 48.9803 124.427 64.1999C127.765 69.8072 131.236 75.2809 134.44 81.0216C139.38 89.833 145.387 98.1103 151.262 106.388C157.803 115.466 162.743 125.345 166.882 135.759C167.683 137.895 168.217 140.298 168.35 142.568C168.751 146.306 167.015 149.243 163.678 150.978C161.809 151.913 159.806 152.714 157.67 153.115C150.995 154.45 144.186 155.251 137.377 155.117C117.618 154.717 98.26 157.253 78.6347 159.389C59.8104 161.525 40.8527 163.394 22.0284 165.397C16.6882 165.931 11.2145 166.866 5.87424 167.667C5.47372 167.667 5.07321 167.8 4.67269 167.934C0.801032 168.468 0.133505 167.934 0 163.928Z" fill="black"/>
</mask>
<g mask="url(#mask0)">
<path d="M25.8246 221.603C25.2006 219.556 25.7355 217.598 26.627 215.818C28.1426 212.881 29.6582 209.856 31.4412 207.008C37.9493 196.951 45.4381 187.607 53.1052 178.441C69.3309 158.951 86.4481 140.263 104.279 122.108C122.555 103.597 142.881 87.6673 164.724 73.6953C169.716 70.4916 174.62 67.1988 179.523 63.995C180.593 63.2831 181.574 62.5711 182.465 61.2362C180.86 60.7913 179.523 60.8803 178.186 61.1472C174.174 61.9482 170.073 62.6601 166.061 63.817C150.37 68.1777 135.393 74.4073 120.593 81.2598C83.1495 98.6135 49.0042 120.951 17.6226 147.649C11.382 152.989 5.05216 158.15 -1.18849 163.401C-2.08002 164.202 -3.06069 164.914 -4.04136 165.626C-4.66543 166.071 -5.4678 166.427 -6.18102 165.804C-6.98339 165.003 -6.44847 164.202 -5.91356 163.49C-5.2895 162.689 -4.66543 161.977 -3.95221 161.265C5.05216 151.298 14.5914 141.953 24.6656 133.143C62.1096 100.215 103.209 72.4494 147.428 49.4001C154.204 45.8403 160.979 42.1916 167.755 38.4539C169.984 37.208 172.123 35.6951 174.174 34.2712C174.887 33.7372 175.511 33.0253 176.403 32.0463C175.333 31.7793 174.709 31.4234 174.085 31.5124C170.697 31.6904 167.22 31.6904 163.921 32.2243C148.944 34.7161 134.501 39.0768 120.237 44.0605C80.6532 58.0325 43.7442 77.3441 9.06401 101.016C3.62572 104.754 -1.81256 108.581 -7.34 112.319C-8.67728 113.208 -10.1037 114.098 -11.5302 114.899C-11.9759 115.166 -12.5108 115.522 -13.0457 115.611C-13.5807 115.7 -14.4722 115.7 -14.5613 115.433C-14.7396 114.899 -14.7396 114.187 -14.4722 113.742C-14.1156 113.031 -13.4915 112.497 -12.9566 111.963C-9.21219 108.67 -5.55695 105.288 -1.63426 102.173C12.4518 90.9601 27.6077 81.3488 43.031 72.1824C69.0634 56.6976 96.2549 43.7045 124.16 32.0463C130.846 29.1985 137.532 26.3507 144.219 23.414C146.537 22.346 148.766 21.1001 150.994 19.8542C151.797 19.4092 152.51 18.6973 153.669 17.8074C151.886 17.3624 150.638 17.1844 149.3 17.2734C143.238 17.7184 137.265 18.8753 131.381 20.2992C109.628 25.6388 88.6769 33.3812 68.1719 42.5476C49.0042 51.091 30.4605 60.7913 12.6301 71.7375C9.68807 73.5173 7.01351 75.5642 4.24979 77.6111C3.71488 78.056 2.82335 78.323 3.00166 79.3909C3.00166 79.5689 2.37759 79.8359 2.02098 80.1029C1.75353 79.7469 1.30777 79.3019 1.39692 79.035C1.57522 78.412 1.93183 77.878 2.37759 77.4331C3.89318 76.0982 5.40877 74.7633 7.01351 73.6953C14.4131 68.5337 22.1694 64.173 30.1039 59.9013C56.7604 45.4844 84.3976 33.2032 113.461 24.2149C123.001 21.2781 132.629 18.6083 142.436 17.0064C145.021 16.5614 147.696 16.2945 150.281 16.0275C151.351 15.9385 152.599 16.1165 153.669 16.3835C155.006 16.7394 155.452 17.8963 154.56 19.0533C153.936 19.8542 153.223 20.5662 152.421 21.1001C150.192 22.435 147.874 23.8589 145.467 24.9268C134.947 29.5545 124.427 34.0932 113.907 38.6319C81.099 52.5149 49.5391 69.1567 19.6731 89.0912C10.4013 95.2318 1.39692 101.728 -7.07254 108.937C-7.60745 109.471 -8.23152 109.916 -8.58813 110.717C-7.87491 110.272 -7.25084 109.827 -6.53763 109.382C3.62572 102.529 13.6108 95.4098 23.9524 88.8242C57.4737 67.7328 92.9562 50.913 130.668 38.8988C141.188 35.5171 151.886 32.5803 162.762 30.8004C166.418 30.1775 170.073 29.9995 173.817 29.7325C174.62 29.6435 175.511 29.8215 176.314 30.1775C177.74 30.7114 178.275 31.9573 177.473 33.2032C176.938 34.0042 176.224 34.8051 175.422 35.3391C173.193 36.941 170.875 38.5429 168.468 39.9668C159.107 45.1284 149.746 50.201 140.296 55.2737C96.0766 79.2129 55.334 107.958 18.2467 141.864C15.1264 144.712 12.0952 147.738 8.97486 150.675C8.26164 151.387 7.45927 152.01 6.74605 152.633C6.8352 152.811 6.92435 152.9 7.10266 153.078C7.63757 152.633 8.17249 152.188 8.7074 151.832C18.3358 144.089 27.6968 136.08 37.5036 128.604C70.0441 103.686 105.438 83.7516 143.862 69.2457C153.312 65.6859 162.852 62.3042 172.837 60.2573C175.511 59.7233 178.186 59.5454 180.86 59.1894C181.306 59.1004 181.752 59.1894 182.108 59.2784C184.248 59.6343 184.872 61.1472 183.535 62.8381C182.643 63.906 181.484 64.885 180.415 65.6859C177.562 67.7328 174.709 69.6906 171.767 71.5595C161.693 78.145 151.708 84.8195 142.079 92.028C128.885 101.995 116.314 112.764 104.635 124.511C82.1688 147.204 60.6831 170.787 40.8022 195.795C36.7012 200.956 33.046 206.563 29.3907 211.991C27.4294 214.928 25.9138 217.954 25.8246 221.603Z" fill="#F7D046"/>
</g>
</svg>
