<svg width="138" height="140" viewBox="0 0 138 140" fill="none" xmlns="http://www.w3.org/2000/svg">
<path d="M138 67.6001C137.4 103.4 111.5 133.5 76.6 138.6C40.8 143.8 7.70001 119.2 1.90001 83.5001C-2.59999 56.1001 9.90001 28.3001 31.1 13.8001C43.5 5.10008 57.4 0.800076 72.6 1.20008C74.3 1.30008 75.9 0.900076 77.6 1.00008C79.7 1.10008 81.9 1.10008 84 1.50008C110.6 6.70008 131.2 27.3001 136.2 54.0001C137.1 58.5001 137.4 63.1001 138 67.6001Z" fill="#EA552B"/>
<path fill-rule="evenodd" clip-rule="evenodd" d="M65.9001 13.0001C69.2001 12.9001 70 14.0001 69.2001 16.4001C69.104 16.6402 69.0137 16.8919 68.9223 17.1468C68.6329 17.9533 68.332 18.7922 67.8 19.4001C65.5 22.2001 63.1 24.9001 60.7001 27.5001C60.198 28.0857 59.416 28.4614 58.7054 28.8028L58.7053 28.8028C58.5666 28.8695 58.4307 28.9348 58.3 29.0001C56.7 29.6001 55.1 29.4001 53.8 28.2001C52.4 27.0001 52 25.3001 52.6 23.6001C53 22.4001 53.6 21.1001 54.5 20.3001C57 18.1001 59.7001 16.1001 62.4001 14.2001C63.3601 13.6401 64.5761 13.3361 65.3825 13.1345C65.5841 13.0841 65.7601 13.0401 65.9001 13.0001ZM83.8 28.5001C82.7 32.0001 85.1 35.3001 89.1 35.4001C91.4 35.4001 93.2 33.7001 94.7 31.6001C94.9657 31.2118 95.2314 30.8276 95.4954 30.4459L95.4956 30.4457C96.5232 28.96 97.5249 27.5117 98.4 26.0001C99.1 24.9001 99.7 23.6001 100 22.3001C100.6 20.1001 99.3 18.8001 97 19.1001C95.8 19.2001 94.6 19.6001 93.6 20.2001C91.4 21.4001 89.2 22.8001 87.1 24.2001C85.5 25.2001 84.3 26.7001 83.8 28.5001ZM40.7 26.4001C40.5272 26.8494 40.3902 27.239 40.2684 27.5853L40.2684 27.5854L40.2684 27.5854C40.0379 28.2412 39.8617 28.742 39.6 29.2001C39.175 29.8251 38.7563 30.4563 38.3375 31.0876L38.3375 31.0876L38.3374 31.0877C37.0812 32.9814 35.825 34.8751 34.4 36.6001C31.8 39.8001 29.1 42.8001 26.4 45.8L26.4 45.8001C25.6 46.7001 24.7 47.5001 23.6 48.1001C21.9 49.0001 20.2 48.9001 18.7 47.7001C17.2 46.4001 16.8 44.7001 17.4 42.9001C17.7 41.9001 18.3 40.8001 19.1 40.1001C19.6546 39.5948 20.2061 39.088 20.7569 38.5819C24.675 34.9816 28.5532 31.418 33.2 28.7001C34.4 28.0001 35.8 27.4001 37.1 26.9001C37.7081 26.6974 38.4076 26.6316 39.2909 26.5486C39.7148 26.5088 40.1811 26.4649 40.7 26.4001ZM61.3 54.1001C57.9 54.0001 55.4 50.8001 56.3 47.5001C56.6 46.3001 57.3 45.0001 58.1 44.2001C61.2 41.1001 64.4 38.1001 67.8 35.3001C69.2 34.1001 71.2 33.5001 73 33.0001C75.7 32.3001 76.8 33.6001 75.9 36.3001C75.8 36.5501 75.7 36.825 75.6 37.1L75.6 37.1001C75.5 37.3751 75.4 37.6501 75.3 37.9001C72.9 43.0001 69.6 47.6001 66 52.0001C64.8 53.4001 63.2 54.1001 61.3 54.1001ZM59 106.5C58.9 108.4 58.2 110.4 57.1 112.3C54.7 116.4 51.6 119.9 48.3 123.3C46.7 124.9 44.8 125.5 42.6 124.8C40 124 38.4 121.3 39.1 118.5C39.4 117.3 40 116.1 40.9 115.2C43.4 112.4 46 109.7 48.8 107.1C49.9886 105.996 51.4656 105.181 52.8636 104.409L52.8647 104.409L52.867 104.407C53.1145 104.271 53.3595 104.135 53.6 104C54.3 103.6 55.1 103.4 55.9 103.3C58.1 103 59.1 103.9 59 106.5ZM77.8712 91.0122C77.7196 91.4102 77.5676 91.809 77.4 92.2001C77.6 95.9001 80.8 98.3001 84.2 97.1001C85.5 96.7001 86.8 96.0001 87.6 95.0001C90.4 91.6001 93.1 88.0001 95.6 84.3001C96.5 83.0001 96.9 81.3001 97.1 79.8001C97.4 77.5001 96.1 76.3001 93.8 76.8001C92.7 77.0001 91.5 77.4001 90.5 78.0001C86.2 80.7001 82.4 84.0001 79.3 88.1001C78.6514 88.9649 78.2625 89.9855 77.8712 91.0122ZM72.2 121.8C72.4 121.4 72.5667 120.978 72.7333 120.556C73.0667 119.711 73.4 118.867 74 118.2C75.5 116.4 77.2 114.7 79.1 113.1C81.4 111.2 83.8 109.5 86.2 107.8C87.6 106.9 89.1 106 90.6 105.5C91.4 105.2 92.6 105.4 93.3 105.9C94.3 106.5 94.2 107.7 93.7 108.7C93 110.1 92.3 111.4 91.5 112.6C89.7 115.1 87.8 117.7 85.8 120C84.3 121.8 82.6 123.4 80.9 124.9C80.1 125.6 79 126.1 77.9 126.4C74.8 127.3 72.3 125.1 72.2 121.8ZM121.26 93.8227C121.274 93.7788 121.287 93.7378 121.3 93.7001C121.5 90.1001 119.7 88.4001 116.9 88.9001C115.5 89.3001 114 90.0001 112.9 90.9001C110.1 93.3001 107.5 95.9001 104.9 98.5001C104 99.4001 103.4 100.6 103 101.8C101.8 105.8 105.2 109.4 109.2 108.2C110.5 107.9 111.7 107.1 112.7 106.2C115.7 103.5 118.1 100.3 120.1 96.8001C120.606 95.873 120.969 94.7327 121.191 94.038L121.191 94.0379C121.216 93.9603 121.239 93.8882 121.26 93.8227ZM83.7 59.2001C83.1 61.7001 85 63.9001 88.1 63.9001C88.3 63.8001 88.5667 63.7001 88.863 63.589C89.4556 63.3667 90.1667 63.1001 90.7 62.7001C92 61.5001 93.2 60.2001 94.2 58.8001C95.8 56.6001 97.3 54.3001 98.7 52.0001C99.6296 50.4269 100.457 48.8027 101.292 47.1638L101.292 47.1627C101.625 46.51 101.958 45.8551 102.3 45.2001C102.6 44.6001 102.9 44.0001 103 43.4001C103.4 42.0001 102.7 41.3001 101.4 41.8001C100.6 42.1001 99.8 42.5001 99.1 43.0001C94.4259 46.0245 90.5917 50.0569 86.7507 54.0965L86.7472 54.1002L86.7464 54.101L86.7456 54.1018L86.7448 54.1026C86.3968 54.4686 86.0488 54.8347 85.7 55.2001C84.7 56.2001 84 57.8001 83.7 59.2001ZM74.1 65.0001C74.9 66.2001 74.6 67.3001 74.1 68.2001C73.3 69.9001 72.3 71.6001 71.2 73.1001C70.8956 73.5397 70.5912 73.9823 70.2859 74.4262L70.285 74.4275C68.7849 76.6084 67.2615 78.8232 65.6 80.9001C64.5 82.3001 63.2 83.7001 61.8 84.8001C60 86.1001 58 86.0001 56.5 84.8001C54.9 83.6001 54.3 81.5001 55.2 79.4001C55.9 77.9001 56.9 76.3001 58.2 75.2001C61.2115 72.565 64.3116 70.1956 67.5002 67.7585L68.1 67.3001C69.2 66.5001 70.4 65.9001 71.7 65.4001C72.2645 65.1178 72.8788 65.0845 73.4375 65.0542H73.4375C73.6706 65.0416 73.894 65.0295 74.1 65.0001ZM53.476 62.6072C53.5486 62.3349 53.6208 62.064 53.7 61.8001C53.6 61.7001 53.5 61.6251 53.4 61.5501C53.3 61.4751 53.2 61.4001 53.1 61.3001C52.7665 61.3716 52.4329 61.4374 52.1007 61.5029C51.0386 61.7124 49.9903 61.9192 49 62.3001C43.5 64.2001 39 67.7001 34.8 71.7001C34.2 72.3001 33.7 73.1001 33.4 73.9001C32.7 75.7001 32.9 77.4001 34.3 78.8001C35.7 80.2001 37.4 80.4001 39.2 79.7001C40 79.4001 40.8 78.9001 41.4 78.3001C43.8 76.1001 46.1 73.9001 48.2 71.5001C49.7292 69.7011 51.0156 67.5785 52.2776 65.4961C52.4186 65.2634 52.5593 65.0313 52.7 64.8001C53.0681 64.1376 53.2736 63.3667 53.476 62.6072ZM27.3791 62.9685L27.3791 62.9686C27.0416 64.3338 26.7074 65.6853 26.1 66.9001C24.7 69.9001 23.2 72.8001 21.4 75.5001C20.5 76.8001 19.1 78.0001 17.7 78.8001C15.9 79.8001 14 79.5001 12.4 78.1001C10.8 76.6001 10.6 74.8001 11.3 72.8001C11.3387 72.7099 11.3773 72.618 11.4164 72.5251L11.4165 72.5249C11.6807 71.8971 11.9645 71.2227 12.4 70.7001C12.8122 70.2348 13.2208 69.7677 13.6287 69.3014C16.2888 66.2605 18.9185 63.2544 22.3 61.0001C23.3 60.3001 24.5 59.7001 25.7 59.3001C27.1 58.9001 27.7 59.6001 27.9 61.0001C27.705 61.6502 27.5417 62.3109 27.3791 62.9683L27.3791 62.9684L27.3791 62.9684L27.3791 62.9685L27.3791 62.9685ZM128.3 60.8001C128.6 59.0001 127.5 57.9001 125.3 58.0001C125.095 58.0682 124.844 58.1248 124.575 58.1856C124.053 58.3031 123.461 58.4364 123 58.7001L122.495 59.0789L122.495 59.079L122.494 59.0791C119.474 61.3436 116.547 63.5372 113.8 66.0001C112.4 67.2001 111.8 69.0001 111.8 70.8001C111.7 74.9001 115.5 77.3001 119 75.2001C120.3 74.4001 121.5 73.3001 122.3 72.1001C124 69.6001 125.6 67.0001 127.1 64.4001C127.7 63.3001 128.1 62.0001 128.3 60.8001ZM46.7 87.4001C47.4 88.9001 47 90.3001 46.4 91.5001C45.3 93.7001 44.1 95.9001 42.6 97.9001C40.7 100.5 38.6001 102.9 36.5001 105.3L36.5001 105.3L36.5 105.3C35.9 106 35.1 106.7 34.3 107.1C31.8 108.5 29 107 28.6 104.2C28.3 102.5 28.9 101 30 99.8001C34.5 94.8001 39.7 90.5001 45.8 87.6001C45.9162 87.542 46.0662 87.5176 46.25 87.4878H46.25L46.2503 87.4878C46.3827 87.4663 46.5326 87.4419 46.7 87.4001ZM52.2741 34.4038C52.3667 34.0334 52.4667 33.6334 52.6 33.2001C52.3364 33.2586 52.1243 33.3086 51.9485 33.3501C51.5243 33.4501 51.3121 33.5001 51.1 33.5001C50.8833 33.6239 50.6762 33.7381 50.4757 33.8487C50.0285 34.0954 49.6143 34.3239 49.2 34.6001C45.0443 37.289 41.619 40.7084 38.1666 44.1548C37.3821 44.9379 36.5962 45.7224 35.8 46.5001C34.6 47.7001 33.9 49.1001 33.8 50.8001C33.7 52.4001 34.2 53.7001 35.6 54.5001C37 55.4001 38.5 55.3001 39.7 54.4001C40.9 53.5001 41.9 52.3001 42.8 51.1001C44.4 48.9001 45.8 46.6001 47.2 44.3001C47.5966 43.5862 47.9931 42.8794 48.3879 42.1759C49.4862 40.2183 50.5701 38.2862 51.6 36.3001C51.9333 35.7667 52.0889 35.1445 52.2741 34.4038Z" fill="#FBE8DE"/>
</svg>
