<svg width="289" height="281" viewBox="0 0 289 281" fill="none" xmlns="http://www.w3.org/2000/svg">
<path d="M151.087 189.18C152.187 189.88 152.887 190.38 153.587 190.88C159.887 196.28 166.287 201.68 172.587 207.08C174.387 208.58 176.087 210.08 177.787 211.78C178.787 212.78 179.687 213.98 180.487 215.18C182.287 218.08 181.787 220.38 178.987 222.48C177.987 223.18 176.987 223.78 175.887 224.28C169.987 227.38 163.887 229.88 157.587 231.98C156.687 232.28 155.787 232.58 154.687 232.98C155.087 233.58 155.387 234.08 155.787 234.58C167.887 247.18 178.787 260.78 190.187 273.98C190.687 274.58 191.187 275.18 191.687 275.88C192.287 276.98 192.287 278.08 191.487 279.08C190.787 280.08 189.687 280.48 188.487 280.28C187.587 280.08 186.687 279.68 185.787 279.28C184.187 278.48 182.487 277.58 180.887 276.68C180.087 276.28 179.287 275.88 178.587 275.48C174.887 273.28 171.187 271.08 167.487 268.78C165.087 267.28 162.587 265.68 160.387 263.88C148.987 254.78 137.687 245.68 127.087 235.68C121.887 230.68 116.187 226.28 110.687 221.68C110.187 221.18 109.587 220.78 109.087 220.28C107.587 218.48 108.187 216.28 110.487 215.58C111.187 215.38 111.887 215.28 112.587 215.28C117.287 215.18 121.987 215.08 126.687 215.08C127.487 215.08 128.187 215.08 129.487 215.08C127.187 212.28 125.287 209.78 123.187 207.38C120.487 204.28 117.787 201.28 115.087 198.18C114.487 197.48 113.787 197.38 112.987 197.38C97.9869 198.08 83.2869 196.28 68.7869 192.68C53.7869 188.98 40.6869 181.38 28.9869 171.38C21.9869 165.38 17.7869 157.68 15.6869 148.88C15.0869 146.38 14.9869 143.78 14.6869 141.28C12.8869 127.68 15.4869 114.88 21.4869 102.68C26.1869 93.2805 32.0869 84.8805 38.9869 76.9805C49.0869 65.2805 60.6869 55.2805 73.1869 46.1805C93.9869 30.9805 116.187 18.4805 140.487 9.88047C153.387 5.28047 166.487 1.98047 180.087 0.68047C196.387 -0.91953 212.487 0.18047 228.187 5.28047C243.787 10.3805 255.587 20.1805 263.687 34.3805C268.487 42.6805 271.787 51.5805 273.187 61.0805C274.987 74.1805 272.787 86.6805 267.087 98.6805C262.987 107.18 257.687 114.88 251.887 122.18C228.187 152.28 198.087 173.38 161.787 185.68C158.987 186.58 156.187 187.58 153.387 188.48C152.887 188.48 152.387 188.68 151.087 189.18Z" fill="black"/>
<path d="M82.4869 17.7805C81.5869 18.8805 80.9869 19.6805 80.2869 20.3805C75.2869 25.3805 70.2869 30.4805 65.1869 35.4805C57.0869 43.3805 48.7869 50.9805 40.7869 58.9805C31.1869 68.4805 23.0869 79.1805 16.6869 91.1805C10.2869 102.98 6.38687 115.68 5.78687 129.28C5.28687 139.48 6.48687 149.58 9.98687 159.28C10.8869 161.78 12.1869 164.28 13.3869 166.68C14.1869 168.38 14.9869 169.98 15.6869 171.68C16.2869 173.08 15.8869 174.08 14.9869 174.68C13.9869 175.28 12.8869 174.98 11.8869 173.78C11.4869 173.28 11.0869 172.78 10.7869 172.18C5.48687 164.58 2.68687 156.08 1.18687 147.08C-2.31313 125.78 2.08687 105.88 12.2869 87.1805C18.2869 76.1805 25.6869 66.2805 34.2869 57.3805C45.2869 45.9805 57.1869 35.4805 69.2869 25.2805C72.0869 22.9805 75.0869 21.0805 78.0869 19.0805C79.1869 18.2805 80.4869 17.6805 82.4869 17.7805Z" fill="black"/>
<path d="M288.187 61.3805C288.087 72.6805 285.487 83.4805 281.487 93.8805C276.487 106.98 269.587 118.98 260.487 129.68C256.787 133.98 252.887 138.18 249.087 142.28C248.487 142.98 247.687 143.68 246.987 144.18C245.687 145.18 244.587 145.28 243.787 144.58C242.987 143.78 242.987 142.68 243.987 141.38C244.387 140.78 244.887 140.28 245.387 139.78C249.487 134.98 253.687 130.18 257.587 125.28C268.887 110.98 276.687 94.8805 280.587 76.9805C282.887 66.2805 282.587 55.4805 280.287 44.8805C278.987 38.9805 276.087 33.6805 273.187 28.4805C269.787 22.2805 265.687 16.5805 260.787 11.4805C259.587 10.1805 258.487 8.88048 257.387 7.48048C256.887 6.88048 256.487 6.18048 256.087 5.48048C255.687 4.68048 255.087 3.88048 255.887 3.08048C256.587 2.38048 257.487 2.78048 258.087 3.18048C259.687 4.18048 261.187 5.08048 262.587 6.28048C269.987 12.3805 275.687 19.8805 279.887 28.3805C282.687 33.9805 285.687 39.6805 286.587 45.9805C287.187 51.0805 287.587 56.1805 288.187 61.3805Z" fill="black"/>
</svg>
