<svg width="224" height="240" viewBox="0 0 224 240" fill="none" xmlns="http://www.w3.org/2000/svg">
<path d="M99.0633 239.018C93.8521 238.728 89.2199 236.991 85.4563 233.228C83.1402 230.912 80.9689 228.306 79.087 225.411C72.573 215.423 65.7695 205.724 57.5184 197.039C57.3737 196.894 57.3737 196.894 57.2289 196.749C42.0295 177.497 26.2511 158.678 12.2098 138.557C7.28812 131.464 3.95874 123.792 1.06362 115.541C-0.818204 110.04 -0.239181 104.684 3.0902 99.9075C5.11679 97.0124 7.57764 94.2621 10.328 92.0907C29.291 76.8913 46.8065 60.0997 64.7562 43.5975C77.0605 32.4513 89.6542 21.7394 102.248 11.0274C105.288 8.42183 108.617 5.96098 112.091 3.9344C121.645 -1.85584 131.199 -1.27681 139.74 5.81622C143.503 8.8561 146.833 12.475 149.728 16.3834C161.308 31.5828 171.731 47.5059 181.429 64.0081C187.22 73.8515 193.299 83.6949 199.379 93.2488C206.038 103.671 212.118 114.528 217.329 125.674C219.645 130.596 221.672 135.662 222.685 141.018C223.843 147.243 222.685 153.033 218.776 158.099C216.171 161.284 213.276 164.469 210.091 166.93C202.419 173.009 194.313 178.655 186.351 184.59C177.376 191.104 168.257 197.473 159.427 204.132C146.398 214.12 132.502 222.95 118.605 231.78C114.697 234.241 110.354 235.833 106.012 237.57C103.985 238.439 101.379 238.584 99.0633 239.018Z" fill="#55BBDA"/>
<mask id="mask0" mask-type="alpha" maskUnits="userSpaceOnUse" x="0" y="0" width="224" height="240">
<path d="M99.0633 239.018C93.8521 238.728 89.2199 236.991 85.4563 233.228C83.1402 230.912 80.9689 228.306 79.087 225.411C72.573 215.423 65.7695 205.724 57.5184 197.039C57.3737 196.894 57.3737 196.894 57.2289 196.749C42.0295 177.497 26.2511 158.678 12.2098 138.557C7.28812 131.464 3.95874 123.792 1.06362 115.541C-0.818204 110.04 -0.239181 104.684 3.0902 99.9075C5.11679 97.0124 7.57764 94.2621 10.328 92.0907C29.291 76.8913 46.8065 60.0997 64.7562 43.5975C77.0605 32.4513 89.6542 21.7394 102.248 11.0274C105.288 8.42183 108.617 5.96098 112.091 3.9344C121.645 -1.85584 131.199 -1.27681 139.74 5.81622C143.503 8.8561 146.833 12.475 149.728 16.3834C161.308 31.5828 171.731 47.5059 181.429 64.0081C187.22 73.8515 193.299 83.6949 199.379 93.2488C206.038 103.671 212.118 114.528 217.329 125.674C219.645 130.596 221.672 135.662 222.685 141.018C223.843 147.243 222.685 153.033 218.776 158.099C216.171 161.284 213.276 164.469 210.091 166.93C202.419 173.009 194.313 178.655 186.351 184.59C177.376 191.104 168.257 197.473 159.427 204.132C146.398 214.12 132.502 222.95 118.605 231.78C114.697 234.241 110.354 235.833 106.012 237.57C103.985 238.439 101.379 238.584 99.0633 239.018Z" fill="#55BBDA"/>
</mask>
<g mask="url(#mask0)">
<path d="M236.292 248.572C234.41 247.993 232.963 246.545 231.66 244.953C229.054 241.768 227.462 238.005 226.159 234.241C222.974 224.832 221.237 214.988 220.079 205.145C219.211 197.473 218.632 189.656 217.763 181.984C217.763 181.405 217.618 180.971 217.329 179.668C216.171 181.405 215.592 182.418 214.868 183.432C206.617 196.315 197.642 208.619 186.496 219.331C182.443 223.24 177.955 226.858 173.323 230.043C170.573 231.925 167.243 233.372 163.914 234.241C156.531 236.268 150.307 233.228 146.978 226.424C144.661 221.792 143.793 216.726 143.793 211.659C143.793 205.724 144.227 199.934 144.517 193.999C144.517 193.275 144.661 192.551 144.806 190.959C143.648 192.407 142.924 193.275 142.201 194.144C136.266 202.105 129.896 209.777 122.803 216.726C118.026 221.358 113.105 225.7 107.314 229.03C103.985 231.056 100.511 232.504 96.7473 233.228C90.378 234.241 85.022 231.635 82.1269 225.845C80.1003 221.792 79.3766 217.305 79.0871 212.817C78.3633 201.526 79.8108 190.38 81.4031 179.234C81.9822 175.615 82.5612 171.996 82.706 168.088C81.9822 169.101 81.2584 170.114 80.6794 171.127C74.0206 181.839 67.2171 192.117 58.8212 201.526C55.2023 205.579 51.2939 209.343 47.096 212.817C44.6352 214.844 41.5953 216.436 38.7002 217.449C32.4757 219.621 26.9749 217.594 23.356 212.093C21.04 208.619 20.0267 204.711 19.3029 200.802C17.8553 192.117 17.7106 183.432 18.5791 174.891C19.4476 165.048 20.7504 155.06 21.7637 145.216C21.9085 144.058 22.0532 142.9 21.619 141.452C20.8952 142.321 20.1714 143.19 19.4476 144.203C11.9203 154.481 3.66925 164.179 -6.02939 172.575C-9.64829 175.615 -13.5567 178.365 -17.4651 180.971C-18.6232 181.695 -20.0707 182.708 -21.663 180.971C-21.2288 180.392 -20.9392 179.813 -20.3602 179.523C-13.8462 175.325 -8.20073 169.825 -2.84476 164.324C6.70912 154.481 15.105 143.769 22.6323 132.333C23.6456 130.741 24.3693 128.859 24.8036 126.977C31.0281 95.7096 39.2792 65.0214 51.873 35.6359C55.6366 26.9506 59.6898 18.5547 65.0457 10.8827C67.2171 7.69805 69.6779 4.80293 72.2835 2.05257C73.8758 0.0259859 76.0472 -1.56633 78.508 -0.408282C81.1136 0.894521 81.2584 3.64488 80.8241 5.96098C79.5213 12.6197 78.3633 19.4233 76.3367 25.9373C65.7695 61.4025 50.7149 94.8411 31.1729 126.253C29.1463 129.438 27.8435 132.767 27.2645 136.531C24.9484 150.283 22.777 164.179 22.198 178.22C21.9085 185.893 21.7637 193.565 23.5008 201.092C24.0798 203.553 24.9484 206.014 26.1064 208.185C28.8568 213.396 33.3442 215.133 38.5554 212.383C41.5953 210.935 44.6352 208.909 47.096 206.448C52.1625 201.381 56.9394 196.025 61.4268 190.38C71.1255 177.931 79.0871 164.324 86.4696 150.427C87.0486 149.269 87.6276 147.822 87.9172 146.519C94.1417 119.16 102.827 92.3802 111.223 65.6004C117.447 45.9136 123.817 26.082 131.778 6.97427C133.371 3.06586 135.252 -0.84255 137.279 -4.6062C137.858 -5.76425 138.726 -6.9223 139.885 -7.79083C141.622 -9.23839 143.938 -8.51461 144.372 -6.19852C144.661 -4.6062 144.661 -3.01389 144.661 -1.42157C143.938 8.56658 141.477 18.2652 139.161 27.9639C129.028 70.9564 112.67 111.778 92.2598 150.862C90.957 153.322 89.9438 155.928 89.5095 158.678C87.3381 170.114 85.3116 181.405 83.5745 192.841C82.5612 199.934 82.1269 207.172 83.1402 214.265C83.5745 217.015 84.1535 219.765 85.1668 222.371C87.3381 227.872 91.5361 229.898 97.1815 228.451C100.077 227.727 102.972 226.424 105.433 224.832C109.631 221.937 113.684 218.897 117.447 215.567C128.449 205.579 137.424 193.999 145.675 181.839C146.399 180.826 146.833 179.523 147.122 178.365C154.071 142.755 164.204 108.014 176.073 73.7067C182.443 55.178 189.246 36.9387 197.208 18.989C198.8 15.5149 200.537 12.0407 202.419 8.71134C203.432 6.82951 204.735 4.94768 207.341 5.67146C209.946 6.39524 210.091 8.71134 209.946 10.7379C209.512 17.2519 209.223 23.7659 208.209 30.1352C201.695 73.2725 188.378 114.238 168.112 152.888C163.48 161.863 157.979 170.259 153.057 179.089C152.334 180.537 151.465 181.984 151.175 183.432C149.583 192.841 148.136 202.25 148.859 211.804C149.149 215.278 149.728 218.897 150.886 222.371C153.202 229.03 157.979 231.201 164.638 228.74C167.533 227.727 170.428 226.279 172.889 224.398C177.521 220.779 182.008 217.015 186.206 212.817C198.076 200.658 207.775 186.906 216.316 172.141C217.184 170.548 217.474 168.956 217.474 167.219C217.329 148.98 221.382 131.609 228.041 114.817C229.488 111.343 231.37 107.869 233.397 104.684C234.41 102.947 236.002 101.5 237.739 100.342C240.635 98.46 243.819 99.618 244.543 102.947C245.122 105.698 245.267 108.738 244.977 111.488C244.253 119.305 242.082 126.977 239.477 134.359C235.279 146.808 229.633 158.534 223.409 170.114C222.685 171.417 221.961 173.154 221.961 174.602C222.685 194.578 223.988 214.409 228.909 233.807C229.488 236.412 230.357 239.018 231.515 241.334C232.528 243.65 234.41 245.966 236.292 248.572ZM205.314 12.6197C193.444 29.8457 153.926 150.862 154.36 167.074C163.769 154.77 182.587 111.488 191.707 80.7998C198.366 58.5074 203.288 35.9254 205.314 12.6197ZM77.6395 3.50013C77.35 3.35537 76.9157 3.21061 76.6262 3.06586C75.7577 3.93439 74.5996 4.51342 73.8758 5.52671C71.7045 8.27707 69.3884 10.8827 67.6513 13.9225C64.1772 19.8575 60.8478 25.7925 58.0975 32.017C47.8198 54.4542 40.4372 78.1942 34.5022 102.368C33.1994 107.435 32.1862 112.357 31.0281 117.423C31.1729 117.568 31.4624 117.568 31.6071 117.713C32.3309 116.554 33.0547 115.396 33.7785 114.238C47.096 91.5117 58.0975 67.7717 67.0723 43.0185C71.1255 31.8723 75.0339 20.8708 77.0605 9.14561C77.4947 7.40853 77.4947 5.38195 77.6395 3.50013ZM96.892 129.727C98.9186 125.529 100.8 121.331 102.827 117.278C118.895 82.5368 131.199 46.4926 139.016 9.00085C139.74 5.81622 140.174 2.63159 140.753 -0.553038C133.805 7.69805 101.09 105.408 96.892 129.727ZM240.345 104.54C232.528 108.738 221.961 145.506 222.395 158.968C222.685 158.678 222.974 158.534 223.119 158.244C230.067 144.203 235.858 129.872 239.042 114.528C239.766 111.343 239.911 108.303 240.345 104.54Z" fill="black"/>
</g>
</svg>
