<svg width="654" height="383" viewBox="0 0 654 383" fill="none" xmlns="http://www.w3.org/2000/svg">
<path d="M331.946 92.3741C361.49 82.8703 390.84 73.2744 420.536 64.1983C445.138 56.6057 470.043 49.8685 495.26 44.4647C512.564 40.7413 529.927 37.6387 547.679 37.4468C555.191 37.3527 562.905 37.8289 570.485 38.8338C582.96 40.5116 594.204 45.5134 604.015 53.269C612.902 60.2289 618.669 69.2569 620.41 80.5136C621.651 88.0963 620.156 95.2045 616.982 102.105C612.61 111.516 606.734 119.855 599.649 127.5C585.337 142.839 569.503 156.15 552.006 167.483C528.36 182.759 504.025 196.996 479 210.194C454.546 223.189 430.042 236.042 405.193 248.375C387.835 256.931 369.88 264.255 352.27 272.098C346.716 274.547 341.162 276.996 335.751 279.394C329.341 282.146 322.981 285.041 316.429 287.844C298.575 295.453 280.579 303.112 262.675 310.578C244.577 317.952 226.218 324.135 207.364 329.37C189.415 334.445 171.407 338.9 152.944 342.071C134.96 345.233 116.765 347.347 98.425 346.785C89.4688 346.428 80.5958 345.399 71.8389 342.886C65.055 340.957 58.6397 338.256 52.8188 334.06C41.6138 325.996 35.8618 315.198 35.7471 301.279C35.7806 292.764 37.5939 284.741 40.7504 276.884C45.5476 264.594 52.5703 253.603 60.8529 243.448C71.8934 229.749 84.6899 217.835 98.36 206.574C117.213 190.91 137.789 177.844 159.004 165.676C185.714 150.437 213.567 137.521 242.068 125.98C271.904 114.126 302 103.464 331.946 92.3741Z" fill="#EE8DB9"/>
<mask id="mask0" mask-type="alpha" maskUnits="userSpaceOnUse" x="0" y="0" width="654" height="383">
<path d="M331.946 92.3741C361.49 82.8703 390.84 73.2744 420.536 64.1983C445.138 56.6057 470.043 49.8685 495.26 44.4647C512.564 40.7413 529.927 37.6387 547.679 37.4468C555.191 37.3527 562.905 37.8289 570.485 38.8338C582.96 40.5116 594.204 45.5134 604.015 53.269C612.902 60.2289 618.669 69.2569 620.41 80.5136C621.651 88.0963 620.156 95.2045 616.982 102.105C612.61 111.516 606.734 119.855 599.649 127.5C585.337 142.839 569.503 156.15 552.006 167.483C528.36 182.759 504.025 196.996 479 210.194C454.546 223.189 430.042 236.042 405.193 248.375C387.835 256.931 369.88 264.255 352.27 272.098C346.716 274.547 341.162 276.996 335.751 279.394C329.341 282.146 322.981 285.041 316.429 287.844C298.575 295.453 280.579 303.112 262.675 310.578C244.577 317.952 226.218 324.135 207.364 329.37C189.415 334.445 171.407 338.9 152.944 342.071C134.96 345.233 116.765 347.347 98.425 346.785C89.4688 346.428 80.5958 345.399 71.8389 342.886C65.055 340.957 58.6397 338.256 52.8188 334.06C41.6138 325.996 35.8618 315.198 35.7471 301.279C35.7806 292.764 37.5939 284.741 40.7504 276.884C45.5476 264.594 52.5703 253.603 60.8529 243.448C71.8934 229.749 84.6899 217.835 98.36 206.574C117.213 190.91 137.789 177.844 159.004 165.676C185.714 150.437 213.567 137.521 242.068 125.98C271.904 114.126 302 103.464 331.946 92.3741Z" fill="black"/>
</mask>
<g mask="url(#mask0)">
<path fill-rule="evenodd" clip-rule="evenodd" d="M461.591 -1.09703C460 2.02521 458.398 5.11673 456.797 8.20825L456.796 8.20934C455.194 11.3012 453.592 14.3931 452.001 17.5157C438.956 43.1622 424.911 68.3326 408.03 91.7417C402.114 99.9907 395.814 107.923 389.53 115.837L389.521 115.847C388.039 117.715 386.557 119.581 385.081 121.45C382.142 125.258 378.739 128.538 374.497 131.009C367.479 135.017 360.246 134.121 354.612 128.371C351.542 125.171 349.368 121.376 347.562 117.451C343.437 108.539 340.952 99.1833 339.371 89.6458C338.409 83.9224 337.592 78.1964 336.773 72.4617L336.772 72.4586C336.209 68.5148 335.646 64.5671 335.034 60.6133C334.516 57.2003 333.63 53.9179 332.578 50.5562C331.315 46.9921 329.571 46.365 326.391 48.3214C324.476 49.5532 322.605 50.9078 321.153 52.667C320.656 53.2445 320.157 53.8202 319.66 54.3952C316.041 58.5769 312.459 62.7163 309.425 67.196C299.996 81.1871 290.777 95.3804 281.848 109.61C268.242 131.355 254.751 153.21 241.272 175.044L241.271 175.046C236.464 182.833 231.658 190.617 226.85 198.393C223.204 204.11 219.349 209.626 215.37 215.185C213.32 217.986 211.059 220.585 208.755 223.062C207.137 224.741 205.186 226.262 203.105 227.415C197.106 230.785 191.839 229.193 188.223 223.281C185.585 218.959 184.466 214.238 183.715 209.386C181.75 197.945 181.62 186.469 181.49 175.028C181.482 174.343 181.475 173.659 181.466 172.974C181.446 171.873 181.426 170.775 181.407 169.679L181.407 169.679C181.31 164.211 181.215 158.791 180.973 153.231C180.958 152.996 180.947 152.757 180.935 152.517C180.853 150.822 180.767 149.035 179.549 147.649C177.575 147.933 176.361 149.193 175.271 150.41C172.324 153.805 169.377 157.2 166.973 160.957C159.762 172.226 152.673 183.452 145.837 195.002C138.464 207.574 131.155 220.226 123.845 232.879L123.844 232.881C116.535 245.532 109.226 258.184 101.853 270.754C96.938 279.135 91.5669 287.401 86.0295 295.587C83.8195 298.868 81.1021 301.99 78.426 305.065L78.4259 305.065C78.1384 305.396 77.8514 305.725 77.5656 306.055C76.3956 307.438 74.7263 308.582 73.0928 309.438C70.3968 310.808 68.0667 309.697 67.1882 306.826C66.7016 305.062 66.4172 303.088 66.5886 301.229C66.8007 297.143 67.0922 292.89 67.8395 288.752C68.0673 287.526 68.293 286.301 68.5186 285.076C70.0365 276.837 71.5463 268.642 73.621 260.561C77.3085 246.513 81.1051 232.479 84.9053 218.431L84.9062 218.428C87.2939 209.602 89.683 200.77 92.0474 191.927C92.4287 190.27 92.9765 188.693 93.5678 187.239C93.8186 186.713 94.1849 186.201 94.5317 185.717C94.7337 185.435 94.929 185.162 95.0911 184.901C95.2575 184.98 95.4239 185.06 95.6339 185.262C95.5763 185.49 95.5604 185.737 95.5444 185.985C95.5284 186.233 95.5124 186.481 95.4548 186.709C87.7042 213.246 80.9087 240.136 75.0247 267.257C73.2939 275.294 71.9626 283.521 70.6423 291.681L70.6423 291.681C70.4866 292.643 70.3311 293.604 70.1751 294.564C69.8082 296.746 69.8342 298.976 69.8606 301.239C69.8662 301.723 69.8719 302.207 69.8737 302.694C69.8296 303.378 69.9821 304.059 70.1862 304.97L70.1863 304.97C70.2776 305.378 70.3793 305.832 70.4783 306.352C70.8682 306.063 71.2461 305.798 71.6052 305.547L71.6054 305.547L71.6056 305.546C72.5574 304.88 73.3763 304.306 73.9321 303.607C74.5759 302.854 75.2383 302.103 75.9037 301.348L75.9048 301.347C77.8665 299.122 79.8547 296.867 81.4718 294.435C82.4143 292.985 83.3577 291.538 84.3004 290.092L84.3084 290.08C90.2583 280.951 96.1807 271.865 101.699 262.51C110.641 247.346 119.473 232.13 128.313 216.898C134.764 205.783 141.219 194.661 147.726 183.544C152.032 176.175 156.742 169.074 161.48 161.931C162.237 160.79 162.995 159.647 163.752 158.502C165.795 155.288 168.337 152.313 170.879 149.337C172.252 147.744 173.834 146.354 175.46 145.086C179.08 142.421 182.401 143.596 183.758 147.818C184.411 149.661 184.696 151.635 184.857 153.653C185.039 158.117 185.177 162.596 185.315 167.047C185.408 170.073 185.501 173.086 185.607 176.072C185.654 177.403 185.696 178.735 185.739 180.069L185.739 180.077C186.016 188.732 186.293 197.429 187.776 206.011C188.511 210.038 189.579 214.225 191.052 217.991C193.569 224.707 197.671 225.743 203.025 220.942C206.391 217.951 209.584 214.469 212.154 210.792C218.183 202.431 224.002 193.869 229.489 185.147C238.778 170.377 248.056 155.576 257.335 140.775L257.338 140.77C266.618 125.967 275.897 111.164 285.188 96.3923C292.118 85.4996 299.215 74.6862 306.521 64.0751C309.893 59.1459 313.684 54.6213 317.643 50.176C319.622 47.9534 321.977 46.0123 324.586 44.3964C329.681 41.2082 334.036 42.57 336.654 48.0056C338.824 52.698 339.574 57.6603 340.337 62.7062C340.405 63.1557 340.473 63.6059 340.542 64.0566C340.887 66.1729 341.229 68.2976 341.571 70.426L341.571 70.4267C342.751 77.7663 343.937 85.1492 345.32 92.3798C347.095 101.295 349.774 110.028 354.007 118.073C354.949 119.952 356.094 121.622 357.484 123.204C361.874 128.565 367.379 129.658 373.247 125.919C376.427 123.963 379.432 121.514 381.772 118.749C387.587 112.125 393.357 105.377 398.751 98.3484C414.97 76.9724 429.342 53.899 442.839 30.3059L459.727 0.669836C459.859 0.457071 460.002 0.240382 460.149 0.0188071L460.15 0.0171506L460.15 0.016989C460.491 -0.499518 460.85 -1.04258 461.127 -1.62445C461.183 -1.57052 461.236 -1.52534 461.285 -1.48338L461.286 -1.48277C461.421 -1.36772 461.527 -1.27697 461.591 -1.09703ZM161.683 274.871C161.443 275.233 161.197 275.581 160.952 275.93C160.461 276.626 159.97 277.323 159.518 278.128L159.516 278.131L159.516 278.132C154.01 287.966 148.504 297.8 143.164 307.713C139.9 313.782 136.662 319.864 133.422 325.951L133.42 325.954C128.631 334.95 123.837 343.956 118.939 352.951C111.563 366.491 103.312 379.512 93.6862 391.774C92.2896 393.602 90.7556 395.365 89.0882 397.28L89.0873 397.281C88.16 398.347 87.1915 399.459 86.1824 400.657C86.1174 400.207 86.0492 399.838 85.9922 399.53C85.8827 398.939 85.8145 398.571 85.8902 398.271C86.0848 397.649 86.5251 396.939 87.009 396.353C104.275 373.638 117.95 348.598 131.17 323.443C138.236 310.078 145.539 297.019 152.923 283.818L153.621 282.569C155.736 278.777 158.183 275.143 160.631 271.51L160.631 271.51C162.198 269.295 163.708 268.483 164.917 269.161C166.667 270.294 166.39 272.014 166.135 273.594L166.115 273.716C165.583 276.551 164.941 279.373 164.295 282.207C163.895 283.966 163.493 285.729 163.116 287.504C162.123 291.729 161.098 295.95 160.072 300.171C158.022 308.612 155.972 317.054 154.178 325.528C152.625 332.856 151.693 340.379 150.841 347.735C150.594 350.065 150.739 352.53 150.883 354.981C150.943 356.007 151.003 357.031 151.034 358.04C151.048 358.136 151.061 358.23 151.074 358.321C151.148 358.856 151.212 359.323 151.398 359.848C152.4 362.675 153.897 363.389 156.471 362.062C158.227 361.164 159.896 360.019 161.189 358.593C164.989 354.48 168.744 350.245 172.124 345.728C180.775 334.051 188.164 321.589 195.518 309.187L195.518 309.187C195.831 308.659 196.144 308.13 196.457 307.602L196.841 306.956C215.796 275.343 235.373 243.924 256.832 213.914C270.695 194.479 285.144 175.528 301.642 158.064C307.059 152.272 312.73 146.805 319.074 142.068C322.044 139.909 325.058 137.873 328.542 136.777C333.423 135.325 336.874 136.868 338.203 141.792C338.908 144.17 339.243 146.68 339.044 149.24C339.003 149.68 338.963 150.12 338.923 150.561L338.923 150.562C338.452 155.714 337.973 160.95 336.966 166.021C334.32 178.461 331.42 190.905 328.525 203.329L328.525 203.331L328.522 203.342C327.728 206.751 326.934 210.159 326.145 213.565C321.382 234.479 316.952 255.552 314.713 276.954C313.869 284.723 313.314 292.527 313.873 300.352C314.042 302.782 314.378 305.291 314.959 307.713C315.315 309.108 315.917 310.417 316.642 311.682C317.367 312.946 318.488 313.379 319.797 312.777C320.083 312.623 320.37 312.474 320.657 312.325L320.657 312.325C321.881 311.69 323.076 311.069 323.996 310.183C327.029 307.033 330.063 303.884 332.677 300.33C339.039 292.128 344.149 283.125 349.136 274.166C359.668 255.472 369.257 236.151 378.817 216.887L378.843 216.833C379.526 215.457 380.209 214.08 380.892 212.704C382.58 209.302 384.259 205.895 385.938 202.489L385.946 202.472C394.781 184.549 403.61 166.636 413.645 149.369C417.081 143.449 420.805 137.565 424.574 131.803C426.581 128.879 428.921 126.114 431.182 123.515C432.272 122.298 433.696 121.241 435.083 120.473C438.184 118.682 440.839 119.54 442.181 122.938C443.001 124.86 443.329 126.957 443.49 128.975C443.921 135.09 444.211 141.189 444.5 147.267C444.626 149.907 444.751 152.543 444.888 155.176C445.339 163.868 446.037 172.474 447.804 180.977C449.761 190.796 454.053 199.788 458.916 208.439C464.251 218.03 470.683 226.817 478.865 234.293C484.027 239.104 489.875 243.118 496.604 245.713C506.365 249.448 515.664 248.367 524.649 243.663C526.682 242.61 528.669 241.425 530.656 240.24L530.657 240.239C531.981 239.449 533.306 238.659 534.644 237.908C534.81 237.988 534.946 238.078 535.082 238.168C535.218 238.258 535.353 238.349 535.52 238.428C535.371 238.544 535.212 238.635 535.065 238.719C534.891 238.818 534.733 238.908 534.624 239.022C533.24 239.94 531.886 240.895 530.536 241.848C527.953 243.672 525.384 245.485 522.649 246.999C511.223 253.399 499.78 252.334 488.577 246.482C479.959 242.066 472.827 235.602 466.707 228.087C456.748 215.985 449.073 202.521 444.42 187.432C442.14 180.217 441.3 172.769 440.994 165.269C440.797 160.222 440.672 155.183 440.546 150.144L440.546 150.143C440.421 145.105 440.296 140.066 440.098 135.018C440.044 132.132 439.788 129.457 439.488 126.658C439.425 126.004 439.209 125.353 438.949 124.571C438.783 124.074 438.6 123.523 438.428 122.884C438.008 123.183 437.61 123.454 437.231 123.711C436.214 124.402 435.342 124.995 434.605 125.76C434.04 126.454 433.456 127.145 432.869 127.84L432.869 127.841C431.153 129.872 429.412 131.934 428.041 134.171C427.583 134.917 427.124 135.663 426.664 136.409C422.545 143.1 418.391 149.848 414.775 156.853C407.931 170.136 401.181 183.488 394.431 196.841C387.681 210.195 380.931 223.549 374.086 236.832C365.052 254.28 355.808 271.525 346.397 288.691C344.104 292.853 341.358 296.858 338.629 300.841C337.751 302.121 336.875 303.399 336.016 304.68C334.088 307.437 331.784 309.913 329.56 312.223C328.144 313.693 326.439 315.127 324.726 316.149C318.937 319.721 314.205 318.078 311.739 311.897C310.266 308.131 309.741 304.306 309.541 300.227C309.002 291.288 309.701 282.327 310.688 273.401C313.073 253.191 317.237 233.319 321.979 213.519C322.995 209.218 324.019 204.914 325.045 200.606L325.047 200.596L325.048 200.591C327.764 189.182 330.485 177.751 333.054 166.301C334.313 160.875 334.95 155.255 335.587 149.635C335.795 147.486 335.669 145.18 335.341 143.083C334.744 139.836 332.949 138.674 330.043 139.841C327.585 140.712 325.258 141.952 323.141 143.393C317.237 147.422 312.216 152.382 307.239 157.465C293.608 171.699 281.571 187.306 269.909 203.195C247.511 233.676 227.161 265.645 207.686 298.134C199.689 311.48 191.568 324.869 183.115 338.099C179.188 344.194 174.761 350.05 170.291 355.783C168.593 358.054 166.458 359.965 164.292 361.905L164.292 361.905C163.944 362.216 163.596 362.528 163.248 362.843C161.991 363.98 160.647 364.871 159.093 365.56C153.701 368.3 149.005 366.367 147.573 360.373C146.861 357.583 146.474 354.538 146.586 351.732C146.855 346.242 147.369 340.666 148.216 335.248C149.883 323.905 152.739 312.803 155.604 301.67L155.604 301.67C155.945 300.343 156.287 299.016 156.626 297.688C157.512 294.331 158.377 291.016 159.243 287.701L159.244 287.698C160.109 284.384 160.975 281.069 161.86 277.713C162.091 276.802 162.278 275.767 162.464 274.733C162.016 275.03 161.85 274.951 161.683 274.871ZM575.207 -28.3725C576.054 -30.3142 576.903 -32.2607 577.773 -34.2044C577.563 -34.4066 577.274 -34.4424 576.905 -34.3118C576.465 -33.6025 576.068 -32.7704 575.671 -31.9382C575.296 -31.1504 574.923 -30.3549 574.549 -29.5568C573.421 -27.1516 572.282 -24.7227 571.025 -22.4078C558.642 1.20571 544.631 23.7363 529.91 45.8265C519.486 61.692 508.518 77.1964 496.588 91.9354C494.248 94.7009 491.785 97.5099 489.192 99.9502C487.653 101.464 485.615 102.739 483.656 103.848C480.714 105.305 478.558 104.685 476.82 102.12C475.972 100.899 475.247 99.634 474.768 98.2821C472.694 93.2075 471.892 87.8204 471.502 82.4256C470.6 71.6795 471.268 61.069 472.014 50.2921L472.014 50.2916C472.114 49.0116 472.214 47.7315 472.068 46.5384C472.016 46.0033 471.386 45.3965 470.931 45.2814C470.475 45.1662 469.535 45.6374 469.377 45.9703C468.821 47.1353 468.432 48.3797 468.289 49.5371C466.649 63.2586 466.166 77.1234 468.28 90.8984C468.987 95.6275 469.94 100.269 472.657 104.425C476.011 109.599 481.191 110.945 486.496 107.96C488.903 106.554 491.302 104.735 493.324 102.636C496.279 99.6526 498.9 96.5107 501.435 93.123C526.744 59.5354 549.26 24.3094 568.186 -13.2412C570.755 -18.1629 572.974 -23.2516 575.207 -28.3725Z" fill="black"/>
</g>
</svg>
