<svg width="159" height="141" viewBox="0 0 159 141" fill="none" xmlns="http://www.w3.org/2000/svg">
<path d="M156.351 106.634C157.219 112.073 156.491 116.675 153.712 120.89C150.676 125.535 146.456 127.488 141.071 126.951C135.488 126.434 130 124.901 124.926 122.521C114.879 117.749 104.92 112.867 94.9619 107.986C91.4732 106.343 88.0737 104.59 84.6741 102.837C71.8341 96.3489 59.3401 89.3215 47.2606 81.4459C38.7422 75.9094 30.5698 69.8336 23.2098 62.8677C17.7575 57.8121 12.7715 52.4056 8.51897 46.3183C6.04782 42.8586 3.95377 39.1579 2.63461 35.1744C-0.890042 24.4853 5.34951 14.8773 16.4773 13.6023C21.5388 12.9675 26.5565 13.8457 31.4271 15.2422C37.7521 17.0885 43.6728 19.8825 49.4258 22.9958C67.5525 32.9481 85.2648 43.7486 102.206 55.8372C113.171 63.6293 124.325 71.301 135.211 79.3025C139.561 82.4634 143.545 85.9646 147.628 89.4553C153.038 94.1131 156.056 99.9285 156.351 106.634Z" fill="#4CA96D"/>
<mask id="mask0" mask-type="alpha" maskUnits="userSpaceOnUse" x="1" y="13" width="156" height="115">
<path d="M156.351 106.634C157.219 112.073 156.491 116.675 153.712 120.89C150.676 125.535 146.456 127.488 141.071 126.951C135.488 126.434 130 124.901 124.926 122.521C114.879 117.749 104.92 112.867 94.9619 107.986C91.4732 106.343 88.0737 104.59 84.6741 102.837C71.8341 96.3489 59.3401 89.3215 47.2606 81.4459C38.7422 75.9094 30.5698 69.8336 23.2098 62.8677C17.7575 57.8121 12.7715 52.4056 8.51897 46.3183C6.04782 42.8586 3.95377 39.1579 2.63461 35.1744C-0.890042 24.4853 5.34951 14.8773 16.4773 13.6023C21.5388 12.9675 26.5565 13.8457 31.4271 15.2422C37.7521 17.0885 43.6728 19.8825 49.4258 22.9958C67.5525 32.9481 85.2648 43.7486 102.206 55.8372C113.171 63.6293 124.325 71.301 135.211 79.3025C139.561 82.4634 143.545 85.9646 147.628 89.4553C153.038 94.1131 156.056 99.9285 156.351 106.634Z" fill="#4CA96D"/>
</mask>
<g mask="url(#mask0)">
<path d="M71.6638 120.222C71.1638 118.822 70.4638 117.422 70.2638 116.022C69.2638 109.422 68.0638 102.722 67.3638 96.1216C65.5638 77.6216 63.8638 59.0216 60.5638 40.6216C58.0638 26.8216 55.0638 13.2216 50.5638 -0.0783812C49.9638 -1.77838 49.2638 -3.37838 48.5638 -4.97838C48.1638 -5.87838 47.4638 -6.67838 46.3638 -6.47838C45.0638 -6.27838 44.7638 -5.27838 44.7638 -4.17838C44.7638 0.0216163 44.7638 4.32162 45.0638 8.52162C45.8638 21.9216 46.6638 35.3216 45.6638 48.8216C44.9638 58.5216 43.9638 68.2216 41.4638 77.7216C40.9638 79.6216 40.2638 81.5216 39.5638 83.3216C39.3638 83.3216 39.1638 83.3216 39.0638 83.3216C38.8638 82.8216 38.6638 82.2216 38.5638 81.7216C37.8638 75.7216 37.1638 69.8216 36.6638 63.8216C34.7638 42.3216 31.2638 21.1216 23.7638 0.821616C21.1638 -6.07838 18.4638 -12.9784 14.3638 -19.0784C7.56383 -29.2784 -1.53617 -36.7784 -12.8362 -41.4784C-19.9362 -44.4784 -26.4362 -42.7784 -32.1362 -37.7784C-31.5362 -38.0784 -30.9362 -38.3784 -30.3362 -38.5784C-28.3362 -39.3784 -26.4362 -40.3784 -24.3362 -40.9784C-21.4362 -41.7784 -18.4362 -41.4784 -15.6362 -40.3784C-12.7362 -39.1784 -9.83616 -37.9784 -7.23616 -36.2784C2.96384 -29.8784 10.9638 -21.5784 15.7638 -10.2784C21.7638 3.72162 26.0638 18.1216 28.9638 32.9216C31.0638 43.6216 32.1638 54.4216 33.3638 65.2216C33.8638 70.3216 34.5638 75.4216 35.2638 80.4216C35.4638 81.8216 35.8638 83.2216 36.3638 84.6216C36.7638 85.7216 37.3638 86.7216 38.6638 86.7216C39.9638 86.8216 40.6638 85.9216 41.1638 84.8216C41.6638 83.6216 42.1638 82.4216 42.4638 81.2216C44.5638 73.4216 45.7638 65.4216 46.7638 57.4216C48.1638 46.4216 48.4638 35.4216 48.1638 24.4216C47.9638 17.0216 47.4638 9.72162 47.1638 2.42162C47.1638 1.52162 47.1638 0.721619 47.1638 -0.578381C48.2638 0.421619 48.4638 1.52162 48.6638 2.52162C50.9638 11.3216 53.3638 20.1216 55.3638 29.0216C59.2638 46.9216 61.5638 65.1216 63.2638 83.3216C64.0638 91.9216 65.0638 100.522 66.0638 109.122C66.3638 111.622 66.9638 114.122 67.5638 116.622C67.8638 117.822 68.2638 118.922 68.6638 120.022C69.2638 121.422 70.1638 122.822 71.8638 122.922C73.5638 123.022 74.6638 121.722 75.3638 120.422C76.1638 118.922 76.9638 117.322 77.5638 115.622C78.5638 112.422 79.5638 109.222 80.3638 105.922C83.1638 94.4216 84.7638 82.7216 85.7638 70.9216C86.8638 58.2216 86.9638 45.5216 86.9638 32.8216C86.9638 28.1216 87.0638 23.4216 87.0638 18.6216C87.0638 17.1216 87.2638 15.6216 87.4638 14.1216C87.6638 14.1216 87.7638 14.1216 87.9638 14.1216C88.3638 15.1216 88.7638 16.2216 88.9638 17.2216C90.4638 24.6216 92.1638 31.9216 93.2638 39.3216C94.8638 49.9216 96.1638 60.5216 97.3638 71.2216C97.9638 76.8216 98.2638 82.5216 98.4638 88.2216C98.8638 100.322 99.0638 112.422 99.6638 124.422C99.9638 130.122 100.764 135.722 101.564 141.322C101.764 143.122 102.464 144.922 103.364 146.522C105.064 149.722 108.064 150.022 110.364 147.322C111.664 145.722 112.664 143.922 113.564 142.022C116.164 136.122 117.564 129.922 118.864 123.622C121.664 109.722 122.564 95.6216 122.364 81.4216C122.264 74.1216 122.164 66.8216 122.164 59.6216C122.164 57.6216 122.364 55.7216 122.564 53.7216C122.764 53.6216 122.964 53.6216 123.164 53.5216C123.664 54.4216 124.164 55.2216 124.564 56.1216C126.664 61.2216 127.864 66.6216 128.864 72.0216C132.264 89.9216 132.564 107.922 132.164 126.022C131.864 138.622 131.664 151.322 131.764 163.922C131.864 173.022 132.864 182.122 135.964 190.822C137.164 194.322 138.664 197.622 140.964 200.622C142.364 202.422 143.964 203.922 146.364 204.422C148.064 204.722 148.764 204.422 149.564 202.622C146.164 203.922 144.264 202.022 142.664 199.622C139.864 195.522 138.364 190.922 137.164 186.122C135.664 180.222 135.064 174.122 134.664 168.122C133.864 154.322 134.564 140.622 134.964 126.822C135.564 108.222 135.264 89.7216 131.264 71.4216C130.164 66.3216 128.564 61.4216 127.064 56.4216C126.564 54.8216 125.664 53.3216 124.764 52.0216C123.464 50.2216 121.564 50.6216 121.064 52.7216C120.664 54.5216 120.464 56.3216 120.464 58.2216C120.564 66.1216 120.764 74.0216 120.764 81.9216C120.864 95.8216 120.064 109.622 117.464 123.222C116.364 128.922 115.064 134.622 112.664 140.022C111.864 141.922 110.764 143.722 109.464 145.322C107.864 147.422 106.264 147.122 105.464 144.622C104.564 141.922 103.864 139.022 103.664 136.222C102.964 127.522 102.564 118.822 102.164 110.122C101.764 99.8216 101.664 89.5216 101.064 79.2216C100.364 66.5216 98.7638 53.9216 96.5638 41.3216C95.2638 33.6216 93.6638 25.9216 92.0638 18.2216C91.7638 16.5216 91.0638 14.8216 90.4638 13.2216C90.1638 12.4216 89.7638 11.6216 89.1638 10.9216C88.0638 9.62162 86.5638 9.92162 85.9638 11.4216C85.5638 12.4216 85.3638 13.6216 85.3638 14.7216C85.2638 21.3216 84.9638 27.8216 85.0638 34.4216C85.3638 50.9216 84.7638 67.3216 82.8638 83.7216C81.7638 93.2216 80.2638 102.722 77.2638 111.922C76.5638 114.022 75.5638 116.122 74.6638 118.122C74.2638 119.022 73.4638 119.622 72.7638 120.422C72.1638 120.322 71.9638 120.322 71.6638 120.222Z" fill="black"/>
</g>
</svg>
