<svg width="130" height="125" viewBox="0 0 130 125" fill="none" xmlns="http://www.w3.org/2000/svg">
<path fill-rule="evenodd" clip-rule="evenodd" d="M92.966 124.172C91.5584 123.039 91.8219 121.811 92.0326 120.829L92.0537 120.73L92.0538 120.73L92.0538 120.73C92.8513 115.847 93.6487 110.964 94.6694 106.069C95.5974 101.59 96.5548 97.1245 97.5123 92.6587L97.5123 92.6586C98.9484 85.9602 100.384 79.2618 101.721 72.5206C103.26 64.9079 102.959 57.2652 100.874 49.7241C99.4781 44.8761 97.4652 40.1976 94.2824 36.2128C86.9871 26.8624 77.4234 22.5235 65.5249 23.6029C57.4611 24.3748 50.2985 27.6039 43.7108 32.2786C36.873 37.281 31.1357 43.5198 25.6865 50.1006C18.3678 59.2513 12.0719 69.0606 7.62548 79.8846C7.54694 80.0669 7.47162 80.2572 7.39572 80.4491C7.16566 81.0304 6.93028 81.6253 6.58387 82.0491C6.16276 82.521 5.29515 83.0183 4.7964 82.9122C4.20581 82.7666 3.44573 82.0035 3.27626 81.3861C3.05452 80.6372 3.17474 79.6001 3.30766 78.7863C4.10365 74.6648 5.58208 70.7285 7.4801 67.082C14.5847 53.3745 23.7999 41.3387 35.4014 31.0935C41.9257 25.3026 49.3399 20.9842 57.9055 18.7952C71.6341 15.2377 83.761 18.1767 94.405 27.3367C99.8711 32.0876 103.273 38.3446 105.675 45.151C109.161 55.2554 109.338 65.4583 107.099 75.7089C105.357 83.8998 103.199 92.1144 101.063 100.247L101.063 100.248L100.838 101.104C99.4943 106.42 97.8566 111.71 96.2448 116.917L96.2447 116.918L96.0781 117.456C95.6286 119.004 94.9954 120.474 94.3623 121.943C94.1 122.552 93.7117 123.106 93.2568 123.755C93.1625 123.89 93.0654 124.028 92.966 124.172ZM74.5465 116.126C74.5592 115.862 74.5543 115.59 74.5494 115.314C74.5383 114.701 74.5269 114.072 74.7093 113.474C76.0071 107.936 77.3049 102.397 78.6945 96.8981C79.2329 94.8621 79.7916 92.8224 80.3516 90.7782L80.3519 90.7774L80.3519 90.7773C82.1309 84.2833 83.9223 77.7441 85.1138 71.1353C86.894 60.6868 85.088 50.9797 78.8679 42.4193C77.506 40.5258 75.9336 38.8682 74.1902 37.3548C71.4113 34.9595 68.0641 34.3882 64.5302 35.261C60.6417 36.1987 57.1981 37.8726 53.8718 40.0326C47.9949 43.8158 43.4545 49.0459 39.6614 54.8159C35.5787 61.0055 31.4563 67.2869 27.6491 73.5953C26.2659 75.8576 25.1927 78.2534 24.1194 80.6493C23.7617 81.4479 23.4039 82.2465 23.0347 83.0402C22.7973 83.5912 22.5828 84.1521 22.3683 84.713C22.1538 85.274 21.9393 85.8349 21.7019 86.3859C21.1478 87.6716 20.1884 88.1293 19.0595 87.9695C17.9701 87.7178 17.0264 86.8756 17.0421 85.5757C17.0451 84.0526 17.2714 82.5167 17.7731 81.0996C19.4382 75.7193 22.1135 70.7743 25.2085 66.1191C26.3881 64.3307 27.5558 62.528 28.724 60.7243L28.7241 60.7242C31.599 56.2856 34.4777 51.8413 37.5485 47.5899C41.7358 41.6631 47.0109 36.7495 53.4911 33.3352C55.752 32.1317 58.2883 31.0468 60.706 30.2375C68.5241 27.5087 75.3088 29.4523 80.7592 35.5032C87.5983 43.1325 91.5069 52.0035 91.6963 62.4296C91.7634 68.3385 91.0167 74.1145 89.2724 79.6785C86.4836 88.9301 83.6028 98.1421 80.4989 107.367C79.7305 109.57 78.6175 111.7 77.4991 113.84L77.4991 113.84C77.272 114.275 77.0447 114.71 76.8201 115.146C76.7918 115.183 76.7641 115.221 76.7366 115.258C76.707 115.299 76.6778 115.34 76.6485 115.381C76.222 115.977 75.7979 116.569 74.5465 116.126ZM47.755 52.2058C41.8183 59.6654 37.3241 68.0733 33.4728 76.7581C32.8749 78.1457 32.1951 79.4979 31.4774 80.9255C31.4351 81.0097 31.3926 81.0942 31.35 81.179C30.6899 82.9634 30.0299 84.7479 29.5535 86.6115C29.0771 88.4751 29.587 89.566 30.7809 90.0804C32.0144 90.5031 33.1052 89.9931 34.0408 88.3274C34.6075 87.2649 35.122 86.071 35.6364 84.8772C39.3295 76.5596 43.5339 68.5714 48.5254 61.0311C51.6599 56.284 55.3058 51.8662 60 48.5534C61.4201 47.532 63.0762 46.7212 64.6531 46.094C66.7161 45.3497 68.632 45.9575 69.902 47.8114C70.727 48.9292 71.5647 50.2701 71.7327 51.6492C72.1351 54.0004 72.3538 56.2724 72.1261 58.5698C71.7908 62.1276 71.1799 65.5666 70.254 68.9788C68.5615 74.928 66.7874 80.842 65.0133 86.7561C64.1262 89.7131 63.2392 92.6701 62.3623 95.6315C62.098 96.4976 61.8859 97.4952 61.8053 98.4404C61.7911 98.9787 62.1046 99.7672 62.5638 99.9651C62.9834 100.255 63.916 100.112 64.2975 99.7321C65.1525 99.0116 65.8633 98.1202 66.3904 97.1495C66.6881 96.5684 66.9963 95.9867 67.3058 95.4027C68.4215 93.2972 69.5534 91.1609 70.2671 88.9111C72.5527 81.8382 74.7465 74.7257 76.6252 67.5864C77.8027 63.0849 78.4815 58.4774 78.0836 53.8414C77.8014 50.4532 76.9018 47.2344 74.8194 44.486C71.8598 40.4884 67.5689 39.0749 62.9046 40.5494C61.0126 41.1497 59.0541 42.1569 57.3712 43.2828C53.611 45.6914 50.5587 48.7317 47.755 52.2058Z" fill="black"/>
</svg>
