<svg width="123" height="138" viewBox="0 0 123 138" fill="none" xmlns="http://www.w3.org/2000/svg">
<path d="M121.82 52.8473C121.82 59.0473 121.92 65.1473 121.82 71.3473C121.52 82.9473 118.82 93.9473 114.52 104.647C113.62 106.747 112.52 108.847 111.22 110.747C107.32 116.547 102.72 121.847 97.6201 126.447C94.4201 129.347 90.8201 131.547 86.7201 132.847C82.5201 134.147 78.3201 135.447 74.0201 136.447C67.7201 138.047 61.3201 137.447 55.0201 136.347C53.7201 136.147 52.3201 135.847 51.0201 135.547C44.5201 134.247 38.7201 131.647 33.6201 127.347C27.3201 122.047 20.8201 116.847 16.5201 109.647C12.6201 103.147 8.72013 96.6473 6.42013 89.2473C4.72013 83.5473 2.82013 77.9473 1.32013 72.2473C0.620127 69.4473 0.120127 66.1473 0.0201265 63.0473C-0.0798735 58.2473 0.220127 53.4473 0.320127 48.6473C0.420127 44.9473 0.320127 41.2473 0.420127 37.6473C0.420127 36.4473 0.320127 35.2473 0.420127 34.0473C0.620127 30.4473 3.22013 29.0473 6.22013 31.0473C8.32013 32.5473 10.3201 34.2473 11.9201 36.1473C15.1201 39.8473 18.0201 43.7473 21.0201 47.5473C22.9201 50.0473 24.6201 52.6473 26.5201 55.1473C27.9201 56.9473 29.6201 58.6473 31.3201 60.1473C34.1201 62.5473 36.2201 62.2473 38.1201 58.9473C39.4201 56.7473 40.4201 54.3473 41.2201 51.9473C44.4201 42.1473 47.6201 32.3473 50.7201 22.5473C52.7201 16.2473 55.0201 10.1473 58.0201 4.24728C58.5201 3.14728 59.1201 2.14728 60.0201 1.24728C61.8201 -0.652721 64.6201 -0.352721 65.8201 1.94728C66.5201 3.34728 67.0201 5.14728 67.1201 6.74728C67.4201 10.4473 67.4201 14.1473 67.6201 17.7473C68.2201 26.8473 69.3201 35.8473 71.4201 44.7473C71.8201 46.5473 72.5201 48.2473 73.2201 49.9473C74.4201 52.6473 76.3201 54.7473 78.8201 56.3473C80.4201 57.4473 82.1201 57.6473 83.8201 56.5473C85.5201 55.4473 87.1201 54.2473 88.5201 52.8473C92.7201 48.7473 96.3201 44.2473 99.4201 39.1473C102.62 33.8473 105.82 28.6473 109.02 23.3473C109.92 21.8473 110.92 20.3473 112.12 19.0473C114.62 16.3473 117.92 16.9473 119.42 20.3473C120.82 23.7473 121.22 27.5473 121.32 31.1473C121.72 38.2473 121.82 45.3473 122.12 52.4473C122.02 52.8473 121.92 52.8473 121.82 52.8473Z" fill="#EE8DB9"/>
</svg>
