<svg width="156" height="136" viewBox="0 0 156 136" fill="none" xmlns="http://www.w3.org/2000/svg">
<path d="M32.9229 81.0841C32.2229 80.4841 31.5229 79.8841 30.9229 79.3841C24.9229 74.5841 19.7229 69.1841 14.9229 63.1841C10.5229 57.7841 8.02287 51.6841 8.42287 44.5841C8.52287 42.3841 8.92287 40.0841 9.52287 37.9841C11.0229 32.8841 14.8229 30.9841 19.7229 32.9841C22.1229 33.9841 24.4229 35.3841 26.5229 36.8841C31.0229 40.0841 35.0229 43.8841 38.7229 47.9841C40.7229 50.1841 42.7229 52.2841 45.0229 54.2841C44.8229 53.5841 44.7229 52.7841 44.5229 52.0841C42.7229 45.0841 41.2229 38.0841 40.6229 30.8841C39.8229 21.5841 42.3229 13.1841 46.9229 5.28409C47.6229 4.08409 48.5229 3.08409 49.5229 2.18409C53.0229 -0.915909 57.2229 -0.715909 60.3229 2.78409C61.5229 4.18409 62.5229 5.78409 63.3229 7.38409C65.1229 10.8841 66.0229 14.7841 66.7229 18.5841C67.8229 24.5841 68.8229 30.5841 69.9229 37.0841C70.3229 36.1841 70.5229 35.7841 70.6229 35.3841C72.0229 29.5841 73.6229 23.9841 76.4229 18.6841C78.5229 14.5841 80.8229 10.6841 84.3229 7.58409C86.2229 5.78409 88.3229 4.18409 90.6229 2.88409C98.9229 -1.61591 107.823 3.38409 108.523 12.7841C108.923 17.0841 108.223 21.2841 107.223 25.3841C106.523 28.5841 105.623 31.6841 104.623 35.3841C105.623 34.4841 106.223 33.9841 106.723 33.3841C113.223 27.0841 121.023 23.1841 129.723 21.1841C132.023 20.6841 134.323 20.7841 136.623 21.4841C140.823 22.7841 143.423 26.0841 143.123 30.4841C142.923 32.7841 142.323 34.9841 141.523 37.1841C140.923 38.7841 140.023 40.3841 139.023 41.7841C133.223 50.6841 127.123 59.3841 119.723 67.0841C119.523 67.2841 119.323 67.5841 118.823 68.1841C119.823 67.8841 120.523 67.6841 121.123 67.4841C126.223 65.5841 131.423 64.0841 136.823 63.2841C140.423 62.7841 144.023 62.5841 147.523 63.4841C148.523 63.7841 149.523 64.0841 150.423 64.5841C154.823 66.8841 156.223 71.3841 153.923 75.7841C152.423 78.6841 150.023 80.8841 147.423 82.6841C142.423 86.1841 137.223 89.3841 131.723 91.8841C124.723 94.9841 117.323 97.1841 109.923 99.0841C105.023 100.284 100.123 101.284 95.2229 102.484C92.6229 103.084 90.0229 103.584 87.5229 104.384C83.9229 105.484 80.2229 106.084 76.4229 105.984C74.2229 105.884 73.8229 106.084 73.4229 108.184C72.8229 111.184 72.4229 114.184 72.3229 117.184C72.1229 120.084 72.3229 123.084 72.3229 126.084C72.3229 130.784 71.0229 132.484 66.4229 133.784C65.2229 134.184 63.9229 134.484 62.7229 134.784C58.5229 135.784 56.0229 134.184 55.4229 129.884C54.9229 126.484 54.5229 123.084 54.4229 119.684C54.3229 116.284 54.4229 112.784 54.6229 109.384C54.7229 107.984 54.2229 107.184 53.0229 106.584C48.6229 104.284 43.9229 102.984 39.1229 102.084C32.0229 100.684 24.9229 99.5841 17.9229 98.1841C14.4229 97.4841 10.9229 96.3841 7.62287 95.1841C5.72287 94.4841 3.82287 93.3841 2.32287 92.0841C-1.27713 88.8841 -0.577132 83.6841 3.62287 81.3841C5.02287 80.6841 6.62287 80.0841 8.12287 79.9841C16.0229 79.1841 23.9229 78.8841 31.6229 81.2841C31.9229 81.3841 32.2229 81.3841 32.5229 81.3841C32.5229 81.3841 32.5229 81.2841 32.9229 81.0841Z" fill="#55BBDA"/>
</svg>
