<svg width="110" height="126" viewBox="0 0 110 126" fill="none" xmlns="http://www.w3.org/2000/svg">
<path d="M20.8084 56.9442C20.1084 56.5442 19.8084 56.3442 19.4084 56.2442C12.0084 53.3442 8.6084 47.2442 7.0084 40.0442C5.5084 33.3442 11.0084 25.5442 18.0084 23.9442C20.8084 23.2442 23.5084 23.4442 26.3084 24.2442C32.2084 26.0442 36.8084 29.5442 40.4084 34.5442C41.1084 35.5442 41.9084 36.6442 42.7084 37.7442C43.5084 36.8442 43.2084 35.9442 43.2084 35.1442C43.5084 29.3442 43.8084 23.4442 45.1084 17.7442C46.0084 13.7442 47.2084 9.84423 49.6084 6.44423C52.0084 3.14423 55.0084 0.844231 59.1084 0.144231C62.2084 -0.355769 64.8084 0.444231 67.0084 2.54423C69.4084 4.74423 70.9084 7.54423 71.9084 10.6442C74.3084 18.1442 74.3084 25.5442 72.0084 33.0442C71.8084 33.8442 71.6084 34.7442 71.7084 35.7442C72.4084 35.2442 73.0084 34.6442 73.7084 34.1442C76.8084 31.8442 79.8084 29.4442 83.0084 27.3442C86.5084 24.9442 90.5084 23.9442 94.8084 24.2442C104.208 24.7442 112.508 35.5442 108.108 45.3442C105.308 51.7442 100.608 56.1442 94.5084 59.2442C93.2084 59.9442 91.9084 60.5442 90.6084 61.1442C90.5084 61.1442 90.5084 61.2442 90.4084 61.5442C91.3084 61.7442 92.2084 62.0442 93.1084 62.2442C97.2084 63.1442 101.008 64.7442 104.408 67.2442C106.208 68.6442 107.708 70.2442 108.608 72.3442C110.608 77.1442 109.508 81.6442 105.308 84.7442C101.108 87.8442 96.4084 89.7442 91.2084 90.4442C88.5084 90.8442 85.8084 91.1442 83.1084 91.4442C78.5084 91.8442 74.2084 90.8442 69.7084 89.0442C69.6084 89.9442 69.5084 90.6442 69.4084 91.3442C68.9084 99.7442 67.0084 107.944 64.1084 115.844C63.8084 116.744 63.4084 117.644 63.0084 118.544C61.3084 122.244 58.5084 124.444 54.6084 125.444C50.5084 126.544 47.1084 125.444 44.5084 122.244C42.3084 119.644 40.8084 116.644 40.1084 113.344C38.5084 104.744 38.6084 96.1442 40.3084 87.6442C40.5084 86.6442 40.6084 85.6442 40.8084 84.3442C40.1084 84.6442 39.6084 84.7442 39.1084 85.0442C33.6084 87.8442 28.1084 90.6442 22.6084 93.3442C20.7084 94.2442 18.9084 95.2442 17.0084 96.0442C15.2084 96.7442 13.5084 97.5442 11.6084 97.9442C5.2084 99.3442 0.208403 95.3442 0.00840322 88.4442C-0.0915968 85.1442 0.708403 82.0442 2.0084 79.1442C5.7084 70.3442 11.2084 63.1442 19.3084 57.9442C19.7084 57.6442 20.1084 57.4442 20.8084 56.9442Z" fill="#F7D046"/>
<path d="M72.0084 64.2044C71.7924 69.5975 69.3294 74.8166 64.4466 78.6875C61.2058 81.2536 57.36 82.2974 53.255 81.9929C50.7488 81.819 48.4154 80.8621 46.3413 79.4269C41.1561 75.904 38.1745 71.0328 37.2671 64.8568C36.8782 62.3342 36.9214 59.8551 37.44 57.376C38.1745 53.8096 39.8598 50.8086 42.6252 48.46C45.5203 45.9809 48.8908 44.5022 52.6501 44.1108C55.1563 43.8498 57.5329 44.3717 59.823 45.4155C62.286 46.5463 64.533 48.0251 66.4775 49.9388C70.1936 53.5922 71.922 58.1154 72.0084 64.2044Z" fill="black"/>
</svg>
