<svg width="299" height="223" viewBox="0 0 299 223" fill="none" xmlns="http://www.w3.org/2000/svg">
<path d="M216.454 117.213C221.054 122.813 221.354 128.613 217.654 134.913C218.954 134.913 219.854 134.913 220.654 134.913C233.354 134.913 246.054 135.413 258.754 136.813C267.054 137.713 275.254 139.013 283.154 141.613C286.054 142.513 288.854 143.713 291.554 145.113C293.354 146.013 295.054 147.413 296.454 148.913C299.554 152.313 299.654 156.813 297.054 160.613C295.654 162.713 293.754 164.413 291.654 165.613C287.954 167.713 284.254 169.713 280.354 171.413C269.854 176.013 258.954 179.513 248.054 182.813C234.654 186.913 221.254 190.813 207.854 194.813C207.054 195.013 206.154 195.313 204.954 195.713C205.854 196.213 206.454 196.513 207.054 196.813C209.454 198.113 211.154 199.913 211.254 202.713C211.354 205.713 209.854 207.813 207.354 209.113C205.354 210.113 203.054 211.013 200.854 211.613C191.954 214.113 182.854 215.513 173.754 216.913C156.354 219.513 138.854 221.313 121.254 222.013C106.254 222.613 91.3537 222.613 76.4537 220.313C70.8537 219.413 65.2537 218.213 60.0537 216.013C57.2537 214.813 54.5537 213.413 52.2537 211.313C46.9537 206.613 45.7537 200.213 49.0537 193.913C50.7537 190.713 53.1537 188.013 55.8537 185.613C61.1537 180.913 67.2537 177.313 73.4537 174.113C74.4537 173.613 75.5537 173.013 76.5537 172.113C75.9537 172.113 75.3537 172.113 74.8537 172.113C64.6537 172.613 54.3537 172.713 44.1537 171.313C39.5537 170.713 35.0537 169.713 30.6537 167.913C27.5537 166.613 24.5537 165.013 22.1537 162.613C17.7537 158.213 16.3537 153.013 17.9537 147.013C18.8537 143.613 20.4537 140.613 22.8537 138.013C25.6537 134.913 28.4537 131.813 31.6537 129.213C36.9537 124.913 42.5537 121.113 48.0537 117.013C48.8537 116.413 49.5537 115.913 50.8537 114.913C49.6537 114.813 49.0537 114.713 48.3537 114.713C42.3537 114.713 36.3537 114.813 30.3537 114.513C27.0537 114.413 23.6537 113.813 20.3537 113.113C18.3537 112.713 16.3537 111.913 14.5537 110.913C8.2537 107.513 6.0537 101.313 8.6537 94.6129C10.0537 91.0129 12.4537 88.0129 15.1537 85.2129C16.0537 84.2129 17.0537 83.3129 18.2537 82.1129C17.4537 82.0129 16.9537 81.9129 16.4537 81.9129C14.1537 81.8129 11.8537 81.8129 9.5537 81.5129C7.9537 81.3129 6.2537 80.8129 4.7537 80.1129C0.453704 78.0129 -1.1463 73.5129 0.853704 69.2129C1.6537 67.5129 2.8537 65.8129 4.1537 64.6129C6.6537 62.4129 9.2537 60.2129 12.1537 58.5129C18.0537 55.1129 23.9537 51.8129 30.1537 48.9129C39.5537 44.8129 48.9537 41.0129 58.2537 37.0129C59.8537 36.3129 61.5537 35.6129 63.0537 34.7129C76.5537 26.4129 91.1537 20.4129 106.154 15.7129C130.754 7.91291 155.954 2.91291 181.754 0.712909C192.154 -0.187091 202.554 -0.387091 212.854 1.01291C216.854 1.51291 220.754 2.31291 224.454 4.01291C226.354 4.91291 228.354 5.91291 229.954 7.31291C233.954 10.6129 234.954 15.7129 232.454 20.3129C231.454 22.2129 230.154 24.0129 228.554 25.4129C225.254 28.4129 221.754 31.2129 218.054 33.7129C210.754 38.7129 202.954 42.8129 195.154 46.8129C194.354 47.2129 193.654 47.6129 192.854 48.5129C193.854 48.6129 194.754 48.7129 195.754 48.9129C197.654 49.3129 199.554 49.6129 201.354 50.2129C208.254 52.7129 209.554 59.4129 204.154 64.3129C202.454 65.8129 200.454 67.2129 198.454 68.3129C194.054 70.7129 189.454 72.9129 184.954 75.0129C180.954 76.8129 176.954 78.5129 172.854 80.6129C173.454 80.7129 174.154 80.8129 174.754 80.8129C185.654 81.3129 196.454 82.1129 207.154 84.0129C212.754 85.0129 218.354 86.1129 223.654 88.3129C225.954 89.3129 228.354 90.4129 230.354 91.9129C235.554 95.8129 236.054 101.913 231.754 106.813C230.354 108.313 228.754 109.713 227.054 110.913C224.254 112.813 221.254 114.313 218.354 116.013C217.854 116.413 217.254 116.813 216.454 117.213Z" fill="white"/>
</svg>
