<svg width="233" height="209" viewBox="0 0 233 209" fill="none" xmlns="http://www.w3.org/2000/svg">
<path d="M42.1257 51.0376C36.0257 51.0376 31.7257 47.1376 31.3257 41.3376C31.0257 37.9376 32.0257 34.8376 33.9257 32.0376C35.9257 29.2376 40.3257 27.1376 43.8257 29.2376C44.1257 29.4376 44.5257 29.5376 44.9257 29.6376C49.5257 30.1376 53.6257 35.2376 53.5257 40.5376C53.4257 45.6376 49.2257 50.0376 43.8257 50.8376C43.2257 50.9376 42.5257 51.0376 42.1257 51.0376Z" fill="black"/>
<path d="M90.4257 20.6376C83.5257 20.6376 79.0257 15.0376 80.6257 8.2376C81.1257 5.9376 82.2257 3.8376 83.9257 2.2376C85.8257 0.437598 88.0257 -0.462403 90.7257 0.237597C91.9257 0.537597 93.1257 0.537597 94.2257 0.837597C98.2257 1.6376 101.026 4.0376 102.026 8.0376C103.126 12.0376 101.626 15.2376 98.6257 17.8376C96.3257 19.8376 93.5257 20.6376 90.4257 20.6376Z" fill="black"/>
<path d="M23.6257 79.5376C23.5257 86.2376 17.2257 90.5376 11.1257 87.9376C2.7257 84.4376 1.9257 75.3376 5.6257 69.5376C6.5257 68.1376 7.8257 67.2376 9.4257 66.7376C10.8257 66.3376 12.3257 66.2376 13.3257 67.1376C14.9257 68.6376 16.9257 69.1376 18.6257 70.2376C21.7257 72.2376 23.6257 75.7376 23.6257 79.5376Z" fill="black"/>
<path d="M37.6257 182.538C30.3257 182.538 24.9257 176.738 25.3257 170.038C25.6257 165.338 28.6257 163.038 33.2257 164.138C33.9257 164.338 34.6257 164.238 35.3257 164.338C36.6257 164.438 38.0257 164.438 39.3257 164.638C43.9257 165.438 47.2257 169.138 47.2257 173.538C47.2257 177.638 43.9257 181.438 39.5257 182.438C38.8257 182.438 38.0257 182.438 37.6257 182.538Z" fill="black"/>
<path d="M19.3257 124.738C19.3257 128.338 18.2257 131.338 15.8257 133.738C12.5257 137.038 7.72571 137.338 4.12571 134.338C-0.374293 130.738 -1.37429 123.238 2.02571 118.738C4.52571 115.438 8.12571 114.838 11.9257 115.638C15.8257 116.438 18.1257 119.038 19.0257 122.938C19.2257 123.638 19.3257 124.338 19.3257 124.738Z" fill="black"/>
<path d="M125.726 197.938C125.726 192.738 129.626 188.938 135.126 188.938C141.526 188.938 146.126 193.138 146.126 199.038C146.126 204.238 141.626 208.438 136.126 208.538C130.226 208.538 125.726 203.938 125.726 197.938Z" fill="black"/>
<path d="M83.1257 206.738C76.8257 206.738 70.7257 200.638 70.8257 194.338C70.8257 189.938 74.2257 187.538 78.4257 188.838C79.4257 189.138 80.6257 189.138 81.7257 189.138C86.3257 188.938 89.7257 191.038 91.2257 194.938C93.5257 200.838 89.5257 206.838 83.1257 206.738Z" fill="black"/>
<path d="M202.626 178.738C202.626 183.138 198.926 187.038 194.326 187.538C190.326 187.938 186.126 185.538 184.626 181.838C183.626 179.438 183.726 177.138 185.226 175.038C185.326 174.838 185.526 174.638 185.626 174.438C189.026 169.738 194.126 168.838 199.026 172.038C201.326 173.638 202.626 176.038 202.626 178.738Z" fill="black"/>
<path d="M124.726 13.5376C124.726 11.4376 125.226 9.73761 126.326 8.13761C128.326 5.13761 131.526 4.33761 134.726 6.03761C136.026 6.73761 137.226 7.43761 138.426 8.33761C141.026 10.4376 142.126 13.1376 141.326 16.4376C140.526 19.8376 138.226 21.9376 134.726 22.6376C131.426 23.2376 128.726 22.0376 126.726 19.4376C125.326 17.6376 124.726 15.6376 124.726 13.5376Z" fill="black"/>
<path d="M222.826 126.138C228.126 126.038 232.226 130.438 232.126 135.138C232.026 137.938 231.026 140.238 228.926 142.138C224.526 146.138 217.826 144.038 216.526 138.238C216.226 136.938 216.126 135.438 216.526 134.238C217.126 132.238 218.126 130.238 219.126 128.338C220.126 126.738 221.826 126.138 222.826 126.138Z" fill="black"/>
<path d="M146.026 79.5376C146.026 79.2376 145.926 78.8376 145.926 78.4376C145.726 75.1376 147.526 72.9376 150.626 72.2376C154.926 71.3376 159.726 74.2376 160.626 78.3376C161.626 82.6376 158.826 86.8376 154.426 87.9376C149.926 89.0376 145.026 85.6376 145.826 80.5376C145.926 80.2376 145.926 79.9376 146.026 79.5376Z" fill="black"/>
<path d="M65.9257 61.8376C66.0257 58.7376 66.8257 56.3376 68.8257 54.5376C72.2257 51.4376 76.9257 52.5376 78.4257 56.2376C78.8257 57.1376 79.3257 57.9376 79.8257 58.7376C81.2257 61.4376 81.3257 64.1376 79.5257 66.6376C77.8257 69.0376 75.4257 70.1376 72.4257 69.6376C69.2257 69.1376 67.3257 67.1376 66.3257 64.2376C66.1257 63.2376 66.0257 62.3376 65.9257 61.8376Z" fill="black"/>
<path d="M104.226 149.938C106.926 151.138 110.426 151.938 112.326 155.238C113.826 157.938 113.226 161.238 110.926 163.638C108.526 166.038 105.026 166.638 102.126 165.238C97.9257 163.138 96.1257 157.338 98.4257 153.238C99.5257 151.138 101.426 149.938 104.226 149.938Z" fill="black"/>
<path d="M147.626 158.338C143.326 158.338 139.826 154.738 140.026 150.438C140.126 148.738 140.626 146.938 141.426 145.438C142.626 143.038 144.926 142.138 147.426 142.638C149.126 142.938 150.826 143.638 152.226 144.638C155.226 146.638 156.326 149.938 155.326 152.938C154.326 156.138 151.026 158.338 147.626 158.338Z" fill="black"/>
<path d="M48.2257 92.8376C48.2257 90.6376 48.8257 88.7376 50.4257 87.2376C52.9257 84.9376 56.5257 85.1376 58.6257 87.7376C59.3257 88.6376 60.0257 89.4376 60.8257 90.2376C62.0257 91.4376 62.9257 92.8376 63.3257 94.5376C64.3257 99.2376 60.4257 103.238 55.7257 102.338C51.6257 101.638 48.3257 97.4376 48.2257 92.8376Z" fill="black"/>
<path d="M174.526 41.7376C171.626 41.7376 169.126 39.9376 168.426 37.0376C168.126 35.7376 167.626 34.5376 166.726 33.4376C164.626 30.9376 165.426 27.4376 168.326 25.9376C168.926 25.6376 169.626 25.3376 170.326 25.2376C175.026 24.6376 180.626 28.9376 181.126 33.6376C181.626 37.9376 178.526 41.7376 174.526 41.7376Z" fill="black"/>
<path d="M107.626 50.8376C107.626 53.2376 107.226 55.0376 106.026 56.7376C103.526 60.3376 98.6257 60.6376 95.7257 57.2376C93.3257 54.5376 93.1257 50.7376 95.0257 47.7376C95.4257 47.0376 95.8257 46.3376 96.1257 45.6376C97.7257 41.6376 102.226 40.7376 105.126 43.9376C107.126 46.0376 107.626 48.5376 107.626 50.8376Z" fill="black"/>
<path d="M205.426 62.6376C205.426 66.4376 202.626 69.4376 198.926 69.7376C194.926 70.0376 191.426 67.1376 191.026 63.0376C190.826 61.5376 190.926 60.0376 191.026 58.5376C191.326 55.9376 193.426 54.1376 196.126 53.9376C200.626 53.5376 205.526 58.1376 205.426 62.6376Z" fill="black"/>
<path d="M226.626 92.0376C226.626 95.8376 223.626 99.2376 219.726 99.6376C216.126 100.038 212.626 97.6376 211.926 94.0376C211.426 91.6376 212.026 89.2376 213.026 87.1376C213.426 86.2376 214.526 85.4376 215.426 84.9376C220.126 82.6376 226.626 86.7376 226.626 92.0376Z" fill="black"/>
<path d="M180.026 117.238C180.026 120.538 177.926 123.338 174.726 124.038C171.726 124.738 168.726 123.138 167.326 120.138C166.926 119.338 166.426 118.438 165.826 117.738C163.726 114.838 164.726 111.038 168.026 109.538C173.226 107.238 180.026 111.638 180.026 117.238Z" fill="black"/>
<path d="M131.726 58.1376C131.726 58.4376 131.726 58.8376 131.626 59.3376C131.126 62.7376 128.726 65.1376 125.626 65.1376C122.626 65.1376 120.126 62.9376 119.526 59.7376C119.226 57.9376 118.826 56.1376 118.526 54.3376C118.126 52.2376 118.626 50.3376 120.426 49.0376C122.326 47.6376 124.326 47.7376 126.326 48.8376C129.026 50.2376 131.726 54.7376 131.726 58.1376Z" fill="black"/>
<path d="M77.6257 136.038C77.4257 138.638 76.1257 140.838 73.4257 142.038C70.7257 143.238 68.1257 142.838 65.8257 140.838C63.1257 138.538 62.2257 134.238 63.7257 130.938C65.2257 127.638 68.9257 126.338 72.2257 128.038C75.6257 129.738 77.6257 132.638 77.6257 136.038Z" fill="black"/>
<path d="M101.026 93.7376C100.926 95.2376 100.926 96.2376 100.826 97.1376C100.426 99.5376 99.0257 101.138 96.6257 101.838C94.3257 102.438 92.3257 101.738 90.8257 100.038C88.0257 97.0376 88.3257 91.8376 91.1257 89.0376C93.0257 87.2376 95.7257 86.7376 98.0257 87.8376C100.226 88.8376 101.226 90.9376 101.126 93.5376C101.026 93.8376 101.026 94.0376 101.026 93.7376Z" fill="black"/>
<path d="M126.226 130.238C126.226 132.838 124.326 135.038 121.626 135.638C119.026 136.238 116.726 135.538 114.826 133.538C113.026 131.538 112.426 129.238 113.126 126.638C113.726 124.438 115.226 123.038 117.426 122.538C119.526 122.038 121.326 122.738 122.826 124.338C123.426 125.038 124.126 125.738 124.726 126.438C125.826 127.538 126.326 128.738 126.226 130.238Z" fill="black"/>
<path d="M100.726 119.838C100.626 123.038 99.6257 124.938 97.4257 126.038C95.2257 127.138 93.0257 126.838 91.1257 125.338C88.2257 123.138 87.5257 118.638 89.4257 115.538C91.7257 111.838 96.7257 111.838 98.9257 115.638C99.8257 117.038 100.326 118.838 100.726 119.838Z" fill="black"/>
<path d="M137.026 101.038C137.026 104.038 135.326 106.538 132.726 107.238C130.126 107.938 127.326 106.738 125.926 104.138C125.026 102.538 124.626 100.738 125.026 98.8376C125.526 96.4376 126.926 94.8376 129.326 94.2376C131.626 93.6376 133.526 94.4376 135.126 96.1376C136.426 97.4376 136.926 99.2376 137.026 101.038Z" fill="black"/>
<path d="M121.526 89.3376C118.226 89.3376 115.226 86.2376 115.226 82.8376C115.226 79.8376 117.526 77.5376 120.526 77.6376C124.426 77.6376 127.426 80.2376 127.426 83.4376C127.426 86.5376 124.726 89.3376 121.526 89.3376Z" fill="black"/>
</svg>
