<svg width="193" height="200" viewBox="0 0 193 200" fill="none" xmlns="http://www.w3.org/2000/svg">
<path d="M82.4519 97.5015C82.8301 96.2119 83.2083 95.0298 83.5325 93.8478C85.0994 87.7761 86.6123 81.7045 88.6655 75.7403C92.3937 64.9403 96.7162 54.3552 101.147 43.8239C106.064 32.1642 110.872 20.5045 115.735 8.84477C116.492 6.96418 117.41 5.19104 118.329 3.36418C118.653 2.66567 119.139 2.02089 119.68 1.48358C120.598 0.570148 121.787 0.946267 121.895 2.23582C122.003 3.31045 122.003 4.38507 121.787 5.4597C120.976 10.0269 120.166 14.594 119.193 19.1075C116.6 31.4119 113.952 43.7164 111.899 56.1284C110.71 63.4358 109.684 70.7433 108.657 78.0507C107.739 84.4985 106.982 90.8925 106.172 97.3403C106.064 98.3075 106.01 99.2746 105.902 100.51C106.442 100.188 106.712 100.027 106.982 99.8119C108.063 98.8448 109.197 97.8776 110.17 96.803C120.652 85.9492 132.485 76.6537 144.966 68.1642C145.723 67.6806 146.479 67.197 147.29 66.7672C147.722 66.5522 148.208 66.4448 148.64 66.391C149.505 66.3373 150.153 66.9284 150.153 67.7881C150.153 68.4328 150.045 69.1851 149.721 69.7761C148.965 71.3343 148.208 72.8925 147.236 74.2895C143.994 78.803 140.752 83.3164 137.402 87.7224C132.377 94.3313 127.244 100.887 122.165 107.496C121.192 108.731 120.328 110.075 119.517 111.472C118.329 113.46 118.545 114.427 120.544 115.663C122.057 116.576 123.624 117.382 125.245 118.081C131.08 120.552 137.132 122.487 143.183 124.313C158.582 129.042 173.819 134.254 188.732 140.325C189.65 140.701 190.623 141.024 191.541 141.4C191.919 141.561 192.244 141.722 192.568 141.991C193.27 142.636 193.054 143.764 192.136 144.087C191.811 144.194 191.433 144.248 191.109 144.248C187.489 144.301 183.869 144.409 180.249 144.301C171.063 143.925 161.878 142.958 152.747 141.83C139.347 140.218 126.055 138.015 112.872 135.275C111.089 134.898 109.305 134.63 107.522 134.307C107.144 134.254 106.766 134.2 106.334 134.254C104.929 134.254 104.335 134.576 103.956 135.973C103.47 137.854 103.038 139.734 102.714 141.615C101.255 149.728 100.066 157.896 99.1476 166.116C98.5532 171.436 98.121 176.809 97.4726 182.128C96.9863 186.319 96.2839 190.457 95.6896 194.648C95.5275 195.561 95.2033 196.475 94.8791 197.334C94.5549 198.248 93.9606 199.054 92.8259 199.054C91.7993 199 91.205 198.248 90.9348 197.334C90.4485 195.884 89.9623 194.379 89.7461 192.875C89.2058 189.275 88.6655 185.621 88.4494 182.021C87.9091 173.209 87.4768 164.451 87.2067 155.639C87.0446 150.319 87.2067 145 87.2607 139.681C87.2607 139.197 87.2607 138.66 87.2607 137.961C86.4502 138.069 85.7478 138.069 85.0454 138.176C77.2649 139.466 69.6465 141.239 61.974 143.066C48.8984 146.075 35.8228 149.352 22.5852 151.985C16.9659 153.113 11.2926 154.081 5.61932 155.101C4.64675 155.263 3.62016 155.316 2.64759 155.424C2.37743 155.424 2.10728 155.478 1.89115 155.424C0.756494 155.37 0.162149 155.048 0.0540861 154.349C-0.108008 153.436 0.486337 153.006 1.13471 152.63C2.59356 151.824 3.99838 151.072 5.45722 150.319C19.2352 143.066 33.3374 136.457 47.3315 129.687C53.8693 126.516 60.299 123.024 66.7288 119.639C67.5392 119.209 68.2417 118.725 69.2142 118.134C68.7279 117.49 68.3497 116.845 67.8634 116.361C65.1619 113.46 62.5684 110.451 59.6507 107.764C53.8153 102.391 47.8718 97.1791 41.8744 91.9672C34.5801 85.6269 27.394 79.1791 20.8021 72.1403C19.3433 70.5821 17.9385 68.9164 16.5877 67.2507C16.2095 66.8209 15.8853 66.2836 15.5611 65.7463C15.1288 64.994 15.1829 64.2955 15.6691 63.8119C16.1014 63.3284 16.8038 63.2746 17.5602 63.6507C17.8304 63.7582 18.1006 63.9731 18.3707 64.0806C21.9908 66.1224 25.5029 68.2716 29.177 70.206C40.0913 75.9015 51.0597 81.597 61.7579 87.7761C66.8909 90.7313 72.24 93.203 77.8592 95.191C78.7237 95.5134 79.4802 95.9433 80.2906 96.3731C80.9931 96.6955 81.6414 97.0716 82.4519 97.5015Z" fill="#EA552B"/>
</svg>
