<svg width="242" height="267" viewBox="0 0 242 267" fill="none" xmlns="http://www.w3.org/2000/svg">
<path d="M0.334748 176.72C0.167374 164 0 151.363 0 138.726C0 129.437 0.418435 120.148 1.9248 110.942C4.43541 94.7908 9.87506 79.6435 18.2437 65.6678C26.6961 51.5247 37.4081 39.0553 49.8774 28.2597C61.9283 17.7988 75.8204 10.8528 90.9677 6.08266C106.617 1.14513 122.601 -0.528609 138.92 0.140887C154.319 0.810382 168.88 5.07842 183.107 10.9365C191.978 14.535 199.426 20.2257 206.121 27.0881C220.766 42.2354 229.051 60.4792 232.482 81.0662C234.072 90.6065 235.746 100.23 237.001 109.854C238.173 119.311 238.926 128.768 239.763 138.224C240.265 143.831 240.684 149.438 241.018 155.045C241.939 170.276 241.604 185.591 240.516 200.822C239.763 211.199 238.173 221.409 236.416 231.703C235.662 235.971 235.16 240.322 234.574 244.59C234.491 245.344 234.323 246.013 234.156 246.766C233.738 249.277 232.231 250.951 229.888 251.955C225.871 253.629 221.77 254.717 217.502 255.051C210.222 255.721 203.024 256.558 195.66 256.474C194.154 256.474 192.731 256.725 191.225 256.809C187.71 256.976 185.534 255.553 184.362 252.206C183.191 249.026 182.689 245.678 182.689 242.331C182.689 236.138 182.856 229.862 183.191 223.669C184.111 206.513 184.111 189.273 183.693 172.034C183.442 162.494 183.274 153.037 182.605 143.58C181.684 129.521 179.927 115.629 175.826 102.072C173.901 95.544 171.307 89.3512 167.709 83.5768C163.273 76.4634 157.415 71.0237 149.967 67.1741C142.184 63.2408 133.899 60.8976 125.279 59.977C119.254 59.3075 113.312 59.0565 107.287 59.8934C103.855 60.3955 100.424 61.2323 97.2442 62.7387C80.2558 70.94 66.5311 82.6562 57.5766 99.4773C53.6433 106.925 51.2164 114.959 49.3753 123.161C46.1115 138.057 43.0988 153.037 41.0903 168.184C38.496 187.934 37.8265 207.684 39.5839 227.518C40.086 233.293 40.5045 238.983 40.7555 244.758C40.8392 247.185 40.6718 249.528 40.5045 251.955C40.4208 252.875 40.2534 253.796 39.9187 254.717C39.2492 256.39 38.6634 257.98 38.9981 259.989C39.3329 261.914 37.9939 263.42 36.1528 264.089C31.7173 265.763 27.1983 267.27 22.2607 266.6C20.2522 266.349 18.2437 266.516 16.2353 266.516C15.3984 266.516 14.4778 266.516 13.641 266.516C10.2935 266.349 7.86657 264.843 6.86233 261.579C5.94177 258.566 5.02122 255.553 4.60278 252.457C3.68222 245.762 2.92904 239.067 2.42692 232.288C1.9248 225.51 1.59005 218.647 1.42268 211.869C1.08793 200.236 0.836869 188.604 0.585809 176.971C0.418435 176.72 0.334748 176.72 0.334748 176.72Z" fill="#F7D046"/>
<path d="M56.3227 256.328C56.4063 256.579 56.4063 256.746 56.49 256.913C57.1595 260.01 55.9879 261.935 52.9752 262.939C48.7908 264.278 44.5228 264.78 40.1711 265.198C38.1626 265.366 36.1541 265.449 34.1456 265.617C30.9655 265.868 28.8733 264.362 27.2833 261.684C24.5216 257.081 23.2663 252.06 22.9316 246.787C22.5968 240.678 22.4295 234.485 22.2621 228.292C21.9273 220.677 21.6763 213.061 21.2578 205.446C20.7557 197.412 20.0025 189.462 19.5841 181.428C18.6635 163.686 19.5004 146.112 23.7684 128.789C28.6223 109.29 36.6562 91.2133 48.8745 75.1454C65.7793 52.7173 88.3747 39.3274 116.326 35.3941C130.888 33.3856 145.449 34.2225 159.843 37.4863C165.534 38.7416 170.89 41.0848 175.744 44.4323C191.644 55.3116 195.076 60.6676 202.022 76.317C206.875 87.1963 209.637 98.7451 212.064 110.294C214.491 121.759 215.412 133.308 215.495 145.024C215.579 158.33 215.579 171.636 215.244 184.943C214.826 202.35 213.068 219.673 210.056 236.829C209.302 241.348 208.298 245.867 207.294 250.386C207.043 251.39 206.708 252.478 206.29 253.399C205.118 256.077 203.026 257.667 200.097 257.918C197 258.252 193.988 258.671 190.891 258.587C185.117 258.503 179.426 258.252 173.652 257.834C170.472 257.583 167.292 257.081 164.111 256.579C160.178 255.993 158.253 253.984 158.086 250.051C157.919 247.373 157.919 244.695 158.086 242.017C158.588 234.067 159.007 226.117 159.843 218.166C160.346 213.564 161.35 209.044 162.27 204.525C163.442 198.918 164.111 193.311 164.111 187.621C164.195 178.499 164.028 169.377 163.944 160.339C163.944 156.154 163.191 152.054 162.354 148.037C161.35 142.764 160.597 137.492 159.592 132.22C158.421 126.278 157.082 120.42 155.91 114.562C154.99 110.21 154.32 105.775 153.232 101.423C151.307 93.4728 146.788 87.28 140.093 82.5935C135.993 79.7482 131.557 78.4929 126.703 78.6603C121.431 78.8276 116.41 79.9156 111.556 82.2588C107.623 84.1836 103.689 85.941 99.7562 87.6984C95.4881 89.6232 91.6385 92.3012 88.1237 95.3976C80.9266 101.674 74.5664 108.704 68.9594 116.403C63.5197 123.851 60.507 132.304 58.5822 141.258C55.9879 153.309 55.151 165.444 55.4858 177.746C55.9042 192.474 56.9922 207.12 58.4148 221.849C59.168 229.715 59.6701 237.582 60.2559 245.448C60.5907 249.549 59.5864 253.147 56.4063 255.993C56.49 256.077 56.49 256.16 56.3227 256.328Z" fill="#EE8DB9"/>
<path d="M149.883 197.501C149.883 185.116 150.134 172.73 149.8 160.344C149.549 147.54 148.377 134.82 146.201 122.183C145.448 117.664 144.444 113.228 143.439 108.793C142.519 104.86 140.845 101.261 138.334 97.9137C136.493 95.4868 134.234 93.7294 131.388 92.6415C125.028 90.2982 118.668 89.8798 112.057 91.8046C102.684 94.6499 94.901 100.006 88.206 107.119C80.1721 115.655 75.1509 125.865 72.0544 136.996C69.6275 145.783 68.707 154.737 68.4559 163.775C68.0375 182.019 68.5396 200.179 69.7949 218.339C70.2133 224.867 70.3807 231.478 70.7991 238.006C70.9665 240.851 71.2176 243.78 71.5523 246.625C71.8034 248.634 72.2218 250.559 72.5566 252.567C72.975 255.413 71.636 257.337 68.7906 258.007C67.9538 258.174 67.1169 258.342 66.1964 258.425C64.4389 258.676 62.6815 259.011 61.0078 259.764C58.4135 260.852 55.5681 261.187 52.7228 261.103C50.1285 261.103 48.2873 259.681 47.3668 257.254C46.8647 255.831 46.5299 254.325 46.1952 252.818C43.8519 242.19 41.8435 231.562 40.5881 220.766C39.6676 213.234 39.0818 205.619 38.496 198.003C37.8265 188.045 37.4917 178.086 37.9102 168.127C38.6633 150.553 42.6803 133.815 50.798 118.166C58.0787 104.023 67.2843 91.3862 79.7536 81.3437C82.8501 78.9168 86.0302 76.5736 89.4613 74.5651C94.3988 71.636 99.4201 68.8744 104.609 66.2801C111.973 62.5979 119.923 60.5057 128.041 59.6688C140.51 58.2461 150.888 62.9326 159.34 71.9708C162.771 75.653 165.282 79.921 167.29 84.4401C170.721 92.1393 172.814 100.173 174.487 108.458C179.174 131.807 180.764 155.407 180.011 179.174C179.676 190.053 178.588 200.932 177.918 211.812C177.5 219.26 177.249 226.792 176.998 234.24C176.83 238.675 176.998 243.111 176.914 247.462C176.914 248.467 176.914 249.471 176.747 250.475C176.328 253.822 174.487 255.747 171.14 255.998C166.286 256.417 161.432 256.668 156.495 256.835C151.641 256.919 149.214 254.408 149.214 249.471C149.214 245.286 149.381 241.186 149.465 237.001C149.716 223.779 149.883 210.64 150.134 197.417C149.967 197.501 149.967 197.501 149.883 197.501Z" fill="#EA552B"/>
</svg>
